<?xml version="1.0" encoding="utf-8"?>
<!-- Generator: Adobe Illustrator 22.0.1, SVG Export Plug-In . SVG Version: 6.00 Build 0)  -->
<svg version="1.1" id="Layer_1" xmlns="http://www.w3.org/2000/svg" xmlns:xlink="http://www.w3.org/1999/xlink" x="0px" y="0px"
	 viewBox="0 0 32 32" style="enable-background:new 0 0 32 32;" xml:space="preserve">
<title>angular</title>
<g>
	<path d="M3.3,3.6v24.7h25.4V3.6H3.3z M4.4,4.7h23.3v22.6H4.4V4.7z"/>
</g>
<path d="M10,9.4c0-0.1,0-0.1,0.1-0.1c0.7,0,1.7-0.1,2.7-0.1c2.9,0,4.2,1.6,4.2,3.7c0,2.7-1.9,3.8-4.3,3.8c-0.4,0-0.5,0-0.8,0v4.1
	c0,0.1,0,0.1-0.1,0.1h-1.6c-0.1,0-0.1,0-0.1-0.1V9.4z M11.8,15c0.2,0,0.4,0,0.9,0c1.2,0,2.4-0.4,2.4-2.1c0-1.3-0.8-2-2.2-2
	c-0.4,0-0.8,0-1,0C11.8,11,11.8,15,11.8,15z M18.6,14.1c0-0.1,0-0.4-0.1-1c0-0.1,0-0.1,0.1-0.1c0.6-0.3,2.2-0.7,3.9-0.7
	c0.1,0,0.1,0,0.1,0.1v1.5c0,0.1,0,0.1-0.1,0.1c-0.7,0-1.6,0.1-2,0.2v6.7c0,0.1,0,0.1-0.1,0.1h-1.7c-0.1,0-0.1,0-0.1-0.1V14.1z"/>
</svg>
