<?xml version="1.0" encoding="utf-8"?>
<!-- Generator: Adobe Illustrator 22.0.1, SVG Export Plug-In . SVG Version: 6.00 Build 0)  -->
<svg version="1.1" id="Layer_1" xmlns="http://www.w3.org/2000/svg" xmlns:xlink="http://www.w3.org/1999/xlink" x="0px" y="0px"
	 viewBox="0 0 32 32" style="enable-background:new 0 0 32 32;" xml:space="preserve">
<title>angular</title>
<path d="M22.9,27.1c0.6,0,1-0.1,1.5-0.3c1.8-0.7,3-2.5,2.7-4.5c-0.1-0.9-0.5-1.7-1.2-2.4c-0.6-0.6-1-1.2-1.5-1.9
	c-0.9-1.5-1.4-3-1.5-4.7c0-1,0.1-2,0.3-3c0.2-0.7,0.2-1.4,0.1-2.2C22.8,6,20.7,4.5,18.5,5c-1.6,0.3-2.7,1.3-3.3,2.8
	c-0.2,0.5-0.3,1-0.5,1.5c-0.5,1.1-1.1,2.2-2,3.1c-1.3,1.3-2.8,2.2-4.5,2.7c-0.5,0.1-0.9,0.3-1.3,0.5c-1.4,0.8-2.2,2.6-1.9,4.2
	c0.2,1.3,0.9,2.3,2,3c0.9,0.5,1.8,0.7,2.9,0.5c0.5-0.1,1-0.2,1.4-0.3c0.9-0.2,1.8-0.2,2.7-0.1c1,0.1,2,0.4,2.9,0.8
	C18,24.3,19,25,20,25.9C20.8,26.7,21.8,27.1,22.9,27.1z M17.2,21.2c-2.3,0.1-4.2-1.8-4.2-4.1c0-2.3,1.8-4,4-4.1
	c2.3-0.1,4.1,1.7,4.2,3.9C21.3,19.3,19.4,21.1,17.2,21.2z"/>
</svg>
