<!-- Generated by IcoMoon.io -->
<svg version="1.1" xmlns="http://www.w3.org/2000/svg" width="32" height="32" viewBox="0 0 32 32">
<title>adobe_dimension</title>
<path d="M23.9 4h-15.8c-2.4 0-4.4 2-4.4 4.4v15.3c0 2.3 2 4.3 4.4 4.3h15.9c2.4 0 4.4-1.9 4.4-4.4v-15.2c-0.1-2.4-2.1-4.4-4.5-4.4zM27.3 23.2c0 2.1-1.7 3.7-3.7 3.7h-15.1c-2 0-3.7-1.7-3.7-3.7v-14.4c-0.1-2.1 1.6-3.8 3.7-3.8h15.1c2.1 0 3.7 1.7 3.7 3.7v14.5z"></path>
<path d="M10.8 9.4c-1.2 0-2.3 0-2.7 0.1 0-0.1-0.1 0-0.1 0.1v11.1c0 0.1 0 0.1 0.1 0.1 0.5 0 1.7 0 2.6 0 2.3 0 5.3-1.4 5.3-5.9 0-3.3-1.7-5.5-5.2-5.5zM10.8 19.2c-0.3 0-0.6 0-0.9 0v-8.2c0.3 0 0.6 0 0.9 0 1.8 0 3.3 1.1 3.3 3.9 0 2.9-1.4 4.3-3.3 4.3z"></path>
<path d="M20.9 12.2c-1.2 0-2.3 0.3-3.2 0.7-0.1 0-0.1 0.1-0.1 0.1 0.1 0.6 0.1 1 0.1 1.1v0 6.6c0 0.1 0 0.1 0.1 0.1h1.6c0.1 0 0.1-0.1 0.1-0.1v-6.6c0.3-0.1 0.7-0.2 1.1-0.2 1 0 1.4 0.6 1.4 1.5v5.2c0 0.1 0 0.1 0.1 0.1h1.6c0.1 0 0.1 0 0.1-0.1v-5.3c0.2-2.5-1.4-3.1-2.9-3.1z"></path>
</svg>
