<!-- Generated by IcoMoon.io -->
<svg version="1.1" xmlns="http://www.w3.org/2000/svg" width="32" height="32" viewBox="0 0 32 32">
<title>adobe_acrobat</title>
<path d="M9.8 23.3c1.4 0 3-2.1 4.2-4.3 0.7-0.2 1.4-0.4 2.1-0.6 0.8-0.2 1.5-0.4 2.2-0.5 1.7 1.6 3.3 1.8 4 1.8 1 0 1.2-0.4 1.3-0.6 0.1-0.4 0-0.8-0.2-1-0.4-0.5-1.4-0.7-2.6-0.7-0.7 0-1.5 0.1-2.4 0.2-0.5-0.5-1-1.1-1.5-1.7-0.3-0.5-0.7-1-0.9-1.5 0.5-1.4 0.8-2.8 0.8-3.8 0-0.8-0.2-2.1-1.4-2.1-0.3 0-0.6 0.2-0.8 0.5-0.5 0.8-0.3 2.7 0.6 4.7-0.3 0.9-0.7 1.9-1.1 2.9-0.4 0.9-0.8 1.8-1.3 2.6-2.5 1-4.1 2.1-4.3 3-0.1 0.3 0 0.6 0.3 0.8 0.2 0.1 0.5 0.3 1 0.3zM22 17.7c0.6 0.1 0.9 0.5 0.8 1s-0.7 0.8-1.4 0.6c-1.1-0.3-2-0.8-2.7-1.5 1.5-0.2 2.8-0.2 3.3-0.1zM14.8 9.1c0.1-0.2 0.3-0.3 0.5-0.3 0.4 0 0.7 0.4 0.7 1.1s-0.2 2-0.7 3.4c-0.8-2-0.8-3.6-0.5-4.2zM15.1 16.8c0.3-0.7 0.5-1.4 0.8-2.1 0.3 0.4 0.5 0.9 0.8 1.3 0.4 0.6 0.9 1.2 1.4 1.6v0 0c-0.7 0.1-1.3 0.3-2 0.5-0.6 0.2-1.2 0.3-1.8 0.5 0.3-0.6 0.6-1.2 0.8-1.8zM8.9 22.2c0.1-0.7 1.6-1.8 3.7-2.7-1.2 2.1-2.4 3.4-3.2 3.4-0.1 0-0.3 0-0.4-0.1-0.1-0.2-0.2-0.4-0.1-0.6z"></path>
<path d="M5.2 5.5v21.1h21.6v-21.1h-21.6zM25.9 6.4v19.3h-19.8v-19.3h19.8z"></path>
</svg>
