<?xml version="1.0" encoding="utf-8"?>
<!-- Generator: Adobe Illustrator 22.0.1, SVG Export Plug-In . SVG Version: 6.00 Build 0)  -->
<svg version="1.1" id="Layer_1" xmlns="http://www.w3.org/2000/svg" xmlns:xlink="http://www.w3.org/1999/xlink" x="0px" y="0px"
	 viewBox="0 0 32 32" style="enable-background:new 0 0 32 32;" xml:space="preserve">
<title>angular</title>
<g>
	<path d="M4.2,4.5v23h23.6v-23H4.2z M5.2,5.5h21.7v21.1H5.2V5.5z"/>
</g>
<path d="M10.9,17.5l-0.8,2.9c0,0.1,0,0.1-0.1,0.1H8.5c-0.1,0-0.1,0-0.1-0.1l2.8-9.8c0-0.2,0.1-0.3,0.1-0.8c0-0.1,0-0.1,0.1-0.1h2.1
	c0.1,0,0.1,0,0.1,0.1l3.1,10.6c0,0.1,0,0.1-0.1,0.1H15c-0.1,0-0.1,0-0.1-0.1l-0.8-3L10.9,17.5L10.9,17.5z M13.6,15.9
	c-0.3-1.1-0.9-3.5-1.2-4.6h0c-0.2,1.2-0.7,3.1-1.2,4.6L13.6,15.9z M18.9,16.9c0,1.3,0.7,2.2,2.1,2.2c0.6,0,1.1-0.1,1.6-0.3
	c0.1,0,0.1,0,0.1,0.1v1.2c0,0.1,0,0.1-0.1,0.2c-0.5,0.3-1.2,0.4-2,0.4c-2.6,0-3.6-1.9-3.6-4.1c0-2.3,1.2-4.2,3.3-4.2
	c2.1,0,2.9,1.8,2.9,3.3c0,0.5,0,0.9-0.1,1c0,0.1,0,0.1-0.1,0.1c-0.2,0-0.8,0.1-1.6,0.1L18.9,16.9L18.9,16.9z M20.9,15.6
	c0.5,0,0.7,0,0.7,0c0-0.1,0-0.1,0-0.2c0-0.5-0.3-1.5-1.3-1.5c-0.9,0-1.3,0.8-1.4,1.7C18.9,15.6,20.9,15.6,20.9,15.6z"/>
</svg>
