<!-- Generated by IcoMoon.io -->
<svg version="1.1" xmlns="http://www.w3.org/2000/svg" width="32" height="32" viewBox="0 0 32 32">
<title>adobe_air</title>
<path d="M22.9 27.1c0.6 0 1-0.1 1.5-0.3 1.8-0.7 3-2.5 2.7-4.5-0.1-0.9-0.5-1.7-1.2-2.4-0.6-0.6-1-1.2-1.5-1.9-0.9-1.5-1.4-3-1.5-4.7 0-1 0.1-2 0.3-3 0.2-0.7 0.2-1.4 0.1-2.2-0.5-2.1-2.6-3.6-4.8-3.1-1.6 0.3-2.7 1.3-3.3 2.8-0.2 0.5-0.3 1-0.5 1.5-0.5 1.1-1.1 2.2-2 3.1-1.3 1.3-2.8 2.2-4.5 2.7-0.5 0.1-0.9 0.3-1.3 0.5-1.4 0.8-2.2 2.6-1.9 4.2 0.2 1.3 0.9 2.3 2 3 0.9 0.5 1.8 0.7 2.9 0.5 0.5-0.1 1-0.2 1.4-0.3 0.9-0.2 1.8-0.2 2.7-0.1 1 0.1 2 0.4 2.9 0.8 1.1 0.6 2.1 1.3 3.1 2.2 0.8 0.8 1.8 1.2 2.9 1.2zM17.2 21.2c-2.3 0.1-4.2-1.8-4.2-4.1s1.8-4 4-4.1c2.3-0.1 4.1 1.7 4.2 3.9 0.1 2.4-1.8 4.2-4 4.3z"></path>
</svg>
