<?xml version="1.0" encoding="utf-8"?>
<!-- Generator: Adobe Illustrator 22.0.1, SVG Export Plug-In . SVG Version: 6.00 Build 0)  -->
<svg version="1.1" id="Layer_1" xmlns="http://www.w3.org/2000/svg" xmlns:xlink="http://www.w3.org/1999/xlink" x="0px" y="0px"
	 viewBox="0 0 32 32" style="enable-background:new 0 0 32 32;" xml:space="preserve">
<title>angular</title>
<g>
	<path d="M23.9,4H8.1C5.7,4,3.7,6,3.7,8.4v15.3C3.7,26,5.7,28,8.1,28h15.9c2.4,0,4.4-1.9,4.4-4.4V8.4C28.3,6,26.3,4,23.9,4z
		 M27.3,23.2c0,2.1-1.7,3.7-3.7,3.7H8.5c-2,0-3.7-1.7-3.7-3.7V8.8C4.7,6.7,6.4,5,8.5,5h15.1c2.1,0,3.7,1.7,3.7,3.7V23.2z"/>
	<path d="M10.8,9.4c-1.2,0-2.3,0-2.7,0.1C8.1,9.4,8,9.5,8,9.6v11.1c0,0.1,0,0.1,0.1,0.1c0.5,0,1.7,0,2.6,0c2.3,0,5.3-1.4,5.3-5.9
		C16,11.6,14.3,9.4,10.8,9.4z M10.8,19.2c-0.3,0-0.6,0-0.9,0V11c0.3,0,0.6,0,0.9,0c1.8,0,3.3,1.1,3.3,3.9
		C14.1,17.8,12.7,19.2,10.8,19.2z"/>
	<path d="M20.9,12.2c-1.2,0-2.3,0.3-3.2,0.7c-0.1,0-0.1,0.1-0.1,0.1c0.1,0.6,0.1,1,0.1,1.1h0v6.6c0,0.1,0,0.1,0.1,0.1h1.6
		c0.1,0,0.1-0.1,0.1-0.1v-6.6c0.3-0.1,0.7-0.2,1.1-0.2c1,0,1.4,0.6,1.4,1.5v5.2c0,0.1,0,0.1,0.1,0.1h1.6c0.1,0,0.1,0,0.1-0.1v-5.3
		C24,12.8,22.4,12.2,20.9,12.2z"/>
</g>
</svg>
