<!-- Generated by IcoMoon.io -->
<svg version="1.1" xmlns="http://www.w3.org/2000/svg" width="32" height="32" viewBox="0 0 32 32">
<title>adobe_aftereffects</title>
<path d="M4.2 4.5v23h23.6v-23h-23.6zM5.2 5.5h21.7v21.1h-21.7v-21.1z"></path>
<path d="M10.9 17.5l-0.8 2.9c0 0.1 0 0.1-0.1 0.1h-1.5c-0.1 0-0.1 0-0.1-0.1l2.8-9.8c0-0.2 0.1-0.3 0.1-0.8 0-0.1 0-0.1 0.1-0.1h2.1c0.1 0 0.1 0 0.1 0.1l3.1 10.6c0 0.1 0 0.1-0.1 0.1h-1.6c-0.1 0-0.1 0-0.1-0.1l-0.8-3-3.2 0.1zM13.6 15.9c-0.3-1.1-0.9-3.5-1.2-4.6v0c-0.2 1.2-0.7 3.1-1.2 4.6h2.4zM18.9 16.9c0 1.3 0.7 2.2 2.1 2.2 0.6 0 1.1-0.1 1.6-0.3 0.1 0 0.1 0 0.1 0.1v1.2c0 0.1 0 0.1-0.1 0.2-0.5 0.3-1.2 0.4-2 0.4-2.6 0-3.6-1.9-3.6-4.1 0-2.3 1.2-4.2 3.3-4.2s2.9 1.8 2.9 3.3c0 0.5 0 0.9-0.1 1 0 0.1 0 0.1-0.1 0.1-0.2 0-0.8 0.1-1.6 0.1h-2.5zM20.9 15.6c0.5 0 0.7 0 0.7 0 0-0.1 0-0.1 0-0.2 0-0.5-0.3-1.5-1.3-1.5-0.9 0-1.3 0.8-1.4 1.7 0 0 2 0 2 0z"></path>
</svg>
