<!-- Generated by IcoMoon.io -->
<svg version="1.1" xmlns="http://www.w3.org/2000/svg" width="32" height="32" viewBox="0 0 32 32">
<title>adobe_premiere</title>
<path d="M3.3 3.6v24.7h25.4v-24.7h-25.4zM4.4 4.7h23.3v22.6h-23.3v-22.6z"></path>
<path d="M10 9.4c0-0.1 0-0.1 0.1-0.1 0.7 0 1.7-0.1 2.7-0.1 2.9 0 4.2 1.6 4.2 3.7 0 2.7-1.9 3.8-4.3 3.8-0.4 0-0.5 0-0.8 0v4.1c0 0.1 0 0.1-0.1 0.1h-1.6c-0.1 0-0.1 0-0.1-0.1v-11.4zM11.8 15c0.2 0 0.4 0 0.9 0 1.2 0 2.4-0.4 2.4-2.1 0-1.3-0.8-2-2.2-2-0.4 0-0.8 0-1 0-0.1 0.1-0.1 4.1-0.1 4.1zM18.6 14.1c0-0.1 0-0.4-0.1-1 0-0.1 0-0.1 0.1-0.1 0.6-0.3 2.2-0.7 3.9-0.7 0.1 0 0.1 0 0.1 0.1v1.5c0 0.1 0 0.1-0.1 0.1-0.7 0-1.6 0.1-2 0.2v6.7c0 0.1 0 0.1-0.1 0.1h-1.7c-0.1 0-0.1 0-0.1-0.1v-6.8z"></path>
</svg>
