<?xml version="1.0" encoding="utf-8"?>
<!-- Generator: Adobe Illustrator 22.0.1, SVG Export Plug-In . SVG Version: 6.00 Build 0)  -->
<svg version="1.1" id="Layer_1" xmlns="http://www.w3.org/2000/svg" xmlns:xlink="http://www.w3.org/1999/xlink" x="0px" y="0px"
	 viewBox="0 0 32 32" style="enable-background:new 0 0 32 32;" xml:space="preserve">
<title>angular</title>
<g>
	<rect x="6.1" y="6.4" width="19.8" height="0"/>
	<path d="M9.8,23.3c1.4,0,3-2.1,4.2-4.3c0.7-0.2,1.4-0.4,2.1-0.6c0.8-0.2,1.5-0.4,2.2-0.5c1.7,1.6,3.3,1.8,4,1.8
		c1,0,1.2-0.4,1.3-0.6c0.1-0.4,0-0.8-0.2-1c-0.4-0.5-1.4-0.7-2.6-0.7c-0.7,0-1.5,0.1-2.4,0.2c-0.5-0.5-1-1.1-1.5-1.7
		c-0.3-0.5-0.7-1-0.9-1.5c0.5-1.4,0.8-2.8,0.8-3.8c0-0.8-0.2-2.1-1.4-2.1c-0.3,0-0.6,0.2-0.8,0.5c-0.5,0.8-0.3,2.7,0.6,4.7
		c-0.3,0.9-0.7,1.9-1.1,2.9c-0.4,0.9-0.8,1.8-1.3,2.6c-2.5,1-4.1,2.1-4.3,3c-0.1,0.3,0,0.6,0.3,0.8C9,23.1,9.3,23.3,9.8,23.3z
		 M22,17.7c0.6,0.1,0.9,0.5,0.8,1c-0.1,0.5-0.7,0.8-1.4,0.6c-1.1-0.3-2-0.8-2.7-1.5C20.2,17.6,21.5,17.6,22,17.7z M14.8,9.1
		c0.1-0.2,0.3-0.3,0.5-0.3c0.4,0,0.7,0.4,0.7,1.1c0,0.7-0.2,2-0.7,3.4C14.5,11.3,14.5,9.7,14.8,9.1z M15.1,16.8
		c0.3-0.7,0.5-1.4,0.8-2.1c0.3,0.4,0.5,0.9,0.8,1.3c0.4,0.6,0.9,1.2,1.4,1.6l0,0l0,0c-0.7,0.1-1.3,0.3-2,0.5
		c-0.6,0.2-1.2,0.3-1.8,0.5C14.6,18,14.9,17.4,15.1,16.8z M8.9,22.2c0.1-0.7,1.6-1.8,3.7-2.7c-1.2,2.1-2.4,3.4-3.2,3.4
		c-0.1,0-0.3,0-0.4-0.1C8.9,22.6,8.8,22.4,8.9,22.2z"/>
	<path d="M9.8,23.3c1.4,0,3-2.1,4.2-4.3c0.7-0.2,1.4-0.4,2.1-0.6c0.8-0.2,1.5-0.4,2.2-0.5c1.7,1.6,3.3,1.8,4,1.8
		c1,0,1.2-0.4,1.3-0.6c0.1-0.4,0-0.8-0.2-1c-0.4-0.5-1.4-0.7-2.6-0.7c-0.7,0-1.5,0.1-2.4,0.2c-0.5-0.5-1-1.1-1.5-1.7
		c-0.3-0.5-0.7-1-0.9-1.5c0.5-1.4,0.8-2.8,0.8-3.8c0-0.8-0.2-2.1-1.4-2.1c-0.3,0-0.6,0.2-0.8,0.5c-0.5,0.8-0.3,2.7,0.6,4.7
		c-0.3,0.9-0.7,1.9-1.1,2.9c-0.4,0.9-0.8,1.8-1.3,2.6c-2.5,1-4.1,2.1-4.3,3c-0.1,0.3,0,0.6,0.3,0.8C9,23.1,9.3,23.3,9.8,23.3z
		 M22,17.7c0.6,0.1,0.9,0.5,0.8,1c-0.1,0.5-0.7,0.8-1.4,0.6c-1.1-0.3-2-0.8-2.7-1.5C20.2,17.6,21.5,17.6,22,17.7z M14.8,9.1
		c0.1-0.2,0.3-0.3,0.5-0.3c0.4,0,0.7,0.4,0.7,1.1c0,0.7-0.2,2-0.7,3.4C14.5,11.3,14.5,9.7,14.8,9.1z M15.1,16.8
		c0.3-0.7,0.5-1.4,0.8-2.1c0.3,0.4,0.5,0.9,0.8,1.3c0.4,0.6,0.9,1.2,1.4,1.6l0,0l0,0c-0.7,0.1-1.3,0.3-2,0.5
		c-0.6,0.2-1.2,0.3-1.8,0.5C14.6,18,14.9,17.4,15.1,16.8z M8.9,22.2c0.1-0.7,1.6-1.8,3.7-2.7c-1.2,2.1-2.4,3.4-3.2,3.4
		c-0.1,0-0.3,0-0.4-0.1C8.9,22.6,8.8,22.4,8.9,22.2z"/>
	<path d="M5.2,5.5v21.1h21.6V5.5H5.2z M25.9,6.4v19.3H6.1V6.4v0L25.9,6.4L25.9,6.4z"/>
</g>
</svg>
