<!-- Generated by IcoMoon.io -->
<svg version="1.1" xmlns="http://www.w3.org/2000/svg" width="32" height="32" viewBox="0 0 32 32">
<title>adobe_stock</title>
<path d="M2.7 3v26h26.6v-26h-26.6zM3.8 4.1h24.4v23.7h-24.4v-23.7z"></path>
<path d="M9.5 20.6c-0.1-0.1-0.1-0.1-0.1-0.2v-1.8c0-0.1 0.1-0.1 0.1-0.1 0.8 0.6 1.8 0.8 2.7 0.8 1.3 0 1.9-0.7 1.9-1.5 0-0.7-0.3-1.3-1.6-2l-0.7-0.3c-1.9-1.1-2.4-2.1-2.4-3.5 0-1.9 1.3-3.4 3.7-3.4 1.1 0 1.9 0.2 2.3 0.4 0.1 0 0.1 0.1 0.1 0.2v1.8c0 0.1-0.1 0.1-0.1 0.1-0.6-0.4-1.4-0.5-2.3-0.5-1.4 0-1.9 0.8-1.9 1.4 0 0.7 0.3 1.2 1.6 1.9l0.6 0.3c2.1 1.2 2.6 2.3 2.6 3.6 0 2-1.5 3.4-3.9 3.4-1 0-2-0.2-2.6-0.6zM22.1 20.8c0 0.1 0 0.2-0.1 0.2-0.4 0.1-0.8 0.2-1.4 0.2-1.4 0-2.2-0.7-2.2-2.4v-5h-1.1c-0.1 0-0.1 0-0.1-0.1v-1.5c0-0.1 0-0.1 0.1-0.1h1.1c0-0.6 0.1-1.8 0.2-2.1 0-0.1 0.1-0.2 0.1-0.2l1.6-0.2c0.1 0 0.1 0 0.1 0.1 0 0.5-0.1 1.4-0.1 2.4h1.6c0.1 0 0.1 0 0.1 0.1v1.5c0 0.1-0.1 0.1-0.1 0.1h-1.6v4.6c0 0.7 0.3 1.1 0.9 1.1 0.2 0 0.4 0 0.6-0.1 0.1 0 0.1 0 0.1 0.1v1.3z"></path>
</svg>
