<!-- Generated by IcoMoon.io -->
<svg version="1.1" xmlns="http://www.w3.org/2000/svg" width="32" height="32" viewBox="0 0 32 32">
<title>adobe_bridge</title>
<path d="M5.2 5.4c0 7 0 14.1 0 21.1 7.2 0 14.5 0 21.7 0 0-7 0-14.1 0-21.1-7.3 0-14.5 0-21.7 0zM25.9 25.7c-6.6 0-13.2 0-19.9 0 0-6.4 0-12.9 0-19.3 6.6 0 13.2 0 19.9 0 0 6.4 0 12.8 0 19.3z"></path>
<path d="M18.3 13.3c0.6-0.2 1.2-0.4 1.9-0.5 0.4-0.1 0.9-0.1 1.3-0.1 0.2 0 0.2 0 0.2 0.2 0 0.4 0 0.8 0 1.2 0 0.2 0 0.2-0.2 0.2-0.5 0-1 0-1.4 0.1 0 0-0.1 0-0.1 0s-0.1 0.1-0.1 0.1c0 0 0 0.1 0 0.1 0 1.8 0 3.6 0 5.4 0 0.2 0 0.2-0.2 0.2-0.4 0-0.8 0-1.3 0-0.1 0-0.2 0-0.2-0.2 0-1 0-2 0-3 0 0 0 0 0 0 0-1 0-2 0-2.9 0-0.2 0-0.4 0-0.5-0.1-0.2 0-0.2 0.1-0.3z"></path>
<path d="M10.9 20.2c0.5 0 1 0 1.5 0 0.4 0 0.8 0 1.2 0 0.6 0 1.1-0.1 1.6-0.4 0.7-0.3 1.3-0.8 1.5-1.6 0.2-0.5 0.2-1 0.1-1.5-0.1-0.8-0.5-1.4-1.2-1.8 0 0-0.1 0-0.1-0.1 0.1-0.1 0.2-0.2 0.3-0.3 0.5-0.6 0.7-1.2 0.6-2-0.1-1-0.6-1.7-1.6-2.1-0.5-0.2-1-0.3-1.5-0.3-0.8 0-1.7 0-2.5 0-0.1 0-0.1 0.1-0.1 0.2 0 3.2 0 6.4 0 9.6 0 0.2 0.1 0.3 0.2 0.3zM12.4 11.6c0.5 0 0.9-0.1 1.4 0 0.4 0.1 0.7 0.3 1 0.6 0.3 0.6 0.2 1.5-0.3 2 0 0-0.1 0-0.1 0-0.6-0.1-1.2-0.1-1.8-0.1 0 0-0.1 0-0.2 0 0-0.1 0-0.1 0-0.1 0-0.8 0-1.5 0-2.3-0.1 0-0.1-0.1 0-0.1zM12.3 18.7c0-1 0-1.9 0-2.9 0 0 0-0.1 0-0.1s0 0 0.1 0c0.5 0 0.9 0 1.4 0 0.4 0 0.7 0.1 1 0.4 0.4 0.3 0.6 0.8 0.5 1.3-0.1 0.7-0.5 1.1-1.1 1.3s-1.2 0.2-1.8 0.1c-0.1 0-0.1 0-0.1-0.1 0 0 0 0 0 0z"></path>
<path d="M18.2 14.1c0 1 0 2 0 2.9 0 0 0 0 0 0 0 1 0 2 0 3 0 0.1 0 0.2 0.2 0.2 0.4 0 0.8 0 1.3 0 0.2 0 0.2 0 0.2-0.2 0-1.8 0-3.6 0-5.4 0 0 0-0.1 0-0.1s0-0.1 0.1-0.1c0 0 0.1 0 0.1 0 0.5-0.1 0.9-0.1 1.4-0.1 0.2 0 0.2 0 0.2-0.2 0-0.4 0-0.8 0-1.2 0-0.2 0-0.2-0.2-0.2-0.4 0-0.9 0.1-1.3 0.1-0.6 0.1-1.3 0.3-1.9 0.5-0.1 0-0.1 0.1-0.1 0.2 0 0.2 0 0.4 0 0.6z"></path>
</svg>
