<!-- Generated by IcoMoon.io -->
<svg version="1.1" xmlns="http://www.w3.org/2000/svg" width="32" height="32" viewBox="0 0 32 32">
<title>adobe_captivate</title>
<path d="M5.9 6.1h20.2v19.7h-20.2v-19.7zM4.9 26.8h22.2v-21.6h-22.2v21.6z"></path>
<path d="M15.4 20.1v-1.2c0-0.1 0-0.1-0.1-0.1-0.4 0.2-0.8 0.2-1.4 0.2-1.3 0-3-0.9-3-3.7 0-2.3 1.2-3.7 3-3.7 0.6 0 1.2 0.1 1.6 0.3 0 0 0.1 0 0.1-0.1v-1.3c0-0.1 0-0.1-0.1-0.2-0.3-0.1-0.8-0.2-1.6-0.2-2.8 0-4.7 2.1-4.7 5.3 0 3.7 2.1 5.2 4.5 5.2 0.7 0 1.3-0.1 1.7-0.2 0-0.1 0-0.2 0-0.3v0zM18.4 14.3c0.3-0.1 0.5-0.1 0.8-0.1 1.2 0 1.8 0.8 1.8 2.3 0 1.9-1.1 2.6-2.1 2.6-0.2 0-0.4 0-0.5-0.1v-4.7zM19.4 12.8c-1.1 0-2 0.3-2.6 0.5 0 0-0.1 0.1-0.1 0.1 0 0.2 0.1 0.6 0.1 0.7v8.6c0 0.1 0.1 0.1 0.1 0.1l1.5-0.1c0.1 0 0.1-0.1 0.1-0.1v-2c0.1 0 0.3 0 0.4 0 2 0 3.9-1.4 3.9-4.1-0.1-2.2-1.2-3.7-3.4-3.7v0z"></path>
</svg>
