<!-- Generated by IcoMoon.io -->
<svg version="1.1" xmlns="http://www.w3.org/2000/svg" width="32" height="32" viewBox="0 0 32 32">
<title>adobe_audition</title>
<path d="M5.2 5.5v21.1h21.6v-21.1h-21.6zM6.1 6.4h19.8v19.3h-19.8v-19.3z"></path>
<path d="M11.1 17.6l-0.7 2.6c0 0.1 0 0.1-0.1 0.1h-1.3c-0.1 0-0.1 0-0.1-0.1l2.5-8.7c0-0.2 0.1-0.3 0.1-0.7 0-0.1 0-0.1 0.1-0.1h1.8c0.1 0 0.1 0 0.1 0.1l2.8 9.4c0 0.1 0 0.1-0.1 0.1h-1.4c-0.1 0-0.1-0.1-0.1-0.1l-0.7-2.6h-2.9zM13.6 16.2c-0.2-1-0.8-3.1-1-4.1v0c-0.2 1-0.7 2.8-1 4.1h2zM22.6 18.9c0 0.1 0 0.4 0 0.9 0 0.1 0 0.1-0.1 0.1-0.8 0.3-1.6 0.6-2.7 0.6-1.3 0-2.6-0.5-2.6-2.5v-4.6c0-0.1 0-0.1 0.1-0.1h1.4c0.1 0 0.1 0 0.1 0.1v4.4c0 0.9 0.4 1.3 1.3 1.3 0.4 0 0.7-0.1 0.9-0.2v-5.6c0-0.1 0-0.1 0.1-0.1h1.3c0.1 0 0.1 0 0.1 0.1l0.1 5.6z"></path>
</svg>
