<!-- Generated by IcoMoon.io -->
<svg version="1.1" xmlns="http://www.w3.org/2000/svg" width="32" height="32" viewBox="0 0 32 32">
<title>adobe</title>
<path d="M29.3 27.5c0 0 0 0 0 0-3.3-7.8-6.6-15.6-9.8-23.5 0.1 0 0.1 0 0.2 0 3.2 0 6.3 0 9.5 0 0.1 0 0.2 0 0.2 0.2-0.1 7.7-0.1 15.5-0.1 23.3 0-0.1 0 0 0 0z"></path>
<path d="M4.4 23.3c0.6-1.5 1.3-3 1.9-4.5 0.5-1.2 1-2.3 1.5-3.5 0.6-1.5 1.2-2.9 1.8-4.3 0.6-1.3 1.1-2.7 1.7-4 0.4-0.9 0.7-1.8 1.1-2.7 0.1-0.3 0.1-0.3-0.2-0.3-3.1 0-6.2 0-9.3 0-0.1 0-0.2 0-0.2 0 0 7.8 0 15.7 0 23.5 0.1-0.5 0.4-0.9 0.5-1.3 0.4-1 0.8-2 1.2-2.9z"></path>
<path d="M2.8 27.4c3.2-7.7 6.4-15.5 9.7-23.2 0-0.2 0-0.2-0.1-0.2-3.2 0-6.4 0-9.5 0-0.1 0-0.1 0-0.2 0 0.1 0.1 0.2 0 0.2 0 3.1 0 6.2 0 9.3 0 0.3 0 0.3 0 0.2 0.3-0.4 0.9-0.8 1.8-1.2 2.7-0.6 1.3-1.1 2.7-1.7 4-0.6 1.4-1.2 2.8-1.8 4.2-0.5 1.2-1 2.3-1.5 3.5-0.6 1.5-1.3 3-1.9 4.5-0.4 1-0.8 1.9-1.2 2.9 0 0.5-0.3 0.9-0.3 1.3-0.1 0.1-0.1 0 0 0z"></path>
<path d="M18.4 27.5c1.3 0 2.6 0 3.9 0 0 0 0 0 0 0-0.2-0.5-0.4-1-0.6-1.5-0.7-1.6-1.4-3.2-2-4.8-0.6-1.4-1.2-2.8-1.8-4.3-0.6-1.3-1.1-2.7-1.7-4 0 0 0-0.1-0.1-0.1-0.1 0.2-0.2 0.4-0.3 0.7-0.7 1.6-1.4 3.2-2 4.8-0.6 1.4-1.2 2.9-1.8 4.3-0.1 0.2-0.1 0.2 0.1 0.2 1.4 0 2.7 0 4.1 0 0.2 0 0.2 0 0.3 0.2 0.6 1.4 1.1 2.9 1.7 4.3 0 0.1 0.1 0.1 0 0.2 0 0 0 0 0.1 0-0.1 0 0 0 0.1 0z"></path>
<path d="M18.1 27.4c-0.6-1.4-1.1-2.9-1.7-4.3-0.1-0.2-0.1-0.2-0.3-0.2-1.4 0-2.7 0-4.1 0-0.2 0-0.2 0-0.1-0.2 0.6-1.5 1.2-2.9 1.8-4.3 0.7-1.6 1.4-3.2 2-4.8 0.1-0.2 0.2-0.4 0.3-0.7 0 0 0.1 0.1 0.1 0.1 0.6 1.3 1.1 2.7 1.7 4 0.6 1.4 1.2 2.8 1.8 4.3 0.7 1.6 1.4 3.2 2 4.8 0.2 0.5 0.4 1 0.6 1.5 0 0 0 0 0 0s0 0 0 0 0 0 0-0.1c-2.1-4.9-4.1-9.8-6.2-14.7 0 0 0-0.1-0.1-0.1 0 0 0 0 0 0.1-1.4 3.3-2.8 6.6-4.2 9.9 0 0.1 0 0.1 0.1 0.1 1.4 0 2.9 0 4.3 0 0.1 0 0.1 0 0.2 0.1 0.5 1.2 1 2.4 1.4 3.6 0.1 0.3 0.3 0.7 0.4 1 0.1 0 0-0.1 0-0.1z"></path>
<path d="M22.1 27.5c-1.2 0-2.5 0-3.7 0 0 0-0.1 0-0.1 0 1.4 0 2.7 0 4.1 0 0 0 0 0 0 0-0.2 0-0.3 0-0.3 0z"></path>
<path d="M22.2 27.5c0 0 0.1 0 0 0 0.1 0 0 0 0 0s0 0 0 0z"></path>
<path d="M18.3 27.5c1.2 0 2.5 0 3.7 0 0 0 0.1 0 0.1 0s0 0 0 0c-1.2 0-2.5 0-3.8 0 0 0-0.1 0-0.1 0s0.1 0 0.1 0z"></path>
<path d="M22.2 27.5c0 0 0 0 0 0s0 0 0 0 0 0 0 0z"></path>
<path d="M29.1 4c-3.2 0-6.3 0-9.5 0 0 0-0.1 0-0.2 0 3.3 7.8 6.5 15.7 9.8 23.5 0 0 0 0 0 0s0-0.1 0-0.1c0-7.7 0-15.5 0-23.2 0.1-0.2 0.1-0.2-0.1-0.2z"></path>
</svg>
