<?xml version="1.0" encoding="utf-8"?>
<!-- Generator: Adobe Illustrator 22.0.1, SVG Export Plug-In . SVG Version: 6.00 Build 0)  -->
<svg version="1.1" id="Layer_1" xmlns="http://www.w3.org/2000/svg" xmlns:xlink="http://www.w3.org/1999/xlink" x="0px" y="0px"
	 viewBox="0 0 32 32" style="enable-background:new 0 0 32 32;" xml:space="preserve">
<title>adobe_stock</title>
<g id="_x35_GCmIn.tif">
	<g>
		<path d="M29.3,27.5C29.3,27.5,29.3,27.5,29.3,27.5C26,19.7,22.7,11.9,19.5,4c0.1,0,0.1,0,0.2,0c3.2,0,6.3,0,9.5,0
			c0.1,0,0.2,0,0.2,0.2C29.3,11.9,29.3,19.7,29.3,27.5C29.3,27.4,29.3,27.5,29.3,27.5z"/>
		<path d="M4.4,23.3c0.6-1.5,1.3-3,1.9-4.5c0.5-1.2,1-2.3,1.5-3.5C8.4,13.8,9,12.4,9.6,11c0.6-1.3,1.1-2.7,1.7-4
			c0.4-0.9,0.7-1.8,1.1-2.7C12.5,4,12.5,4,12.2,4C9.1,4,6,4,2.9,4c-0.1,0-0.2,0-0.2,0c0,7.8,0,15.7,0,23.5c0.1-0.5,0.4-0.9,0.5-1.3
			C3.6,25.2,4,24.2,4.4,23.3z"/>
		<path d="M2.8,27.4C6,19.7,9.2,11.9,12.5,4.2C12.5,4,12.5,4,12.4,4C9.2,4,6,4,2.9,4C2.8,4,2.8,4,2.7,4c0.1,0.1,0.2,0,0.2,0
			C6,4,9.1,4,12.2,4c0.3,0,0.3,0,0.2,0.3C12,5.2,11.6,6.1,11.2,7c-0.6,1.3-1.1,2.7-1.7,4c-0.6,1.4-1.2,2.8-1.8,4.2
			c-0.5,1.2-1,2.3-1.5,3.5c-0.6,1.5-1.3,3-1.9,4.5c-0.4,1-0.8,1.9-1.2,2.9C3.1,26.6,2.8,27,2.8,27.4C2.7,27.5,2.7,27.4,2.8,27.4z"/>
		<path d="M18.4,27.5c1.3,0,2.6,0,3.9,0c0,0,0,0,0,0c-0.2-0.5-0.4-1-0.6-1.5c-0.7-1.6-1.4-3.2-2-4.8c-0.6-1.4-1.2-2.8-1.8-4.3
			c-0.6-1.3-1.1-2.7-1.7-4c0,0,0-0.1-0.1-0.1c-0.1,0.2-0.2,0.4-0.3,0.7c-0.7,1.6-1.4,3.2-2,4.8c-0.6,1.4-1.2,2.9-1.8,4.3
			c-0.1,0.2-0.1,0.2,0.1,0.2c1.4,0,2.7,0,4.1,0c0.2,0,0.2,0,0.3,0.2c0.6,1.4,1.1,2.9,1.7,4.3c0,0.1,0.1,0.1,0,0.2c0,0,0,0,0.1,0
			C18.2,27.5,18.3,27.5,18.4,27.5z"/>
		<path d="M18.1,27.4c-0.6-1.4-1.1-2.9-1.7-4.3c-0.1-0.2-0.1-0.2-0.3-0.2c-1.4,0-2.7,0-4.1,0c-0.2,0-0.2,0-0.1-0.2
			c0.6-1.5,1.2-2.9,1.8-4.3c0.7-1.6,1.4-3.2,2-4.8c0.1-0.2,0.2-0.4,0.3-0.7c0,0,0.1,0.1,0.1,0.1c0.6,1.3,1.1,2.7,1.7,4
			c0.6,1.4,1.2,2.8,1.8,4.3c0.7,1.6,1.4,3.2,2,4.8c0.2,0.5,0.4,1,0.6,1.5c0,0,0,0,0,0c0,0,0,0,0,0c0,0,0,0,0-0.1
			c-2.1-4.9-4.1-9.8-6.2-14.7c0,0,0-0.1-0.1-0.1c0,0,0,0,0,0.1c-1.4,3.3-2.8,6.6-4.2,9.9c0,0.1,0,0.1,0.1,0.1c1.4,0,2.9,0,4.3,0
			c0.1,0,0.1,0,0.2,0.1c0.5,1.2,1,2.4,1.4,3.6c0.1,0.3,0.3,0.7,0.4,1C18.2,27.5,18.1,27.4,18.1,27.4z"/>
		<path d="M22.1,27.5c-1.2,0-2.5,0-3.7,0c0,0-0.1,0-0.1,0c1.4,0,2.7,0,4.1,0c0,0,0,0,0,0C22.2,27.5,22.1,27.5,22.1,27.5z"/>
		<path d="M22.2,27.5C22.2,27.5,22.3,27.5,22.2,27.5C22.3,27.5,22.2,27.5,22.2,27.5C22.2,27.5,22.2,27.5,22.2,27.5z"/>
		<path d="M18.3,27.5c1.2,0,2.5,0,3.7,0c0,0,0.1,0,0.1,0c0,0,0,0,0,0C20.9,27.5,19.6,27.5,18.3,27.5c0,0-0.1,0-0.1,0
			C18.2,27.5,18.3,27.5,18.3,27.5z"/>
		<path d="M22.2,27.5C22.2,27.5,22.2,27.5,22.2,27.5C22.2,27.5,22.2,27.5,22.2,27.5C22.2,27.5,22.2,27.5,22.2,27.5z"/>
		<path d="M29.1,4c-3.2,0-6.3,0-9.5,0c0,0-0.1,0-0.2,0c3.3,7.8,6.5,15.7,9.8,23.5c0,0,0,0,0,0c0,0,0-0.1,0-0.1c0-7.7,0-15.5,0-23.2
			C29.3,4,29.3,4,29.1,4z"/>
	</g>
</g>
</svg>
