<?xml version="1.0" encoding="utf-8"?>
<!-- Generator: Adobe Illustrator 22.0.1, SVG Export Plug-In . SVG Version: 6.00 Build 0)  -->
<svg version="1.1" id="Layer_1" xmlns="http://www.w3.org/2000/svg" xmlns:xlink="http://www.w3.org/1999/xlink" x="0px" y="0px"
	 viewBox="0 0 32 32" style="enable-background:new 0 0 32 32;" xml:space="preserve">
<title>angular</title>
<g>
	<path d="M4.9,5.2v21.7h22.2V5.2H4.9z M5.8,6.1h20.4v19.8H5.8V6.1z"/>
</g>
<g>
	<path d="M15.5,20c0,0.1,0,0.1-0.1,0.2c-0.4,0.2-1,0.2-1.7,0.2c-2.4,0-4.5-1.6-4.5-5.2c0-3.1,1.9-5.3,4.7-5.3c0.7,0,1.3,0.1,1.6,0.2
		c0.1,0,0.1,0.1,0.1,0.2v1.3c0,0.1-0.1,0.1-0.1,0.1c-0.4-0.2-0.9-0.3-1.6-0.3c-1.8,0-3,1.4-3,3.7c0,2.9,1.6,3.7,3,3.7
		c0.6,0,1,0,1.5-0.2c0.1,0,0.1,0,0.1,0.1L15.5,20L15.5,20z"/>
	<path d="M18.6,20.2c0,0.1,0,0.1-0.1,0.1h-1.5c-0.1,0-0.1,0-0.1-0.1v-10c0-0.1,0-0.1,0.1-0.1h1.5c0.1,0,0.1,0,0.1,0.1v3
		c0.5-0.4,1.1-0.6,1.8-0.6c1,0,2.2,0.5,2.2,2.7v4.8c0,0.1,0,0.1-0.1,0.1h-1.5c-0.1,0-0.1,0-0.1-0.1v-4.6c0-0.9-0.4-1.4-1.1-1.4
		c-0.5,0-0.9,0.2-1.2,0.5L18.6,20.2L18.6,20.2z"/>
</g>
</svg>
