<!-- Generated by IcoMoon.io -->
<svg version="1.1" xmlns="http://www.w3.org/2000/svg" width="32" height="32" viewBox="0 0 32 32">
<title>adobe_character_animator</title>
<path d="M4.9 5.2v21.7h22.2v-21.7h-22.2zM5.8 6.1h20.4v19.8h-20.4v-19.8z"></path>
<path d="M15.5 20c0 0.1 0 0.1-0.1 0.2-0.4 0.2-1 0.2-1.7 0.2-2.4 0-4.5-1.6-4.5-5.2 0-3.1 1.9-5.3 4.7-5.3 0.7 0 1.3 0.1 1.6 0.2 0.1 0 0.1 0.1 0.1 0.2v1.3c0 0.1-0.1 0.1-0.1 0.1-0.4-0.2-0.9-0.3-1.6-0.3-1.8 0-3 1.4-3 3.7 0 2.9 1.6 3.7 3 3.7 0.6 0 1 0 1.5-0.2 0.1 0 0.1 0 0.1 0.1v1.3z"></path>
<path d="M18.6 20.2c0 0.1 0 0.1-0.1 0.1h-1.5c-0.1 0-0.1 0-0.1-0.1v-10c0-0.1 0-0.1 0.1-0.1h1.5c0.1 0 0.1 0 0.1 0.1v3c0.5-0.4 1.1-0.6 1.8-0.6 1 0 2.2 0.5 2.2 2.7v4.8c0 0.1 0 0.1-0.1 0.1h-1.5c-0.1 0-0.1 0-0.1-0.1v-4.6c0-0.9-0.4-1.4-1.1-1.4-0.5 0-0.9 0.2-1.2 0.5v5.6z"></path>
</svg>
