<?xml version="1.0" encoding="utf-8"?>
<!-- Generator: Adobe Illustrator 22.0.1, SVG Export Plug-In . SVG Version: 6.00 Build 0)  -->
<svg version="1.1" id="Warstwa_1" xmlns="http://www.w3.org/2000/svg" xmlns:xlink="http://www.w3.org/1999/xlink" x="0px" y="0px"
	 viewBox="0 0 32 32" style="enable-background:new 0 0 32 32;" xml:space="preserve">
<title>angular</title>
<g>
	<path d="M23.3,5H8.7c-2.2,0-4,1.8-4,4v14c0,2.2,1.8,4,4,4h14.5c2.2,0,4-1.8,4-4V9C27.2,6.8,25.5,5,23.3,5z M26.3,22.6
		c0,1.9-1.5,3.4-3.4,3.4H9.1c-1.9,0-3.4-1.5-3.4-3.4V9.4C5.7,7.5,7.2,6,9.1,6h13.8c1.9,0,3.4,1.5,3.4,3.4V22.6z"/>
	<path d="M13.6,15.3l2.5-4.8c0-0.1,0-0.1-0.1-0.1h-1.5c-0.1,0-0.1,0-0.2,0.1c-0.6,1.2-1.2,2.5-1.7,3.7h0c-0.6-1.2-1.2-2.5-1.8-3.8
		c0-0.1-0.1-0.1-0.2-0.1H9.1c-0.1,0-0.1,0.1-0.1,0.1l2.5,4.9L9,20.3c0,0.1,0,0.1,0.1,0.1h1.5c0.1,0,0.1,0,0.2-0.1
		c0.6-1.2,1.2-2.6,1.8-3.8h0c0.6,1.3,1.2,2.6,1.8,3.8c0,0.1,0.1,0.1,0.2,0.1h1.6c0.1,0,0.1-0.1,0.1-0.1L13.6,15.3z"/>
	<path d="M22.6,10.5C22.6,10.4,22.6,10.4,22.6,10.5l-1.6-0.1c0,0-0.1,0-0.1,0.1V13c-0.2,0-0.3,0-0.5,0c-2.3,0-3.8,1.7-3.8,3.9
		c0,2.5,1.5,3.8,3.5,3.8c0.8,0,1.6-0.2,2.4-0.5c0.1,0,0.1,0,0.1-0.1c0-0.3,0-0.7,0-0.9V10.5z M21,19.1c-0.2,0.1-0.4,0.1-0.6,0.1
		c-1.1,0-1.9-0.7-1.9-2.4c0-1.5,0.8-2.4,2-2.4c0.2,0,0.4,0,0.5,0.1V19.1z"/>
</g>
</svg>
