<?xml version="1.0" encoding="utf-8"?>
<!-- Generator: Adobe Illustrator 22.0.1, SVG Export Plug-In . SVG Version: 6.00 Build 0)  -->
<svg version="1.1" id="Layer_1" xmlns="http://www.w3.org/2000/svg" xmlns:xlink="http://www.w3.org/1999/xlink" x="0px" y="0px"
	 viewBox="0 0 32 32" style="enable-background:new 0 0 32 32;" xml:space="preserve">
<title>angular</title>
<g>
	<path d="M5.2,5.5v21.1h21.6V5.5H5.2z M25.9,25.6H6.1V6.4h19.8V25.6z"/>
	<path d="M21,20.3c1.1,0,2-0.3,2.8-0.6c0.1,0,0.1,0,0.1-0.1c0-0.5,0-0.8,0-0.9h0V13c0-0.1,0-0.1-0.1-0.1h-1.4c-0.1,0-0.1,0-0.1,0.1
		v5.7c-0.2,0.1-0.6,0.2-0.9,0.2c-0.9,0-1.3-0.5-1.3-1.4V13c0-0.1,0-0.1-0.1-0.1h-1.4c-0.1,0-0.1,0-0.1,0.1v4.8
		C18.4,19.8,19.7,20.3,21,20.3z"/>
	<path d="M8.3,20.2h1.3c0.1,0,0.1,0,0.1-0.1c0.1-3.2,0.2-7.3,0.2-8.5h0c0.3,1.7,1.4,6.3,1.9,8.5c0,0.1,0.1,0.1,0.1,0.1h1.3
		c0.1,0,0.1,0,0.1-0.1c0.6-2.1,1.9-7.2,2.1-8.5h0c0,0.8,0,5.3,0.1,8.5c0,0.1,0,0.1,0.1,0.1h1.4c0.1,0,0.1,0,0.1-0.1L17,10.3
		c0-0.1,0-0.1-0.1-0.1h-2c-0.1,0-0.1,0-0.1,0.1c-0.4,1.5-1.6,6-1.9,7.4h0c-0.3-1.5-1.3-6-1.7-7.4c0-0.1,0-0.1-0.1-0.1H8.9
		c-0.1,0-0.1,0-0.1,0.1l-0.5,9.7C8.2,20.2,8.3,20.2,8.3,20.2z"/>
</g>
</svg>
