<?xml version="1.0" encoding="utf-8"?>
<!-- Generator: Adobe Illustrator 22.0.1, SVG Export Plug-In . SVG Version: 6.00 Build 0)  -->
<svg version="1.1" id="Layer_1" xmlns="http://www.w3.org/2000/svg" xmlns:xlink="http://www.w3.org/1999/xlink" x="0px" y="0px"
	 viewBox="0 0 32 32" style="enable-background:new 0 0 32 32;" xml:space="preserve">
<title>angular</title>
<g>
	<path d="M5.2,5.4c0,7,0,14.1,0,21.1c7.2,0,14.5,0,21.7,0c0-7,0-14.1,0-21.1C19.6,5.4,12.4,5.4,5.2,5.4z M25.9,25.7
		c-6.6,0-13.2,0-19.9,0c0-6.4,0-12.9,0-19.3c6.6,0,13.2,0,19.9,0C25.9,12.8,25.9,19.2,25.9,25.7z"/>
	<path d="M18.3,13.3c0.6-0.2,1.2-0.4,1.9-0.5c0.4-0.1,0.9-0.1,1.3-0.1c0.2,0,0.2,0,0.2,0.2c0,0.4,0,0.8,0,1.2c0,0.2,0,0.2-0.2,0.2
		c-0.5,0-1,0-1.4,0.1c0,0-0.1,0-0.1,0c0,0-0.1,0.1-0.1,0.1c0,0,0,0.1,0,0.1c0,1.8,0,3.6,0,5.4c0,0.2,0,0.2-0.2,0.2
		c-0.4,0-0.8,0-1.3,0c-0.1,0-0.2,0-0.2-0.2c0-1,0-2,0-3c0,0,0,0,0,0c0-1,0-2,0-2.9c0-0.2,0-0.4,0-0.5C18.1,13.4,18.2,13.4,18.3,13.3
		z"/>
	<path d="M10.9,20.2c0.5,0,1,0,1.5,0c0.4,0,0.8,0,1.2,0c0.6,0,1.1-0.1,1.6-0.4c0.7-0.3,1.3-0.8,1.5-1.6c0.2-0.5,0.2-1,0.1-1.5
		c-0.1-0.8-0.5-1.4-1.2-1.8c0,0-0.1,0-0.1-0.1c0.1-0.1,0.2-0.2,0.3-0.3c0.5-0.6,0.7-1.2,0.6-2c-0.1-1-0.6-1.7-1.6-2.1
		c-0.5-0.2-1-0.3-1.5-0.3c-0.8,0-1.7,0-2.5,0c-0.1,0-0.1,0.1-0.1,0.2c0,3.2,0,6.4,0,9.6C10.7,20.1,10.8,20.2,10.9,20.2z M12.4,11.6
		c0.5,0,0.9-0.1,1.4,0c0.4,0.1,0.7,0.3,1,0.6c0.3,0.6,0.2,1.5-0.3,2c0,0-0.1,0-0.1,0c-0.6-0.1-1.2-0.1-1.8-0.1c0,0-0.1,0-0.2,0
		c0-0.1,0-0.1,0-0.1c0-0.8,0-1.5,0-2.3C12.3,11.7,12.3,11.6,12.4,11.6z M12.3,18.7c0-1,0-1.9,0-2.9c0,0,0-0.1,0-0.1c0,0,0,0,0.1,0
		c0.5,0,0.9,0,1.4,0c0.4,0,0.7,0.1,1,0.4c0.4,0.3,0.6,0.8,0.5,1.3c-0.1,0.7-0.5,1.1-1.1,1.3c-0.6,0.2-1.2,0.2-1.8,0.1
		C12.3,18.8,12.3,18.8,12.3,18.7C12.3,18.7,12.3,18.7,12.3,18.7z"/>
	<path d="M18.2,14.1c0,1,0,2,0,2.9c0,0,0,0,0,0c0,1,0,2,0,3c0,0.1,0,0.2,0.2,0.2c0.4,0,0.8,0,1.3,0c0.2,0,0.2,0,0.2-0.2
		c0-1.8,0-3.6,0-5.4c0,0,0-0.1,0-0.1c0,0,0-0.1,0.1-0.1c0,0,0.1,0,0.1,0c0.5-0.1,0.9-0.1,1.4-0.1c0.2,0,0.2,0,0.2-0.2
		c0-0.4,0-0.8,0-1.2c0-0.2,0-0.2-0.2-0.2c-0.4,0-0.9,0.1-1.3,0.1c-0.6,0.1-1.3,0.3-1.9,0.5c-0.1,0-0.1,0.1-0.1,0.2
		C18.2,13.7,18.2,13.9,18.2,14.1z"/>
</g>
</svg>
