<!-- Generated by IcoMoon.io -->
<svg version="1.1" xmlns="http://www.w3.org/2000/svg" width="32" height="32" viewBox="0 0 32 32">
<title>adobe_muse</title>
<path d="M5.2 5.5v21.1h21.6v-21.1h-21.6zM25.9 25.6h-19.8v-19.2h19.8v19.2z"></path>
<path d="M21 20.3c1.1 0 2-0.3 2.8-0.6 0.1 0 0.1 0 0.1-0.1 0-0.5 0-0.8 0-0.9v0-5.7c0-0.1 0-0.1-0.1-0.1h-1.4c-0.1 0-0.1 0-0.1 0.1v5.7c-0.2 0.1-0.6 0.2-0.9 0.2-0.9 0-1.3-0.5-1.3-1.4v-4.5c0-0.1 0-0.1-0.1-0.1h-1.4c-0.1 0-0.1 0-0.1 0.1v4.8c-0.1 2 1.2 2.5 2.5 2.5z"></path>
<path d="M8.3 20.2h1.3c0.1 0 0.1 0 0.1-0.1 0.1-3.2 0.2-7.3 0.2-8.5v0c0.3 1.7 1.4 6.3 1.9 8.5 0 0.1 0.1 0.1 0.1 0.1h1.3c0.1 0 0.1 0 0.1-0.1 0.6-2.1 1.9-7.2 2.1-8.5v0c0 0.8 0 5.3 0.1 8.5 0 0.1 0 0.1 0.1 0.1h1.4c0.1 0 0.1 0 0.1-0.1l-0.1-9.8c0-0.1 0-0.1-0.1-0.1h-2c-0.1 0-0.1 0-0.1 0.1-0.4 1.5-1.6 6-1.9 7.4v0c-0.3-1.5-1.3-6-1.7-7.4 0-0.1 0-0.1-0.1-0.1h-2.2c-0.1 0-0.1 0-0.1 0.1l-0.5 9.7c-0.1 0.2 0 0.2 0 0.2z"></path>
</svg>
