<?xml version="1.0" encoding="utf-8"?>
<!-- Generator: Adobe Illustrator 22.0.1, SVG Export Plug-In . SVG Version: 6.00 Build 0)  -->
<svg version="1.1" id="Layer_1" xmlns="http://www.w3.org/2000/svg" xmlns:xlink="http://www.w3.org/1999/xlink" x="0px" y="0px"
	 viewBox="0 0 32 32" style="enable-background:new 0 0 32 32;" xml:space="preserve">
<title>angular</title>
<path d="M5.2,5.5v21.1h21.6V5.5H5.2z M6.1,6.4h19.8v19.3H6.1V6.4z"/>
<path d="M11.1,17.6l-0.7,2.6c0,0.1,0,0.1-0.1,0.1H9c-0.1,0-0.1,0-0.1-0.1l2.5-8.7c0-0.2,0.1-0.3,0.1-0.7c0-0.1,0-0.1,0.1-0.1h1.8
	c0.1,0,0.1,0,0.1,0.1l2.8,9.4c0,0.1,0,0.1-0.1,0.1h-1.4c-0.1,0-0.1-0.1-0.1-0.1L14,17.6H11.1z M13.6,16.2c-0.2-1-0.8-3.1-1-4.1h0
	c-0.2,1-0.7,2.8-1,4.1H13.6z M22.6,18.9c0,0.1,0,0.4,0,0.9c0,0.1,0,0.1-0.1,0.1c-0.8,0.3-1.6,0.6-2.7,0.6c-1.3,0-2.6-0.5-2.6-2.5
	v-4.6c0-0.1,0-0.1,0.1-0.1h1.4c0.1,0,0.1,0,0.1,0.1v4.4c0,0.9,0.4,1.3,1.3,1.3c0.4,0,0.7-0.1,0.9-0.2v-5.6c0-0.1,0-0.1,0.1-0.1h1.3
	c0.1,0,0.1,0,0.1,0.1L22.6,18.9L22.6,18.9z"/>
</svg>
