<!-- Generated by IcoMoon.io -->
<svg version="1.1" xmlns="http://www.w3.org/2000/svg" width="32" height="32" viewBox="0 0 32 32">
<title>adobe_lightroom</title>
<path d="M2.7 7.8v16.4c0 2.6 2 4.7 4.6 4.7h17.2c2.6 0 4.7-2.1 4.7-4.7v-16.4c0-2.6-2.1-4.7-4.7-4.7h-17.2c-2.6-0.1-4.6 2.1-4.6 4.7v0zM24.2 4.2c2.1 0 4 1.7 4 3.9v15.8c0 2.1-1.7 4.1-3.8 4.1h-16.7c-2.1 0-3.8-1.8-3.8-3.9v-15.7c0-2.1 1.7-4.1 3.8-4.1 0-0.1 16.5-0.1 16.5-0.1z"></path>
<path d="M10.1 21.1c-0.1 0-0.2-0.1-0.2-0.2v-11.8c0-0.1 0-0.1 0.1-0.1h1.8c0.1 0 0.1 0 0.1 0.1v10.3h4.6c0.1 0 0.1 0 0.1 0.1l-0.3 1.5c0 0.1-0.1 0.1-0.2 0.1h-6zM18.3 13.9c0-0.1 0-0.5-0.1-1.1 0-0.1 0-0.1 0.1-0.1 0.7-0.3 2.3-0.8 4.1-0.8 0.1 0 0.1 0 0.1 0.1v1.6c0 0.1 0 0.1-0.1 0.1-0.7 0-1.7 0.1-2.1 0.2v7c0 0.1 0 0.1-0.1 0.1h-1.7c-0.1 0-0.1 0-0.1-0.1l-0.1-7z"></path>
</svg>
