<?xml version="1.0" encoding="utf-8"?>
<!-- Generator: Adobe Illustrator 22.0.1, SVG Export Plug-In . SVG Version: 6.00 Build 0)  -->
<svg version="1.1" id="Layer_1" xmlns="http://www.w3.org/2000/svg" xmlns:xlink="http://www.w3.org/1999/xlink" x="0px" y="0px"
	 viewBox="0 0 32 32" style="enable-background:new 0 0 32 32;" xml:space="preserve">
<title>angular</title>
<g>
	<g>
		<g>
			<path d="M4.9,9.1v13.7c0,2.2,1.7,4,3.9,4h14.4c2.2,0,4-1.8,4-4V9.1c0-2.2-1.8-4-4-4H8.8C6.6,5.2,4.9,6.9,4.9,9.1L4.9,9.1z
				 M22.9,6.1c1.8,0,3.3,1.5,3.3,3.2v13.2c0,1.8-1.4,3.4-3.2,3.4H9c-1.8,0-3.2-1.5-3.2-3.3l0-13.1c0-1.8,1.4-3.4,3.2-3.4L22.9,6.1
				L22.9,6.1z"/>
		</g>
		<g>
			<path d="M16,22.2c-1.6,0-3.2-0.7-4.7-1.9c-1.2-1-2.3-2.4-3.3-4.2C8,16,8,16,8,15.9c1-1.8,2.1-3.2,3.3-4.2c1.5-1.3,3-1.9,4.7-1.9
				c1.6,0,3.2,0.7,4.7,1.9c1.2,1,2.3,2.4,3.3,4.2c0,0.1,0,0.1,0,0.2c-1,1.8-2.1,3.2-3.3,4.2C19.2,21.6,17.6,22.2,16,22.2z M8.4,16
				c1.6,2.7,4.2,5.9,7.6,5.9s6-3.2,7.6-5.9c-1.6-2.7-4.2-5.9-7.6-5.9C12.5,10.1,10,13.3,8.4,16z"/>
			<g>
				<path d="M13.4,19.1c0.7,0.6,1.6,1,2.6,1c0.2,0,0.4,0,0.5,0l-1.8-3.2L13.4,19.1z"/>
				<path d="M14.6,12.2c-1.1,0.4-1.9,1.2-2.4,2.3h3.7L14.6,12.2z"/>
				<path d="M12,15.3c0,0.2-0.1,0.5-0.1,0.7c0,0.9,0.3,1.8,0.8,2.5l1.8-3.2C14.6,15.3,12,15.3,12,15.3z"/>
				<path d="M18.6,12.9c-0.7-0.6-1.6-1-2.6-1c-0.2,0-0.4,0-0.5,0l1.8,3.2L18.6,12.9z"/>
				<path d="M20,16.7c0-0.2,0.1-0.5,0.1-0.7c0-0.9-0.3-1.8-0.8-2.5l-1.8,3.2C17.4,16.7,20,16.7,20,16.7z"/>
				<path d="M17.4,19.8c1.1-0.4,1.9-1.2,2.4-2.3h-3.7L17.4,19.8z"/>
			</g>
		</g>
	</g>
</g>
</svg>
