<!-- Generated by IcoMoon.io -->
<svg version="1.1" xmlns="http://www.w3.org/2000/svg" width="32" height="32" viewBox="0 0 32 32">
<title>appstore</title>
<path d="M17.3 18.5h-11.5c-0.8 0-1.5 0.7-1.5 1.5s0.7 1.5 1.5 1.5h13.2c0 0 0.7-0.7-0.1-1.8-0.7-1.2-1.6-1.2-1.6-1.2z"></path>
<path d="M16.7 6.2l-7.1 12.4c-0.4 0.7-0.2 1.6 0.5 2v0c0.7 0.4 1.6 0.2 2-0.5l7.1-12.3c0.4-0.7 0.2-1.6-0.5-2v0c-0.7-0.5-1.6-0.3-2 0.4z"></path>
<path d="M25.4 23.9l-7.3-12.7c0 0-1.1 0.8-1.1 2.5s0.7 2.7 0.7 2.7l5.2 9c0.4 0.7 1.3 0.9 2 0.5v0c0.7-0.4 0.9-1.3 0.5-2z"></path>
<path d="M26.2 18.5h-4.1c-0.8 0-1.5 0.7-1.5 1.5v0c0 0.8 0.7 1.5 1.5 1.5h4.1c0.8 0 1.5-0.7 1.5-1.5v0c-0.1-0.9-0.7-1.5-1.5-1.5z"></path>
<path d="M16.8 8.9l-1.5-2.7c-0.4-0.7-1.3-0.9-2-0.5v0c-0.7 0.4-0.9 1.3-0.5 2l1.5 2.7c0.4 0.7 1.3 0.9 2 0.5v0c0.7-0.4 0.9-1.3 0.5-2z"></path>
<path d="M6.5 23.8l0.9-1.6c0 0 0.2-0.4 1.1-0.4s1.8 0.8 1.9 1.1l-1.4 2.4c-0.4 0.7-1.3 0.9-2 0.5v0c-0.6-0.4-0.9-1.3-0.5-2z"></path>
</svg>
