<?xml version="1.0" encoding="utf-8"?>
<!-- Generator: Adobe Illustrator 22.0.0, SVG Export Plug-In . SVG Version: 6.00 Build 0)  -->
<!DOCTYPE svg PUBLIC "-//W3C//DTD SVG 1.1//EN" "http://www.w3.org/Graphics/SVG/1.1/DTD/svg11.dtd">
<svg version="1.1" id="Layer_1" xmlns="http://www.w3.org/2000/svg" xmlns:xlink="http://www.w3.org/1999/xlink" x="0px" y="0px"
	 viewBox="0 0 32 32" style="enable-background:new 0 0 32 32;" xml:space="preserve">
<title>appstore</title>
<path d="M17.3,18.5H5.8c-0.8,0-1.5,0.7-1.5,1.5s0.7,1.5,1.5,1.5h13.2c0,0,0.7-0.7-0.1-1.8C18.2,18.5,17.3,18.5,17.3,18.5z"/>
<path d="M16.7,6.2L9.6,18.6c-0.4,0.7-0.2,1.6,0.5,2l0,0c0.7,0.4,1.6,0.2,2-0.5l7.1-12.3c0.4-0.7,0.2-1.6-0.5-2l0,0
	C18,5.3,17.1,5.5,16.7,6.2z"/>
<path d="M25.4,23.9l-7.3-12.7c0,0-1.1,0.8-1.1,2.5s0.7,2.7,0.7,2.7l5.2,9c0.4,0.7,1.3,0.9,2,0.5l0,0C25.6,25.5,25.8,24.6,25.4,23.9z
	"/>
<path d="M26.2,18.5h-4.1c-0.8,0-1.5,0.7-1.5,1.5l0,0c0,0.8,0.7,1.5,1.5,1.5h4.1c0.8,0,1.5-0.7,1.5-1.5l0,0
	C27.6,19.1,27,18.5,26.2,18.5z"/>
<path d="M16.8,8.9l-1.5-2.7c-0.4-0.7-1.3-0.9-2-0.5l0,0c-0.7,0.4-0.9,1.3-0.5,2l1.5,2.7c0.4,0.7,1.3,0.9,2,0.5l0,0
	C17,10.5,17.2,9.6,16.8,8.9z"/>
<path d="M6.5,23.8l0.9-1.6c0,0,0.2-0.4,1.1-0.4c0.9,0,1.8,0.8,1.9,1.1l-1.4,2.4c-0.4,0.7-1.3,0.9-2,0.5l0,0
	C6.4,25.4,6.1,24.5,6.5,23.8z"/>
</svg>
