<!-- Generated by IcoMoon.io -->
<svg version="1.1" xmlns="http://www.w3.org/2000/svg" width="32" height="32" viewBox="0 0 32 32">
<title>arduino</title>
<path d="M4.7 19.4l-1.3 4.3h1l0.2-0.8h1.3l0.2 0.8h1.1l-1.2-4.3h-1.3zM4.9 22.1l0.4-1.3 0.4 1.3h-0.8z"></path>
<path d="M9.8 21.8c-0.1-0.1-0.1-0.1 0 0-0.1-0.1 0-0.1 0 0 0.2-0.1 0.3-0.2 0.4-0.3s0.2-0.2 0.2-0.3c0-0.1 0.1-0.3 0.1-0.4 0-0.2 0-0.4-0.1-0.6s-0.2-0.3-0.3-0.4c-0.1-0.1-0.3-0.2-0.5-0.2s-0.4-0.1-0.7-0.1h-1.5v4.3h1v-1.8c0.1 0 0.2 0 0.3 0.1s0.1 0.1 0.2 0.2l0.6 1.4h1.2l-0.7-1.5c-0.1-0.2-0.2-0.3-0.2-0.4v0zM9.3 20.9c0 0.1-0.1 0.1-0.1 0.1-0.1 0-0.1 0.1-0.2 0.1s-0.2 0-0.3 0h-0.2v-0.9h0.2c0.2 0 0.4 0 0.5 0.1s0.1 0.2 0.1 0.3 0 0.3 0 0.3v0z"></path>
<path d="M13.8 19.9c-0.2-0.2-0.4-0.3-0.6-0.4-0.3-0.1-0.5-0.1-0.9-0.1h-1.4v4.3h1.2c0.4 0 0.7-0.1 1-0.2s0.5-0.3 0.7-0.4c0.2-0.2 0.3-0.4 0.4-0.7s0.1-0.6 0.1-0.9c0-0.4 0-0.7-0.1-0.9-0.1-0.3-0.2-0.5-0.4-0.7v0zM12.9 22.5c-0.2 0.2-0.4 0.3-0.8 0.3h-0.2v-2.5h0.3c0.2 0 0.4 0 0.5 0.1s0.2 0.1 0.3 0.2c0.1 0.1 0.1 0.2 0.2 0.4 0 0.2 0.1 0.4 0.1 0.6-0.1 0.4-0.2 0.7-0.4 0.9v0z"></path>
<path d="M16.8 22.2c0 0.1 0 0.3 0 0.4s-0.1 0.2-0.1 0.2c0 0.1-0.1 0.1-0.2 0.1s-0.2 0-0.3 0c-0.1 0-0.2 0-0.3 0s-0.1-0.1-0.2-0.1c0-0.1-0.1-0.1-0.1-0.2s0-0.2 0-0.3v-2.8h-1v2.8c0 0.2 0 0.4 0.1 0.6s0.2 0.4 0.3 0.5c0.1 0.1 0.3 0.2 0.5 0.3s0.4 0.1 0.7 0.1c0.3 0 0.5 0 0.7-0.1s0.4-0.2 0.5-0.3c0.1-0.1 0.3-0.3 0.3-0.5 0.1-0.2 0.1-0.4 0.1-0.7v-2.7h-1v2.7z"></path>
<path d="M18.3 20.3h0.9v2.6h-0.9v0.9h2.9v-0.9h-0.9v-2.6h0.9v-0.9h-2.9v0.9z"></path>
<path d="M24.1 21.9l-1.1-2.4h-1.2v4.3h1v-2.5l1.2 2.5h1v-4.3h-1v2.4z"></path>
<path d="M28.3 19.9c-0.3-0.4-0.7-0.6-1.3-0.6-0.3 0-0.5 0-0.7 0.1s-0.4 0.2-0.6 0.4c-0.2 0.2-0.3 0.4-0.4 0.7s-0.1 0.6-0.1 1 0.1 1.2 0.4 1.6c0.3 0.4 0.7 0.6 1.3 0.6 0.3 0 0.5 0 0.7-0.1s0.4-0.2 0.6-0.4c0.2-0.2 0.3-0.4 0.4-0.7s0.1-0.6 0.1-1c0.1-0.6-0.1-1.2-0.4-1.6v0zM27.7 22.2c0 0.2-0.1 0.3-0.1 0.4-0.1 0.1-0.1 0.2-0.2 0.2-0.1 0.1-0.2 0.1-0.3 0.1-0.3 0-0.4-0.1-0.5-0.3s-0.2-0.6-0.2-1c0-0.2 0-0.4 0-0.6s0.1-0.3 0.1-0.4c0.1-0.1 0.1-0.2 0.2-0.2 0.1-0.1 0.2-0.1 0.3-0.1 0.3 0 0.4 0.1 0.5 0.3s0.2 0.6 0.2 1c0 0.2 0 0.4 0 0.6v0z"></path>
<path d="M27.3 7h0.2v0.5h0.1v-0.5h0.2v-0.1h-0.5v0.1z"></path>
<path d="M28.2 6.9l-0.1 0.4-0.1-0.4h-0.2v0.6h0.1v-0.4l0.1 0.4h0.1l0.1-0.4v0.4h0.1v-0.6h-0.1z"></path>
<path d="M22.3 18.4c-1.6 0-3-0.5-4.2-1.7-0.8-0.7-1.4-1.5-2-2.4-0.6 0.9-1.2 1.7-2 2.4-1.3 1.2-2.8 1.7-4.6 1.7-3.4 0-6.2-2.7-6.2-6s2.8-6 6.2-6c1.9 0 3.4 0.6 4.8 1.9 0.7 0.6 1.2 1.3 1.7 2.1 0.5-0.7 1.1-1.5 1.7-2.1 1.4-1.3 2.9-1.9 4.8-1.9 3.4 0 6.2 2.7 6.2 6s-2.8 6-6.2 6c0 0-0.1 0-0.2 0v0zM17.4 12.3c0.7 1.1 1.3 2.1 2.1 2.9 0.9 0.8 1.9 1.2 3.1 1.1h0.1c2.3 0 4.1-1.7 4.1-3.9 0-2.1-1.8-3.9-4.1-3.9-1.3 0-2.4 0.4-3.4 1.3-0.8 0.7-1.4 1.6-1.9 2.5v0zM9.6 8.5c-2.3 0-4.1 1.7-4.1 3.9 0 2.1 1.8 3.9 4.1 3.9h0.1c1.2 0.1 2.2-0.3 3.1-1.1 0.8-0.7 1.5-1.8 2.1-2.9-0.6-0.9-1.2-1.8-1.9-2.5-1-0.9-2.1-1.3-3.4-1.3v0z"></path>
<path d="M22.9 11.6v-1.1h-1.2v1.1h-1.1v1.2h1.1v1.2h1.2v-1.2h1.1v-1.2h-1.1z"></path>
<path d="M7.9 11.6h3.8v1.2h-3.8v-1.2z"></path>
</svg>
