<!-- Generated by IcoMoon.io -->
<svg version="1.1" xmlns="http://www.w3.org/2000/svg" width="32" height="32" viewBox="0 0 32 32">
<title>atlassian</title>
<path d="M11 15.1c-0.2-0.3-0.7-0.4-1-0.1-0.1 0.1-0.2 0.2-0.2 0.3l-6.2 12.4c-0.2 0.4 0 0.8 0.3 1 0.1 0.1 0.2 0.1 0.3 0.1h8.6c0.3 0 0.5-0.2 0.7-0.4 1.9-3.9 0.8-9.8-2.5-13.3z"></path>
<path d="M15.5 3.9c-3.1 4.8-3.5 11-1 16.1l4.2 8.3c0.1 0.3 0.4 0.4 0.7 0.4h8.6c0.4 0 0.7-0.3 0.7-0.7 0-0.1 0-0.2-0.1-0.3 0 0-11.6-23.2-11.9-23.8-0.2-0.3-0.6-0.5-0.9-0.3-0.1 0-0.2 0.1-0.3 0.3z"></path>
</svg>
