<?xml version="1.0" encoding="utf-8"?>
<!-- Generator: Adobe Illustrator 21.1.0, SVG Export Plug-In . SVG Version: 6.00 Build 0)  -->
<!DOCTYPE svg PUBLIC "-//W3C//DTD SVG 1.1//EN" "http://www.w3.org/Graphics/SVG/1.1/DTD/svg11.dtd">
<svg version="1.1" id="Layer_1" xmlns="http://www.w3.org/2000/svg" xmlns:xlink="http://www.w3.org/1999/xlink" x="0px" y="0px"
	 viewBox="0 0 32 32" style="enable-background:new 0 0 32 32;" xml:space="preserve">
<title>atlassian</title>
<g>
	<path d="M11,15.1c-0.2-0.3-0.7-0.4-1-0.1c-0.1,0.1-0.2,0.2-0.2,0.3L3.6,27.7c-0.2,0.4,0,0.8,0.3,1c0.1,0.1,0.2,0.1,0.3,0.1h8.6
		c0.3,0,0.5-0.2,0.7-0.4C15.4,24.5,14.3,18.6,11,15.1z"/>
	<path d="M15.5,3.9c-3.1,4.8-3.5,11-1,16.1l4.2,8.3c0.1,0.3,0.4,0.4,0.7,0.4H28c0.4,0,0.7-0.3,0.7-0.7c0-0.1,0-0.2-0.1-0.3
		c0,0-11.6-23.2-11.9-23.8c-0.2-0.3-0.6-0.5-0.9-0.3C15.7,3.6,15.6,3.7,15.5,3.9z"/>
</g>
</svg>
