<!-- Generated by IcoMoon.io -->
<svg version="1.1" xmlns="http://www.w3.org/2000/svg" width="32" height="32" viewBox="0 0 32 32">
<title>azure</title>
<path d="M9.6 18.6h-1l-0.8-2.1h-3.2l-0.7 2.1h-1l2.8-7.5h0.9l3 7.5zM7.5 15.7l-1.2-3.2c0-0.1-0.1-0.2-0.1-0.5v0c0 0.2-0.1 0.4-0.1 0.5l-1.2 3.2h2.6zM14.4 13.5l-3.2 4.4h3.1v0.7h-4.4v-0.3l3.2-4.4h-2.9v-0.7h4.2v0.3zM19.6 18.6h-0.9v-0.9c-0.3 0.7-0.9 1-1.7 1-1.3 0-1.9-0.8-1.9-2.3v-3.2h0.9v3.1c0 1.1 0.4 1.7 1.3 1.7 0.4 0 0.8-0.2 1-0.5 0.3-0.3 0.4-0.7 0.4-1.2v-3.1h0.9v5.4zM23.9 14.1c-0.2-0.1-0.4-0.1-0.7-0.1-0.4 0-0.7 0.2-0.9 0.5s-0.3 0.8-0.3 1.4v2.8h-0.9v-5.4h0.9v1.1c0.1-0.4 0.3-0.7 0.5-0.9s0.5-0.3 0.9-0.3c0.2 0 0.4 0 0.5 0.1v0.8zM28.7 16.1h-3.8c0 0.6 0.2 1.1 0.5 1.4s0.7 0.5 1.3 0.5c0.6 0 1.2-0.2 1.7-0.6v0.8c-0.5 0.3-1.1 0.5-1.9 0.5s-1.4-0.2-1.8-0.7c-0.5-0.5-0.7-1.2-0.7-2 0-0.5 0.1-1 0.3-1.5 0.2-0.4 0.5-0.8 0.9-1s0.8-0.3 1.3-0.3c0.7 0 1.2 0.2 1.6 0.7s0.6 1.1 0.6 1.9v0.3zM27.8 15.4c0-0.5-0.1-0.9-0.3-1.2s-0.5-0.4-1-0.4c-0.4 0-0.7 0.2-1 0.4-0.3 0.3-0.5 0.7-0.5 1.1l2.8 0.1z"></path>
</svg>
