<?xml version="1.0" encoding="utf-8"?>
<!-- Generator: Adobe Illustrator 21.1.0, SVG Export Plug-In . SVG Version: 6.00 Build 0)  -->
<!DOCTYPE svg PUBLIC "-//W3C//DTD SVG 1.1//EN" "http://www.w3.org/Graphics/SVG/1.1/DTD/svg11.dtd">
<svg version="1.1" id="Layer_1" xmlns="http://www.w3.org/2000/svg" xmlns:xlink="http://www.w3.org/1999/xlink" x="0px" y="0px"
	 viewBox="0 0 32 32" style="enable-background:new 0 0 32 32;" xml:space="preserve">
<path d="M9.6,18.6h-1l-0.8-2.1H4.6l-0.7,2.1h-1l2.8-7.5h0.9L9.6,18.6z M7.5,15.7l-1.2-3.2c0-0.1-0.1-0.2-0.1-0.5h0
	c0,0.2-0.1,0.4-0.1,0.5l-1.2,3.2H7.5z M14.4,13.5l-3.2,4.4h3.1v0.7H9.9v-0.3l3.2-4.4h-2.9v-0.7h4.2L14.4,13.5L14.4,13.5L14.4,13.5
	L14.4,13.5z M19.6,18.6h-0.9v-0.9h0c-0.3,0.7-0.9,1-1.7,1c-1.3,0-1.9-0.8-1.9-2.3v-3.2H16v3.1c0,1.1,0.4,1.7,1.3,1.7
	c0.4,0,0.8-0.2,1-0.5c0.3-0.3,0.4-0.7,0.4-1.2v-3.1h0.9L19.6,18.6L19.6,18.6L19.6,18.6z M23.9,14.1C23.7,14,23.5,14,23.2,14
	c-0.4,0-0.7,0.2-0.9,0.5c-0.2,0.3-0.3,0.8-0.3,1.4v2.8h-0.9v-5.4h0.9v1.1h0c0.1-0.4,0.3-0.7,0.5-0.9s0.5-0.3,0.9-0.3
	c0.2,0,0.4,0,0.5,0.1L23.9,14.1L23.9,14.1z M28.7,16.1h-3.8c0,0.6,0.2,1.1,0.5,1.4c0.3,0.3,0.7,0.5,1.3,0.5c0.6,0,1.2-0.2,1.7-0.6
	v0.8c-0.5,0.3-1.1,0.5-1.9,0.5c-0.8,0-1.4-0.2-1.8-0.7C24.2,17.5,24,16.8,24,16c0-0.5,0.1-1,0.3-1.5c0.2-0.4,0.5-0.8,0.9-1
	c0.4-0.2,0.8-0.3,1.3-0.3c0.7,0,1.2,0.2,1.6,0.7c0.4,0.5,0.6,1.1,0.6,1.9L28.7,16.1L28.7,16.1z M27.8,15.4c0-0.5-0.1-0.9-0.3-1.2
	c-0.2-0.3-0.5-0.4-1-0.4c-0.4,0-0.7,0.2-1,0.4c-0.3,0.3-0.5,0.7-0.5,1.1L27.8,15.4L27.8,15.4L27.8,15.4z"/>
</svg>
