<!-- Generated by IcoMoon.io -->
<svg version="1.1" xmlns="http://www.w3.org/2000/svg" width="32" height="32" viewBox="0 0 32 32">
<title>behance</title>
<path d="M4.1 13.3c0.2 0 0.5 0 0.7 0.1 0.2 0 0.4 0.1 0.5 0.2s0.3 0.2 0.3 0.4c0.1 0.2 0.1 0.4 0.1 0.6 0 0.3-0.1 0.5-0.2 0.7s-0.3 0.3-0.5 0.4c0.3 0.1 0.6 0.3 0.7 0.5s0.3 0.5 0.3 0.8c0 0.3-0.1 0.5-0.2 0.7s-0.2 0.4-0.4 0.5c-0.2 0.1-0.4 0.2-0.6 0.3s-0.5 0.1-0.7 0.1h-2.4v-5.2h2.4zM4 15.4c0.2 0 0.4-0.1 0.5-0.2s0.2-0.3 0.2-0.5c0-0.1 0-0.2-0.1-0.3s-0.1-0.1-0.2-0.2c-0.1 0-0.2-0.1-0.2-0.1-0.1 0-0.2 0-0.3 0h-1.1v1.2c0 0.1 1.2 0.1 1.2 0.1zM4 17.7c0.1 0 0.2 0 0.3 0s0.2-0.1 0.3-0.1c0.1-0.1 0.1-0.1 0.2-0.2 0-0.1 0.1-0.2 0.1-0.3 0-0.3-0.1-0.5-0.2-0.6-0.2-0.1-0.4-0.2-0.6-0.2h-1.3v1.4h1.2z"></path>
<path d="M7.6 17.6c0.2 0.2 0.4 0.2 0.7 0.2 0.2 0 0.4-0.1 0.5-0.2 0.2-0.1 0.2-0.2 0.3-0.3h0.9c-0.2 0.5-0.4 0.8-0.7 1s-0.7 0.3-1.1 0.3c-0.3 0-0.6-0.1-0.8-0.2s-0.4-0.2-0.6-0.4c-0.2-0.2-0.3-0.4-0.4-0.6s-0.1-0.5-0.1-0.8c0-0.3 0-0.5 0.1-0.8 0.1-0.2 0.2-0.5 0.4-0.6 0.2-0.2 0.4-0.3 0.6-0.4s0.5-0.2 0.8-0.2c0.3 0 0.6 0.1 0.8 0.2s0.4 0.3 0.6 0.5c0.2 0.2 0.3 0.5 0.3 0.7 0 0.3 0.1 0.5 0 0.8h-2.5c0 0.4 0.1 0.7 0.2 0.8zM8.8 15.7c-0.1-0.1-0.3-0.2-0.6-0.2-0.2 0-0.3 0-0.4 0.1s-0.2 0.1-0.3 0.2c-0.1 0.1-0.1 0.2-0.1 0.3s0 0.2 0 0.2h1.7c0-0.3-0.1-0.5-0.3-0.6z"></path>
<path d="M11.6 13.3v2c0.1-0.2 0.3-0.4 0.5-0.5s0.4-0.2 0.6-0.2c0.3 0 0.5 0 0.7 0.1s0.3 0.2 0.4 0.3c0.1 0.1 0.2 0.3 0.2 0.5s0.1 0.4 0.1 0.6v2.3h-1v-2.1c0-0.3-0.1-0.5-0.2-0.7s-0.3-0.2-0.5-0.2c-0.3 0-0.5 0.1-0.6 0.2-0.1 0.2-0.2 0.5-0.2 0.8v2h-1v-5.2c-0.1 0.1 1 0.1 1 0.1z"></path>
<path d="M14.8 15.3c0.1-0.2 0.2-0.3 0.4-0.4s0.4-0.2 0.6-0.2c0.2 0 0.4-0.1 0.6-0.1s0.4 0 0.6 0c0.2 0 0.4 0.1 0.5 0.2 0.2 0.1 0.3 0.2 0.4 0.3s0.2 0.3 0.2 0.5v2c0 0.2 0 0.3 0 0.5s0.1 0.3 0.1 0.4h-1.1c0 0-0.1-0.1-0.1-0.2s0-0.1 0-0.2c-0.2 0.2-0.4 0.3-0.6 0.4s-0.5 0.1-0.7 0.1c-0.2 0-0.3 0-0.5-0.1-0.2 0-0.3-0.1-0.4-0.2s-0.2-0.2-0.3-0.4c-0.1-0.2-0.1-0.3-0.1-0.5s0-0.4 0.1-0.5c0.1-0.1 0.2-0.2 0.3-0.3s0.3-0.2 0.4-0.2c0.2 0 0.3-0.1 0.5-0.1s0.3 0 0.5-0.1c0.2 0 0.3 0 0.4-0.1 0.1 0 0.2-0.1 0.3-0.1s0.1 0 0.1-0.1 0-0.2-0.1-0.3c0-0.1-0.1-0.1-0.2-0.2-0.1 0-0.1-0.1-0.2-0.1s-0.2 0-0.3 0-0.4 0-0.5 0.1c-0.1 0.1-0.2 0.2-0.2 0.4h-1c0.1-0.1 0.2-0.3 0.3-0.5zM16.8 16.8c-0.1 0-0.1 0-0.2 0.1s-0.2 0-0.2 0c-0.1 0-0.2 0-0.2 0s-0.2 0.1-0.3 0.1c-0.1 0-0.2 0.1-0.2 0.1-0.1 0-0.1 0.1-0.1 0.2-0.1 0.1-0.1 0.2-0.1 0.2s0 0.2 0.1 0.2c0 0.1 0.1 0.1 0.1 0.2 0.1 0 0.1 0.1 0.2 0.1s0.2 0 0.2 0c0.2 0 0.4 0 0.5-0.1s0.2-0.2 0.2-0.2 0.1-0.2 0.1-0.3c0-0.1 0-0.2 0-0.2v-0.4c0-0.1 0 0-0.1 0z"></path>
<path d="M19.6 14.8v0.5c0.1-0.2 0.3-0.4 0.5-0.5s0.4-0.2 0.6-0.2c0.3 0 0.5 0 0.7 0.1s0.3 0.2 0.4 0.3c0.1 0.1 0.2 0.3 0.2 0.5s0.1 0.4 0.1 0.6v2.3h-1v-2.1c0-0.3-0.1-0.5-0.2-0.7s-0.3-0.2-0.5-0.2c-0.3 0-0.5 0.1-0.6 0.3s-0.2 0.5-0.2 0.8v2h-1v-3.8c0 0.1 1 0.1 1 0.1z"></path>
<path d="M24.4 15.4c-0.2 0-0.3 0-0.4 0.1s-0.2 0.2-0.3 0.3c-0.1 0.1-0.1 0.2-0.2 0.4 0 0.2 0 0.3 0 0.4s0 0.3 0 0.4c0 0.2 0.1 0.3 0.2 0.4s0.2 0.2 0.3 0.3c0.1 0.1 0.2 0.1 0.4 0.1s0.4-0.1 0.6-0.2c0.1-0.1 0.2-0.3 0.2-0.6h1c-0.1 0.5-0.3 0.9-0.6 1.1-0.3 0.3-0.7 0.4-1.2 0.4-0.3 0-0.5-0.1-0.8-0.2-0.2-0.1-0.4-0.2-0.6-0.4s-0.3-0.4-0.4-0.6c-0.1-0.2-0.1-0.5-0.1-0.8s0-0.6 0.1-0.8c0.1-0.2 0.2-0.5 0.4-0.7s0.4-0.3 0.6-0.4c0.2-0.1 0.5-0.2 0.8-0.2 0.2 0 0.4 0 0.6 0.1s0.4 0.2 0.5 0.3c0.2 0.1 0.3 0.3 0.4 0.5s0.2 0.4 0.2 0.6h-1c0-0.2-0.2-0.5-0.7-0.5z"></path>
<path d="M7.2 13.7h2.1v0.5h-2.1v-0.5z"></path>
<path d="M27.8 17.6c0.2 0.2 0.4 0.2 0.7 0.2 0.2 0 0.4-0.1 0.5-0.2 0.2-0.1 0.2-0.2 0.3-0.3h0.9c-0.2 0.5-0.4 0.8-0.7 1s-0.7 0.3-1.1 0.3c-0.3 0-0.6-0.1-0.8-0.2s-0.4-0.2-0.6-0.4c-0.2-0.2-0.3-0.4-0.4-0.6s-0.1-0.5-0.1-0.8c0-0.3 0-0.5 0.1-0.8s0.2-0.5 0.4-0.6c0.2-0.2 0.4-0.3 0.6-0.4s0.5-0.2 0.8-0.2c0.3 0 0.6 0.1 0.8 0.2s0.4 0.3 0.6 0.5c0.2 0.2 0.3 0.5 0.3 0.7 0.1 0.3 0.1 0.5 0.1 0.8h-2.7c0 0.4 0.1 0.7 0.3 0.8v0zM29 15.7c-0.1-0.1-0.3-0.2-0.6-0.2-0.2 0-0.3 0-0.4 0.1s-0.2 0.1-0.3 0.2c-0.1 0.1-0.1 0.2-0.1 0.3s0 0.2 0 0.2h1.7c-0.1-0.3-0.2-0.5-0.3-0.6v0z"></path>
</svg>
