<!-- Generated by IcoMoon.io -->
<svg version="1.1" xmlns="http://www.w3.org/2000/svg" width="32" height="32" viewBox="0 0 32 32">
<title>bintray</title>
<path d="M16.9 19.5c2-2 4-4 6-6 0 0-0.1 0-0.2 0-0.7 0-1.4 0-2.2 0-0.2 0-0.2 0-0.2-0.2 0-0.5 0-0.9 0-1.4 0-0.1 0-0.2 0.2-0.2 1.8 0 3.6 0 5.4 0 0.2 0 0.2 0.1 0.2 0.2 0 1.8 0 3.6 0 5.4 0 0.2 0 0.2-0.2 0.2-0.5 0-0.9 0-1.4 0-0.2 0-0.2-0.1-0.2-0.2 0-0.7 0-1.4 0-2.2 0-0.1 0-0.2 0-0.2-0.1 0-0.1 0.1-0.2 0.2-2.6 2.6-5.2 5.2-7.8 7.8-0.2 0.2-0.2 0.1-0.4 0-2.6-2.6-5.3-5.3-7.9-7.9-0.1-0.1-0.1-0.1-0.2-0.2-0.1 0.1-0.1 0.2-0.1 0.3 0 0.7 0 1.5 0 2.2 0 0.2 0 0.2-0.2 0.2-0.5 0-0.9 0-1.4 0-0.1 0-0.2 0-0.2-0.2 0-1.8 0-3.6 0-5.4 0-0.2 0-0.2 0.2-0.2 1.8 0 3.6 0 5.4 0 0.2 0 0.2 0 0.2 0.2 0 0.5 0 0.9 0 1.4 0 0.2-0.1 0.2-0.2 0.2-0.7 0-1.4 0-2.1 0-0.1 0-0.2 0-0.2 0 2 2 4 4 6 6 0-4.3 0-8.6 0-12.9-0.2 0.2-0.3 0.3-0.4 0.4-0.5 0.5-0.9 0.9-1.4 1.4-0.1 0.1-0.2 0.1-0.3 0-0.3-0.4-0.7-0.7-1-1-0.1-0.1-0.1-0.1 0-0.2 1.3-1.3 2.6-2.6 3.9-3.9 0.1-0.1 0.2-0.1 0.2 0 1.3 1.3 2.5 2.6 3.8 3.8 0.1 0.1 0.1 0.2 0 0.3-0.3 0.3-0.7 0.7-1 1-0.1 0.1-0.2 0.1-0.3 0-0.6-0.6-1.1-1.1-1.7-1.7-0.1 4.2-0.1 8.5-0.1 12.8z"></path>
<path d="M16 28.9c-3.3 0-6.5 0-9.8 0-0.2 0-0.3-0.1-0.3-0.3 0-0.5 0-0.9 0-1.4 0-0.2 0-0.2 0.2-0.2s0.3 0 0.5 0c6.4 0 12.8 0 19.2 0 0.2 0 0.3 0 0.3 0.3 0 0.4 0 0.9 0 1.3 0 0.2-0.1 0.2-0.2 0.2-3.3 0.1-6.6 0.1-9.9 0.1z"></path>
</svg>
