<?xml version="1.0" encoding="utf-8"?>
<!-- Generator: Adobe Illustrator 22.1.0, SVG Export Plug-In . SVG Version: 6.00 Build 0)  -->
<svg version="1.1" id="Layer_1" xmlns="http://www.w3.org/2000/svg" xmlns:xlink="http://www.w3.org/1999/xlink" x="0px" y="0px"
	 viewBox="0 0 32 32" style="enable-background:new 0 0 32 32;" xml:space="preserve">
<style type="text/css">
	.st0{fill:#44A91F;}
	.st1{fill:#FEFEFE;}
</style>
<title>bintray</title>
<g id="vq4VXP.tif">
	<g>
		<path class="st0" d="M758,548c-0.8-6-4.5-10.6-7.2-15.6c-2-3.8-2.6-5.6,2.6-6.8c13.9-3.3,22.7-12.5,27.7-25.6
			c0.9-2.5,1.5-4.3-2.2-3.7c-3.3,0.5-4.6-1.2-5.6-4.1c-12-35.9-24-71.8-36.2-107.7c-0.9-2.8-0.3-3.7,2.6-4c8.6-0.9,17.2-1.8,25.8-3
			c3.1-0.4,2.9,1.8,3.3,3.3c8,28.1,17.6,55.8,24.3,84.3c0.1,0.3,0.3,0.6,0.5,0.8c0.8,0,1.2-0.3,1.4-1.1
			c4.6-25.8,14.2-50.2,21.7-75.1c3.2-10.7,3.4-10.6,14.5-10.6c5.2,0,10.3,0,15.5,0c5.9,0,5.9,0,4,5.4c-9.4,26.3-18.8,52.5-28.3,78.8
			c-5.6,15.6-11.4,31.2-17,46.9c-7.3,20.8-21.2,33.7-43.4,37.1c-0.4,0.1-0.7,0.6-1,0.9C760,548,759,548,758,548z"/>
		<path class="st0" d="M297.1,411.7c7.2,2.8,13.7,5.5,18.8,10.4c12.9,12.5,14,27.9,9.5,43.9c-4.6,16.5-16.4,25.7-33,29
			c-5.9,1.2-11.9,1.1-17.9,1.1c-18.3,0.1-36.7,0-55,0.1c-2.8,0-4.5,0-4.5-3.8c0.1-50.7,0.1-101.3,0-152c0-2.9,1-3.6,3.7-3.6
			c20.2,0.1,40.3-0.1,60.5,0.3c10.7,0.2,20.5,3.6,28.9,10.8c16.9,14.6,17.9,41.1,1.8,56.2c-1.8,1.7-3.9,3.2-6,4.5
			C302,409.7,299.8,410.5,297.1,411.7z"/>
		<path class="st0" d="M74.5,448.8c-16.7-5.1-23.9-16-24-32c-0.1-16,8.3-28.8,23.4-35.1c15.2-6.4,30.9-6.6,46.5-2.1
			c13.7,3.9,26.3,3.6,37.6-6c1.7-1.4,2.5-0.9,3.4,0.7c3.3,5.2,6.6,10.4,10.2,15.4c1.6,2.3,0.1,3.2-1.3,4.3c-7.5,6.2-16.2,7.2-25.4,6
			c-0.5,0.4-0.6,0.8-0.3,1.3c10.8,18.4,4.7,38.3-14.6,47.6c-8,3.8-16.5,5.2-25.2,5c-5.6-0.1-9.6,3.2-13.5,6.6
			c-0.8,0.7-1.6,1.9-1,3.1c0.9,1.7,2.5,2.1,4.3,2.1c5.3,0.1,10.7,0.2,16,0.2c6.3,0,12.7,0.3,18.9,1.7c15.3,3.4,25.5,13.8,27.3,27.5
			c2.2,16.9-4.5,30.5-18.7,38.2c-11.6,6.2-24.3,7.8-37.2,7.8c-10.9,0-21.7-0.9-31.8-5.1c-12-5-20.5-12.9-21.7-26.7
			c-0.1-1-0.2-2-0.1-3c0.8-10.3,1.3-10.8,11.4-10.8c5.5,0,11,0.1,16.5,0c2.5-0.1,3,0.8,2.7,3.2c-1.4,11.1,3.3,16.9,14.4,18.3
			c7,0.9,14,0.7,20.8-1.1c4.5-1.2,8.2-3.6,10.7-7.6c4.4-7.1,1.5-15.5-6.4-18.2c-7.7-2.6-15.8-2.2-23.8-2.3
			c-9.2-0.1-18.3-0.6-27.3-2.7c-7.3-1.7-11.1-6.4-12-13.6c-0.9-7,0.9-12.8,7.2-16.8C65.2,452.4,69.3,450.9,74.5,448.8z"/>
		<path class="st0" d="M742.1,483.2c-5,5.8-9.8,11.1-14.3,16.7c-1.7,2.1-3.1,2.4-5.4,1.1c-4.5-2.6-8.7-5.6-11.7-10
			c-1.4-2.1-2.1-2.2-4.1-0.5c-15.4,13.3-32.7,12.6-50.2,5.8c-12.7-4.9-17.8-16-18.4-29.1c-1.1-24.2,11.1-38.3,35.8-42.2
			c7.8-1.2,15.6-1.7,23.4-1.4c3.2,0.1,3.8-1,3.9-4c0.2-16.1-5.4-20.6-21.3-17c-8.6,2-16.2,6-23.5,10.7c-2.3,1.5-3.2,1.1-4.5-1.1
			c-3.2-5.7-6.5-11.2-9.9-16.7c-1-1.6-1.6-2.8,0.5-4c20-11.5,40.8-18.8,64.3-13.5c15.3,3.5,23.5,12.9,24.4,28.6
			c1,16.8-0.1,33.6-0.3,50.4C730.8,467.6,731.9,477.1,742.1,483.2z"/>
		<path class="st0" d="M44.1,437.5c0.1,17.1-3.7,32.8-15.5,46.1C9.7,505.2-38,506.3-54.6,471.9c-10.5-21.8-10.7-44.5-0.6-66.6
			c10-21.7,29.4-31.2,54.7-28.3c20,2.3,37.3,18.3,42.4,39.2C43.7,423.2,44.2,430.3,44.1,437.5z"/>
		<path class="st0" d="M418.2,390.2c8.4-5.9,16.4-11.2,26.2-12.7c7-1.1,13.9-1.1,20.7,1.5c11.6,4.5,17.7,13.1,17.8,26.2
			c0.2,29.2,0,58.3,0.1,87.5c0,2.9-0.9,3.7-3.7,3.6c-7.5-0.2-15-0.2-22.5,0c-3.3,0.1-4.2-0.9-4.1-4.2c0.1-23.3,0.1-46.6,0-70
			c0-4-0.3-8-1-11.9c-0.8-4.7-3.7-7.3-8.6-7.2c-8.6,0.1-15,4.7-21.2,9.9c-1.5,1.3-0.8,3.1-0.8,4.7c0,24.5-0.1,49,0.1,73.5
			c0,4.1-0.9,5.4-5.2,5.2c-7.1-0.4-14.3-0.3-21.5,0c-3.4,0.1-4.1-1.1-4.1-4.3c0.1-23.8,0.1-47.6,0.1-71.5c0-11.5,0-23-3.5-34.1
			c-0.6-1.9-0.6-2.9,1.8-3.6c7.6-2,15-4.2,22.5-6.5c1.8-0.6,2.8,0,3.5,1.6C416.6,381.6,417.8,385.3,418.2,390.2z"/>
		<path class="st0" d="M-207.4,416.6c0-24.8,0.1-49.6-0.1-74.5c0-3.8,0.9-5.1,4.9-5.1c25.8,0.2,51.6,0.2,77.5,0c3.7,0,4.4,1,3.7,4.5
			c-1.2,5.9-2,11.8-2.5,17.8c-0.3,3.3-1.6,4.1-4.7,4.1c-13.8-0.1-27.7,0.1-41.5-0.2c-4.3-0.1-5.3,1.3-5.1,5.3
			c0.3,8.8,0.3,17.7,0,26.5c-0.1,3.7,0.8,4.9,4.6,4.8c10.7-0.3,21.3,0,32-0.2c3.2-0.1,4,0.9,3.9,4c-0.2,6.2-0.2,12.3,0,18.5
			c0.1,3.1-0.9,3.9-3.9,3.9c-10.7-0.2-21.3,0.1-32-0.2c-3.9-0.1-4.6,1.1-4.6,4.7c0.2,20.3,0,40.6,0.2,61c0,3.9-1.1,4.8-4.8,4.6
			c-7.7-0.3-15.3-0.3-23,0c-3.7,0.1-4.7-1-4.7-4.7C-207.4,466.6-207.4,441.6-207.4,416.6z"/>
		<path class="st0" d="M-256.8,412.7c0-23.6,0.1-47.3-0.1-70.9c0-4.1,1.2-5,5-4.9c8,0.3,16,0.2,24,0c2.8-0.1,4,0.4,4,3.7
			c-0.2,46.5-0.2,92.9-0.2,139.4c0,25.8-13.3,42.3-36,52.5c-2.5,1.2-4.1,1-5.9-1.3c-3.4-4.1-7-8-10.7-11.9c-1.5-1.6-1.4-2.5,0.4-3.8
			c2.3-1.6,4.4-3.5,6.6-5.3c8.7-7.4,12.7-16.8,12.7-28.1c-0.1-23.1,0-46.3,0-69.4C-256.9,412.7-256.9,412.7-256.8,412.7z"/>
		<path class="st0" d="M561.9,378.6c-2.5,6.7-4.8,12.7-7.1,18.8c-0.7,1.8-2.1,1.8-3.6,1.8c-4.5,0-9,0.1-13.5,0
			c-2.3-0.1-3.3,0.6-3.3,3.1c0.1,20.5-0.3,41,0.3,61.4c0.3,12.2,5.8,15.7,17.7,13.3c6.3-1.3,6.3-1.3,7.7,5.2c0.3,1.6,0.7,3.2,1,4.9
			c1.4,7.1,1.4,7.1-5.7,9.3c-9.2,2.8-18.5,3.6-28.1,1.7c-15.4-3.1-23.4-12.5-23.5-28.2c-0.1-21.6-0.1-43.3,0.1-64.9
			c0-4.4-0.9-6.6-5.6-5.7c-5.2,1-7.2-1.1-6.3-6.3c0.2-1.5,0-3,0-4.5c0-8.8,0-8.9,8.7-9.3c2.9-0.1,3.1-1.4,3.1-3.7
			c0-7-0.2-14,0.6-20.9c0.2-2.1,0.7-3.6,3.2-4.2c8.4-1.9,16.8-4,25.2-6.3c2.9-0.8,3.3,0.2,3.1,2.8c-0.6,9-0.9,17.9-1.6,26.9
			c-0.3,4.1,1.3,5,5.1,4.9C546.7,378.4,554,378.6,561.9,378.6z"/>
		<path class="st0" d="M-95.8,391.7c6.8-6.7,12.7-13.7,22.3-15.2c1.5-0.2,3-0.4,4.5-0.5c11-0.3,12.3,1.5,9.2,11.6
			c-1.5,4.9-3,9.8-4.5,14.8c-0.6,2.1-1.2,3.4-4.1,2.4c-9.4-3.2-16.8,0.5-23.3,7.1c-1.7,1.7-1.4,3.6-1.4,5.6c0,24.5-0.1,49,0.1,73.5
			c0,4-0.8,5.5-5.1,5.3c-7.1-0.4-14.3-0.4-21.5,0c-3.9,0.2-4.6-1.2-4.6-4.8c0.2-23.5,0-47,0.1-70.5c0-11.8-0.3-23.6-3.7-35.1
			c-0.5-1.8-0.2-2.7,1.8-3.2c7.7-2,15.4-4,23.1-6.2c2.1-0.6,2.6,0.5,3.3,1.9C-97.5,382.5-96.9,386.9-95.8,391.7z"/>
		<path class="st0" d="M602,391.5c4.3-4,8-8,12.6-11.1c7-4.6,14.5-5.4,22.4-3.3c2.7,0.7,3.9,2,2.8,5c-2.4,6.9-4.6,13.9-6.6,20.9
			c-0.7,2.5-1.7,2.5-3.9,1.8c-8.5-2.7-17.8,0.3-23.4,7c-1.6,1.9-1.4,4-1.4,6.1c0,24.5-0.1,49,0.1,73.4c0,3.9-1,5.1-5,5
			c-7.3-0.3-14.7-0.3-22,0c-3.4,0.1-4.1-1.1-4.1-4.3c0.1-22.8,0-45.6,0.1-68.4c0-12.7-0.1-25.3-3.6-37.6c-0.5-1.6-0.6-2.6,1.6-3.2
			c7.7-1.9,15.5-4,23.1-6.2c2.4-0.7,2.8,0.6,3.6,2.1C600.3,382.6,600.8,386.9,602,391.5z"/>
		<path class="st0" d="M371.4,436.1c0,18.5-0.1,37,0.1,55.4c0,3.8-1,4.8-4.7,4.7c-7.5-0.3-15-0.2-22.5,0c-2.6,0-3.9-0.4-3.8-3.5
			c0.1-36.1,0.1-72.3,0-108.4c0-3.3,1.6-3.8,4.2-4.2c7.6-1.1,15.2-2,22.7-3.5c3.7-0.7,4.2,0.3,4.2,3.6
			C371.4,398.8,371.4,417.5,371.4,436.1z"/>
		<path class="st0" d="M375,346.5c0,10.6-8.3,19.1-18.7,19.3c-10.6,0.2-19.3-8.6-19.3-19.3c0.1-10.4,8.6-18.8,19.2-18.9
			C366.7,327.4,375,335.7,375,346.5z"/>
		<path class="st1" d="M247.5,448.2c0-5.8,0.1-11.6,0-17.5c-0.1-2.8,0.9-3.7,3.7-3.7c7.1,0.2,14.3-0.1,21.4,0.1
			c10.3,0.3,17.5,7.5,18.5,18c1.1,12-4.9,21.7-14.8,23.9c-8.7,1.9-17.6,0.6-26.4,1c-2.6,0.1-2.4-1.6-2.4-3.3
			C247.5,460.5,247.5,454.4,247.5,448.2z"/>
		<path class="st1" d="M247,381.9c0-4.8,0-9.6,0-14.5c0-1.6-0.3-3.4,2.4-3.3c8.3,0.4,16.6-0.8,24.9,0.8c8.2,1.6,14,9.1,13.6,17.7
			c-0.4,9.7-6.1,16.8-14.9,17.4c-7.6,0.5-15.3,0.3-22.9,0.5c-2.5,0.1-3.1-0.9-3.1-3.2C247.1,392.2,247,387.1,247,381.9z"/>
		<path class="st1" d="M99.4,433.2c-11.8-0.1-17.7-5.7-17.5-16.8c0.1-10.8,6.9-17,18.4-16.9c11.5,0.2,17.9,6.4,17.9,17.5
			C118.1,427.6,111.6,433.2,99.4,433.2z"/>
		<path class="st1" d="M700.6,457.7c-0.1,1.8-0.3,3.6-0.4,5.5c-0.2,8.8-6.8,14.9-15.9,14.8c-7.6-0.1-13.2-6.4-13.3-15.1
			c-0.1-10.1,4-15.3,13.9-16.8c4.1-0.6,8.3-0.7,12.4-1.1c2.4-0.2,3.6,0.3,3.3,3.2C700.3,451.3,700.6,454.5,700.6,457.7z"/>
		<path class="st1" d="M-28,439c0.4-9.5,0.6-17.8,2.9-25.9c2.5-8.7,8.4-13.7,16.2-13.7c8.1,0,14.4,4.5,16.5,13.2
			c4.2,16.9,4.2,34-0.5,50.8c-2.6,9.1-7.9,12.8-16.2,12.7c-8.2-0.2-13.8-4.8-16.2-13.6c-0.7-2.6-1.3-5.2-1.6-7.8
			C-27.3,449.2-27.6,443.5-28,439z"/>
	</g>
</g>
<g>
	<path d="M16.9,19.5c2-2,4-4,6-6c0,0-0.1,0-0.2,0c-0.7,0-1.4,0-2.2,0c-0.2,0-0.2,0-0.2-0.2c0-0.5,0-0.9,0-1.4c0-0.1,0-0.2,0.2-0.2
		c1.8,0,3.6,0,5.4,0c0.2,0,0.2,0.1,0.2,0.2c0,1.8,0,3.6,0,5.4c0,0.2,0,0.2-0.2,0.2c-0.5,0-0.9,0-1.4,0c-0.2,0-0.2-0.1-0.2-0.2
		c0-0.7,0-1.4,0-2.2c0-0.1,0-0.2,0-0.2c-0.1,0-0.1,0.1-0.2,0.2c-2.6,2.6-5.2,5.2-7.8,7.8c-0.2,0.2-0.2,0.1-0.4,0
		c-2.6-2.6-5.3-5.3-7.9-7.9c-0.1-0.1-0.1-0.1-0.2-0.2c-0.1,0.1-0.1,0.2-0.1,0.3c0,0.7,0,1.5,0,2.2c0,0.2,0,0.2-0.2,0.2
		c-0.5,0-0.9,0-1.4,0c-0.1,0-0.2,0-0.2-0.2c0-1.8,0-3.6,0-5.4c0-0.2,0-0.2,0.2-0.2c1.8,0,3.6,0,5.4,0c0.2,0,0.2,0,0.2,0.2
		c0,0.5,0,0.9,0,1.4c0,0.2-0.1,0.2-0.2,0.2c-0.7,0-1.4,0-2.1,0c-0.1,0-0.2,0-0.2,0c2,2,4,4,6,6c0-4.3,0-8.6,0-12.9
		c-0.2,0.2-0.3,0.3-0.4,0.4c-0.5,0.5-0.9,0.9-1.4,1.4c-0.1,0.1-0.2,0.1-0.3,0c-0.3-0.4-0.7-0.7-1-1c-0.1-0.1-0.1-0.1,0-0.2
		c1.3-1.3,2.6-2.6,3.9-3.9c0.1-0.1,0.2-0.1,0.2,0c1.3,1.3,2.5,2.6,3.8,3.8c0.1,0.1,0.1,0.2,0,0.3c-0.3,0.3-0.7,0.7-1,1
		c-0.1,0.1-0.2,0.1-0.3,0c-0.6-0.6-1.1-1.1-1.7-1.7C16.9,10.9,16.9,15.2,16.9,19.5z"/>
	<path d="M16,28.9c-3.3,0-6.5,0-9.8,0c-0.2,0-0.3-0.1-0.3-0.3c0-0.5,0-0.9,0-1.4c0-0.2,0-0.2,0.2-0.2c0.2,0,0.3,0,0.5,0
		c6.4,0,12.8,0,19.2,0c0.2,0,0.3,0,0.3,0.3c0,0.4,0,0.9,0,1.3c0,0.2-0.1,0.2-0.2,0.2C22.6,28.9,19.3,28.9,16,28.9z"/>
</g>
</svg>
