<?xml version="1.0" encoding="utf-8"?>
<!-- Generator: Adobe Illustrator 22.1.0, SVG Export Plug-In . SVG Version: 6.00 Build 0)  -->
<svg version="1.1" id="Layer_1" xmlns="http://www.w3.org/2000/svg" xmlns:xlink="http://www.w3.org/1999/xlink" x="0px" y="0px"
	 viewBox="0 0 32 32" style="enable-background:new 0 0 32 32;" xml:space="preserve">
<title>bitbucket</title>
<g>
	<path d="M28.2,4.4c0,0-0.1,0-0.1,0l-24.2,0c-0.5,0-0.8,0.4-0.8,0.8c0,0,0,0.1,0,0.1l3.5,21.4c0.1,0.5,0.4,0.8,0.9,0.9
		c-0.2,0-0.4-0.1-0.5-0.3l6.4-7.6h0l-1.4-7.6H20h7.8l-1,6.3l2.1-13.1C29,4.9,28.7,4.5,28.2,4.4z"/>
	<polygon points="13.3,19.8 13.3,19.8 11.9,12.2 	"/>
	<path d="M7.7,27.6c-0.1,0-0.1,0-0.2,0C7.6,27.6,7.6,27.6,7.7,27.6z"/>
	<path d="M24.6,27.6L24.6,27.6c0.4,0,0.8-0.3,0.8-0.7l1.4-8.5l-1.4,8.5C25.3,27.3,25,27.6,24.6,27.6z"/>
	<path d="M20,12.2l-1.3,7.6h-5.4L7,27.4c0.2,0.1,0.3,0.2,0.5,0.3c0.1,0,0.1,0,0.2,0h16.9c0.4,0,0.8-0.3,0.8-0.7l1.4-8.5l1-6.3H20z"
		/>
</g>
</svg>
