<!-- Generated by IcoMoon.io -->
<svg version="1.1" xmlns="http://www.w3.org/2000/svg" width="32" height="32" viewBox="0 0 32 32">
<title>bitbucket</title>
<path d="M28.2 4.4c0 0-0.1 0-0.1 0h-24.2c-0.5 0-0.8 0.4-0.8 0.8 0 0 0 0.1 0 0.1l3.5 21.4c0.1 0.5 0.4 0.8 0.9 0.9-0.2 0-0.4-0.1-0.5-0.3l6.4-7.6-1.4-7.6h15.8l-1 6.3 2.1-13.1c0.1-0.4-0.2-0.8-0.7-0.9z"></path>
<path d="M13.3 19.8v0l-1.4-7.6z"></path>
<path d="M7.7 27.6c-0.1 0-0.1 0-0.2 0 0.1 0 0.1 0 0.2 0z"></path>
<path d="M24.6 27.6v0c0.4 0 0.8-0.3 0.8-0.7v0c-0.1 0.4-0.4 0.7-0.8 0.7z"></path>
<path d="M20 12.2l-1.3 7.6h-5.4l-6.3 7.6c0.2 0.1 0.3 0.2 0.5 0.3 0.1 0 0.1 0 0.2 0h16.9c0.4 0 0.8-0.3 0.8-0.7l1.4-8.5 1-6.3h-7.8z"></path>
</svg>
