<!-- Generated by IcoMoon.io -->
<svg version="1.1" xmlns="http://www.w3.org/2000/svg" width="32" height="32" viewBox="0 0 32 32">
<title>circleci</title>
<path d="M12.9 16.2c0-1.6 1.3-3 3-3s3 1.3 3 3-1.3 3-3 3-3-1.3-3-3zM15.9 3.8c-5.8 0-10.6 4-12 9.3 0 0 0 0.1 0 0.1 0 0.3 0.3 0.6 0.6 0.6h5c0.2 0 0.4-0.1 0.5-0.3v0c1-2.2 3.3-3.8 5.9-3.8 3.6 0 6.5 2.9 6.5 6.5s-2.9 6.5-6.5 6.5c-2.6 0-4.9-1.5-5.9-3.8v0c-0.1-0.2-0.3-0.3-0.5-0.3h-5c-0.3 0-0.6 0.3-0.6 0.6 0 0 0 0.1 0 0.1 1.4 5.4 6.2 9.3 12 9.3 6.8 0 12.4-5.6 12.4-12.4s-5.6-12.4-12.4-12.4z"></path>
</svg>
