<?xml version="1.0" encoding="utf-8"?>
<!-- Generator: Adobe Illustrator 21.1.0, SVG Export Plug-In . SVG Version: 6.00 Build 0)  -->
<!DOCTYPE svg PUBLIC "-//W3C//DTD SVG 1.1//EN" "http://www.w3.org/Graphics/SVG/1.1/DTD/svg11.dtd">
<svg version="1.1" id="Layer_1" xmlns="http://www.w3.org/2000/svg" xmlns:xlink="http://www.w3.org/1999/xlink" x="0px" y="0px"
	 viewBox="0 0 32 32" style="enable-background:new 0 0 32 32;" xml:space="preserve">
<path id="mark_63_" d="M12.9,16.2c0-1.6,1.3-3,3-3s3,1.3,3,3s-1.3,3-3,3S12.9,17.9,12.9,16.2z M15.9,3.8c-5.8,0-10.6,4-12,9.3
	c0,0,0,0.1,0,0.1c0,0.3,0.3,0.6,0.6,0.6h5c0.2,0,0.4-0.1,0.5-0.3l0,0c1-2.2,3.3-3.8,5.9-3.8c3.6,0,6.5,2.9,6.5,6.5s-2.9,6.5-6.5,6.5
	c-2.6,0-4.9-1.5-5.9-3.8l0,0c-0.1-0.2-0.3-0.3-0.5-0.3h-5c-0.3,0-0.6,0.3-0.6,0.6c0,0,0,0.1,0,0.1c1.4,5.4,6.2,9.3,12,9.3
	c6.8,0,12.4-5.6,12.4-12.4S22.7,3.8,15.9,3.8z"/>
</svg>
