<!-- Generated by IcoMoon.io -->
<svg version="1.1" xmlns="http://www.w3.org/2000/svg" width="32" height="32" viewBox="0 0 32 32">
<title>coldfusion</title>
<path d="M4.8 5.1v21.9h22.4v-21.9h-22.4zM5.7 6h20.6v20h-20.6v-20z"></path>
<path d="M16.6 20.1c0 0.1 0 0.1-0.1 0.2-0.4 0.2-1 0.2-1.7 0.2-2.4 0-4.5-1.6-4.5-5.3 0-3.2 1.9-5.3 4.7-5.3 0.8 0 1.3 0.1 1.6 0.2 0.1 0 0.1 0.1 0.1 0.2v1.3c0 0.1-0.1 0.1-0.1 0.1-0.4-0.2-0.9-0.3-1.6-0.3-1.8 0-3 1.4-3 3.7 0 2.9 1.6 3.8 3 3.8 0.6 0 1 0 1.5-0.2 0.1 0 0.1 0 0.1 0.1v1.3zM17.2 14.5c-0.1 0-0.1 0-0.1-0.1v-1.3c0-0.1 0-0.1 0.1-0.1h0.9v-0.5c0-0.6 0.1-1.1 0.3-1.5 0.4-0.8 1.1-1.1 2-1.1 0.3 0 0.5 0 0.6 0.1 0.1 0 0.1 0.1 0.1 0.1v1.2c0 0.1 0 0.1-0.1 0.1s-0.3 0-0.4 0c-0.5 0-0.8 0.4-0.8 1.1v0.5h1.2c0.1 0 0.1 0 0.1 0.1v1.3c0 0.1 0 0.1-0.1 0.1h-1.2v5.8c0 0.1 0 0.1-0.1 0.1h-1.5c-0.1 0-0.1 0-0.1-0.1v-5.7h-0.9z"></path>
</svg>
