<?xml version="1.0" encoding="utf-8"?>
<!-- Generator: Adobe Illustrator 22.0.1, SVG Export Plug-In . SVG Version: 6.00 Build 0)  -->
<svg version="1.1" id="Warstwa_1" xmlns="http://www.w3.org/2000/svg" xmlns:xlink="http://www.w3.org/1999/xlink" x="0px" y="0px"
	 viewBox="0 0 32 32" style="enable-background:new 0 0 32 32;" xml:space="preserve">
<title>angular</title>
<g>
	<g>
		<path d="M4.8,5.1v21.9h22.4V5.1H4.8z M5.7,6h20.6v20H5.7V6z"/>
	</g>
	<path d="M16.6,20.1c0,0.1,0,0.1-0.1,0.2c-0.4,0.2-1,0.2-1.7,0.2c-2.4,0-4.5-1.6-4.5-5.3c0-3.2,1.9-5.3,4.7-5.3
		c0.8,0,1.3,0.1,1.6,0.2c0.1,0,0.1,0.1,0.1,0.2v1.3c0,0.1-0.1,0.1-0.1,0.1c-0.4-0.2-0.9-0.3-1.6-0.3c-1.8,0-3,1.4-3,3.7
		c0,2.9,1.6,3.8,3,3.8c0.6,0,1,0,1.5-0.2c0.1,0,0.1,0,0.1,0.1L16.6,20.1L16.6,20.1z M17.2,14.5c-0.1,0-0.1,0-0.1-0.1v-1.3
		c0-0.1,0-0.1,0.1-0.1h0.9v-0.5c0-0.6,0.1-1.1,0.3-1.5c0.4-0.8,1.1-1.1,2-1.1c0.3,0,0.5,0,0.6,0.1c0.1,0,0.1,0.1,0.1,0.1v1.2
		c0,0.1,0,0.1-0.1,0.1c-0.1,0-0.3,0-0.4,0c-0.5,0-0.8,0.4-0.8,1.1V13H21c0.1,0,0.1,0,0.1,0.1v1.3c0,0.1,0,0.1-0.1,0.1h-1.2v5.8
		c0,0.1,0,0.1-0.1,0.1h-1.5c-0.1,0-0.1,0-0.1-0.1v-5.7H17.2z"/>
</g>
</svg>
