<?xml version="1.0" encoding="utf-8"?>
<!-- Generator: Adobe Illustrator 21.1.0, SVG Export Plug-In . SVG Version: 6.00 Build 0)  -->
<!DOCTYPE svg PUBLIC "-//W3C//DTD SVG 1.1//EN" "http://www.w3.org/Graphics/SVG/1.1/DTD/svg11.dtd">
<svg version="1.1" id="Layer_1" xmlns="http://www.w3.org/2000/svg" xmlns:xlink="http://www.w3.org/1999/xlink" x="0px" y="0px"
	 viewBox="0 0 32 32" style="enable-background:new 0 0 32 32;" xml:space="preserve">
<path d="M26.4,28.2h-4.1l0.3-3.5h-2l-0.3,3.5h-8.6l-0.3-3.5h-2l0.3,3.5H5.6L3.2,13.1L9,3.8H23l5.8,9.3L26.4,28.2z M21.8,8.5h-3.7
	l0.2,1.7h-4.6l0.2-1.7h-3.7l-2.3,4.6L9,22.4H23l1.2-9.3L21.8,8.5L21.8,8.5z M19.8,19.3c-0.3,0-0.6-1-0.6-2.2c0-1.2,0.3-2.2,0.6-2.2
	c0.3,0,0.6,1,0.6,2.2C20.4,18.4,20.1,19.3,19.8,19.3z M12.4,19.5c-0.3,0-0.6-1-0.6-2.2c0-1.2,0.3-2.2,0.6-2.2c0.3,0,0.6,1,0.6,2.2
	C13,18.5,12.8,19.5,12.4,19.5z"/>
</svg>
