<!-- Generated by IcoMoon.io -->
<svg version="1.1" xmlns="http://www.w3.org/2000/svg" width="32" height="32" viewBox="0 0 32 32">
<title>cucumber</title>
<path d="M21.2 5c-0.2-0.1-0.4-0.2-0.6-0.3s-0.4-0.2-0.7-0.3c-0.1 0-0.1-0.1-0.2-0.1-0.2-0.1-0.4-0.2-0.6-0.2-1.1-0.4-2.2-0.6-3.4-0.6-6.1 0-11.1 5-11.1 11.1 0 5.4 3.9 9.9 8.9 10.9v3.2c6.6-1 12.5-6.3 12.9-13.2 0.3-4.2-1.7-8.5-5.2-10.5zM13 7.6c0.4 0 0.8 0.1 1 0.4 0.2 0.2 0.3 0.5 0.5 0.7 0.4 0.9 0.3 2-0.3 2.7-0.9-0.2-1.8-0.8-2.2-1.8-0.1-0.3-0.2-0.6-0.2-0.9 0-0.5 0.6-1 1.2-1.1zM9.7 10.9c0.1 0 0.1 0 0.2 0 0.3 0 0.6 0.1 1 0.2 0.9 0.4 1.6 1.2 1.8 2.1-0.8 0.5-1.9 0.7-2.9 0.3-0.3-0.1-0.5-0.3-0.8-0.5-0.8-0.7-0.3-2 0.7-2.1zM10.9 17.7c-0.3 0.1-0.6 0.2-1 0.2-1.2 0.1-1.8-1.4-0.9-2.1 0.2-0.2 0.5-0.4 0.8-0.5 0.4-0.2 0.7-0.2 1.1-0.2 0.6 0 1.2 0.2 1.7 0.5-0.1 0.9-0.8 1.7-1.7 2.1zM14.6 19.9c-0.1 0.3-0.3 0.5-0.5 0.8-0.7 0.9-2.2 0.3-2.2-0.9 0-0.3 0.1-0.6 0.2-0.9 0.4-0.9 1.2-1.6 2.2-1.8 0.6 0.9 0.7 1.9 0.3 2.8zM16.4 8.8c0.1-0.3 0.3-0.5 0.5-0.8 0.3-0.3 0.7-0.5 1.1-0.4 0.6 0.1 1.2 0.6 1.2 1.3 0 0.3-0.1 0.6-0.2 0.9-0.4 0.9-1.2 1.6-2.2 1.8-0.6-0.8-0.8-1.9-0.4-2.8zM17 20.7c-0.2-0.2-0.3-0.5-0.5-0.7-0.4-0.9-0.3-2 0.3-2.7 0.9 0.2 1.8 0.8 2.2 1.8 0.1 0.3 0.2 0.6 0.2 0.9 0.1 0.9-1.4 1.5-2.2 0.7zM21.2 17.8c-0.3 0-0.6-0.1-1-0.2-0.9-0.4-1.6-1.2-1.8-2.1 0.5-0.3 1.1-0.5 1.8-0.5 0.4 0 0.7 0.1 1.1 0.2 0.3 0.1 0.5 0.3 0.8 0.5 0.9 0.7 0.3 2.2-0.9 2.1z"></path>
</svg>
