<?xml version="1.0" encoding="utf-8"?>
<!-- Generator: Adobe Illustrator 21.1.0, SVG Export Plug-In . SVG Version: 6.00 Build 0)  -->
<!DOCTYPE svg PUBLIC "-//W3C//DTD SVG 1.1//EN" "http://www.w3.org/Graphics/SVG/1.1/DTD/svg11.dtd">
<svg version="1.1" id="Layer_1" xmlns="http://www.w3.org/2000/svg" xmlns:xlink="http://www.w3.org/1999/xlink" x="0px" y="0px"
	 viewBox="0 0 32 32" style="enable-background:new 0 0 32 32;" xml:space="preserve">
<g>
	<path d="M21.2,5c-0.2-0.1-0.4-0.2-0.6-0.3c-0.2-0.1-0.4-0.2-0.7-0.3c-0.1,0-0.1-0.1-0.2-0.1c-0.2-0.1-0.4-0.2-0.6-0.2
		c-1.1-0.4-2.2-0.6-3.4-0.6c-6.1,0-11.1,5-11.1,11.1c0,5.4,3.9,9.9,8.9,10.9v3.2c6.6-1,12.5-6.3,12.9-13.2C26.7,11.3,24.7,7,21.2,5z
		 M13,7.6c0.4,0,0.8,0.1,1,0.4c0.2,0.2,0.3,0.5,0.5,0.7c0.4,0.9,0.3,2-0.3,2.7c-0.9-0.2-1.8-0.8-2.2-1.8c-0.1-0.3-0.2-0.6-0.2-0.9
		C11.8,8.2,12.4,7.7,13,7.6z M9.7,10.9c0.1,0,0.1,0,0.2,0c0.3,0,0.6,0.1,1,0.2c0.9,0.4,1.6,1.2,1.8,2.1c-0.8,0.5-1.9,0.7-2.9,0.3
		c-0.3-0.1-0.5-0.3-0.8-0.5C8.2,12.3,8.7,11,9.7,10.9z M10.9,17.7c-0.3,0.1-0.6,0.2-1,0.2C8.7,18,8.1,16.5,9,15.8
		c0.2-0.2,0.5-0.4,0.8-0.5c0.4-0.2,0.7-0.2,1.1-0.2c0.6,0,1.2,0.2,1.7,0.5C12.5,16.5,11.8,17.3,10.9,17.7z M14.6,19.9
		c-0.1,0.3-0.3,0.5-0.5,0.8c-0.7,0.9-2.2,0.3-2.2-0.9c0-0.3,0.1-0.6,0.2-0.9c0.4-0.9,1.2-1.6,2.2-1.8C14.9,18,15,19,14.6,19.9z
		 M16.4,8.8c0.1-0.3,0.3-0.5,0.5-0.8c0.3-0.3,0.7-0.5,1.1-0.4c0.6,0.1,1.2,0.6,1.2,1.3c0,0.3-0.1,0.6-0.2,0.9
		c-0.4,0.9-1.2,1.6-2.2,1.8C16.2,10.8,16,9.7,16.4,8.8z M17,20.7c-0.2-0.2-0.3-0.5-0.5-0.7c-0.4-0.9-0.3-2,0.3-2.7
		c0.9,0.2,1.8,0.8,2.2,1.8c0.1,0.3,0.2,0.6,0.2,0.9C19.3,20.9,17.8,21.5,17,20.7z M21.2,17.8c-0.3,0-0.6-0.1-1-0.2
		c-0.9-0.4-1.6-1.2-1.8-2.1c0.5-0.3,1.1-0.5,1.8-0.5c0.4,0,0.7,0.1,1.1,0.2c0.3,0.1,0.5,0.3,0.8,0.5C23,16.4,22.4,17.9,21.2,17.8z"
		/>
</g>
</svg>
