<!-- Generated by IcoMoon.io -->
<svg version="1.1" xmlns="http://www.w3.org/2000/svg" width="32" height="32" viewBox="0 0 32 32">
<title>d3</title>
<path d="M3.8 4.4h2c6.4 0 11.6 5.2 11.6 11.6s-5.3 11.6-11.6 11.6h-2v-5.1h2c3.6 0 6.5-2.9 6.5-6.5s-3-6.5-6.5-6.5h-2v-5.1zM13 4.4h8.1c3.9 0 7.1 3.2 7.1 7.1 0 1.7-0.6 3.3-1.6 4.5 2.5 3 2.1 7.5-0.9 10-1.3 1.1-2.9 1.6-4.5 1.6h-8.2c2-1.3 3.6-3 4.8-5.1h3.4c1.1 0 2-0.9 2-2s-0.9-2-2-2h-2c0.3-1.7 0.3-3.4 0-5.1h2c1.1 0 2-0.9 2-2s-0.9-2-2-2h-3.4c-1.1-2-2.8-3.7-4.8-5z"></path>
</svg>
