<!-- Generated by IcoMoon.io -->
<svg version="1.1" xmlns="http://www.w3.org/2000/svg" width="34" height="32" viewBox="0 0 34 32">
<title>dreamweaver</title>
<path d="M3.2 2.5v27h27.7v-27h-27.7zM4.3 3.7h25.4v24.7h-25.4v-24.7z"></path>
<path d="M6.8 8.9c0-0.1 0-0.1 0.1-0.2 0.4 0 1.7-0.1 3-0.1 3.9 0 5.8 2.5 5.8 6.1 0 5.1-3.3 6.6-5.9 6.6-1 0-2.4 0-2.9 0-0.1 0-0.1-0.1-0.1-0.2 0 0.1 0-12.2 0-12.2zM8.8 19.6c0.3 0 0.6 0 1 0 2.1 0 3.7-1.5 3.7-4.7s-1.6-4.4-3.7-4.4c-0.4 0-0.7 0-1 0v9.1zM23.5 21.4c-0.1 0-0.2-0.1-0.2-0.2-0.6-3.2-1-5.4-1.3-7v0c-0.2 1.4-0.7 3.8-1.5 7 0 0.1-0.1 0.1-0.2 0.1h-1.9c-0.1 0-0.2 0-0.2-0.1l-2-9.1c0-0.1 0-0.2 0.1-0.2h1.9c0.1 0 0.1 0 0.2 0.1 0.7 4.1 1 6.2 1.1 7h0.1c0.1-1 0.5-3.1 1.4-7 0-0.1 0-0.1 0.2-0.1h2c0.1 0 0.1 0 0.1 0.1 0.7 3.7 1.1 6.1 1.2 7.1h0.1c0.2-1.2 0.4-2.9 1.3-7.1 0-0.1 0-0.1 0.1-0.1h1.8c0.1 0 0.1 0 0.1 0.1l-2.3 9.1c0 0.1 0 0.1-0.2 0.1l-1.9 0.2z"></path>
</svg>
