<?xml version="1.0" encoding="utf-8"?>
<!-- Generator: Adobe Illustrator 22.0.1, SVG Export Plug-In . SVG Version: 6.00 Build 0)  -->
<!DOCTYPE svg PUBLIC "-//W3C//DTD SVG 1.1//EN" "http://www.w3.org/Graphics/SVG/1.1/DTD/svg11.dtd">
<svg version="1.1" id="Layer_1" xmlns="http://www.w3.org/2000/svg" xmlns:xlink="http://www.w3.org/1999/xlink" x="0px" y="0px"
	 viewBox="0 0 34 32" style="enable-background:new 0 0 34 32;" xml:space="preserve">
<g>
	<path d="M3.2,2.5v27h27.7v-27H3.2z M4.3,3.7h25.4v24.7H4.3V3.7z"/>
</g>
<path d="M6.8,8.9c0-0.1,0-0.1,0.1-0.2c0.4,0,1.7-0.1,3-0.1c3.9,0,5.8,2.5,5.8,6.1c0,5.1-3.3,6.6-5.9,6.6c-1,0-2.4,0-2.9,0
	c-0.1,0-0.1-0.1-0.1-0.2C6.8,21.2,6.8,8.9,6.8,8.9z M8.8,19.6c0.3,0,0.6,0,1,0c2.1,0,3.7-1.5,3.7-4.7c0-3.2-1.6-4.4-3.7-4.4
	c-0.4,0-0.7,0-1,0V19.6z M23.5,21.4c-0.1,0-0.2-0.1-0.2-0.2c-0.6-3.2-1-5.4-1.3-7h0c-0.2,1.4-0.7,3.8-1.5,7c0,0.1-0.1,0.1-0.2,0.1
	h-1.9c-0.1,0-0.2,0-0.2-0.1l-2-9.1c0-0.1,0-0.2,0.1-0.2h1.9c0.1,0,0.1,0,0.2,0.1c0.7,4.1,1,6.2,1.1,7h0.1c0.1-1,0.5-3.1,1.4-7
	c0-0.1,0-0.1,0.2-0.1h2c0.1,0,0.1,0,0.1,0.1c0.7,3.7,1.1,6.1,1.2,7.1h0.1c0.2-1.2,0.4-2.9,1.3-7.1c0-0.1,0-0.1,0.1-0.1h1.8
	c0.1,0,0.1,0,0.1,0.1l-2.3,9.1c0,0.1,0,0.1-0.2,0.1L23.5,21.4L23.5,21.4z"/>
</svg>
