<!-- Generated by IcoMoon.io -->
<svg version="1.1" xmlns="http://www.w3.org/2000/svg" width="32" height="32" viewBox="0 0 32 32">
<title>filezilla</title>
<path d="M27.8 6v-1c-0.2 0-0.4-0.1-0.6-0.2-0.1-0.2-0.2-0.4-0.2-0.6h-1c0 0.4-0.4 0.8-0.8 0.8s-0.8-0.4-0.8-0.8h-1c0 0.4-0.4 0.8-0.8 0.8s-0.8-0.4-0.8-0.8h-1c0 0.4-0.4 0.8-0.8 0.8s-0.8-0.4-0.8-0.8h-1c0 0.4-0.4 0.8-0.8 0.8s-0.8-0.4-0.8-0.8h-1c0 0.4-0.4 0.8-0.8 0.8s-0.8-0.4-0.8-0.8h-1c0 0.4-0.4 0.8-0.8 0.8s-0.8-0.4-0.8-0.8h-1c-0.2 0.4-0.5 0.8-1 0.8-0.4 0-0.8-0.4-0.8-0.8h-1c0 0.4-0.4 0.8-0.8 0.8s-0.8-0.4-0.8-0.8h-1c0 0.2-0.1 0.4-0.2 0.6-0.2 0.1-0.4 0.2-0.6 0.2v1c0.4 0 0.8 0.4 0.8 0.8s-0.4 0.8-0.8 0.8v1c0.4 0 0.8 0.4 0.8 0.8s-0.4 0.8-0.8 0.8v1c0.4 0 0.8 0.4 0.8 0.8s-0.4 0.8-0.8 0.8v1c0.4 0 0.8 0.4 0.8 0.8s-0.4 0.8-0.8 0.8v1c0.4 0 0.8 0.4 0.8 0.8s-0.4 0.8-0.8 0.8v1c0.4 0 0.8 0.4 0.8 0.8s-0.4 0.8-0.8 0.8v1c0.4 0 0.8 0.4 0.8 0.8s-0.4 0.8-0.8 0.8v1c0.4 0 0.8 0.4 0.8 0.8 0 0.6-0.4 1-0.8 1v1c0.2 0 0.4 0.1 0.6 0.2 0.1 0.2 0.2 0.4 0.2 0.6h1c0-0.4 0.4-0.8 0.8-0.8s0.8 0.4 0.8 0.8h1c0-0.4 0.4-0.8 0.8-0.8s0.8 0.4 0.8 0.8h1c0-0.4 0.4-0.8 0.8-0.8s0.8 0.4 0.8 0.8h1c0-0.4 0.4-0.8 0.8-0.8s0.8 0.4 0.8 0.8h1c0-0.4 0.4-0.8 0.8-0.8s0.8 0.4 0.8 0.8h1c0-0.4 0.4-0.8 0.8-0.8s0.8 0.4 0.8 0.8h1c0-0.4 0.4-0.8 0.8-0.8s0.8 0.4 0.8 0.8h1c0-0.4 0.4-0.8 0.8-0.8s0.8 0.4 0.8 0.8h1c0-0.2 0.1-0.4 0.2-0.6 0.1-0.1 0.4-0.2 0.6-0.2v-1c-0.4 0-0.8-0.4-0.8-0.8s0.4-0.8 0.8-0.8v-1c-0.4 0-0.8-0.4-0.8-0.8s0.4-0.8 0.8-0.8v-1c-0.4 0-0.8-0.4-0.8-0.8s0.4-0.8 0.8-0.8v-1c-0.4 0-0.8-0.4-0.8-0.8s0.4-0.8 0.8-0.8v-1c-0.4 0-0.8-0.4-0.8-0.8s0.4-0.8 0.8-0.8v-1c-0.4 0-0.8-0.4-0.8-0.8s0.4-0.8 0.8-0.8v-1c-0.4 0-0.8-0.4-0.8-0.8s0.4-0.8 0.8-0.8v-1c-0.4 0-0.8-0.4-0.8-0.8 0.2-0.6 0.6-1 1-1zM23.8 15.7l-6.3 6.1c0.6 0.1 1.1 0.2 1.7 0.2 1.4 0 3.1-0.4 4.2-0.9l-0.6 2.7c-1.6 0.8-2.7 0.9-3.6 0.9-1.1 0-2.1-0.4-3.2-0.4-0.6 0-1.5 0-2 0.4l-1.1-2 6.5-6.4h-7.4l-1.5 6.7h-3.1l3.3-15.3h10.3l-0.7 3.1h-7.2l-0.6 2.9h11.8l-0.5 2z"></path>
</svg>
