<?xml version="1.0" encoding="utf-8"?>
<!-- Generator: Adobe Illustrator 22.1.0, SVG Export Plug-In . SVG Version: 6.00 Build 0)  -->
<svg version="1.1" id="Layer_1" xmlns="http://www.w3.org/2000/svg" xmlns:xlink="http://www.w3.org/1999/xlink" x="0px" y="0px"
	 viewBox="0 0 32 32" style="enable-background:new 0 0 32 32;" xml:space="preserve">
<title>firebase</title>
<g>
	<path d="M7.1,23.5l0.1-0.2l7-13.3l0-0.1l-3.1-5.8c-0.3-0.5-1-0.4-1.1,0.2L7.1,23.5z"/>
	<g>
		<g>
			<path id="path-1" d="M7.2,23.4l0.1-0.2L14.2,10l-3.1-5.8c-0.3-0.5-0.9-0.4-1,0.2L7.2,23.4z"/>
		</g>
		<g>
			<path id="path-1_10_" d="M7.2,23.4l0.1-0.2L14.2,10l-3.1-5.8c-0.3-0.5-0.9-0.4-1,0.2L7.2,23.4z"/>
		</g>
	</g>
	<path d="M16.5,14.3l2.3-2.4l-2.3-4.4c-0.2-0.4-0.8-0.4-1,0l-1.2,2.3v0.2L16.5,14.3z"/>
	<g>
		<g>
			<path id="path-3" d="M16.5,14.2l2.2-2.3l-2.2-4.3c-0.2-0.4-0.7-0.4-0.9,0L14.3,10l0,0.1L16.5,14.2z"/>
		</g>
		<g>
			<path id="path-3_10_" d="M16.5,14.2l2.2-2.3l-2.2-4.3c-0.2-0.4-0.7-0.4-0.9,0L14.3,10l0,0.1L16.5,14.2z"/>
		</g>
	</g>
	<polygon points="7.1,23.5 7.2,23.4 7.4,23.3 16.4,14.4 16.5,14.1 14.2,9.8 	"/>
	<path d="M16.8,28l8.1-4.5L22.6,9.2c-0.1-0.4-0.6-0.6-0.9-0.3L7.1,23.5l8.1,4.5C15.7,28.3,16.3,28.3,16.8,28"/>
	<path d="M24.8,23.5L22.5,9.3C22.5,8.9,22,8.7,21.7,9L7.2,23.5l8,4.5c0.5,0.3,1.1,0.3,1.6,0L24.8,23.5z"/>
	<path d="M16.8,27.9c-0.5,0.3-1.1,0.3-1.6,0l-8-4.4l-0.1,0.1l8.1,4.5c0.5,0.3,1.1,0.3,1.6,0l8.1-4.5l0-0.1L16.8,27.9z"/>
</g>
</svg>
