<!-- Generated by IcoMoon.io -->
<svg version="1.1" xmlns="http://www.w3.org/2000/svg" width="32" height="32" viewBox="0 0 32 32">
<title>firebase</title>
<path d="M7.1 23.5l0.1-0.2 7-13.3v-0.1l-3.1-5.8c-0.3-0.5-1-0.4-1.1 0.2l-2.9 19.2z"></path>
<path d="M7.2 23.4l0.1-0.2 6.9-13.2-3.1-5.8c-0.3-0.5-0.9-0.4-1 0.2l-2.9 19z"></path>
<path d="M16.5 14.3l2.3-2.4-2.3-4.4c-0.2-0.4-0.8-0.4-1 0l-1.2 2.3v0.2l2.2 4.3z"></path>
<path d="M16.5 14.2l2.2-2.3-2.2-4.3c-0.2-0.4-0.7-0.4-0.9 0l-1.3 2.4v0.1l2.2 4.1z"></path>
<path d="M7.1 23.5l0.1-0.1 0.2-0.1 9-8.9 0.1-0.3-2.3-4.3z"></path>
<path d="M16.8 28l8.1-4.5-2.3-14.3c-0.1-0.4-0.6-0.6-0.9-0.3l-14.6 14.6 8.1 4.5c0.5 0.3 1.1 0.3 1.6 0z"></path>
<path d="M24.8 23.5l-2.3-14.2c0-0.4-0.5-0.6-0.8-0.3l-14.5 14.5 8 4.5c0.5 0.3 1.1 0.3 1.6 0l8-4.5z"></path>
<path d="M16.8 27.9c-0.5 0.3-1.1 0.3-1.6 0l-8-4.4-0.1 0.1 8.1 4.5c0.5 0.3 1.1 0.3 1.6 0l8.1-4.5v-0.1l-8.1 4.4z"></path>
</svg>
