<?xml version="1.0" encoding="utf-8"?>
<!-- Generator: Adobe Illustrator 22.0.1, SVG Export Plug-In . SVG Version: 6.00 Build 0)  -->
<svg version="1.1" id="Warstwa_1" xmlns="http://www.w3.org/2000/svg" xmlns:xlink="http://www.w3.org/1999/xlink" x="0px" y="0px"
	 viewBox="0 0 32 32" style="enable-background:new 0 0 32 32;" xml:space="preserve">
<title>angular</title>
<g>
	<path d="M4.8,5V27h22.5V5H4.8z M5.7,6h20.6V26H5.7V6z"/>
</g>
<path d="M9.7,20.4c0,0.1,0,0.1-0.1,0.1H8.1c-0.1,0-0.1,0-0.1-0.1v-9.8c0-0.1,0-0.1,0.1-0.1h5c0.1,0,0.1,0,0.1,0.1l0.2,1.3
	c0,0.1,0,0.1-0.1,0.1H9.7v2.8H13c0.1,0,0.1,0,0.1,0.1v1.3c0,0.1,0,0.1-0.1,0.1H9.7V20.4z M21.4,13c1.1,0,2.5,0.5,2.5,2.7v4.7
	c0,0.1,0,0.1-0.1,0.1h-1.4c-0.1,0-0.1,0-0.1-0.1v-4.6c0-0.9-0.3-1.4-1.3-1.4c-0.5,0-0.8,0.1-1.1,0.2c0.1,0.3,0.1,0.6,0.1,1v4.7
	c0,0.1,0,0.1-0.1,0.1h-1.4c-0.1,0-0.1,0-0.1-0.1v-4.6c0-0.9-0.4-1.4-1.3-1.4c-0.4,0-0.7,0.1-1,0.2v5.8c0,0.1,0,0.1-0.1,0.1h-1.4
	c-0.1,0-0.1,0-0.1-0.1v-5.8c0-0.1,0-0.4,0-0.9c0-0.1,0-0.1,0.1-0.1c0.7-0.3,1.8-0.6,2.8-0.6c0.7,0,1.3,0.1,1.8,0.5
	C19.8,13.2,20.5,13,21.4,13z"/>
</svg>
