<!-- Generated by IcoMoon.io -->
<svg version="1.1" xmlns="http://www.w3.org/2000/svg" width="32" height="32" viewBox="0 0 32 32">
<title>framemaker</title>
<path d="M4.8 5v22h22.5v-22h-22.5zM5.7 6h20.6v20h-20.6v-20z"></path>
<path d="M9.7 20.4c0 0.1 0 0.1-0.1 0.1h-1.5c-0.1 0-0.1 0-0.1-0.1v-9.8c0-0.1 0-0.1 0.1-0.1h5c0.1 0 0.1 0 0.1 0.1l0.2 1.3c0 0.1 0 0.1-0.1 0.1h-3.6v2.8h3.3c0.1 0 0.1 0 0.1 0.1v1.3c0 0.1 0 0.1-0.1 0.1h-3.3v4.1zM21.4 13c1.1 0 2.5 0.5 2.5 2.7v4.7c0 0.1 0 0.1-0.1 0.1h-1.4c-0.1 0-0.1 0-0.1-0.1v-4.6c0-0.9-0.3-1.4-1.3-1.4-0.5 0-0.8 0.1-1.1 0.2 0.1 0.3 0.1 0.6 0.1 1v4.7c0 0.1 0 0.1-0.1 0.1h-1.4c-0.1 0-0.1 0-0.1-0.1v-4.6c0-0.9-0.4-1.4-1.3-1.4-0.4 0-0.7 0.1-1 0.2v5.8c0 0.1 0 0.1-0.1 0.1h-1.4c-0.1 0-0.1 0-0.1-0.1v-5.8c0-0.1 0-0.4 0-0.9 0-0.1 0-0.1 0.1-0.1 0.7-0.3 1.8-0.6 2.8-0.6 0.7 0 1.3 0.1 1.8 0.5 0.6-0.2 1.3-0.4 2.2-0.4z"></path>
</svg>
