<!-- Generated by IcoMoon.io -->
<svg version="1.1" xmlns="http://www.w3.org/2000/svg" width="32" height="32" viewBox="0 0 32 32">
<title>gitlab</title>
<path d="M15.7 27.133h0z"></path>
<path d="M11.3 13.533v0z"></path>
<path d="M7.7 5.333l-2.6 8.2z"></path>
<path d="M15.7 27.133v0l-4.4-13.6z"></path>
<path d="M22.9 5.133c-0.1 0.1-0.1 0.1-0.2 0.2v0c0.1-0.1 0.1-0.2 0.2-0.2z"></path>
<path d="M4.1 18.733c-0.2-0.1-0.3-0.3-0.3-0.5 0 0.2 0.1 0.4 0.3 0.5v0z"></path>
<path d="M23.1 5.033c0 0 0.1 0 0 0 0.1 0 0 0 0 0z"></path>
<path d="M15.7 27.133v0l11.6-8.4c0.2-0.1 0.3-0.3 0.3-0.5-0.1 0.2-0.2 0.3-0.3 0.5l-11.6 8.4z"></path>
<path d="M15.7 27.133v0 0l4.4-13.6h-8.8z"></path>
<path d="M11.3 13.533h-6.2l10.6 13.6z"></path>
<path d="M3.7 17.633v0c-0.1 0.2-0.1 0.4 0 0.6 0-0.2 0-0.4 0-0.6z"></path>
<path d="M15.7 27.133l-10.6-13.6-1.4 4.2c-0.1 0.2-0.1 0.4 0 0.6s0.2 0.3 0.3 0.5l11.7 8.3z"></path>
<path d="M5.1 13.533v0l10.6 13.6z"></path>
<path d="M8.2 5.033c-0.2 0-0.4 0.1-0.4 0.3 0-0.2 0.2-0.3 0.4-0.3z"></path>
<path d="M8.6 5.333v0c-0.1-0.2-0.3-0.3-0.4-0.3 0.1 0 0.3 0.1 0.4 0.3z"></path>
<path d="M11.3 13.533l-2.6-8.2c-0.1-0.2-0.3-0.3-0.4-0.3s-0.4 0.1-0.4 0.3l-2.7 8.2h6.1z"></path>
<path d="M15.7 27.133l10.6-13.6h-6.2z"></path>
<path d="M27.7 17.933c0-0.1 0-0.2 0-0.3v0c-0.1 0.1 0 0.2 0 0.3z"></path>
<path d="M27.6 17.633l-1.3-4.1-10.6 13.6 11.6-8.4c0.2-0.1 0.3-0.3 0.3-0.5 0-0.1 0-0.2 0-0.3s0-0.2 0-0.3z"></path>
<path d="M15.7 27.133v0 0z"></path>
<path d="M22.9 5.133c0.1 0 0.1 0 0.2-0.1-0.1 0.1-0.1 0.1-0.2 0.1z"></path>
<path d="M23.6 5.333v0c-0.1-0.2-0.3-0.3-0.4-0.3 0.2 0 0.3 0.1 0.4 0.3z"></path>
<path d="M23.6 5.333c-0.1-0.2-0.3-0.3-0.4-0.3 0 0-0.1 0-0.1 0-0.1 0-0.1 0-0.2 0.1s-0.1 0.1-0.2 0.2l-2.7 8.2h6.2l-2.6-8.2z"></path>
</svg>
