<?xml version="1.0" encoding="utf-8"?>
<!-- Generator: Adobe Illustrator 21.1.0, SVG Export Plug-In . SVG Version: 6.00 Build 0)  -->
<!DOCTYPE svg PUBLIC "-//W3C//DTD SVG 1.1//EN" "http://www.w3.org/Graphics/SVG/1.1/DTD/svg11.dtd">
<svg version="1.1" id="Layer_1" xmlns="http://www.w3.org/2000/svg" xmlns:xlink="http://www.w3.org/1999/xlink" x="0px" y="0px"
	 viewBox="0 0 32 32" style="enable-background:new 0 0 32 32;" xml:space="preserve">
<style type="text/css">
	.st0{filter:url(#Adobe_OpacityMaskFilter);}
	.st1{fill:#FFFFFF;}
	.st2{mask:url(#mask-2_1_);}
</style>
<title>angular</title>
<title>logo</title>
<desc>Created with Sketch.</desc>
<g id="Page-1" sketch:type="MSPage">
	<g id="gitlab_logo" transform="translate(-359.000000, -360.000000)" sketch:type="MSLayerGroup">
		
			<g id="g10" transform="translate(999.999975, 587.666648) scale(1, -1) translate(-999.999975, -587.666648) translate(0.000000, 0.999996)">
			<g id="g16">
				<g id="g18-Clipped">
					<g id="path22">
					</g>
					<defs>
						<filter id="Adobe_OpacityMaskFilter" filterUnits="userSpaceOnUse">
							<feColorMatrix  type="matrix" values="1 0 0 0 0  0 1 0 0 0  0 0 1 0 0  0 0 0 1 0"/>
						</filter>
					</defs>
					<mask maskUnits="userSpaceOnUse" id="mask-2_1_">
						<g class="st0">
							<path id="path-1_1_" class="st1" d="M345.2,826.8h97.4v-57.1h-97.4V826.8L345.2,826.8z"/>
						</g>
					</mask>
					<g id="g18" class="st2">
						<g transform="translate(358.666658, 358.666658)">
							<g id="g52" transform="translate(247.197860, 1.160267)">
								<g id="path54">
								</g>
							</g>
							<g id="g60" transform="translate(247.197860, 1.160800)">
								<g id="path62">
								</g>
							</g>
							<g id="g68" transform="translate(247.197860, 1.160267)">
								<g id="path70">
								</g>
							</g>
						</g>
					</g>
				</g>
				<g>
					<polygon points="374.7,787.2 379.1,800.8 385.3,800.8 385.3,800.8 379.1,800.8 374.7,787.2 					"/>
					<polygon points="370.3,800.8 368.9,804.9 370.3,800.8 					"/>
					<polygon points="366.7,809 364.1,800.8 363.4,798.7 364.1,800.8 					"/>
					<polygon points="374.7,787.2 374.7,787.2 370.3,800.8 364.1,800.8 364.1,800.8 370.3,800.8 					"/>
					<path d="M381.9,809.2c-0.1-0.1-0.1-0.1-0.2-0.2l-2.7-8.2l2.7,8.2C381.8,809.1,381.8,809.2,381.9,809.2z"/>
					<path d="M363.1,795.6c-0.2,0.1-0.3,0.3-0.3,0.5C362.8,795.9,362.9,795.7,363.1,795.6l11.6-8.4l0,0L363.1,795.6z"/>
					<path d="M382.1,809.3C382.1,809.3,382.2,809.3,382.1,809.3C382.2,809.3,382.1,809.3,382.1,809.3z"/>
					<path d="M374.7,787.2L374.7,787.2l11.6,8.4c0.2,0.1,0.3,0.3,0.3,0.5c-0.1-0.2-0.2-0.3-0.3-0.5L374.7,787.2z"/>
					<polygon points="374.7,787.2 374.7,787.2 374.7,787.2 					"/>
					<polygon points="374.7,787.2 374.7,787.2 374.7,787.2 					"/>
					<rect x="374.7" y="787.2" width="0" height="0"/>
					<polygon points="374.7,787.2 374.7,787.2 374.7,787.2 379.1,800.8 370.3,800.8 370.3,800.8 					"/>
					<polygon points="370.3,800.8 364.1,800.8 374.7,787.2 					"/>
					<polygon points="374.7,787.2 374.7,787.2 374.7,787.2 					"/>
					<path d="M362.7,796.7l0.7,2.1L362.7,796.7c-0.1-0.2-0.1-0.4,0-0.6C362.7,796.3,362.7,796.5,362.7,796.7z"/>
					<ellipse transform="matrix(0.7071 -0.7071 0.7071 0.7071 -446.893 495.4984)" cx="374.7" cy="787.2" rx="0" ry="0"/>
					<path d="M374.7,787.2l-10.6,13.6h0l0,0l-0.7-2.1l-0.7-2.1c-0.1-0.2-0.1-0.4,0-0.6c0.1-0.2,0.2-0.3,0.3-0.5L374.7,787.2z"/>
					<polygon points="374.7,787.2 374.7,787.2 374.7,787.2 					"/>
					<polygon points="364.1,800.8 364.1,800.8 374.7,787.2 374.7,787.2 374.7,787.2 					"/>
					<path d="M367.2,809.3c-0.2,0-0.4-0.1-0.4-0.3C366.8,809.2,367,809.3,367.2,809.3z"/>
					<path d="M367.6,809l1.3-4.1L367.6,809c-0.1,0.2-0.3,0.3-0.4,0.3C367.3,809.3,367.5,809.2,367.6,809z"/>
					<path d="M370.3,800.8l-1.3,4.1l-1.3,4.1c-0.1,0.2-0.3,0.3-0.4,0.3s-0.4-0.1-0.4-0.3l-2.7-8.2H370.3z"/>
					<polygon points="374.7,787.2 374.7,787.2 374.7,787.2 					"/>
					<polygon points="374.7,787.2 385.3,800.8 379.1,800.8 					"/>
					<path d="M386.7,796.4c0,0.1,0,0.2,0,0.3l-1.3,4.1l1.3-4.1C386.6,796.6,386.7,796.5,386.7,796.4z"/>
					<path d="M386.6,796.7l-1.3,4.1l0,0h0l-10.6-13.6l11.6,8.4c0.2,0.1,0.3,0.3,0.3,0.5c0,0.1,0,0.2,0,0.3S386.6,796.6,386.6,796.7z
						"/>
					<ellipse transform="matrix(0.7071 -0.7071 0.7071 0.7071 -446.8929 495.4984)" cx="374.7" cy="787.2" rx="0" ry="0"/>
					<polygon points="374.7,787.2 374.7,787.2 374.7,787.2 					"/>
					<polygon points="374.7,787.2 374.7,787.2 385.3,800.8 385.3,800.8 374.7,787.2 					"/>
					<path d="M381.9,809.2c0.1,0,0.1,0,0.2,0.1C382,809.2,382,809.2,381.9,809.2z"/>
					<path d="M382.6,809l2.7-8.2L382.6,809c-0.1,0.2-0.3,0.3-0.4,0.3C382.4,809.3,382.5,809.2,382.6,809z"/>
					<path d="M382.6,809c-0.1,0.2-0.3,0.3-0.4,0.3c0,0-0.1,0-0.1,0c-0.1,0-0.1,0-0.2-0.1c-0.1-0.1-0.1-0.1-0.2-0.2l-2.7-8.2h6.2
						L382.6,809z"/>
				</g>
			</g>
		</g>
	</g>
</g>
</svg>
