<?xml version="1.0" encoding="utf-8"?>
<!-- Generator: Adobe Illustrator 23.0.1, SVG Export Plug-In . SVG Version: 6.00 Build 0)  -->
<svg version="1.1" id="Layer_1" xmlns="http://www.w3.org/2000/svg" xmlns:xlink="http://www.w3.org/1999/xlink" x="0px" y="0px"
	 viewBox="0 0 32 32" style="enable-background:new 0 0 32 32;" xml:space="preserve">
<title>google_analytics</title>
<g>
	<path d="M26,24.3c0,1.5-1.2,2.7-2.8,2.8c-0.1,0-0.2,0-0.3,0c-1.4-0.2-2.5-1.4-2.4-2.8V7.8c0-1.4,1-2.6,2.4-2.8
		c1.5-0.2,2.9,0.9,3.1,2.4c0,0.1,0,0.2,0,0.3V24.3z"/>
	<path d="M8.5,21.6c1.5,0,2.8,1.2,2.8,2.7c0,1.5-1.2,2.7-2.8,2.7c-1.5,0-2.8-1.2-2.8-2.7C5.8,22.8,7,21.6,8.5,21.6z M15.9,13.3
		c-1.5,0.1-2.7,1.4-2.7,2.9v7.3c0,2,0.9,3.2,2.2,3.5c1.5,0.3,3-0.7,3.3-2.1c0-0.2,0.1-0.4,0.1-0.6V16C18.7,14.5,17.4,13.3,15.9,13.3
		C15.9,13.3,15.9,13.3,15.9,13.3z"/>
</g>
</svg>
