<!-- Generated by IcoMoon.io -->
<svg version="1.1" xmlns="http://www.w3.org/2000/svg" width="32" height="32" viewBox="0 0 32 32">
<title>gradle</title>
<path d="M14.6 12.5c0 0 0 0 0 0-1.3 1.9-2.4 2.5-3.3 2.5 0.9 0 2-0.7 3.3-2.5z"></path>
<path d="M8.3 11.6c0 0 0 0 0 0-5.8 2.1-4.3 11.4-4.3 11.4v0c0.1-0.1-1.5-9.3 4.3-11.4z"></path>
<path d="M29 11.7c0 0.1 0 0.2 0 0.2 0-0.1 0-0.2 0-0.2z"></path>
<path d="M10.1 13.6c-0.9-1.5-0.6-0.9-1.5-2.7-0.7-1.4 0.1-1.9 1.8-2.5 0.4-0.1 1.1-0.3 1.9-0.5-0.8 0.2-1.4 0.4-1.9 0.5-1.7 0.6-2.5 1.1-1.9 2.5 1 1.7 0.7 1.2 1.6 2.7 0.3 0.6 0.8 0.8 1.3 0.8-0.5 0-1-0.2-1.3-0.8z"></path>
<path d="M26.4 12.3c0 0 0.1 0 0.1-0.1 0.3-0.1 0.6-0.4 0.8-0.6 0 0 0 0 0-0.1 0.5-0.1 1-0.2 1.5-0.3 0 0.1 0 0.1 0 0.2 0-0.5-0.1-1-0.2-1.4-0.2-0.7-0.9-1.6-1.6-2 0 0 0 0 0 0-0.7 0.3-1.4 0.3-2 0.7 0.4 0.3 1 0.7 1.3 1.5 0.3 0.5 0.7 1.6 0.1 2.1-0.3 0.3-0.6 0.5-0.9 0.5 0.3 0 0.6-0.2 0.9-0.5v0z"></path>
<path d="M24.8 8c0 0 0 0 0 0-0.2 0.2-0.2 0.3-0.2 0.3 0.1 0 0.1-0.1 0.2-0.3 0 0 0 0 0 0z"></path>
<path d="M25.4 12.8c-0.7 0-1.7-0.5-3.5-2.2 1.8 1.7 2.8 2.2 3.5 2.2z"></path>
<path d="M9 20.4c0.8 0 1.6 0.9 1.8 2.5v0c-0.2-1.6-1-2.5-1.8-2.5z"></path>
<path d="M28.9 12.2c0 0.1 0 0.1 0 0.2 0-0.1 0-0.1 0-0.2z"></path>
<path d="M25.5 17.1c0 0-0.1 0-0.1 0.1 0-0.1 0.1-0.1 0.1-0.1z"></path>
<path d="M24.6 17.4c-0.1 0-0.2 0.1-0.3 0.1 0.1 0 0.2 0 0.3-0.1z"></path>
<path d="M25.1 17.3c-0.1 0-0.2 0.1-0.3 0.1 0.1 0 0.2-0.1 0.3-0.1z"></path>
<path d="M28.9 12.8c0-0.1 0-0.1 0 0 0-0.1 0-0.1 0 0z"></path>
<path d="M24.1 17.6c-0.1 0-0.1 0-0.2 0 0.1 0 0.2 0 0.2 0z"></path>
<path d="M15.4 20c1.8 0 3.7 3 3.7 3v0c0-0.1-1.9-3.1-3.7-3z"></path>
<path d="M29 11.5c0 0 0 0.1 0 0.1s0 0 0-0.1z"></path>
<path d="M28.9 12.4c0 0.1 0 0.2-0.1 0.3 0.1-0.1 0.1-0.2 0.1-0.3z"></path>
<path d="M29 11.9c0 0.1 0 0.2 0 0.3 0-0.1 0-0.2 0-0.3z"></path>
<path d="M24.3 17.5c-0.1 0-0.1 0-0.2 0 0.1 0.1 0.1 0.1 0.2 0z"></path>
<path d="M25.4 17.2c-0.1 0-0.2 0.1-0.3 0.1 0.1-0.1 0.2-0.1 0.3-0.1z"></path>
<path d="M24.8 17.4c0 0-0.1 0-0.1 0s0 0 0.1 0z"></path>
<path d="M11.3 15c-0.8 0-1.4-0.5-1.8-1-0.7-1.1-1.2-2.3-1.2-2.3s0 0 0 0c0 0.1 0.5 1.3 1.2 2.3 0.4 0.5 1 1 1.8 1z"></path>
<path d="M21.6 22.9v0c0-3.6-0.4-4.9 1.5-5.1 0.3 0 0.6-0.1 0.9-0.2-0.3 0.1-0.6 0.1-0.9 0.2-1.9 0.2-1.5 1.6-1.5 5.1z"></path>
<path d="M7 22.9v0c0.4-1.7 1.2-2.5 2-2.5-0.8 0-1.7 0.8-2 2.5z"></path>
<path d="M11.4 14.4c1.3 0 2.9-1.5 3.2-1.8 0 0 0 0 0-0.1 0 0-1.8 1.9-3.2 1.9z"></path>
<path d="M25.5 17.1c1.5-0.7 2.4-1.9 3-3.4 0.1-0.3 0.2-0.6 0.3-1-0.1 0.3-0.2 0.6-0.3 1-0.6 1.5-1.5 2.7-3 3.4z"></path>
<path d="M13 22.9v0c0.7-2.2 1.5-2.9 2.4-3-0.9 0.1-1.8 0.8-2.4 3z"></path>
<path d="M21.1 10c0.3 0.3 0.6 0.5 0.8 0.7-0.3-0.2-0.6-0.5-0.8-0.7-2.8-2.7-6.5-2.5-8.8-2.1 2.3-0.5 5.9-0.6 8.8 2.1z"></path>
<path d="M25.5 12.8c0 0-0.1 0-0.1 0s0.1 0 0.1 0z"></path>
<path d="M28.9 12.4c0-0.1 0-0.1 0-0.2s0-0.2 0-0.3c0-0.1 0-0.2 0-0.2s0-0.1 0-0.1 0-0.1 0-0.2c-0.5 0-1.1 0.1-1.5 0.3 0 0 0 0 0 0.1-0.2 0.3-0.5 0.5-0.8 0.6 0 0-0.1 0-0.1 0.1l-0.1 0.1c-0.2 0.2-0.5 0.4-0.9 0.4 0 0-0.1 0-0.1 0-0.7 0-1.7-0.5-3.5-2.2-0.3-0.2-0.5-0.5-0.8-0.7-2.9-2.7-6.5-2.5-8.8-2.1-0.8 0.2-1.4 0.4-1.9 0.5-1.7 0.5-2.5 1-1.8 2.4 0.9 1.8 0.6 1.2 1.5 2.7 0.4 0.6 0.8 0.8 1.3 0.8 1.5 0 3.2-1.9 3.2-1.9s0 0 0 0.1c0 0 0.1-0.1 0.1-0.1-1.2 1.8-2.4 2.5-3.3 2.5-0.8 0-1.4-0.5-1.8-1-0.7-1.1-1.2-2.3-1.2-2.3-5.8 2.1-4.2 11.4-4.2 11.4h2.8c0.4-1.7 1.2-2.5 2-2.5s1.6 0.9 1.8 2.5h2.2c0.6-2.2 1.5-2.9 2.4-3 1.8 0 3.7 3 3.7 3h2.5c0-3.6-0.4-4.9 1.5-5.1 0.3 0 0.6-0.1 0.9-0.2 0.1 0 0.1 0 0.2 0s0.1 0 0.2 0 0.2-0.1 0.3-0.1c0 0 0.1 0 0.1 0 0.1 0 0.2-0.1 0.3-0.1s0.2-0.1 0.3-0.1c0 0 0.1 0 0.1-0.1 1.5-0.7 2.4-1.9 3-3.4 0.1-0.3 0.2-0.6 0.3-1 0 0 0 0 0 0 0.1-0.4 0.1-0.5 0.1-0.6zM19.4 14.3c-1.5-0.5-1-2-1-2s0.4 0.1 1 0.3c0.1-0.1 0.2-0.1 0.4-0.2 0.4 0 0.8 0.2 0.9 0.6 0.3 0.1 0.5 0.2 0.8 0.3 0 0.5-0.9 1.4-2.1 1z"></path>
<path d="M19.9 12.4c-0.2 0-0.3 0.1-0.4 0.2 0.4 0.1 0.8 0.3 1.3 0.4-0.1-0.4-0.5-0.6-0.9-0.6z"></path>
<path d="M19.2 13.3c0 0.4 0.4 0.7 0.9 0.7 0.4 0 0.8-0.4 0.7-0.9 0 0 0-0.1 0-0.1-0.5-0.2-0.9-0.3-1.3-0.4-0.2 0.1-0.3 0.4-0.3 0.7z"></path>
<path d="M24.6 8.3c0 0.1 0.1 0.2 0.1 0.3 0.1 0.1 0.2 0.2 0.4 0.3 0 0 0 0 0 0-0.1-0.1-0.3-0.2-0.4-0.3 0-0.1-0.1-0.2-0.1-0.3z"></path>
<path d="M27.2 8.1c-0.6-0.5-1.5-0.9-1.8-0.6-0.1 0-0.4 0.3-0.6 0.5 0.3-0.2 1.2-0.1 1.2-0.1 0.2-0.3 0.7-0.2 1.2 0.2z"></path>
<path d="M27.2 8.1c-0.5-0.3-0.9-0.5-1.2-0.2-0.1 0.1-0.9 0-1.2 0.1 0 0 0 0-0.1 0.1s-0.1 0.2-0.1 0.3c0 0.1 0.1 0.2 0.1 0.2 0.1 0.1 0.2 0.2 0.4 0.3 0.7-0.6 1.4-0.6 2.1-0.8 0 0 0 0 0 0z"></path>
</svg>
