<!-- Generated by IcoMoon.io -->
<svg version="1.1" xmlns="http://www.w3.org/2000/svg" width="32" height="32" viewBox="0 0 32 32">
<title>gulp</title>
<path d="M9.4 16.3c0 0-0.1 0.1-0.1 0.3-0.1 0.2-0.1 0.4-0.2 0.6s-0.2 0.5-0.2 0.8c-0.1 0.3-0.2 0.6-0.3 0.9s-0.2 0.6-0.3 0.9c-0.1 0.3-0.2 0.6-0.2 0.8-0.1 0.1-0.1 0.3-0.2 0.5 0 0.2-0.1 0.3-0.1 0.3 0 0.1-0.1 0.2-0.1 0.3-0.1 0.1-0.1 0.2-0.2 0.3s-0.2 0.2-0.2 0.3c-0.1 0.1-0.2 0.1-0.3 0.1-0.2 0-0.3-0.1-0.3-0.2s-0.1-0.3-0.1-0.6v-0.1c0 0 0-0.1 0-0.1 0-0.1 0-0.3 0.1-0.5 0.1-0.3 0.2-0.5 0.2-0.9s0.2-0.7 0.3-1c0.1-0.3 0.2-0.7 0.3-0.9-0.3 0.3-0.5 0.6-0.9 0.9-0.3 0.3-0.6 0.6-0.9 0.8s-0.6 0.4-1 0.6c-0.3 0.1-0.6 0.2-0.9 0.2s-0.6-0.1-0.9-0.2c-0.3-0.2-0.5-0.4-0.6-0.6s-0.3-0.7-0.4-1c-0.1-0.3-0.1-0.6-0.1-0.9v-0.1c0 0 0-0.1 0-0.1 0-0.6 0.1-1.1 0.2-1.7s0.3-1.2 0.5-1.8c0.3-0.6 0.5-1.2 0.8-1.8s0.6-1.1 0.9-1.6c0.3-0.5 0.7-1 1.1-1.4s0.7-0.7 1.1-1c0.4-0.3 0.8-0.5 1.2-0.7s0.8-0.3 1.2-0.3c0.5 0 0.9 0.1 1.3 0.4 0.4 0.2 0.8 0.6 1.2 1.2 0.1 0.1 0.1 0.2 0.2 0.4 0 0.1 0 0.2 0 0.4 0 0.3-0.1 0.5-0.2 0.6s-0.3 0.2-0.4 0.2c-0.2 0-0.3-0.1-0.4-0.3s-0.3-0.4-0.5-0.7c-0.2-0.3-0.4-0.5-0.6-0.6s-0.4-0.2-0.6-0.2c-0.3 0-0.7 0.1-1.1 0.4s-0.8 0.7-1.2 1.1-0.8 1-1.1 1.6c-0.4 0.6-0.7 1.2-0.9 1.9-0.3 0.6-0.5 1.3-0.7 1.9s-0.2 1.2-0.2 1.7c0 0.2 0 0.3 0 0.5s0.1 0.3 0.1 0.5c0.1 0.1 0.1 0.3 0.3 0.3 0.1 0.1 0.2 0.1 0.4 0.1s0.4-0.1 0.6-0.2c0.2-0.1 0.5-0.3 0.7-0.5 0.3-0.1 0.5-0.3 0.8-0.6s0.5-0.5 0.7-0.7c0.2-0.3 0.4-0.5 0.6-0.7s0.3-0.4 0.4-0.6l0.7-2.1c0.1-0.2 0.2-0.4 0.3-0.5s0.3-0.1 0.4-0.1c0.1 0 0.1 0 0.2 0s0.1 0.1 0.2 0.1c0.1 0 0.1 0.1 0.1 0.2s0 0.2 0 0.3c0 0.3 0 0.5-0.1 0.8 0 0.2-0.1 0.5-0.2 0.7s-0.2 0.5-0.3 0.7c0.1 0.2 0 0.4-0.1 0.7v0zM18.7 18c-0.2 0.3-0.5 0.6-0.8 0.9s-0.6 0.5-0.9 0.7-0.6 0.4-0.9 0.5-0.6 0.2-0.8 0.2c-0.2 0-0.4-0.1-0.6-0.2-0.1-0.2-0.2-0.4-0.2-0.8 0-0.3 0-0.6 0.1-0.9-0.1 0.2-0.3 0.5-0.5 0.7s-0.4 0.4-0.7 0.6c-0.2 0.2-0.5 0.4-0.8 0.5s-0.6 0.2-1 0.2c-0.2 0-0.3 0-0.5-0.1-0.2 0-0.3-0.1-0.4-0.2s-0.2-0.2-0.3-0.4c-0.1-0.2-0.1-0.4-0.1-0.6 0 0 0-0.1 0-0.3s0.1-0.4 0.2-0.8c0.1-0.4 0.3-0.9 0.5-1.4 0.2-0.6 0.5-1.3 0.9-2.2 0.1-0.2 0.2-0.4 0.4-0.5 0.1-0.1 0.3-0.1 0.4-0.1s0.1 0 0.2 0 0.1 0.1 0.2 0.1c0.1 0 0.1 0.1 0.2 0.2s0.1 0.1 0.1 0.2 0 0.1 0 0.2-0.1 0.2-0.2 0.4c-0.1 0.2-0.2 0.3-0.3 0.6s-0.2 0.4-0.3 0.7c-0.1 0.2-0.2 0.5-0.3 0.7-0.1 0.3-0.2 0.5-0.3 0.8s-0.1 0.5-0.1 0.8c0 0.1 0 0.2 0.1 0.3 0 0.1 0.1 0.1 0.2 0.1 0.3 0 0.6-0.1 0.9-0.3s0.6-0.5 0.8-0.8c0.2-0.3 0.5-0.7 0.7-1 0.2-0.4 0.4-0.7 0.5-1 0.1-0.2 0.2-0.4 0.2-0.6s0.1-0.4 0.2-0.6 0.2-0.4 0.3-0.5 0.2-0.2 0.4-0.2c0.2 0 0.3 0.1 0.4 0.2s0.2 0.3 0.2 0.5c0 0.1 0 0.3-0.1 0.4-0.1 0.2-0.2 0.4-0.3 0.6s-0.2 0.5-0.3 0.8c-0.1 0.3-0.2 0.5-0.3 0.8s-0.2 0.6-0.3 0.8c-0.1 0.3-0.1 0.5-0.1 0.7s0.1 0.3 0.3 0.3c0.2 0 0.3-0.1 0.6-0.2 0.2-0.1 0.5-0.3 0.7-0.4 0.3-0.2 0.5-0.4 0.7-0.7 0.3-0.3 0.5-0.5 0.7-0.8l0.3 1.1z"></path>
<path d="M7 22.5c-0.3 0-0.4-0.1-0.5-0.2s-0.1-0.4-0.1-0.7v-0.1c0 0 0-0.1 0-0.1 0-0.1 0-0.3 0.1-0.6 0.1-0.2 0.1-0.5 0.2-0.9 0.1-0.3 0.2-0.6 0.3-1 0-0.1 0.1-0.2 0.1-0.2-0.1 0.1-0.2 0.2-0.3 0.3-0.3 0.3-0.6 0.6-1 0.8-0.3 0.2-0.7 0.4-1 0.6s-0.7 0.2-1 0.2c-0.4 0-0.7-0.1-1-0.3s-0.5-0.4-0.7-0.6c-0.2-0.3-0.3-0.6-0.4-0.9s-0.1-0.7-0.1-1v-0.1c0 0 0-0.1 0-0.1 0-0.6 0.1-1.2 0.2-1.8s0.3-1.2 0.5-1.8c0.2-0.6 0.5-1.2 0.7-1.7 0.3-0.6 0.6-1.1 0.9-1.6s0.7-1 1.1-1.4c0.4-0.4 0.8-0.8 1.2-1.1s0.8-0.6 1.2-0.7c0.6-0.2 1-0.2 1.4-0.2 0.5 0 0.9 0.1 1.4 0.4 0.4 0.3 0.9 0.7 1.2 1.2 0.1 0.1 0.2 0.3 0.2 0.4s0 0.3 0 0.4-0.1 0.5-0.2 0.7c-0.2 0.2-0.4 0.3-0.6 0.3s-0.4-0.1-0.6-0.3c-0.1-0.2-0.2-0.4-0.4-0.7-0.1-0.3-0.3-0.5-0.5-0.6-0.1-0.1-0.3-0.1-0.5-0.1-0.3 0-0.7 0.1-1 0.4-0.4 0.2-0.8 0.6-1.2 1.1s-0.8 1-1.1 1.6c-0.3 0.6-0.7 1.2-0.9 1.8-0.3 0.6-0.5 1.3-0.6 1.9-0.2 0.6-0.2 1.1-0.2 1.6 0 0.2 0 0.3 0 0.5s0.1 0.3 0.1 0.4c0.1 0.1 0.1 0.2 0.2 0.3s0.2 0.1 0.3 0.1 0.3-0.1 0.5-0.2c0.2-0.1 0.5-0.3 0.7-0.5s0.5-0.4 0.7-0.7c0.2-0.2 0.5-0.5 0.7-0.8s0.4-0.5 0.6-0.7c0.2-0.2 0.3-0.4 0.4-0.6l0.7-2.1c0.1-0.3 0.2-0.4 0.4-0.6 0.2-0.1 0.3-0.2 0.5-0.2 0.1 0 0.2 0 0.3 0s0.2 0.1 0.2 0.1 0.1 0.2 0.2 0.3c0 0.1 0.1 0.2 0.1 0.3 0 0.3 0 0.6-0.1 0.8-0.1 0.3-0.1 0.5-0.2 0.7s-0.2 0.5-0.3 0.7c-0.1 0.2-0.2 0.5-0.3 0.7v0 0c0 0 0 0.1-0.1 0.2-0.1 0.2-0.1 0.4-0.2 0.6 0 0.8-0.1 1-0.2 1.3s-0.2 0.6-0.3 0.9c-0.1 0.3-0.2 0.6-0.3 0.9s-0.2 0.6-0.2 0.8c-0.1 0.2-0.1 0.4-0.2 0.6 0 0.1 0 0.2 0 0.2 0 0.1-0.1 0.2-0.1 0.3-0.1 0.1-0.1 0.2-0.2 0.4-0.1 0.1-0.2 0.2-0.3 0.3s-0.3 0.1-0.4 0.1zM7.9 17.3l-0.2 0.7c-0.1 0.3-0.2 0.6-0.3 0.9-0.1 0.4-0.2 0.7-0.3 1-0.1 0.4-0.2 0.6-0.2 0.9-0.1 0.3-0.1 0.4-0.1 0.5v0c0 0 0 0.1 0 0.1v0.1c0 0.3 0 0.4 0.1 0.5 0 0 0.1 0.1 0.2 0.1s0.1 0 0.2-0.1 0.1-0.1 0.2-0.2 0.1-0.2 0.2-0.3c0-0.1 0.1-0.2 0.1-0.3v0c0 0 0.1-0.2 0.1-0.3 0-0.2 0.1-0.4 0.2-0.6-0.1-0.1 0-0.3 0.1-0.6s0.2-0.6 0.3-0.9c0.1-0.3 0.2-0.6 0.3-0.9s0.2-0.5 0.2-0.8c0.1-0.2 0.1-0.4 0.2-0.6s0.1-0.3 0.1-0.3c0.1-0.2 0.2-0.5 0.3-0.7s0.2-0.5 0.3-0.7c0.1-0.2 0.1-0.5 0.2-0.7 0-0.2 0.1-0.5 0.1-0.8 0-0.1 0-0.2 0-0.2 0-0.1-0.1-0.1-0.1-0.1v0c0 0-0.1-0.1-0.1-0.1-0.1 0-0.1 0-0.2 0s-0.2 0-0.3 0.1c-0.1 0.1-0.2 0.2-0.3 0.4l-0.7 2.1c-0.1 0.2-0.2 0.4-0.4 0.6s-0.4 0.5-0.6 0.8c-0.2 0.3-0.5 0.5-0.7 0.8-0.3 0.3-0.5 0.5-0.8 0.7s-0.5 0.4-0.7 0.5c-0.5 0.1-0.7 0.1-0.9 0.1s-0.4 0-0.5-0.1c-0.1-0.1-0.2-0.2-0.3-0.4s-0.1-0.3-0.1-0.5c0-0.2 0-0.4 0-0.5 0-0.5 0.1-1.1 0.2-1.7 0.2-0.6 0.4-1.3 0.7-1.9s0.6-1.3 0.9-1.9c0.4-0.6 0.7-1.2 1.1-1.6 0.4-0.5 0.8-0.9 1.2-1.2 0.4-0.4 0.8-0.6 1.2-0.6 0.3 0 0.5 0.1 0.7 0.2 0.2 0.2 0.4 0.4 0.6 0.7v0c0.2 0.3 0.3 0.5 0.4 0.7 0.1 0.1 0.2 0.2 0.3 0.2s0.2-0.1 0.3-0.2c0.1-0.1 0.2-0.3 0.2-0.5 0-0.1 0-0.2 0-0.3s-0.1-0.2-0.1-0.3c-0.4-0.5-0.7-0.9-1.1-1.1-0.5-0.3-0.9-0.4-1.3-0.4s-0.7 0.1-1.1 0.2c-0.4 0.2-0.8 0.4-1.2 0.7s-0.7 0.7-1.1 1.1c-0.4 0.4-0.7 0.9-1 1.4s-0.6 1-0.9 1.6c-0.3 0.6-0.5 1.1-0.7 1.7s-0.4 1.2-0.5 1.7c-0.2 0.5-0.3 1.1-0.3 1.7v0c0 0 0 0.1 0 0.1v0.1c0 0.3 0 0.6 0.1 0.9s0.2 0.6 0.3 0.8c0.2 0.2 0.4 0.4 0.6 0.5s0.5 0.2 0.8 0.2c0.3 0 0.6-0.1 0.9-0.2s0.6-0.3 0.9-0.5c0.3-0.2 0.6-0.5 0.9-0.8s0.6-0.6 0.8-0.9l0.6-0.6zM15.4 20.5c-0.3 0-0.5-0.1-0.7-0.3s-0.3-0.5-0.3-0.9c0-0.1 0-0.2 0-0.2s-0.1 0.1-0.1 0.1c-0.2 0.2-0.4 0.5-0.7 0.7s-0.6 0.4-0.9 0.5c-0.3 0.1-0.7 0.2-1.1 0.2-0.2 0-0.4 0-0.5-0.1-0.2 0-0.3-0.1-0.5-0.2-0.1-0.1-0.2-0.3-0.3-0.5s-0.1-0.4-0.1-0.7c0 0 0 0 0-0.2v-0.1c0-0.2 0.1-0.5 0.2-0.8 0.1-0.4 0.3-0.8 0.5-1.5 0.2-0.6 0.5-1.3 0.9-2.2 0.1-0.2 0.3-0.4 0.4-0.5 0.2-0.1 0.3-0.2 0.5-0.2 0.1 0 0.2 0 0.3 0s0.2 0.1 0.3 0.1c0.1 0.1 0.2 0.1 0.2 0.2 0.1 0.1 0.1 0.2 0.1 0.3s0 0.1 0 0.2-0.1 0.3-0.2 0.4c-0.1 0.2-0.2 0.3-0.3 0.6-0.1 0.2-0.2 0.5-0.3 0.7s-0.2 0.5-0.3 0.7c-0.1 0.3-0.2 0.5-0.3 0.8s-0.1 0.5-0.1 0.7c0 0.1 0 0.1 0.1 0.2 0 0 0 0 0.1 0 0.3 0 0.6-0.1 0.8-0.3 0.3-0.2 0.5-0.5 0.8-0.8 0.2-0.3 0.5-0.6 0.7-1s0.4-0.7 0.5-1v0c0.1-0.2 0.2-0.4 0.2-0.6 0.1-0.2 0.2-0.4 0.2-0.6 0.1-0.2 0.2-0.4 0.3-0.5 0.1-0.2 0.3-0.3 0.5-0.3s0.4 0.1 0.6 0.3c0.1 0.2 0.2 0.4 0.2 0.6 0 0.1 0 0.3-0.1 0.5s-0.2 0.4-0.3 0.6c-0.1 0.2-0.2 0.5-0.3 0.8s-0.2 0.5-0.3 0.8c-0.1 0.3-0.2 0.5-0.2 0.8-0.1 0.3-0.1 0.5-0.1 0.7 0 0.1 0 0.2 0.2 0.2 0.1 0 0.3 0 0.5-0.1s0.4-0.2 0.7-0.4c0.2-0.2 0.5-0.4 0.7-0.7 0.2-0.2 0.5-0.5 0.6-0.8l0.3-0.4 0.1 1.8c-0.2 0.3-0.5 0.6-0.8 0.9s-0.6 0.5-0.9 0.8c-0.3 0.2-0.6 0.4-0.9 0.5-0.4 0.1-0.7 0.2-0.9 0.2zM15.1 17.3l-0.2 1.1c-0.1 0.3-0.1 0.6-0.1 0.9s0.1 0.6 0.2 0.7c0.1 0.1 0.3 0.2 0.5 0.2s0.5-0.1 0.7-0.2c0.3-0.1 0.6-0.3 0.9-0.5s0.6-0.5 0.9-0.7c0.3-0.3 0.5-0.5 0.7-0.8v-0.7c-0.1 0.2-0.3 0.3-0.4 0.5-0.3 0.3-0.5 0.5-0.8 0.7s-0.5 0.4-0.7 0.5c-0.3 0.1-0.5 0.2-0.6 0.2-0.3 0-0.5-0.2-0.5-0.5 0-0.2 0-0.5 0.1-0.8s0.2-0.6 0.3-0.8c0.1-0.3 0.2-0.6 0.3-0.8 0.1-0.3 0.2-0.5 0.3-0.8 0.1-0.2 0.2-0.4 0.2-0.6 0.1-0.2 0.1-0.3 0.1-0.4 0-0.2 0-0.3-0.1-0.4s-0.2-0.1-0.3-0.1c-0.1 0-0.2 0-0.3 0.1s-0.2 0.3-0.3 0.4c-0.1 0.2-0.2 0.4-0.2 0.6-0.1 0.2-0.2 0.5-0.3 0.7-0.1 0.3-0.3 0.6-0.5 1s-0.4 0.7-0.7 1c-0.3 0.3-0.5 0.6-0.8 0.8s-0.7 0.3-1 0.3c-0.2 0-0.3-0.1-0.4-0.2s-0.1-0.2-0.1-0.4v0c0-0.3 0.1-0.5 0.1-0.8 0.1-0.3 0.2-0.5 0.3-0.8s0.2-0.5 0.3-0.8c0.1-0.2 0.2-0.4 0.3-0.7 0.1-0.2 0.2-0.4 0.3-0.6 0.1-0.1 0.1-0.3 0.1-0.4v0c0 0 0-0.1 0-0.1 0-0.1 0-0.1 0-0.2 0 0-0.1-0.1-0.1-0.1s-0.1-0.1-0.2-0.1c-0.1 0-0.1 0-0.2 0s-0.2 0-0.3 0.1c-0.1 0.1-0.2 0.2-0.3 0.4-0.4 0.8-0.7 1.6-0.9 2.1-0.2 0.6-0.4 1.1-0.5 1.4-0.1 0.4-0.2 0.6-0.2 0.8v0.1c0 0.1 0 0.2 0 0.2 0 0.2 0 0.4 0.1 0.6 0.1 0.1 0.1 0.3 0.2 0.3 0.1 0.1 0.2 0.1 0.3 0.2 0.1 0 0.3 0.1 0.4 0.1 0.3 0 0.7-0.1 0.9-0.2 0.3-0.1 0.6-0.3 0.8-0.4 0.2-0.2 0.5-0.4 0.6-0.6 0.2-0.2 0.3-0.5 0.5-0.7l0.6-0.8zM10.6 19c0 0 0 0 0 0s0 0 0 0z"></path>
<path d="M19 17.6c-0.1 0.1-0.1 0.3-0.2 0.5s-0.1 0.3-0.1 0.5c0 0.1 0 0.2 0 0.2s0.1 0.1 0.2 0.1c0.1 0 0.2 0 0.4-0.1s0.3-0.2 0.5-0.3c0.2-0.1 0.4-0.3 0.6-0.4 0.2-0.2 0.4-0.3 0.6-0.5s0.4-0.3 0.6-0.5c0.2-0.2 0.3-0.3 0.5-0.5 0 0 0.1-0.1 0.1-0.1 0.1 0 0.1 0 0.1 0 0.1 0 0.2 0 0.2 0.1 0.1 0.1 0.1 0.2 0.1 0.3s0 0.3-0.1 0.4c-0.1 0.2-0.2 0.3-0.4 0.4-0.3 0.3-0.6 0.7-1 1s-0.6 0.6-1 0.8c-0.3 0.2-0.6 0.4-1 0.6-0.3 0.1-0.6 0.2-0.9 0.2-0.2 0-0.4 0-0.5-0.1s-0.2-0.2-0.3-0.3c-0.1-0.1-0.1-0.2-0.2-0.4 0-0.2-0.1-0.3-0.1-0.5 0-0.3 0-0.6 0.1-0.9s0.2-0.6 0.3-0.8 0.3-0.9 0.5-1.4c0.2-0.5 0.3-0.9 0.5-1.2l2.5-5.6c0.1-0.2 0.2-0.4 0.4-0.5s0.3-0.1 0.5-0.1c0.2 0 0.3 0 0.4 0.1s0.2 0.3 0.2 0.5c0 0.1 0 0.2-0.1 0.3s-0.1 0.2-0.2 0.4-0.3 0.6-0.4 1c-0.2 0.4-0.4 0.8-0.5 1.3-0.2 0.5-0.4 1-0.6 1.5s-0.4 1-0.6 1.5c-0.2 0.5-0.4 0.9-0.5 1.4-0.4 0.4-0.5 0.8-0.6 1.1v0z"></path>
<path d="M18.4 20.5c-0.2 0-0.4 0-0.6-0.1s-0.3-0.2-0.4-0.3c-0.1-0.1-0.2-0.3-0.2-0.5s-0.1-0.3-0.1-0.5c0-0.3 0-0.6 0.1-0.9s0.2-0.6 0.3-0.9c0.2-0.5 0.4-0.9 0.5-1.4 0.2-0.5 0.3-0.9 0.5-1.2l2.3-5.7c0.1-0.3 0.2-0.5 0.4-0.6s0.4-0.2 0.5-0.2c0.2 0 0.4 0.1 0.5 0.2 0.2 0.1 0.3 0.3 0.3 0.6 0 0.1 0 0.3-0.1 0.4 0 0.1-0.1 0.3-0.2 0.4-0.1 0.3-0.3 0.6-0.4 1-0.2 0.4-0.3 0.8-0.5 1.3s-0.4 1-0.6 1.5c-0.2 0.5-0.4 1-0.6 1.5-0.2 0.4-0.4 0.9-0.5 1.4-0.2 0.4-0.3 0.8-0.4 1.1v0c-0.1 0.1-0.1 0.3-0.2 0.5 0 0.2-0.1 0.3-0.1 0.4s0 0.1 0 0.1 0 0 0 0c0.1 0 0.2 0 0.3-0.1s0.3-0.2 0.5-0.3c0.2-0.1 0.4-0.3 0.6-0.4s0.4-0.3 0.6-0.5c0.2-0.2 0.4-0.3 0.5-0.5 0.2-0.2 0.3-0.3 0.5-0.5 0.1-0.1 0.1-0.1 0.2-0.1s0.1 0 0.2 0 0.3 0.1 0.4 0.2c0.1 0.1 0.1 0.3 0.1 0.4s0 0.3-0.1 0.5c-0.1 0.2-0.2 0.3-0.4 0.5-0.3 0.3-0.6 0.7-1 1-0.3 0.3-0.7 0.6-1 0.8s-0.7 0.4-1 0.6c-0.3 0.2-0.6 0.3-0.9 0.3zM21.8 8.6c-0.1 0-0.2 0-0.4 0.1-0.1 0.1-0.2 0.2-0.3 0.4l-2.2 5.7c-0.1 0.4-0.3 0.8-0.5 1.2s-0.3 0.9-0.5 1.4c-0.1 0.2-0.2 0.5-0.2 0.8-0.1 0.3-0.1 0.6-0.1 0.8s0 0.3 0 0.4c0 0.1 0.1 0.2 0.1 0.3 0.1 0.1 0.2 0.2 0.3 0.2 0.1 0.1 0.3 0.1 0.4 0.1 0.3 0 0.6-0.1 0.9-0.2s0.6-0.3 0.9-0.5c0.3-0.2 0.6-0.5 0.9-0.8s0.6-0.6 1-1v0 0c0.2-0.1 0.3-0.3 0.3-0.4 0.1-0.1 0.1-0.2 0.1-0.3s0-0.2-0.1-0.2c0 0-0.1-0.1-0.1-0.1s0 0-0.1 0c0 0-0.1 0-0.1 0v0c-0.1 0.1-0.3 0.3-0.5 0.5s-0.4 0.3-0.6 0.5c-0.2 0.2-0.4 0.3-0.6 0.5s-0.4 0.3-0.6 0.4c-0.2 0.1-0.4 0.2-0.5 0.3-0.1 0.2-0.2 0.3-0.3 0.3-0.2 0-0.3-0.1-0.3-0.2s-0.1-0.2-0.1-0.3c0-0.2 0-0.3 0.1-0.5s0.1-0.3 0.2-0.5 0.3-0.7 0.4-1.1c0.2-0.5 0.4-0.9 0.5-1.4 0.2-0.5 0.4-1 0.6-1.5s0.4-1 0.6-1.5c0.2-0.5 0.4-0.9 0.5-1.3 0.2-0.4 0.3-0.7 0.4-1v0c0.1-0.1 0.1-0.3 0.2-0.4 0-0.1 0.1-0.2 0.1-0.3 0-0.2 0-0.3-0.1-0.4-0.1 0.1-0.2 0-0.3 0z"></path>
<path d="M29.5 16c0.1 0 0.1-0.1 0.2-0.1s0.1 0 0.2 0 0.2 0 0.2 0.1 0.1 0.2 0.1 0.4c0 0.2 0 0.3-0.1 0.5s-0.2 0.3-0.3 0.4c-0.5 0.5-1 0.9-1.4 1.3s-0.8 0.7-1.2 1c-0.4 0.3-0.7 0.5-1.1 0.6-0.4 0.2-0.7 0.2-1.1 0.2s-0.7-0.1-0.9-0.2c-0.2-0.2-0.3-0.4-0.3-0.7v-0.1c0 0 0 0 0-0.1 0-0.2 0.1-0.4 0.2-0.6s0.3-0.5 0.5-0.7c0.2-0.2 0.4-0.5 0.6-0.7 0.2-0.3 0.4-0.5 0.6-0.7s0.3-0.4 0.4-0.6c0.1-0.2 0.2-0.3 0.2-0.5 0-0.1 0-0.1-0.1-0.2 0 0-0.1-0.1-0.2-0.1-0.2 0-0.4 0.1-0.6 0.2s-0.4 0.2-0.6 0.4c-0.2 0.2-0.4 0.4-0.6 0.6s-0.4 0.5-0.5 0.7c-0.2 0.2-0.3 0.5-0.5 0.7-0.1 0.2-0.3 0.5-0.4 0.7 0 0.1-0.1 0.2-0.1 0.3-0.1 0.1-0.1 0.2-0.2 0.4-0.1 0.1-0.1 0.3-0.2 0.5s-0.1 0.3-0.2 0.4c-0.1 0.1-0.1 0.3-0.2 0.4 0 0.1-0.1 0.2-0.1 0.2 0 0.1-0.1 0.2-0.1 0.3s-0.1 0.3-0.2 0.5c-0.1 0.2-0.2 0.4-0.2 0.6-0.1 0.2-0.2 0.4-0.2 0.6-0.1 0.2-0.1 0.4-0.2 0.5s-0.1 0.2-0.1 0.3-0.1 0.3-0.2 0.4c-0.1 0.1-0.1 0.3-0.2 0.4s-0.2 0.2-0.3 0.2c-0.1 0.1-0.2 0.1-0.4 0.1s-0.3 0-0.4-0.1c-0.1-0.1-0.2-0.2-0.2-0.5 0-0.1 0-0.2 0-0.4s0.1-0.2 0.1-0.4c0-0.1 0.1-0.2 0.1-0.4 0-0.1 0.1-0.2 0.1-0.3 0.3-0.6 0.5-1.2 0.8-1.8s0.5-1.2 0.8-1.8c0.3-0.6 0.5-1.1 0.7-1.7s0.4-1.1 0.5-1.6c0-0.1 0.1-0.3 0.2-0.4s0.1-0.4 0.2-0.6c0.1-0.2 0.2-0.4 0.3-0.5s0.2-0.2 0.4-0.2c0.2 0 0.3 0 0.4 0.1s0.1 0.2 0.1 0.4c0 0 0 0.1 0 0.2s0 0.2 0 0.2 0 0.2 0 0.2 0 0.1 0 0.2c0.2-0.2 0.4-0.4 0.6-0.6s0.4-0.4 0.7-0.5c0.2-0.2 0.5-0.3 0.7-0.4s0.5-0.1 0.7-0.1c0.2 0 0.3 0 0.5 0.1 0.2 0 0.3 0.1 0.4 0.2s0.2 0.2 0.3 0.3c0.1 0.1 0.1 0.3 0.1 0.5s-0.1 0.5-0.2 0.8c-0.1 0.3-0.3 0.5-0.5 0.8s-0.4 0.5-0.6 0.8c-0.2 0.3-0.4 0.5-0.6 0.7s-0.3 0.4-0.5 0.5c-0.1 0.1-0.2 0.3-0.2 0.3 0 0.1 0 0.1 0.1 0.2s0.1 0.1 0.2 0.1 0.2 0 0.4-0.1c0.2-0.1 0.4-0.3 0.7-0.5s0.7-0.5 1.1-0.9c0.6-0.3 1.1-0.8 1.8-1.4v0z"></path>
<path d="M19.7 24.7c-0.2 0-0.4-0.1-0.5-0.2-0.2-0.1-0.2-0.3-0.2-0.6 0-0.1 0-0.3 0-0.4s0.1-0.3 0.1-0.4c0-0.1 0.1-0.2 0.1-0.4 0-0.1 0.1-0.2 0.1-0.3v0c0.3-0.6 0.5-1.1 0.8-1.8 0.3-0.6 0.6-1.2 0.8-1.7 0.2-0.6 0.5-1.1 0.7-1.7s0.4-1.1 0.5-1.6v0c0-0.1 0.1-0.3 0.2-0.4 0.1-0.2 0.2-0.4 0.2-0.6 0.1-0.2 0.2-0.4 0.3-0.5 0.1-0.2 0.3-0.3 0.5-0.3s0.4 0.1 0.5 0.2c0.1 0.1 0.2 0.3 0.2 0.5 0 0 0 0.1 0 0.2 0 0 0 0.1 0 0.1 0.1-0.1 0.1-0.1 0.2-0.2 0.2-0.2 0.4-0.4 0.7-0.5 0.2-0.2 0.5-0.3 0.7-0.4 0.3-0.1 0.5-0.2 0.8-0.2 0.2 0 0.4 0 0.5 0.1 0.2 0.1 0.3 0.1 0.5 0.2 0.1 0.1 0.3 0.2 0.4 0.4s0.1 0.4 0.1 0.6c0 0.3-0.1 0.5-0.2 0.8s-0.3 0.6-0.5 0.8c-0.2 0.3-0.4 0.6-0.6 0.8-0.2 0.3-0.4 0.5-0.6 0.7s-0.3 0.4-0.5 0.5c-0.1 0.1-0.1 0.2-0.2 0.2 0 0 0 0 0 0v0c0 0 0 0 0.1 0 0 0 0.1 0 0.3-0.1s0.4-0.2 0.7-0.5c0.3-0.2 0.7-0.5 1.1-0.9s1-0.9 1.7-1.5v0 0c0.1 0 0.1-0.1 0.2-0.1s0.2-0.1 0.2-0.1c0.2 0 0.3 0.1 0.4 0.2s0.1 0.3 0.1 0.4c0 0.2 0 0.4-0.1 0.5-0.1 0.2-0.2 0.3-0.3 0.5-0.5 0.5-1 0.9-1.4 1.3s-0.8 0.7-1.2 1c-0.4 0.3-0.8 0.5-1.1 0.7-0.4 0.2-0.8 0.2-1.2 0.2s-0.7-0.1-1-0.3c-0.2-0.2-0.4-0.5-0.4-0.8v-0.1c0 0 0-0.1 0-0.1 0-0.2 0.1-0.4 0.3-0.7 0.1-0.2 0.3-0.5 0.5-0.7s0.4-0.5 0.6-0.8c0.2-0.2 0.4-0.5 0.6-0.7s0.3-0.4 0.4-0.6c0.1-0.2 0.2-0.3 0.2-0.4 0 0 0 0 0 0s0 0-0.1 0c-0.2 0-0.4 0-0.5 0.1-0.2 0.1-0.4 0.2-0.6 0.4s-0.4 0.4-0.6 0.6c-0.2 0.2-0.4 0.4-0.5 0.7-0.2 0.2-0.3 0.5-0.5 0.7-0.1 0.2-0.3 0.5-0.4 0.7 0 0.1-0.1 0.2-0.1 0.3s-0.1 0.2-0.2 0.4c-0.1 0.1-0.1 0.3-0.2 0.5s-0.1 0.3-0.2 0.4l-0.1 0.1c0 0.1-0.1 0.2-0.1 0.2 0.1 0.5 0.1 0.5 0.1 0.6 0 0-0.1 0.1-0.1 0.3-0.1 0.1-0.1 0.3-0.2 0.5l-0.1 0.2c-0.1 0.2-0.1 0.3-0.2 0.5s-0.2 0.4-0.2 0.6c-0.1 0.2-0.1 0.4-0.2 0.5-0.1 0.2-0.1 0.3-0.1 0.3v0c-0.1 0.2-0.1 0.3-0.2 0.5-0.1 0.1-0.2 0.3-0.3 0.4s-0.2 0.2-0.3 0.3c-0.1-0.1-0.2-0.1-0.4-0.1zM19.6 22.6c0 0.1-0.1 0.2-0.1 0.3s-0.1 0.2-0.1 0.3c0 0.1-0.1 0.2-0.1 0.3s0 0.2 0 0.3c0 0.1 0 0.3 0.1 0.4s0.2 0.1 0.3 0.1c0.1 0 0.2 0 0.3-0.1s0.2-0.1 0.3-0.2c0.1-0.1 0.1-0.2 0.2-0.3s0.1-0.3 0.2-0.4c0-0.1 0.1-0.2 0.1-0.3 0.1-0.1 0.1-0.3 0.2-0.5s0.2-0.4 0.2-0.6c0.1-0.2 0.1-0.3 0.2-0.5l0.1-0.2c0.1-0.2 0.1-0.3 0.2-0.5s0.1-0.3 0.1-0.3c0 0 0-0.1 0.1-0.2 0-0.1 0.1-0.2 0.1-0.2l0.1-0.1c0.1-0.1 0.1-0.3 0.2-0.4 0.1-0.2 0.1-0.3 0.2-0.5s0.1-0.3 0.2-0.4c0.1-0.1 0.1-0.2 0.1-0.3v0c0.1-0.2 0.2-0.4 0.4-0.7 0.1-0.2 0.3-0.5 0.5-0.7s0.4-0.5 0.6-0.7c0.2-0.2 0.4-0.4 0.6-0.6s0.4-0.3 0.7-0.4c0.2-0.1 0.5-0.2 0.7-0.2s0.3 0 0.3 0.1 0.1 0.2 0.1 0.3c0 0.1-0.1 0.3-0.2 0.5s-0.3 0.4-0.5 0.6c-0.2 0.2-0.4 0.5-0.6 0.7-0.2 0.3-0.4 0.5-0.6 0.7s-0.3 0.5-0.5 0.7c-0.2 0.4-0.3 0.5-0.3 0.7v0c0 0 0 0 0 0v0.1c0 0.2 0.1 0.4 0.2 0.5 0.2 0.1 0.4 0.2 0.8 0.2s0.7-0.1 1.1-0.2c0.3-0.1 0.7-0.4 1-0.6 0.4-0.3 0.8-0.6 1.2-1s0.9-0.8 1.4-1.3v0c0.1-0.1 0.2-0.2 0.3-0.3s0.1-0.3 0.1-0.4c0-0.1 0-0.2-0.1-0.3 0 0-0.1-0.1-0.1-0.1s-0.1 0-0.1 0-0.1 0.1-0.2 0.1c-0.7 0.6-1.2 1.1-1.7 1.5-0.4 0.4-0.8 0.7-1.1 0.9s-0.5 0.4-0.7 0.5c-0.2 0.1-0.3 0.2-0.5 0.2s-0.3 0-0.3-0.1-0.1-0.2-0.1-0.3v0c0-0.1 0-0.2 0.2-0.4 0.1-0.2 0.3-0.3 0.5-0.5s0.4-0.4 0.6-0.7c0.2-0.3 0.4-0.5 0.6-0.8s0.3-0.5 0.4-0.8c0.1-0.3 0.2-0.5 0.2-0.7s0-0.3-0.1-0.4c-0.1-0.1-0.2-0.2-0.3-0.3s-0.2-0.1-0.4-0.2c-0.1 0-0.3-0.1-0.4-0.1-0.2 0-0.4 0-0.6 0.1s-0.5 0.2-0.7 0.4c-0.2 0.2-0.4 0.3-0.6 0.5s-0.4 0.4-0.6 0.6l-0.6 0.7 0.3-0.8c0 0 0-0.1 0-0.1 0-0.1 0-0.1 0-0.2s0-0.2 0-0.2 0-0.1 0-0.1c0-0.1 0-0.2-0.1-0.3s-0.2-0.1-0.3-0.1c-0.1 0-0.2 0-0.2 0.1-0.1 0.1-0.2 0.3-0.3 0.5s-0.2 0.4-0.2 0.6c-0.1 0.2-0.1 0.3-0.2 0.4-0.1 0.5-0.3 1-0.5 1.6s-0.5 1.1-0.7 1.7c-0.2 0.6-0.5 1.1-0.8 1.8-0.2 0.5-0.5 1.1-0.8 1.6zM25.5 18.8v0 0z"></path>
</svg>
