<!-- Generated by IcoMoon.io -->
<svg version="1.1" xmlns="http://www.w3.org/2000/svg" width="34" height="32" viewBox="0 0 34 32">
<title>handlebars</title>
<path d="M13.4 12.7c0.9 0 1.9 0.3 2.6 0.9 0.4 0.3 0.7 0.7 0.9 1.1 0.5-0.8 1.1-1.4 2-1.7 1-0.4 2.2-0.4 3.2 0 0.9 0.3 1.7 0.9 2.4 1.5 0.6 0.5 1.1 1 1.6 1.5 0.3 0.2 0.6 0.5 1 0.6 0.5 0.2 1.1 0 1.4-0.4s0.3-1-0.1-1.3c-0.2-0.2-0.6-0.2-0.8 0.1-0.1 0.2-0.1 0.5 0 0.7-0.3-0.2-0.6-0.5-0.6-0.9-0.1-0.4 0.3-0.8 0.7-1 0.8-0.3 1.8 0 2.2 0.6 0.5 0.6 0.5 1.5 0.4 2.2s-0.5 1.4-1.1 1.8c-0.8 0.6-1.9 0.8-2.9 0.8s-1.9-0.2-2.8-0.6c-1.5-0.6-2.9-1.4-4.5-1.9-0.5-0.2-1.1-0.3-1.6-0.3-0.4 0-0.9 0-1.3 0-0.5 0-1 0.2-1.5 0.3-1.6 0.5-3 1.4-4.6 2-1.3 0.5-2.7 0.7-4.1 0.5-0.8-0.2-1.5-0.5-2.1-1.1-0.4-0.5-0.7-1.2-0.6-1.9 0-0.6 0.1-1.3 0.5-1.8s1-0.7 1.6-0.7c0.4 0 0.8 0.2 1 0.5 0.2 0.2 0.2 0.6 0.1 0.9s-0.3 0.5-0.5 0.6c0.1-0.2 0.2-0.5 0-0.7-0.2-0.3-0.6-0.3-0.8-0.1-0.3 0.3-0.3 0.7-0.1 1.1s0.6 0.6 1 0.6c0.6 0.1 1.1-0.3 1.6-0.7 0.9-0.8 1.7-1.7 2.7-2.3 1.1-0.5 2.1-0.9 3.1-0.9v0 0z"></path>
</svg>
