<!-- Generated by IcoMoon.io -->
<svg version="1.1" xmlns="http://www.w3.org/2000/svg" width="32" height="32" viewBox="0 0 32 32">
<title>haxe</title>
<path d="M28.3 4c0 0 0.1 0 0 0 0.1 0.1 0.1 0.1 0 0 0 0.9-0.3 1.7-0.5 2.5-0.7 2.9-1.5 5.9-2.2 8.8-0.1 0.2-0.2 0.5-0.2 0.7 0 0.1 0 0.2-0.2 0.3 0 0 0 0-0.1 0s-0.2-0.1-0.2-0.2c-2.9-2.9-5.9-5.9-8.8-8.8-0.1-0.1-0.2-0.2-0.2-0.3 0.2 0 0.3 0 0.3 0 0.3 0 0.5-0.1 0.8-0.2 3.5-0.9 7-1.8 10.5-2.6 0.3-0.1 0.6-0.1 0.8-0.2z"></path>
<path d="M3.8 4.1c0 0 0 0 0 0 0.3-0.1 0.6 0 0.9 0.1 1.5 0.4 2.9 0.7 4.4 1.1 2 0.5 4 1 6 1.5 0.3 0.1 0.6 0.2 0.9 0.2 0 0 0.1 0 0.1 0.1s-0.1 0.2-0.1 0.3c-0.8 0.8-1.5 1.5-2.3 2.3-2.1 2.2-4.3 4.3-6.5 6.5-0.1 0.1-0.2 0.2-0.3 0.2 0 0-0.1-0.1-0.1-0.1-0.1-0.7-0.3-1.3-0.5-2-0.8-3.2-1.6-6.2-2.4-9.3-0.1-0.3-0.1-0.6-0.1-0.9z"></path>
<path d="M3.8 28.6c0 0 0-0.1 0-0.1 0.1-0.7 0.3-1.3 0.4-2 0.8-3.1 1.5-6.1 2.3-9.2 0.1-0.3 0.2-0.6 0.2-0.8 0 0 0-0.1 0.1-0.1s0.1 0 0.2 0c0 0 0.1 0.1 0.1 0.1 2.9 2.9 5.8 5.8 8.7 8.7 0.1 0.1 0.2 0.2 0.2 0.4 0 0-0.1 0.1-0.1 0.1-0.7 0.1-1.4 0.4-2.1 0.5-3.1 0.8-6.1 1.5-9.2 2.3-0.2 0.1-0.5 0.2-0.8 0.1 0 0.1 0 0 0 0z"></path>
<path d="M6.8 16.2c-0.4-0.8-0.8-1.7-1.3-2.5-0.6-1.1-1.1-2.2-1.6-3.3 0-0.1 0-0.1-0.1-0.2 0-2 0-4.1 0-6.1 0.2 0.6 0.3 1.1 0.4 1.7 0.9 3.4 1.7 6.8 2.6 10.2 0 0.1 0 0.2 0 0.2z"></path>
<path d="M16.2 7.1c0.8-0.4 1.7-0.8 2.5-1.3 1.1-0.6 2.2-1.1 3.3-1.6 0.1 0 0.1 0 0.2-0.1 2 0 4.1 0 6.1 0-0.5 0.2-1 0.3-1.5 0.4-3.4 0.8-6.9 1.7-10.3 2.5-0.1 0.1-0.2 0.1-0.3 0.1z"></path>
<path d="M10 4c0.4 0.2 0.8 0.4 1.2 0.6 1.5 0.8 3.1 1.6 4.6 2.3 0.1 0 0.1 0.1 0.2 0.1-0.8-0.2-1.6-0.4-2.4-0.6-3.1-0.8-6.3-1.6-9.4-2.4-0.1 0-0.2-0.1-0.4 0 0-0.1 0.1 0 0.2 0 2 0 4 0 6 0z"></path>
<path d="M3.8 22.5c0.1 0 0.1-0.1 0.1-0.2 0.9-1.9 1.9-3.7 2.8-5.6 0-0.1 0.1-0.1 0.1-0.2-0.2 0.8-0.4 1.6-0.6 2.4-0.8 3.1-1.5 6.2-2.3 9.3 0 0.1 0 0.2-0.1 0.3 0-2 0-4 0-6z"></path>
<path d="M6.9 16.4c0 0 0-0.1 0 0 0.1-0.1 0.1-0.2 0.2-0.3 2.9-2.9 5.9-5.9 8.8-8.8 0.1-0.1 0.1-0.1 0.2-0.2 0 0 0 0 0 0 2.1 2.1 4.2 4.2 6.3 6.3 0.9 0.9 1.8 1.8 2.7 2.7 0.1 0.1 0.1 0.1 0.2 0.2 0 0.1 0 0.1-0.1 0.2 0 0.1-0.1 0.1-0.1 0.1-2.9 2.9-5.8 5.8-8.7 8.7-0.1 0.1-0.2 0.2-0.3 0.2 0 0 0 0 0 0 0-0.1-0.1-0.1-0.1-0.2-3-3-5.9-5.9-8.9-8.9-0.1 0.1-0.2 0-0.2 0z"></path>
<path d="M16.1 25.6c0.1-0.1 0.1-0.1 0.2-0.2 2.9-2.9 5.9-5.9 8.8-8.8 0.1-0.1 0.1-0.1 0.2-0.2 0 0 0 0 0 0 0 0.1 0.1 0.2 0.1 0.2 0.1 0.5 0.3 1 0.4 1.4 0.8 3.2 1.6 6.5 2.4 9.7 0.1 0.3 0.1 0.6 0.1 0.8 0 0 0 0.1 0 0.1-0.8-0.1-1.6-0.3-2.5-0.5-2.8-0.7-5.8-1.4-8.7-2.1-0.3-0.1-0.6-0.2-0.9-0.3 0-0.1-0.1-0.1-0.1-0.1z"></path>
<path d="M28.4 4.1c0 0.9 0 1.8 0 2.6 0 1.1 0 2.2 0 3.3 0 0.1 0 0.2 0 0.3-1 1.9-1.9 3.9-2.9 5.8 0 0 0 0 0 0 0-0.1 0-0.1 0-0.2 0.9-3.9 1.9-7.8 2.9-11.8 0 0.1 0 0.1 0 0z"></path>
<path d="M16 25.6c-0.7 0.4-1.4 0.7-2.1 1.1-1.2 0.6-2.5 1.2-3.7 1.9-0.1 0.1-0.2 0.1-0.4 0.1-1.9 0-3.8 0-5.7 0-0.1 0-0.1 0-0.2 0 0.5-0.1 1-0.2 1.5-0.4 3.5-0.9 6.9-1.7 10.4-2.6 0 0 0.1 0 0.2-0.1z"></path>
<path d="M16.2 25.6c0.9 0.2 1.7 0.4 2.6 0.6 3.1 0.8 6.2 1.5 9.3 2.3 0.1 0 0.2 0.1 0.3 0.1-0.4 0-0.8 0-1.2 0-1.6 0-3.2 0-4.7 0-0.1 0-0.2 0-0.4-0.1-1.9-0.9-3.8-1.9-5.7-2.8-0.1 0-0.1 0-0.2-0.1z"></path>
<path d="M28.4 28.6c-0.2-0.8-0.4-1.7-0.6-2.5-0.8-3-1.5-6.1-2.3-9.1 0-0.1-0.1-0.2 0-0.3 0.8 1.5 1.5 3.1 2.3 4.6 0.2 0.4 0.4 0.8 0.6 1.2 0 0.1 0.1 0.1 0.1 0.2-0.1 1.9-0.1 3.9-0.1 5.9 0 0 0 0 0 0z"></path>
</svg>
