<?xml version="1.0" encoding="utf-8"?>
<!-- Generator: Adobe Illustrator 21.1.0, SVG Export Plug-In . SVG Version: 6.00 Build 0)  -->
<!DOCTYPE svg PUBLIC "-//W3C//DTD SVG 1.1//EN" "http://www.w3.org/Graphics/SVG/1.1/DTD/svg11.dtd">
<svg version="1.1" id="Layer_1" xmlns="http://www.w3.org/2000/svg" xmlns:xlink="http://www.w3.org/1999/xlink" x="0px" y="0px"
	 viewBox="0 0 32 32" style="enable-background:new 0 0 32 32;" xml:space="preserve">
<title>angular</title>
<g id="wYnRPu_1_">
	<g>
		<path d="M28.3,4C28.3,4,28.4,4,28.3,4C28.4,4.1,28.4,4.1,28.3,4c0,0.9-0.3,1.7-0.5,2.5c-0.7,2.9-1.5,5.9-2.2,8.8
			c-0.1,0.2-0.2,0.5-0.2,0.7c0,0.1,0,0.2-0.2,0.3c0,0,0,0-0.1,0c-0.1,0-0.2-0.1-0.2-0.2c-2.9-2.9-5.9-5.9-8.8-8.8
			c-0.1-0.1-0.2-0.2-0.2-0.3C16.1,7,16.2,7,16.2,7c0.3,0,0.5-0.1,0.8-0.2c3.5-0.9,7-1.8,10.5-2.6C27.8,4.1,28.1,4.1,28.3,4z"/>
		<path d="M3.8,4.1C3.8,4.1,3.8,4.1,3.8,4.1c0.3-0.1,0.6,0,0.9,0.1c1.5,0.4,2.9,0.7,4.4,1.1c2,0.5,4,1,6,1.5C15.4,6.9,15.7,7,16,7
			c0,0,0.1,0,0.1,0.1c0,0.1-0.1,0.2-0.1,0.3c-0.8,0.8-1.5,1.5-2.3,2.3c-2.1,2.2-4.3,4.3-6.5,6.5c-0.1,0.1-0.2,0.2-0.3,0.2
			c0,0-0.1-0.1-0.1-0.1c-0.1-0.7-0.3-1.3-0.5-2C5.5,11.1,4.7,8.1,3.9,5C3.8,4.7,3.8,4.4,3.8,4.1z"/>
		<path d="M3.8,28.6c0,0,0-0.1,0-0.1c0.1-0.7,0.3-1.3,0.4-2c0.8-3.1,1.5-6.1,2.3-9.2c0.1-0.3,0.2-0.6,0.2-0.8c0,0,0-0.1,0.1-0.1
			c0.1,0,0.1,0,0.2,0c0,0,0.1,0.1,0.1,0.1c2.9,2.9,5.8,5.8,8.7,8.7c0.1,0.1,0.2,0.2,0.2,0.4c0,0-0.1,0.1-0.1,0.1
			c-0.7,0.1-1.4,0.4-2.1,0.5c-3.1,0.8-6.1,1.5-9.2,2.3C4.4,28.6,4.1,28.7,3.8,28.6C3.8,28.7,3.8,28.6,3.8,28.6z"/>
		<path d="M6.8,16.2c-0.4-0.8-0.8-1.7-1.3-2.5c-0.6-1.1-1.1-2.2-1.6-3.3c0-0.1,0-0.1-0.1-0.2c0-2,0-4.1,0-6.1C4,4.7,4.1,5.2,4.2,5.8
			C5.1,9.2,5.9,12.6,6.8,16C6.8,16.1,6.8,16.2,6.8,16.2z"/>
		<path d="M16.2,7.1c0.8-0.4,1.7-0.8,2.5-1.3c1.1-0.6,2.2-1.1,3.3-1.6c0.1,0,0.1,0,0.2-0.1c2,0,4.1,0,6.1,0c-0.5,0.2-1,0.3-1.5,0.4
			C23.4,5.3,19.9,6.2,16.5,7C16.4,7.1,16.3,7.1,16.2,7.1z"/>
		<path d="M10,4c0.4,0.2,0.8,0.4,1.2,0.6c1.5,0.8,3.1,1.6,4.6,2.3c0.1,0,0.1,0.1,0.2,0.1c-0.8-0.2-1.6-0.4-2.4-0.6
			c-3.1-0.8-6.3-1.6-9.4-2.4c-0.1,0-0.2-0.1-0.4,0c0-0.1,0.1,0,0.2,0C6,4,8,4,10,4z"/>
		<path d="M3.8,22.5c0.1,0,0.1-0.1,0.1-0.2c0.9-1.9,1.9-3.7,2.8-5.6c0-0.1,0.1-0.1,0.1-0.2c-0.2,0.8-0.4,1.6-0.6,2.4
			c-0.8,3.1-1.5,6.2-2.3,9.3c0,0.1,0,0.2-0.1,0.3C3.8,26.5,3.8,24.5,3.8,22.5z"/>
		<path d="M6.9,16.4C6.9,16.4,6.9,16.3,6.9,16.4c0.1-0.1,0.1-0.2,0.2-0.3c2.9-2.9,5.9-5.9,8.8-8.8c0.1-0.1,0.1-0.1,0.2-0.2
			c0,0,0,0,0,0c2.1,2.1,4.2,4.2,6.3,6.3c0.9,0.9,1.8,1.8,2.7,2.7c0.1,0.1,0.1,0.1,0.2,0.2c0,0.1,0,0.1-0.1,0.2
			c0,0.1-0.1,0.1-0.1,0.1c-2.9,2.9-5.8,5.8-8.7,8.7c-0.1,0.1-0.2,0.2-0.3,0.2c0,0,0,0,0,0c0-0.1-0.1-0.1-0.1-0.2
			c-3-3-5.9-5.9-8.9-8.9C7,16.5,6.9,16.4,6.9,16.4z"/>
		<path d="M16.1,25.6c0.1-0.1,0.1-0.1,0.2-0.2c2.9-2.9,5.9-5.9,8.8-8.8c0.1-0.1,0.1-0.1,0.2-0.2c0,0,0,0,0,0c0,0.1,0.1,0.2,0.1,0.2
			c0.1,0.5,0.3,1,0.4,1.4c0.8,3.2,1.6,6.5,2.4,9.7c0.1,0.3,0.1,0.6,0.1,0.8c0,0,0,0.1,0,0.1c-0.8-0.1-1.6-0.3-2.5-0.5
			C23,27.4,20,26.7,17.1,26c-0.3-0.1-0.6-0.2-0.9-0.3C16.2,25.6,16.1,25.6,16.1,25.6z"/>
		<path d="M28.4,4.1c0,0.9,0,1.8,0,2.6c0,1.1,0,2.2,0,3.3c0,0.1,0,0.2,0,0.3c-1,1.9-1.9,3.9-2.9,5.8c0,0,0,0,0,0c0-0.1,0-0.1,0-0.2
			C26.4,12,27.4,8.1,28.4,4.1C28.4,4.2,28.4,4.2,28.4,4.1z"/>
		<path d="M16,25.6c-0.7,0.4-1.4,0.7-2.1,1.1c-1.2,0.6-2.5,1.2-3.7,1.9c-0.1,0.1-0.2,0.1-0.4,0.1c-1.9,0-3.8,0-5.7,0
			c-0.1,0-0.1,0-0.2,0c0.5-0.1,1-0.2,1.5-0.4c3.5-0.9,6.9-1.7,10.4-2.6C15.8,25.7,15.9,25.7,16,25.6z"/>
		<path d="M16.2,25.6c0.9,0.2,1.7,0.4,2.6,0.6c3.1,0.8,6.2,1.5,9.3,2.3c0.1,0,0.2,0.1,0.3,0.1c-0.4,0-0.8,0-1.2,0
			c-1.6,0-3.2,0-4.7,0c-0.1,0-0.2,0-0.4-0.1c-1.9-0.9-3.8-1.9-5.7-2.8C16.3,25.7,16.3,25.7,16.2,25.6z"/>
		<path d="M28.4,28.6c-0.2-0.8-0.4-1.7-0.6-2.5c-0.8-3-1.5-6.1-2.3-9.1c0-0.1-0.1-0.2,0-0.3c0.8,1.5,1.5,3.1,2.3,4.6
			c0.2,0.4,0.4,0.8,0.6,1.2c0,0.1,0.1,0.1,0.1,0.2C28.4,24.6,28.4,26.6,28.4,28.6C28.4,28.6,28.4,28.6,28.4,28.6z"/>
	</g>
</g>
</svg>
