<!-- Generated by IcoMoon.io -->
<svg version="1.1" xmlns="http://www.w3.org/2000/svg" width="34" height="32" viewBox="0 0 34 32">
<title>illustrator</title>
<path d="M4.3 3.7h25.4v24.7h-25.4v-24.7zM3.2 29.5h27.7v-27h-27.7v27zM21.3 12.1c0-0.1 0-0.1 0.1-0.1h1.8c0.1 0 0.1 0 0.1 0.1v9.1c0 0.1 0 0.1-0.1 0.1h-1.8c-0.1 0-0.1-0.1-0.1-0.1v-9.1zM21.2 9.5c0-0.7 0.5-1.2 1.2-1.2s1.2 0.5 1.2 1.2c0 0.8-0.5 1.2-1.2 1.2-0.8 0-1.2-0.4-1.2-1.2zM16 15.9c-0.3-1.3-1.1-4.1-1.4-5.4v0c-0.2 1.3-0.9 3.6-1.3 5.4h2.7zM12.8 17.8l-0.9 3.5c0 0.1-0.1 0.1-0.2 0.1h-1.7c-0.1 0-0.1 0-0.1-0.2l3.3-11.5c0.1-0.2 0.1-0.4 0.1-1 0-0.1 0-0.1 0.1-0.1h2.4c0.1 0 0.1 0 0.1 0.1l3.7 12.4c0 0.1 0 0.1-0.1 0.1h-1.9c-0.1 0-0.1 0-0.2-0.1l-0.9-3.5h-3.7v0.2z"></path>
</svg>
