<?xml version="1.0" encoding="utf-8"?>
<!-- Generator: Adobe Illustrator 22.0.1, SVG Export Plug-In . SVG Version: 6.00 Build 0)  -->
<!DOCTYPE svg PUBLIC "-//W3C//DTD SVG 1.1//EN" "http://www.w3.org/Graphics/SVG/1.1/DTD/svg11.dtd">
<svg version="1.1" id="Layer_1" xmlns="http://www.w3.org/2000/svg" xmlns:xlink="http://www.w3.org/1999/xlink" x="0px" y="0px"
	 viewBox="0 0 34 32" style="enable-background:new 0 0 34 32;" xml:space="preserve">
<path d="M4.3,3.7h25.4v24.7H4.3V3.7z M3.2,29.5h27.7v-27H3.2V29.5z M21.3,12.1c0-0.1,0-0.1,0.1-0.1h1.8c0.1,0,0.1,0,0.1,0.1v9.1
	c0,0.1,0,0.1-0.1,0.1h-1.8c-0.1,0-0.1-0.1-0.1-0.1L21.3,12.1L21.3,12.1L21.3,12.1z M21.2,9.5c0-0.7,0.5-1.2,1.2-1.2
	c0.7,0,1.2,0.5,1.2,1.2c0,0.8-0.5,1.2-1.2,1.2C21.6,10.7,21.2,10.3,21.2,9.5z M16,15.9c-0.3-1.3-1.1-4.1-1.4-5.4h0
	c-0.2,1.3-0.9,3.6-1.3,5.4H16z M12.8,17.8l-0.9,3.5c0,0.1-0.1,0.1-0.2,0.1H10c-0.1,0-0.1,0-0.1-0.2l3.3-11.5c0.1-0.2,0.1-0.4,0.1-1
	c0-0.1,0-0.1,0.1-0.1h2.4c0.1,0,0.1,0,0.1,0.1l3.7,12.4c0,0.1,0,0.1-0.1,0.1h-1.9c-0.1,0-0.1,0-0.2-0.1l-0.9-3.5H12.8L12.8,17.8z"/>
</svg>
