<!-- Generated by IcoMoon.io -->
<svg version="1.1" xmlns="http://www.w3.org/2000/svg" width="32" height="32" viewBox="0 0 32 32">
<title>incopy</title>
<path d="M1.7 1.7v28.6h28.6v-28.6h-28.6zM29 29h-26v-26h26v26z"></path>
<path d="M11.2 21.4h1.8c0.1 0 0.2-0.1 0.2-0.2v-12.4c0-0.1 0-0.1-0.1-0.1h-1.8c-0.1 0-0.1 0-0.1 0.1v12.5c-0.1 0.1-0.1 0.1 0 0.1z"></path>
<path d="M19.7 21.8c0.8 0 1.6 0.1 2.1-0.3 0.1 0 0.1-0.1 0.1-0.2v-1.6c0-0.1 0-0.1-0.1-0.1-0.4 0.2-0.9 0.2-1.7 0.2-1.2 0-2.4-0.9-2.4-3.1 0-1.8 0.9-3.1 2.4-3.1 0.6 0 1.1 0 1.6 0.2 0.1 0 0.1 0 0.1-0.1v-1.6c0-0.1 0-0.2-0.1-0.2-0.3-0.2-0.9-0.2-1.7-0.2-2.6 0-4.4 2.2-4.4 5.1 0 2.8 1.4 5 4.1 5z"></path>
</svg>
