<!-- Generated by IcoMoon.io -->
<svg version="1.1" xmlns="http://www.w3.org/2000/svg" width="34" height="32" viewBox="0 0 34 32">
<title>indesign</title>
<path d="M4.2 3.6h25.6v24.9h-25.6v-24.9zM3.1 29.6h27.9v-27.2h-27.9v27.2zM20.7 13.7c-0.2-0.1-0.4-0.1-0.7-0.1-1.5 0-2.5 1.2-2.5 3.1 0 2.2 1.1 3.1 2.4 3.1 0.3 0 0.6 0 0.8-0.1v-6zM20.1 11.8c0.2 0 0.4 0 0.6 0v-3.1c0-0.1 0.1-0.1 0.1-0.1h1.9c0.1 0 0.1 0 0.1 0.1v10.9c0 0.3 0 0.7 0.1 1.2 0 0.1 0 0.1-0.1 0.1-1 0.5-2.1 0.7-3 0.7-2.6 0-4.4-1.6-4.4-4.8-0.1-2.8 1.7-5 4.7-5v0zM13.3 21.3c0 0.1 0 0.2-0.2 0.2h-1.8c-0.1 0-0.2-0.1-0.2-0.2v-12.5c0-0.1 0.1-0.2 0.2-0.2h1.8c0.1 0 0.1 0 0.1 0.1v12.6z"></path>
</svg>
