<!-- Generated by IcoMoon.io -->
<svg version="1.1" xmlns="http://www.w3.org/2000/svg" width="34" height="32" viewBox="0 0 34 32">
<title>indesign</title>
<path d="M4 3.3h26v25.4h-26v-25.4zM2.8 29.9h28.5v-27.8h-28.5v27.8zM20.8 13.7c-0.2-0.1-0.4-0.1-0.7-0.1-1.5 0-2.6 1.2-2.6 3.1 0 2.2 1.1 3.1 2.5 3.1 0.3 0 0.6 0 0.8-0.1v-6zM20.1 11.7c0.2 0 0.4 0 0.6 0v-3.1c0-0.1 0.1-0.1 0.1-0.1h1.9c0.1 0 0.1 0 0.1 0.1v11.1c0 0.3 0 0.7 0.1 1.2 0 0.1 0 0.1-0.1 0.1-1 0.5-2.1 0.7-3.1 0.7-2.6 0-4.5-1.6-4.5-4.9 0.1-2.9 1.9-5.1 4.9-5.1v0zM13.2 21.4c0 0.1 0 0.2-0.2 0.2h-1.8c-0.1 0-0.2-0.1-0.2-0.2v-12.8c0-0.1 0.1-0.2 0.2-0.2h1.8c0.1 0 0.1 0 0.1 0.1v12.9z"></path>
</svg>
