<!-- Generated by IcoMoon.io -->
<svg version="1.1" xmlns="http://www.w3.org/2000/svg" width="32" height="32" viewBox="0 0 32 32">
<title>jasmine</title>
<path d="M14.8 13.9h1.9l0.5-0.6v-5.1h-2.8v5.1l0.4 0.6z"></path>
<path d="M13.6 16.2l0.6-1.8-0.5-0.6-4.8-1.6-0.9 2.7 4.8 1.6 0.8-0.3z"></path>
<path d="M15.4 18l-1.5-1.1-0.8 0.2-3 4.1 2.3 1.7 3-4.1v-0.8z"></path>
<path d="M17.7 16.9l-1.5 1.1v0.8l3 4.1 2.3-1.7-3-4.1-0.8-0.2z"></path>
<path d="M17.3 14.4l0.6 1.8 0.8 0.2 4.8-1.6-0.9-2.7-4.8 1.6-0.5 0.7z"></path>
<path d="M15.8 3.8c-6.8 0-12.2 5.5-12.2 12.2s5.5 12.2 12.2 12.2c6.7 0 12.2-5.5 12.2-12.2s-5.5-12.2-12.2-12.2c0 0 0 0 0 0zM15.8 6.3c5.4 0 9.7 4.3 9.7 9.7s-4.4 9.7-9.7 9.7c-5.4 0-9.7-4.4-9.7-9.7s4.3-9.7 9.7-9.7z"></path>
<path d="M23.1 18.7l-3.7-1.2 0.2-0.7 3.7 1.2-0.2 0.7z"></path>
<path d="M18.5 12.9l-0.6-0.5 2.3-3.1 0.6 0.5-2.3 3.1z"></path>
<path d="M13.1 12.8l-2.3-3.1 0.6-0.5 2.3 3.1-0.6 0.5z"></path>
<path d="M8.4 18.7l-0.2-0.7 3.7-1.2 0.2 0.7-3.7 1.2z"></path>
<path d="M15.4 23.8h0.8v-3.8h-0.8c0 0 0 3.8 0 3.8z"></path>
</svg>
