<?xml version="1.0" encoding="utf-8"?>
<!-- Generator: Adobe Illustrator 21.1.0, SVG Export Plug-In . SVG Version: 6.00 Build 0)  -->
<!DOCTYPE svg PUBLIC "-//W3C//DTD SVG 1.1//EN" "http://www.w3.org/Graphics/SVG/1.1/DTD/svg11.dtd">
<svg version="1.1" id="Layer_1" xmlns="http://www.w3.org/2000/svg" xmlns:xlink="http://www.w3.org/1999/xlink" x="0px" y="0px"
	 viewBox="0 0 32 32" style="enable-background:new 0 0 32 32;" xml:space="preserve">
<g>
	<path id="path36" inkscape:connector-curvature="0" d="M14.8,13.9h1.9l0.5-0.6V8.2h-2.8v5.1L14.8,13.9"/>
	<path id="path38" inkscape:connector-curvature="0" d="M13.6,16.2l0.6-1.8l-0.5-0.6l-4.8-1.6L8,14.9l4.8,1.6L13.6,16.2"/>
	<path id="path40" inkscape:connector-curvature="0" d="M15.4,18l-1.5-1.1l-0.8,0.2l-3,4.1l2.3,1.7l3-4.1V18"/>
	<path id="path42" inkscape:connector-curvature="0" d="M17.7,16.9L16.2,18l0,0.8l3,4.1l2.3-1.7l-3-4.1L17.7,16.9"/>
	<path id="path44" inkscape:connector-curvature="0" d="M17.3,14.4l0.6,1.8l0.8,0.2l4.8-1.6l-0.9-2.7l-4.8,1.6L17.3,14.4"/>
	<path id="path46" inkscape:connector-curvature="0" d="M15.8,3.8C9,3.8,3.6,9.3,3.6,16c0,6.7,5.5,12.2,12.2,12.2
		C22.5,28.2,28,22.7,28,16C28,9.3,22.5,3.8,15.8,3.8C15.8,3.8,15.8,3.8,15.8,3.8z M15.8,6.3c5.4,0,9.7,4.3,9.7,9.7
		c0,5.4-4.4,9.7-9.7,9.7c-5.4,0-9.7-4.4-9.7-9.7C6.1,10.7,10.4,6.3,15.8,6.3"/>
	<path id="path48" inkscape:connector-curvature="0" d="M23.1,18.7l-3.7-1.2l0.2-0.7l3.7,1.2L23.1,18.7"/>
	<path id="path50" inkscape:connector-curvature="0" d="M18.5,12.9l-0.6-0.5l2.3-3.1l0.6,0.5L18.5,12.9"/>
	<path id="path52" inkscape:connector-curvature="0" d="M13.1,12.8l-2.3-3.1l0.6-0.5l2.3,3.1L13.1,12.8"/>
	<path id="path54" inkscape:connector-curvature="0" d="M8.4,18.7l-0.2-0.7l3.7-1.2l0.2,0.7L8.4,18.7"/>
	<path id="path56" inkscape:connector-curvature="0" d="M15.4,23.8h0.8V20h-0.8C15.4,20,15.4,23.8,15.4,23.8z"/>
</g>
</svg>
