<!-- Generated by IcoMoon.io -->
<svg version="1.1" xmlns="http://www.w3.org/2000/svg" width="32" height="32" viewBox="0 0 32 32">
<title>komodo</title>
<path d="M6.5 9.3c0.5-0.3 1-0.6 1.4-0.9 0.6-0.3 1.1-0.7 1.7-1 0.4-0.2 0.8-0.4 1.2-0.6 0.3-0.2 0.7-0.4 1-0.6 0.4-0.2 0.8-0.5 1.1-0.7 0.4-0.2 0.7-0.5 1.1-0.7s0.7-0.4 1.1-0.7c0.2-0.1 0.3-0.2 0.5-0.3 0 0 0.1 0 0.1 0 0.3 0.2 0.7 0.4 1 0.6 0.5 0.3 1 0.6 1.6 0.9 0.5 0.3 1.1 0.7 1.6 1s1.1 0.6 1.6 1c0.4 0.2 0.7 0.4 1.1 0.7 0.4 0.2 0.7 0.4 1.1 0.6s0.7 0.4 1.1 0.7c0.3 0.2 0.5 0.3 0.8 0.5 0.1 0 0.1 0.1 0.1 0.2 0 3.9 0 7.8 0 11.8 0 0.1 0 0.2-0.1 0.2-0.4 0.3-0.8 0.5-1.3 0.8-0.6 0.3-1.2 0.7-1.8 1-0.5 0.3-1.1 0.7-1.6 1s-1.1 0.6-1.6 1c-0.4 0.2-0.8 0.4-1.1 0.7-0.4 0.2-0.7 0.4-1.1 0.6s-0.7 0.4-1.1 0.7c-0.1 0.1-0.2 0.2-0.3 0.2s-0.2-0.1-0.3-0.2c-0.4-0.2-0.8-0.5-1.1-0.7-0.4-0.2-0.7-0.4-1.1-0.7-0.3-0.2-0.7-0.4-1-0.6-0.4-0.2-0.8-0.5-1.1-0.7-0.4-0.2-0.8-0.5-1.2-0.7s-0.7-0.4-1.1-0.7c-0.3-0.2-0.7-0.4-1-0.6-0.4-0.2-0.7-0.4-1.1-0.7-0.3-0.2-0.5-0.3-0.8-0.5-0.1 0-0.1-0.1-0.1-0.1 0-1.9 0-3.8 0-5.7 0 0 0 0 0 0 0-0.1 0.1-0.1 0.1-0.1 0.8-0.8 1.6-1.6 2.4-2.4 0.1-0.1 0.1-0.1 0.3 0 0.1 0.1 0.3 0.3 0.4 0.4 0 0 0 0.1 0 0.1s0 0.1 0 0.1 0 0.1 0 0.2 0 0.1 0 0.2c0 0.3 0 0.7 0 1 0 0.1 0 0.2 0 0.3s0 0.1 0 0.2 0 0.1 0 0.2c0.1 0.5 0.2 0.9 0.4 1.3 0.1 0.2 0.3 0.5 0.5 0.6 0.1 0.1 0.1 0.1 0.2 0.1 0.1 0.1 0.2 0.1 0.3 0.2 0.2 0.1 0.2 0.3 0 0.4-0.1 0.1-0.3 0.1-0.4 0.2-0.2 0.1-0.5 0.2-0.7 0.3-0.3 0.1-0.5 0.3-0.7 0.5-0.2 0.3-0.2 0.5 0 0.8 0.2 0.4 0.6 0.6 1 0.7 0.3 0.1 0.6 0.2 0.9 0.1 0.1 0 0.2 0 0.2 0 0.3-0.1 0.5-0.2 0.7-0.2 0.1 0 0.1 0 0.2 0 0 0 0 0.1 0 0.1 0 0.2-0.2 0.3-0.3 0.4-0.2 0.2-0.4 0.4-0.6 0.6-0.1 0.1-0.2 0.1-0.3 0.2 0 0-0.1 0.1-0.1 0.1s0 0 0 0 0 0 0 0c0.1 0 0.1-0.1 0.2-0.1 0.3-0.1 0.5-0.2 0.8-0.4 0 0 0.1 0 0.1 0 0.1 0 0.1 0.1 0.1 0.1 0 0.1 0 0.2-0.1 0.3-0.1 0.2-0.1 0.4-0.2 0.7 0 0 0 0.1 0 0.1 0.2-0.3 0.4-0.5 0.5-0.7 0-0.1 0.1-0.1 0.1-0.1s0.1 0 0.1 0.1c0 0.1 0 0.1 0 0.2s0 0.3 0 0.4c0 0.1 0 0.2 0 0.3 0 0 0 0 0-0.1 0-0.2 0.1-0.4 0.2-0.6 0.2-0.5 0.3-1 0.5-1.5 0-0.1 0-0.2-0.1-0.2-0.1-0.2-0.3-0.4-0.4-0.6 0-0.5-0.1-0.6-0.1-0.7 0 0 0-0.1 0-0.1 0-0.1 0.1-0.1 0.2-0.1s0.1 0.1 0.2 0.1 0.3 0.3 0.4 0.4c0.2 0.2 0.4 0.4 0.6 0.6 0.1 0.1 0.2 0.2 0.3 0.3 0.3 0.2 0.5 0.5 0.8 0.7 0.2 0.2 0.5 0.3 0.7 0.4 0.3 0.1 0.6 0.3 1 0.3 0.1 0 0.2 0 0.2 0.1 0.1 0 0.1 0 0.2 0s0.1 0 0.2 0c0 0 0.1 0 0.1 0 0.2 0 0.5 0 0.7 0 0 0 0.1 0 0.1 0 0.2 0 0.3 0 0.5-0.1 0.2 0 0.4-0.1 0.6-0.1 0.4-0.1 0.8-0.3 1.2-0.4 0.2-0.1 0.3-0.2 0.5-0.3s0.4-0.2 0.5-0.4c0.1-0.1 0.2-0.2 0.3-0.3 0.2-0.2 0.5-0.4 0.6-0.7 0.1-0.2 0.2-0.3 0.3-0.5 0.2-0.4 0.4-0.7 0.5-1.1 0.1-0.2 0.1-0.4 0.1-0.7 0-0.1 0-0.1 0-0.2 0 0 0-0.1 0-0.1s0-0.1 0-0.2c0 0 0-0.1 0-0.1 0-0.1 0-0.1 0-0.2 0 0 0-0.1 0-0.1s-0.1 0-0.1 0.1c-0.2 0.2-0.3 0.5-0.5 0.8s-0.4 0.7-0.6 1c-0.2 0.2-0.3 0.4-0.5 0.6-0.4 0.4-0.8 0.7-1.4 0.9-0.2 0.1-0.4 0.2-0.7 0.2-0.1 0-0.1 0-0.2 0-0.3 0-0.5 0-0.8 0-0.2 0-0.4-0.1-0.6-0.2-0.4-0.1-0.8-0.4-1.2-0.6-0.4-0.3-0.7-0.7-0.9-1.1-0.1-0.1-0.1-0.3-0.1-0.5 0-0.1 0-0.2 0.1-0.3s0.1-0.1 0.2 0c0.1 0 0.2 0.1 0.2 0.2 0.1 0.2 0.1 0.4 0.1 0.6 0 0.1 0 0.1 0 0.2 0.1 0.2 0.1 0.3 0.4 0.3 0 0 0 0 0.1 0s0.1 0 0.2 0 0.3 0 0.4 0c0.1 0 0.2 0 0.3 0s0.1 0 0.2 0c0 0 0 0 0 0s0 0 0 0c-0.2-0.1-0.3-0.2-0.5-0.3 0 0-0.1 0-0.1-0.1 0 0 0-0.1 0.1-0.1 0.2-0.1 0.4-0.1 0.5-0.2 0.1 0 0.2-0.1 0.3-0.1 0 0 0 0 0 0s0 0 0 0c-0.2 0-0.3 0-0.5 0-0.1 0-0.2 0-0.3 0 0 0 0 0 0 0-0.1 0-0.2 0-0.2 0 0-0.1 0-0.1 0.1-0.2s0.2-0.3 0.3-0.4c0 0 0.1-0.1 0.1-0.1s0 0 0 0 0 0 0 0c-0.2 0.2-0.4 0.3-0.6 0.5 0 0-0.1 0-0.1 0s0 0 0-0.1c0-0.2 0.1-0.3 0.1-0.4 0-0.2 0.1-0.3 0.1-0.5 0.1-0.1 0-0.2 0-0.2 0-0.1 0-0.1 0-0.2s0-0.1 0-0.2c-0.1-0.2-0.3-0.3-0.4-0.3-0.2-0.1-0.5-0.1-0.7-0.2-0.1 0-0.2 0-0.3 0-0.3 0-0.6 0-0.9 0.1 0 0-0.1 0-0.1-0.1s0-0.2 0.1-0.3c0.1-0.3 0.2-0.6 0.3-0.9 0.1-0.2 0.1-0.5 0.2-0.7 0 0 0-0.1 0-0.2 0 0 0-0.1 0-0.1s0-0.1 0-0.1c0.1-0.1 0-0.2 0-0.2 0-0.1 0-0.2 0-0.3 0 0 0-0.1 0-0.1s0.1 0 0.1 0c0.1 0.1 0.2 0.2 0.3 0.4 0.2 0.3 0.3 0.5 0.4 0.8 0 0.2 0.2 0.3 0.3 0.4 0.3 0.2 0.7 0.4 1.1 0.6 0.2 0.1 0.3 0.2 0.5 0.2-0.1-0.2-0.3-0.3-0.5-0.4-0.1 0-0.1-0.1-0.1-0.1s0 0 0-0.1c0 0 0.1 0 0.1 0 0.2 0.1 0.3 0.1 0.5 0.1 0 0 0.1 0.1 0.1 0 0 0 0 0 0 0-0.2-0.1-0.4-0.2-0.6-0.3 0 0-0.1 0-0.1-0.1-0.1-0.1-0.1-0.1 0-0.2 0.2-0.1 0.3-0.2 0.5-0.3 0 0 0 0 0 0-0.1 0-0.2 0-0.3 0-0.2 0-0.5 0.1-0.7 0.1 0 0-0.1 0-0.1 0-0.1 0-0.1 0-0.1-0.1s0-0.2 0.1-0.3c0.1-0.1 0-0.2 0-0.3 0-0.2-0.1-0.5-0.3-0.7-0.1 0-0.1-0.1-0.2-0.1-0.1-0.1-0.3-0.2-0.4-0.4 0 0 0 0 0-0.1 0 0 0-0.1 0-0.1 0.2-0.1 0.3-0.2 0.6-0.2 0.2 0 0.4 0 0.6 0 0.1 0 0.1 0 0.2 0 0 0 0.1 0 0.2 0 0 0 0.1 0 0.1 0 0.1 0 0.1 0 0.2 0 0 0 0 0-0.1-0.1-0.2-0.1-0.3-0.2-0.4-0.4-0.1-0.1-0.1-0.1-0.2-0.2s-0.1-0.2-0.2-0.3c-0.2-0.1-0.2-0.3-0.3-0.5 0 0 0-0.1 0-0.1 0.1-0.2 0.2-0.2 0.4-0.3 0.1 0 0.2 0 0.3-0.1 0.2 0 0.3 0 0.5 0.1 0.1 0.1 0.2 0.2 0.2 0.3 0 0.2 0 0.4-0.1 0.6 0 0.1-0.1 0.1 0 0.2 0.1 0.3 0.3 0.5 0.5 0.7 0.1 0.1 0.3 0.2 0.4 0.3s0.3 0.3 0.4 0.4c0.2 0.1 0.3 0.4 0.6 0.5 0.1 0.1 0.2 0.2 0.3 0.3s0.3 0.2 0.4 0.4c0.2 0.2 0.4 0.4 0.5 0.6 0.2 0.2 0.4 0.5 0.6 0.7 0 0 0.1 0.1 0.1 0.1 0.1 0.1 0.1 0 0.2 0 0.2-0.1 0.4-0.3 0.5-0.5s0.2-0.3 0.3-0.5c0.1-0.1 0.1-0.3 0.2-0.4 0 0 0-0.1 0-0.1s0-0.1 0-0.1 0-0.1 0-0.2c-0.1-0.5-0.3-1-0.5-1.5-0.1-0.2-0.3-0.5-0.4-0.7-0.2-0.2-0.4-0.4-0.5-0.6-0.2-0.3-0.5-0.5-0.7-0.7-0.4-0.4-0.9-0.7-1.4-1-0.4-0.3-0.9-0.5-1.3-0.7-0.3-0.2-0.7-0.3-1.1-0.4-0.2 0-0.4-0.1-0.6-0.1 0 0 0 0-0.1 0-0.4 0-0.9-0.1-1.3 0-0.1 0-0.2 0-0.3 0s-0.3 0-0.4 0.1-0.6 0.1-0.8 0.2c-0.3 0.1-0.6 0.2-0.8 0.3-0.3 0.2-0.6 0.4-0.9 0.6s-0.6 0.5-0.8 0.8c-0.2 0.2-0.4 0.5-0.6 0.8s-0.3 0.5-0.5 0.8c0 0 0 0.1-0.1 0.1s-0.1 0-0.2-0.1c-0.7-0.7-1.4-1.4-2.1-2.1-0.1 0.4-0.3 0.3-0.5 0.1 0 0-0.1-0.1-0.1-0.1z"></path>
<path d="M8.8 13.9c-0.2-0.2-0.3-0.3-0.5-0.5-0.1-0.1-0.1-0.1-0.2 0-0.8 0.8-1.7 1.7-2.5 2.5 0 0-0.1 0.1-0.1 0.1s0-0.1 0-0.1c0-1.9 0-3.9 0-5.8 0-0.1 0-0.2 0.2-0.3 0.3-0.2 0.5-0.3 0.7-0.5 0 0 0.1 0 0.1 0 0.8 0.8 1.7 1.7 2.5 2.5 0.1 0.1 0.2 0.2 0.3 0.3 0 0.1 0 0.1 0 0.1-0.1 0.2-0.1 0.3-0.2 0.5 0 0.4-0.1 0.8-0.3 1.2 0.1-0.1 0.1 0 0 0z"></path>
<path d="M16.8 22.7c0.3 0 0.6 0 0.9 0 0 0 0 0-0.1 0-0.2 0.1-0.5 0.1-0.8 0 0 0.1 0 0.1 0 0z"></path>
<path d="M16.3 12.4c0-0.1 0-0.1 0 0 0.2 0 0.4 0 0.6 0 0 0 0.1 0 0.1 0-0.3 0-0.5 0-0.7 0z"></path>
<path d="M11.8 23c0.1 0 0 0.1 0 0.1s0 0.1 0 0.1 0 0.1-0.1 0.2c0.1-0.2 0.1-0.3 0.1-0.4z"></path>
<path d="M17.7 14.5c0-0.1-0.1-0.1 0 0-0.2 0-0.2 0-0.3-0.1 0 0 0.3-0.1 0.3 0.1 0-0.1 0-0.1 0 0z"></path>
<path d="M14.7 8.3c-0.1 0.1-0.2 0-0.3 0 0-0.1 0.2 0 0.3 0z"></path>
<path d="M17.4 12.4c0 0 0.1 0 0 0 0.2 0 0.2 0 0.3 0-0.2 0.1-0.2 0-0.3 0 0 0 0 0 0 0z"></path>
<path d="M17.3 18.5c0 0.1-0.1 0-0.2 0 0 0-0.1 0-0.1 0 0.1 0 0.2 0 0.3 0z"></path>
<path d="M16.6 14.2c0-0.1 0-0.2 0-0.3 0 0.1 0.1 0.2 0 0.3z"></path>
<path d="M10.3 22.3c0 0 0 0 0 0 0 0.1-0.1 0.1-0.1 0.1s0 0 0 0 0.1-0.1 0.1-0.1z"></path>
<path d="M17.7 15.3c0 0 0.1 0 0.1 0s0.1 0 0 0.1c0 0 0 0-0.1 0 0.1 0 0.1 0 0-0.1z"></path>
<path d="M8.8 15.5c0.1 0.1 0 0.2 0 0.2 0-0.1 0-0.2 0-0.2z"></path>
<path d="M16.7 17.3c0-0.1 0-0.2 0-0.2 0.1 0.1 0.1 0.2 0 0.2z"></path>
<path d="M14.9 14c0-0.1 0-0.2 0-0.2s0.1 0.1 0 0.2z"></path>
<path d="M10.3 21.2c0.1-0.1 0.2 0 0.2 0 0 0.1-0.1 0-0.2 0z"></path>
<path d="M16.4 19.5c0.1 0 0.1 0 0.2 0 0 0-0.1 0-0.2 0z"></path>
<path d="M19.2 20.8c-0.1 0.1-0.1 0-0.2 0 0 0 0.1 0 0.2 0z"></path>
<path d="M22.9 18.2c0-0.1 0-0.1 0-0.2 0 0.1 0 0.2 0 0.2z"></path>
<path d="M23 17.6c0-0.1 0-0.1 0-0.2 0 0 0 0.1 0 0.2z"></path>
<path d="M11.3 21.9c0 0 0.1 0 0 0 0.1 0 0.1 0.1 0.1 0.1-0.1 0 0 0-0.1-0.1z"></path>
<path d="M11.7 22.2c0-0.1 0.1 0 0.1-0.1 0 0.1 0 0.1-0.1 0.1 0.1 0.1 0.1 0.1 0 0 0.1 0.1 0.1 0 0 0z"></path>
<path d="M21.3 15.8c0.1 0 0.1 0 0.2 0 0 0-0.1 0-0.2 0z"></path>
<path d="M11.8 22.3c0 0 0 0 0 0 0 0.1 0 0.1 0 0.2-0.1-0.1 0-0.2 0-0.2z"></path>
<path d="M16.4 22.7c0.1 0 0.1 0 0.2 0-0.1 0-0.2 0.1-0.2 0z"></path>
<path d="M8.8 14.1c0 0.1 0 0.1 0 0.2 0 0 0 0 0 0 0-0.1-0.1-0.2 0-0.2z"></path>
<path d="M8.8 14.3c0 0 0 0 0 0 0 0.1 0.1 0.1 0 0.2 0-0.1 0-0.2 0-0.2z"></path>
<path d="M17.5 11.6c0 0.1 0 0.1 0 0.2 0-0.1 0-0.1 0-0.2z"></path>
<path d="M10.2 22.4c0 0 0 0 0 0s0 0 0 0c0 0.1 0 0.1 0 0-0.1 0.1-0.1 0-0.1 0s0.1 0 0.1 0z"></path>
<path d="M17 15.1c0 0 0.1 0 0 0 0.1 0.1 0.1 0.1 0 0 0.1 0.1 0.1 0.1 0 0 0 0.1 0 0 0 0z"></path>
<path d="M16.3 11.1c-0.1 0-0.1-0.1 0-0.1 0 0 0 0 0 0.1z"></path>
<path d="M12 19.9c-0.1 0-0.1-0.1 0-0.1 0 0 0 0 0 0.1z"></path>
<path d="M8.9 13.8c0 0.1 0 0.1 0 0.2-0.1-0.1-0.1-0.1 0-0.2-0.1 0-0.1 0 0 0z"></path>
<path d="M22.6 14.1c-0.1 0 0-0.1 0-0.1s0 0.1 0 0.1z"></path>
<path d="M16 19c0.1 0 0 0.1 0 0.1-0.1 0 0-0.1 0-0.1z"></path>
<path d="M15.8 12.7c-0.1-0.1-0.1-0.1 0-0.1 0 0 0 0 0 0.1z"></path>
<path d="M17.4 12.4c0 0 0 0 0 0s-0.1 0-0.1 0c0 0 0 0 0 0s0 0 0.1 0z"></path>
<path d="M22.9 17.9c0-0.1 0-0.1 0-0.2 0.1 0.1 0.1 0.1 0 0.2z"></path>
<path d="M17.3 17.8c0 0 0 0 0 0 0-0.1 0-0.1 0 0 0.1 0 0 0 0 0z"></path>
<path d="M14.8 14.3c0 0 0-0.1 0-0.1s0 0 0 0c0.1 0 0.1 0.1 0 0.1z"></path>
<path d="M17.2 12.4c0 0 0 0 0 0s-0.1 0.1-0.1 0c0 0 0.1 0 0.1 0z"></path>
<path d="M8.8 15.9c0.1 0 0 0.1 0 0.1s0-0.1 0-0.1z"></path>
<path d="M16.8 16.9c-0.1 0 0-0.1 0-0.1 0-0.1 0 0 0 0.1z"></path>
<path d="M14.4 16.3c0 0-0.1 0 0 0-0.1 0-0.1-0.1 0 0-0.1 0-0.1 0 0 0z"></path>
<path d="M11.4 21c0.1 0 0.1 0 0 0 0.1 0.1 0.1 0.1 0 0 0 0.1 0 0 0 0z"></path>
<path d="M17.6 19.5c0 0 0-0.1 0 0 0-0.1 0-0.1 0 0 0 0 0 0 0 0z"></path>
<path d="M17.9 18.6c0 0 0 0 0 0 0-0.1 0-0.1 0 0 0 0 0 0 0 0z"></path>
<path d="M16.5 18.3c0 0 0 0 0 0s0 0 0 0 0-0.1 0 0 0 0 0 0z"></path>
<path d="M14.9 14.2c0 0 0 0 0 0-0.1-0.1-0.1-0.1 0 0 0-0.1 0-0.1 0 0z"></path>
<path d="M22.6 14.4c0-0.1 0-0.1 0 0 0-0.1 0-0.1 0 0z"></path>
<path d="M21.4 15c-0.2-0.1-0.3-0.3-0.5-0.4-0.6-0.5-1.2-1.1-1.7-1.6-0.3-0.4-0.7-0.7-0.9-1.2-0.1-0.1-0.1-0.2-0.1-0.3s0-0.1 0-0.2c0.1-0.2 0.2-0.2 0.4-0.1 0.3 0.2 0.6 0.4 0.9 0.7 0.1 0.1 0.1 0.1 0.1 0.2s0 0.2 0 0.3c0.1 0.2 0.3 0.2 0.5 0.2 0.1 0 0.1 0 0.2 0 0.2 0 0.3 0.1 0.4 0.1 0.3 0.2 0.5 0.4 0.7 0.5 0 0 0 0 0.1 0 0 0 0 0 0-0.1-0.1-0.2-0.3-0.4-0.4-0.6-0.4-0.5-0.8-1-1.3-1.5-0.3-0.4-0.7-0.7-1.2-1-0.4 0.1-0.6 0-0.8 0-0.3-0.1-0.6-0.1-0.9-0.2 0 0 0 0-0.1 0-0.5-0.1-0.9 0-1.4 0-0.1 0.1-0.2 0-0.3 0-0.3 0-0.5 0.1-0.8 0.1-0.4 0.1-0.9 0.3-1.2 0.5-0.5 0.3-0.9 0.6-1.2 1-0.2 0.3-0.4 0.6-0.5 0.9-0.1 0.2-0.1 0.4-0.2 0.6 0 0.1 0 0.3 0 0.4s0 0.3 0 0.4c0 0.1 0 0.1 0 0.2s0 0.2 0 0.3c0 0.1 0 0.1 0 0.2 0 0 0 0.1 0 0.1s0 0.1 0 0.1c0 0.2 0.1 0.4 0.1 0.6 0.1 0.2 0.1 0.5 0.2 0.7 0.1 0.3 0.2 0.5 0.3 0.8 0.2 0.4 0.4 0.8 0.6 1.1 0.2 0.4 0.4 0.7 0.6 1.1 0.1 0.1 0.1 0.2 0.2 0.3 0 0 0 0 0 0.1-0.2-0.1-0.3-0.3-0.5-0.4-0.4-0.3-0.7-0.7-1-1.1-0.5-0.6-0.9-1.3-1.2-2-0.1-0.3-0.2-0.6-0.3-0.8-0.1-0.3-0.2-0.6-0.2-0.9 0-0.1 0-0.2 0-0.4s0-0.3 0-0.5c0-0.1 0-0.1 0-0.2s0-0.1 0-0.2c0-0.2 0.1-0.5 0.2-0.7 0.1-0.3 0.2-0.5 0.4-0.8 0.3-0.5 0.6-0.9 1-1.2 0.3-0.2 0.6-0.5 0.9-0.6 0.2-0.1 0.4-0.2 0.7-0.3s0.5-0.2 0.7-0.2c0.2 0 0.3 0 0.5-0.1 0.4-0.1 0.8 0 1.2 0 0.1 0 0.2 0 0.2 0 0.3 0 0.6 0.1 0.9 0.2s0.5 0.2 0.8 0.3c0.2 0.1 0.4 0.2 0.6 0.4 0.1 0.1 0.2 0.1 0.3 0.1 0.3 0.1 0.5 0.2 0.8 0.4s0.7 0.4 1 0.6c0.5 0.4 1 0.8 1.3 1.4 0.2 0.3 0.3 0.6 0.4 0.9 0.1 0.2 0.1 0.5 0.1 0.8s-0.1 0.6-0.3 0.8c-0.1 0.1-0.1 0.2-0.2 0.2 0 0-0.1 0-0.1 0z"></path>
<path d="M11.2 13.9c-0.1-0.2 0-0.3 0-0.5 0 0 0-0.1 0-0.1 0 0.2 0 0.4 0 0.6 0 0 0 0 0 0z"></path>
<path d="M10 13.1c0 0.2 0 0.3 0 0.5 0 0 0 0 0 0 0-0.2 0-0.3 0-0.5z"></path>
<path d="M15.2 9.8c0-0.1 0.1 0 0.2 0 0 0 0.1 0 0.1 0-0.1 0-0.2 0-0.3 0z"></path>
<path d="M15.8 8.9c-0.1 0-0.2 0-0.2 0s0.1-0.1 0.2 0z"></path>
<path d="M13.3 19.3c0-0.1 0-0.1 0 0 0.1-0.1 0.1 0 0 0 0.1 0 0 0 0 0z"></path>
<path d="M18.1 11.2c0 0.1 0 0.1 0 0.2-0.1 0-0.1-0.1 0-0.2z"></path>
<path d="M10.1 12.8c0 0.1 0 0.1 0 0.2-0.1-0.1-0.1-0.2 0-0.2z"></path>
<path d="M20.1 12.7c-0.1 0.1-0.1 0.1-0.2 0 0.1 0 0.2 0 0.2 0z"></path>
<path d="M11.2 14.4c-0.1-0.1 0-0.1 0-0.2 0.1 0.1 0 0.1 0 0.2z"></path>
<path d="M21.3 13.3c0 0 0 0 0 0 0 0.1 0 0.1 0 0-0.1 0.1-0.1 0.1 0 0 0 0 0 0 0 0z"></path>
<path d="M21.4 15c0 0 0.1 0 0.1 0 0 0.1-0.1 0.1-0.1 0z"></path>
<path d="M11.3 14.6c-0.1 0 0-0.1 0-0.1s0 0.1 0 0.1z"></path>
<path d="M17 15.1c0 0 0 0.1 0 0 0 0.1 0 0.1 0 0 0 0 0 0 0 0s0 0 0 0z"></path>
</svg>
