<?xml version="1.0" encoding="utf-8"?>
<!-- Generator: Adobe Illustrator 21.1.0, SVG Export Plug-In . SVG Version: 6.00 Build 0)  -->
<!DOCTYPE svg PUBLIC "-//W3C//DTD SVG 1.1//EN" "http://www.w3.org/Graphics/SVG/1.1/DTD/svg11.dtd">
<svg version="1.1" id="Layer_1" xmlns="http://www.w3.org/2000/svg" xmlns:xlink="http://www.w3.org/1999/xlink" x="0px" y="0px"
	 viewBox="0 0 32 32" style="enable-background:new 0 0 32 32;" xml:space="preserve">
<g id="yGM3XX_1_">
	<g>
		<path d="M6.5,9.3C7,9,7.5,8.7,7.9,8.4c0.6-0.3,1.1-0.7,1.7-1C10,7.2,10.4,7,10.8,6.8c0.3-0.2,0.7-0.4,1-0.6
			c0.4-0.2,0.8-0.5,1.1-0.7C13.3,5.3,13.6,5,14,4.8c0.4-0.2,0.7-0.4,1.1-0.7c0.2-0.1,0.3-0.2,0.5-0.3c0,0,0.1,0,0.1,0
			c0.3,0.2,0.7,0.4,1,0.6c0.5,0.3,1,0.6,1.6,0.9c0.5,0.3,1.1,0.7,1.6,1c0.5,0.3,1.1,0.6,1.6,1c0.4,0.2,0.7,0.4,1.1,0.7
			c0.4,0.2,0.7,0.4,1.1,0.6c0.4,0.2,0.7,0.4,1.1,0.7c0.3,0.2,0.5,0.3,0.8,0.5c0.1,0,0.1,0.1,0.1,0.2c0,3.9,0,7.8,0,11.8
			c0,0.1,0,0.2-0.1,0.2c-0.4,0.3-0.8,0.5-1.3,0.8c-0.6,0.3-1.2,0.7-1.8,1c-0.5,0.3-1.1,0.7-1.6,1c-0.5,0.3-1.1,0.6-1.6,1
			c-0.4,0.2-0.8,0.4-1.1,0.7c-0.4,0.2-0.7,0.4-1.1,0.6c-0.4,0.2-0.7,0.4-1.1,0.7c-0.1,0.1-0.2,0.2-0.3,0.2c-0.1,0-0.2-0.1-0.3-0.2
			c-0.4-0.2-0.8-0.5-1.1-0.7c-0.4-0.2-0.7-0.4-1.1-0.7c-0.3-0.2-0.7-0.4-1-0.6c-0.4-0.2-0.8-0.5-1.1-0.7c-0.4-0.2-0.8-0.5-1.2-0.7
			c-0.4-0.2-0.7-0.4-1.1-0.7c-0.3-0.2-0.7-0.4-1-0.6c-0.4-0.2-0.7-0.4-1.1-0.7c-0.3-0.2-0.5-0.3-0.8-0.5c-0.1,0-0.1-0.1-0.1-0.1
			c0-1.9,0-3.8,0-5.7c0,0,0,0,0,0c0-0.1,0.1-0.1,0.1-0.1c0.8-0.8,1.6-1.6,2.4-2.4c0.1-0.1,0.1-0.1,0.3,0c0.1,0.1,0.3,0.3,0.4,0.4
			c0,0,0,0.1,0,0.1c0,0,0,0.1,0,0.1c0,0.1,0,0.1,0,0.2c0,0.1,0,0.1,0,0.2c0,0.3,0,0.7,0,1c0,0.1,0,0.2,0,0.3c0,0.1,0,0.1,0,0.2
			c0,0.1,0,0.1,0,0.2c0.1,0.5,0.2,0.9,0.4,1.3c0.1,0.2,0.3,0.5,0.5,0.6c0.1,0.1,0.1,0.1,0.2,0.1c0.1,0.1,0.2,0.1,0.3,0.2
			c0.2,0.1,0.2,0.3,0,0.4c-0.1,0.1-0.3,0.1-0.4,0.2c-0.2,0.1-0.5,0.2-0.7,0.3c-0.3,0.1-0.5,0.3-0.7,0.5c-0.2,0.3-0.2,0.5,0,0.8
			c0.2,0.4,0.6,0.6,1,0.7c0.3,0.1,0.6,0.2,0.9,0.1c0.1,0,0.2,0,0.2,0c0.3-0.1,0.5-0.2,0.7-0.2c0.1,0,0.1,0,0.2,0c0,0,0,0.1,0,0.1
			c0,0.2-0.2,0.3-0.3,0.4c-0.2,0.2-0.4,0.4-0.6,0.6c-0.1,0.1-0.2,0.1-0.3,0.2c0,0-0.1,0.1-0.1,0.1c0,0,0,0,0,0c0,0,0,0,0,0
			c0.1,0,0.1-0.1,0.2-0.1c0.3-0.1,0.5-0.2,0.8-0.4c0,0,0.1,0,0.1,0c0.1,0,0.1,0.1,0.1,0.1c0,0.1,0,0.2-0.1,0.3
			c-0.1,0.2-0.1,0.4-0.2,0.7c0,0,0,0.1,0,0.1c0.2-0.3,0.4-0.5,0.5-0.7c0-0.1,0.1-0.1,0.1-0.1c0,0,0.1,0,0.1,0.1c0,0.1,0,0.1,0,0.2
			c0,0.1,0,0.3,0,0.4c0,0.1,0,0.2,0,0.3c0,0,0,0,0-0.1c0-0.2,0.1-0.4,0.2-0.6c0.2-0.5,0.3-1,0.5-1.5c0-0.1,0-0.2-0.1-0.2
			c-0.1-0.2-0.3-0.4-0.4-0.6C12.1,20.1,12,20,12,19.9c0,0,0-0.1,0-0.1c0-0.1,0.1-0.1,0.2-0.1c0.1,0,0.1,0.1,0.2,0.1
			c0.1,0.1,0.3,0.3,0.4,0.4c0.2,0.2,0.4,0.4,0.6,0.6c0.1,0.1,0.2,0.2,0.3,0.3c0.3,0.2,0.5,0.5,0.8,0.7c0.2,0.2,0.5,0.3,0.7,0.4
			c0.3,0.1,0.6,0.3,1,0.3c0.1,0,0.2,0,0.2,0.1c0.1,0,0.1,0,0.2,0c0.1,0,0.1,0,0.2,0c0,0,0.1,0,0.1,0c0.2,0,0.5,0,0.7,0
			c0,0,0.1,0,0.1,0c0.2,0,0.3,0,0.5-0.1c0.2,0,0.4-0.1,0.6-0.1c0.4-0.1,0.8-0.3,1.2-0.4c0.2-0.1,0.3-0.2,0.5-0.3
			c0.2-0.1,0.4-0.2,0.5-0.4c0.1-0.1,0.2-0.2,0.3-0.3c0.2-0.2,0.5-0.4,0.6-0.7c0.1-0.2,0.2-0.3,0.3-0.5c0.2-0.4,0.4-0.7,0.5-1.1
			c0.1-0.2,0.1-0.4,0.1-0.7c0-0.1,0-0.1,0-0.2c0,0,0-0.1,0-0.1c0,0,0-0.1,0-0.2c0,0,0-0.1,0-0.1c0-0.1,0-0.1,0-0.2c0,0,0-0.1,0-0.1
			c0,0-0.1,0-0.1,0.1c-0.2,0.2-0.3,0.5-0.5,0.8c-0.2,0.3-0.4,0.7-0.6,1c-0.2,0.2-0.3,0.4-0.5,0.6c-0.4,0.4-0.8,0.7-1.4,0.9
			c-0.2,0.1-0.4,0.2-0.7,0.2c-0.1,0-0.1,0-0.2,0c-0.3,0-0.5,0-0.8,0c-0.2,0-0.4-0.1-0.6-0.2c-0.4-0.1-0.8-0.4-1.2-0.6
			c-0.4-0.3-0.7-0.7-0.9-1.1c-0.1-0.1-0.1-0.3-0.1-0.5c0-0.1,0-0.2,0.1-0.3c0.1-0.1,0.1-0.1,0.2,0c0.1,0,0.2,0.1,0.2,0.2
			c0.1,0.2,0.1,0.4,0.1,0.6c0,0.1,0,0.1,0,0.2c0.1,0.2,0.1,0.3,0.4,0.3c0,0,0,0,0.1,0c0.1,0,0.1,0,0.2,0c0.1,0,0.3,0,0.4,0
			c0.1,0,0.2,0,0.3,0c0.1,0,0.1,0,0.2,0c0,0,0,0,0,0c0,0,0,0,0,0c-0.2-0.1-0.3-0.2-0.5-0.3c0,0-0.1,0-0.1-0.1c0,0,0-0.1,0.1-0.1
			c0.2-0.1,0.4-0.1,0.5-0.2c0.1,0,0.2-0.1,0.3-0.1c0,0,0,0,0,0c0,0,0,0,0,0c-0.2,0-0.3,0-0.5,0c-0.1,0-0.2,0-0.3,0c0,0,0,0,0,0
			c-0.1,0-0.2,0-0.2,0c0-0.1,0-0.1,0.1-0.2c0.1-0.1,0.2-0.3,0.3-0.4c0,0,0.1-0.1,0.1-0.1c0,0,0,0,0,0c0,0,0,0,0,0
			c-0.2,0.2-0.4,0.3-0.6,0.5c0,0-0.1,0-0.1,0c0,0,0,0,0-0.1c0-0.2,0.1-0.3,0.1-0.4c0-0.2,0.1-0.3,0.1-0.5c0.1-0.1,0-0.2,0-0.2
			c0-0.1,0-0.1,0-0.2c0-0.1,0-0.1,0-0.2c-0.1-0.2-0.3-0.3-0.4-0.3c-0.2-0.1-0.5-0.1-0.7-0.2c-0.1,0-0.2,0-0.3,0
			c-0.3,0-0.6,0-0.9,0.1c0,0-0.1,0-0.1-0.1c0-0.1,0-0.2,0.1-0.3c0.1-0.3,0.2-0.6,0.3-0.9c0.1-0.2,0.1-0.5,0.2-0.7c0,0,0-0.1,0-0.2
			c0,0,0-0.1,0-0.1c0,0,0-0.1,0-0.1c0.1-0.1,0-0.2,0-0.2c0-0.1,0-0.2,0-0.3c0,0,0-0.1,0-0.1c0,0,0.1,0,0.1,0
			c0.1,0.1,0.2,0.2,0.3,0.4c0.2,0.3,0.3,0.5,0.4,0.8c0,0.2,0.2,0.3,0.3,0.4c0.3,0.2,0.7,0.4,1.1,0.6c0.2,0.1,0.3,0.2,0.5,0.2
			c-0.1-0.2-0.3-0.3-0.5-0.4c-0.1,0-0.1-0.1-0.1-0.1c0,0,0,0,0-0.1c0,0,0.1,0,0.1,0c0.2,0.1,0.3,0.1,0.5,0.1c0,0,0.1,0.1,0.1,0
			c0,0,0,0,0,0c-0.2-0.1-0.4-0.2-0.6-0.3c0,0-0.1,0-0.1-0.1c-0.1-0.1-0.1-0.1,0-0.2c0.2-0.1,0.3-0.2,0.5-0.3c0,0,0,0,0,0
			c-0.1,0-0.2,0-0.3,0c-0.2,0-0.5,0.1-0.7,0.1c0,0-0.1,0-0.1,0c-0.1,0-0.1,0-0.1-0.1c0-0.1,0-0.2,0.1-0.3c0.1-0.1,0-0.2,0-0.3
			c0-0.2-0.1-0.5-0.3-0.7c-0.1,0-0.1-0.1-0.2-0.1c-0.1-0.1-0.3-0.2-0.4-0.4c0,0,0,0,0-0.1c0,0,0-0.1,0-0.1c0.2-0.1,0.3-0.2,0.6-0.2
			c0.2,0,0.4,0,0.6,0c0.1,0,0.1,0,0.2,0c0,0,0.1,0,0.2,0c0,0,0.1,0,0.1,0c0.1,0,0.1,0,0.2,0c0,0,0,0-0.1-0.1
			c-0.2-0.1-0.3-0.2-0.4-0.4c-0.1-0.1-0.1-0.1-0.2-0.2c-0.1-0.1-0.1-0.2-0.2-0.3c-0.2-0.1-0.2-0.3-0.3-0.5c0,0,0-0.1,0-0.1
			c0.1-0.2,0.2-0.2,0.4-0.3c0.1,0,0.2,0,0.3-0.1c0.2,0,0.3,0,0.5,0.1c0.1,0.1,0.2,0.2,0.2,0.3c0,0.2,0,0.4-0.1,0.6
			c0,0.1-0.1,0.1,0,0.2c0.1,0.3,0.3,0.5,0.5,0.7c0.1,0.1,0.3,0.2,0.4,0.3c0.1,0.1,0.3,0.3,0.4,0.4c0.2,0.1,0.3,0.4,0.6,0.5
			c0.1,0.1,0.2,0.2,0.3,0.3c0.1,0.1,0.3,0.2,0.4,0.4c0.2,0.2,0.4,0.4,0.5,0.6c0.2,0.2,0.4,0.5,0.6,0.7c0,0,0.1,0.1,0.1,0.1
			c0.1,0.1,0.1,0,0.2,0c0.2-0.1,0.4-0.3,0.5-0.5c0.1-0.2,0.2-0.3,0.3-0.5c0.1-0.1,0.1-0.3,0.2-0.4c0,0,0-0.1,0-0.1c0,0,0-0.1,0-0.1
			c0-0.1,0-0.1,0-0.2c-0.1-0.5-0.3-1-0.5-1.5c-0.1-0.2-0.3-0.5-0.4-0.7c-0.2-0.2-0.4-0.4-0.5-0.6c-0.2-0.3-0.5-0.5-0.7-0.7
			c-0.4-0.4-0.9-0.7-1.4-1c-0.4-0.3-0.9-0.5-1.3-0.7c-0.3-0.2-0.7-0.3-1.1-0.4c-0.2,0-0.4-0.1-0.6-0.1c0,0,0,0-0.1,0
			c-0.4,0-0.9-0.1-1.3,0c-0.1,0-0.2,0-0.3,0c-0.1,0-0.3,0-0.4,0.1c-0.3,0.1-0.6,0.1-0.8,0.2c-0.3,0.1-0.6,0.2-0.8,0.3
			c-0.3,0.2-0.6,0.4-0.9,0.6c-0.3,0.2-0.6,0.5-0.8,0.8c-0.2,0.2-0.4,0.5-0.6,0.8c-0.2,0.3-0.3,0.5-0.5,0.8c0,0,0,0.1-0.1,0.1
			c-0.1,0-0.1,0-0.2-0.1c-0.7-0.7-1.4-1.4-2.1-2.1C7,9.7,6.8,9.6,6.6,9.4C6.6,9.4,6.5,9.3,6.5,9.3z"/>
		<path d="M8.8,13.9c-0.2-0.2-0.3-0.3-0.5-0.5c-0.1-0.1-0.1-0.1-0.2,0c-0.8,0.8-1.7,1.7-2.5,2.5c0,0-0.1,0.1-0.1,0.1
			c0,0,0-0.1,0-0.1c0-1.9,0-3.9,0-5.8c0-0.1,0-0.2,0.2-0.3C6,9.6,6.2,9.5,6.4,9.3c0,0,0.1,0,0.1,0c0.8,0.8,1.7,1.7,2.5,2.5
			c0.1,0.1,0.2,0.2,0.3,0.3c0,0.1,0,0.1,0,0.1c-0.1,0.2-0.1,0.3-0.2,0.5C9.1,13.1,9,13.5,8.8,13.9C8.9,13.8,8.9,13.9,8.8,13.9z"/>
		<path d="M16.8,22.7c0.3,0,0.6,0,0.9,0c0,0,0,0-0.1,0C17.4,22.8,17.1,22.8,16.8,22.7C16.8,22.8,16.8,22.8,16.8,22.7z"/>
		<path d="M16.3,12.4C16.3,12.3,16.3,12.3,16.3,12.4c0.2,0,0.4,0,0.6,0c0,0,0.1,0,0.1,0C16.7,12.4,16.5,12.4,16.3,12.4z"/>
		<path d="M11.8,23c0.1,0,0,0.1,0,0.1c0,0,0,0.1,0,0.1c0,0.1,0,0.1-0.1,0.2C11.8,23.2,11.8,23.1,11.8,23z"/>
		<path d="M17.7,14.5C17.7,14.4,17.6,14.4,17.7,14.5c-0.2,0-0.2,0-0.3-0.1C17.4,14.4,17.7,14.3,17.7,14.5
			C17.7,14.4,17.7,14.4,17.7,14.5z"/>
		<path d="M14.7,8.3c-0.1,0.1-0.2,0-0.3,0C14.4,8.2,14.6,8.3,14.7,8.3z"/>
		<path d="M17.4,12.4C17.4,12.4,17.5,12.4,17.4,12.4c0.2,0,0.2,0,0.3,0C17.5,12.5,17.5,12.4,17.4,12.4
			C17.4,12.4,17.4,12.4,17.4,12.4z"/>
		<path d="M17.3,18.5c0,0.1-0.1,0-0.2,0c0,0-0.1,0-0.1,0C17.1,18.5,17.2,18.5,17.3,18.5z"/>
		<path d="M16.6,14.2c0-0.1,0-0.2,0-0.3C16.6,14,16.7,14.1,16.6,14.2z"/>
		<path d="M10.3,22.3C10.3,22.3,10.3,22.3,10.3,22.3c0,0.1-0.1,0.1-0.1,0.1c0,0,0,0,0,0C10.2,22.4,10.3,22.3,10.3,22.3z"/>
		<path d="M17.7,15.3c0,0,0.1,0,0.1,0c0,0,0.1,0,0,0.1c0,0,0,0-0.1,0C17.8,15.4,17.8,15.4,17.7,15.3z"/>
		<path d="M8.8,15.5c0.1,0.1,0,0.2,0,0.2C8.8,15.6,8.8,15.5,8.8,15.5z"/>
		<path d="M16.7,17.3c0-0.1,0-0.2,0-0.2C16.8,17.2,16.8,17.3,16.7,17.3z"/>
		<path d="M14.9,14c0-0.1,0-0.2,0-0.2C14.9,13.8,15,13.9,14.9,14z"/>
		<path d="M10.3,21.2c0.1-0.1,0.2,0,0.2,0C10.5,21.3,10.4,21.2,10.3,21.2z"/>
		<path d="M16.4,19.5c0.1,0,0.1,0,0.2,0C16.6,19.5,16.5,19.5,16.4,19.5z"/>
		<path d="M19.2,20.8c-0.1,0.1-0.1,0-0.2,0C19,20.8,19.1,20.8,19.2,20.8z"/>
		<path d="M22.9,18.2c0-0.1,0-0.1,0-0.2C22.9,18.1,22.9,18.2,22.9,18.2z"/>
		<path d="M23,17.6c0-0.1,0-0.1,0-0.2C23,17.4,23,17.5,23,17.6z"/>
		<path d="M11.3,21.9C11.3,21.9,11.4,21.9,11.3,21.9c0.1,0,0.1,0.1,0.1,0.1C11.3,22,11.4,22,11.3,21.9z"/>
		<path d="M11.7,22.2c0-0.1,0.1,0,0.1-0.1C11.8,22.2,11.8,22.2,11.7,22.2C11.8,22.3,11.8,22.3,11.7,22.2
			C11.8,22.3,11.8,22.2,11.7,22.2z"/>
		<path d="M21.3,15.8c0.1,0,0.1,0,0.2,0C21.5,15.8,21.4,15.8,21.3,15.8z"/>
		<path d="M11.8,22.3C11.8,22.3,11.8,22.3,11.8,22.3c0,0.1,0,0.1,0,0.2C11.7,22.4,11.8,22.3,11.8,22.3z"/>
		<path d="M16.4,22.7c0.1,0,0.1,0,0.2,0C16.5,22.7,16.4,22.8,16.4,22.7z"/>
		<path d="M8.8,14.1c0,0.1,0,0.1,0,0.2c0,0,0,0,0,0C8.8,14.2,8.7,14.1,8.8,14.1z"/>
		<path d="M8.8,14.3C8.8,14.3,8.8,14.3,8.8,14.3c0,0.1,0.1,0.1,0,0.2C8.8,14.4,8.8,14.3,8.8,14.3z"/>
		<path d="M17.5,11.6c0,0.1,0,0.1,0,0.2C17.5,11.7,17.5,11.7,17.5,11.6z"/>
		<path d="M10.2,22.4C10.2,22.4,10.2,22.4,10.2,22.4C10.2,22.4,10.2,22.4,10.2,22.4C10.2,22.5,10.2,22.5,10.2,22.4
			c-0.1,0.1-0.1,0-0.1,0C10.1,22.4,10.2,22.4,10.2,22.4z"/>
		<path d="M17,15.1C17,15.1,17.1,15.1,17,15.1C17.1,15.2,17.1,15.2,17,15.1C17.1,15.2,17.1,15.2,17,15.1C17,15.2,17,15.1,17,15.1z"
			/>
		<path d="M16.3,11.1c-0.1,0-0.1-0.1,0-0.1C16.3,11,16.3,11,16.3,11.1z"/>
		<path d="M12,19.9c-0.1,0-0.1-0.1,0-0.1C12,19.8,12,19.8,12,19.9z"/>
		<path d="M8.9,13.8c0,0.1,0,0.1,0,0.2C8.8,13.9,8.8,13.9,8.9,13.8C8.8,13.8,8.8,13.8,8.9,13.8z"/>
		<path d="M22.6,14.1c-0.1,0,0-0.1,0-0.1C22.6,14,22.6,14.1,22.6,14.1z"/>
		<path d="M16,19c0.1,0,0,0.1,0,0.1C15.9,19.1,16,19,16,19z"/>
		<path d="M15.8,12.7c-0.1-0.1-0.1-0.1,0-0.1C15.8,12.6,15.8,12.6,15.8,12.7z"/>
		<path d="M17.4,12.4C17.4,12.4,17.4,12.4,17.4,12.4c0,0-0.1,0-0.1,0c0,0,0,0,0,0C17.3,12.4,17.3,12.4,17.4,12.4z"/>
		<path d="M22.9,17.9c0-0.1,0-0.1,0-0.2C23,17.8,23,17.8,22.9,17.9z"/>
		<path d="M17.3,17.8C17.3,17.8,17.3,17.8,17.3,17.8C17.3,17.7,17.3,17.7,17.3,17.8C17.4,17.8,17.3,17.8,17.3,17.8z"/>
		<path d="M14.8,14.3c0,0,0-0.1,0-0.1c0,0,0,0,0,0C14.9,14.2,14.9,14.3,14.8,14.3z"/>
		<path d="M17.2,12.4C17.2,12.4,17.2,12.4,17.2,12.4c0,0-0.1,0.1-0.1,0C17.1,12.4,17.2,12.4,17.2,12.4z"/>
		<path d="M8.8,15.9c0.1,0,0,0.1,0,0.1C8.8,16,8.8,15.9,8.8,15.9z"/>
		<path d="M16.8,16.9c-0.1,0,0-0.1,0-0.1C16.8,16.7,16.8,16.8,16.8,16.9z"/>
		<path d="M14.4,16.3C14.4,16.3,14.3,16.3,14.4,16.3C14.3,16.3,14.3,16.2,14.4,16.3C14.3,16.3,14.3,16.3,14.4,16.3z"/>
		<path d="M11.4,21C11.5,21,11.5,21,11.4,21C11.5,21.1,11.5,21.1,11.4,21C11.4,21.1,11.4,21,11.4,21z"/>
		<path d="M17.6,19.5C17.6,19.5,17.6,19.4,17.6,19.5C17.6,19.4,17.6,19.4,17.6,19.5C17.6,19.5,17.6,19.5,17.6,19.5z"/>
		<path d="M17.9,18.6C17.9,18.6,17.9,18.6,17.9,18.6C17.9,18.5,17.9,18.5,17.9,18.6C17.9,18.6,17.9,18.6,17.9,18.6z"/>
		<path d="M16.5,18.3C16.5,18.3,16.5,18.3,16.5,18.3C16.5,18.3,16.5,18.3,16.5,18.3C16.5,18.3,16.5,18.2,16.5,18.3
			C16.5,18.3,16.5,18.3,16.5,18.3z"/>
		<path d="M14.9,14.2C14.9,14.2,14.9,14.2,14.9,14.2C14.8,14.1,14.8,14.1,14.9,14.2C14.9,14.1,14.9,14.1,14.9,14.2z"/>
		<path d="M22.6,14.4C22.6,14.3,22.6,14.3,22.6,14.4C22.6,14.3,22.6,14.3,22.6,14.4z"/>
		<path d="M21.4,15c-0.2-0.1-0.3-0.3-0.5-0.4c-0.6-0.5-1.2-1.1-1.7-1.6c-0.3-0.4-0.7-0.7-0.9-1.2c-0.1-0.1-0.1-0.2-0.1-0.3
			c0-0.1,0-0.1,0-0.2c0.1-0.2,0.2-0.2,0.4-0.1c0.3,0.2,0.6,0.4,0.9,0.7c0.1,0.1,0.1,0.1,0.1,0.2c0,0.1,0,0.2,0,0.3
			c0.1,0.2,0.3,0.2,0.5,0.2c0.1,0,0.1,0,0.2,0c0.2,0,0.3,0.1,0.4,0.1c0.3,0.2,0.5,0.4,0.7,0.5c0,0,0,0,0.1,0c0,0,0,0,0-0.1
			c-0.1-0.2-0.3-0.4-0.4-0.6c-0.4-0.5-0.8-1-1.3-1.5c-0.3-0.4-0.7-0.7-1.2-1C18.2,10.1,18,10,17.8,10c-0.3-0.1-0.6-0.1-0.9-0.2
			c0,0,0,0-0.1,0c-0.5-0.1-0.9,0-1.4,0c-0.1,0.1-0.2,0-0.3,0c-0.3,0-0.5,0.1-0.8,0.1c-0.4,0.1-0.9,0.3-1.2,0.5
			c-0.5,0.3-0.9,0.6-1.2,1c-0.2,0.3-0.4,0.6-0.5,0.9c-0.1,0.2-0.1,0.4-0.2,0.6c0,0.1,0,0.3,0,0.4c0,0.1,0,0.3,0,0.4
			c0,0.1,0,0.1,0,0.2c0,0.1,0,0.2,0,0.3c0,0.1,0,0.1,0,0.2c0,0,0,0.1,0,0.1c0,0,0,0.1,0,0.1c0,0.2,0.1,0.4,0.1,0.6
			c0.1,0.2,0.1,0.5,0.2,0.7c0.1,0.3,0.2,0.5,0.3,0.8c0.2,0.4,0.4,0.8,0.6,1.1c0.2,0.4,0.4,0.7,0.6,1.1c0.1,0.1,0.1,0.2,0.2,0.3
			c0,0,0,0,0,0.1c-0.2-0.1-0.3-0.3-0.5-0.4c-0.4-0.3-0.7-0.7-1-1.1c-0.5-0.6-0.9-1.3-1.2-2c-0.1-0.3-0.2-0.6-0.3-0.8
			c-0.1-0.3-0.2-0.6-0.2-0.9c0-0.1,0-0.2,0-0.4c0-0.2,0-0.3,0-0.5c0-0.1,0-0.1,0-0.2c0-0.1,0-0.1,0-0.2c0-0.2,0.1-0.5,0.2-0.7
			c0.1-0.3,0.2-0.5,0.4-0.8c0.3-0.5,0.6-0.9,1-1.2c0.3-0.2,0.6-0.5,0.9-0.6c0.2-0.1,0.4-0.2,0.7-0.3C13.5,9.1,13.7,9,13.9,9
			c0.2,0,0.3,0,0.5-0.1c0.4-0.1,0.8,0,1.2,0c0.1,0,0.2,0,0.2,0c0.3,0,0.6,0.1,0.9,0.2c0.3,0.1,0.5,0.2,0.8,0.3
			c0.2,0.1,0.4,0.2,0.6,0.4c0.1,0.1,0.2,0.1,0.3,0.1c0.3,0.1,0.5,0.2,0.8,0.4c0.3,0.2,0.7,0.4,1,0.6c0.5,0.4,1,0.8,1.3,1.4
			c0.2,0.3,0.3,0.6,0.4,0.9C22,13.4,22,13.7,22,14c0,0.3-0.1,0.6-0.3,0.8c-0.1,0.1-0.1,0.2-0.2,0.2C21.5,15,21.4,15,21.4,15z"/>
		<path d="M11.2,13.9c-0.1-0.2,0-0.3,0-0.5c0,0,0-0.1,0-0.1C11.2,13.5,11.2,13.7,11.2,13.9C11.2,13.9,11.2,13.9,11.2,13.9z"/>
		<path d="M10,13.1c0,0.2,0,0.3,0,0.5c0,0,0,0,0,0C10,13.4,10,13.3,10,13.1z"/>
		<path d="M15.2,9.8c0-0.1,0.1,0,0.2,0c0,0,0.1,0,0.1,0C15.4,9.8,15.3,9.8,15.2,9.8z"/>
		<path d="M15.8,8.9c-0.1,0-0.2,0-0.2,0C15.6,8.9,15.7,8.8,15.8,8.9z"/>
		<path d="M13.3,19.3C13.3,19.2,13.3,19.2,13.3,19.3C13.4,19.2,13.4,19.3,13.3,19.3C13.4,19.3,13.3,19.3,13.3,19.3z"/>
		<path d="M18.1,11.2c0,0.1,0,0.1,0,0.2C18,11.4,18,11.3,18.1,11.2z"/>
		<path d="M10.1,12.8c0,0.1,0,0.1,0,0.2C10,12.9,10,12.8,10.1,12.8z"/>
		<path d="M20.1,12.7c-0.1,0.1-0.1,0.1-0.2,0C20,12.7,20.1,12.7,20.1,12.7z"/>
		<path d="M11.2,14.4c-0.1-0.1,0-0.1,0-0.2C11.3,14.3,11.2,14.3,11.2,14.4z"/>
		<path d="M21.3,13.3C21.3,13.3,21.3,13.3,21.3,13.3C21.3,13.4,21.3,13.4,21.3,13.3C21.2,13.4,21.2,13.4,21.3,13.3
			C21.3,13.3,21.3,13.3,21.3,13.3z"/>
		<path d="M21.4,15c0,0,0.1,0,0.1,0C21.5,15.1,21.4,15.1,21.4,15z"/>
		<path d="M11.3,14.6c-0.1,0,0-0.1,0-0.1C11.3,14.5,11.3,14.6,11.3,14.6z"/>
		<path d="M17,15.1C17,15.1,17,15.2,17,15.1C17,15.2,17,15.2,17,15.1C17,15.1,17,15.1,17,15.1C17,15.1,17,15.1,17,15.1z"/>
	</g>
</g>
</svg>
