<!-- Generated by IcoMoon.io -->
<svg version="1.1" xmlns="http://www.w3.org/2000/svg" width="32" height="32" viewBox="0 0 32 32">
<title>kubernetes</title>
<path d="M14.2 18.1c0-0.2-0.2-0.3-0.4-0.4v0c0 0-0.1 0-0.1 0v0l-2.7 0.5c0.4 1.1 1.2 2.1 2.1 2.7l1-2.5c0.1-0.1 0.1-0.2 0.1-0.3z"></path>
<path d="M16.4 19.1c0-0.1-0.1-0.1-0.2-0.2-0.1 0-0.1 0-0.2 0-0.2 0-0.3 0.1-0.4 0.2v0l-1.3 2.4c0.9 0.3 1.9 0.4 2.9 0.1 0.2 0 0.4-0.1 0.5-0.1l-1.3-2.4z"></path>
<path d="M13.3 16.2c0.1 0 0.2-0.1 0.2-0.2 0.2-0.2 0.1-0.5-0.1-0.6v0l-2-1.8c-0.6 1-0.9 2.1-0.7 3.3l2.6-0.7z"></path>
<path d="M15.3 17l0.7 0.4 0.7-0.4 0.2-0.8-0.5-0.6h-0.8l-0.5 0.6z"></path>
<path d="M14.5 14.2c0.1 0.1 0.2 0.1 0.3 0.1 0.2 0 0.4-0.2 0.5-0.4v0l0.2-2.7c-0.2 0-0.4 0.1-0.5 0.1-1 0.2-1.9 0.7-2.5 1.4l2 1.5z"></path>
<path d="M16.8 13.8c0 0.1 0 0.2 0.1 0.3 0.2 0.2 0.4 0.2 0.6 0.1v0l2.2-1.6c-0.8-0.8-1.9-1.3-3.1-1.5l0.2 2.7z"></path>
<path d="M28.3 18.6l-2.1-9.2c-0.1-0.5-0.4-0.9-0.9-1.1l-8.6-4.1c-0.2-0.1-0.5-0.2-0.8-0.2-0.2 0-0.4 0.1-0.6 0.2l-8.6 4.1c-0.4 0.2-0.8 0.6-0.9 1.1l-2.1 9.2c-0.1 0.4 0 0.9 0.2 1.2 0.1 0.1 0.1 0.1 0.1 0.2l5.9 7.4c0.3 0.4 0.8 0.6 1.3 0.6h9.5c0.5 0 1-0.2 1.3-0.6l6-7.4c0.3-0.4 0.4-0.9 0.3-1.4zM25 18.5c-0.1 0.3-0.4 0.4-0.7 0.4 0 0 0 0 0 0s0 0 0 0-0.1 0-0.1 0c-0.2 0-0.3-0.1-0.5-0.2-0.3-0.1-0.6-0.2-0.9-0.3-0.1 0-0.2 0.1-0.3 0.1 0 0-0.2 0-0.2 0-0.5 1.5-1.5 2.9-3 3.7 0 0.1 0.1 0.2 0.1 0.2 0 0.1-0.1 0.2 0 0.3 0.1 0.3 0.3 0.5 0.5 0.8 0.1 0.1 0.2 0.2 0.3 0.4 0 0 0 0.1 0.1 0.1 0.1 0.3 0 0.6-0.2 0.7-0.3 0.1-0.6 0-0.7-0.3 0 0 0-0.1-0.1-0.1-0.1-0.2-0.1-0.3-0.1-0.5-0.1-0.3-0.2-0.6-0.4-0.9-0.1-0.1-0.2-0.1-0.3-0.2 0 0-0.1-0.1-0.1-0.2-0.3 0.1-0.6 0.2-0.9 0.3-1.3 0.3-2.7 0.2-3.9-0.3l-0.1 0.2c-0.1 0-0.2 0-0.2 0.1-0.2 0.2-0.3 0.6-0.4 0.9-0.1 0.2-0.1 0.3-0.1 0.5 0 0 0 0.1-0.1 0.1 0 0 0 0 0 0s0 0 0 0c-0.1 0.3-0.5 0.4-0.7 0.3-0.3-0.1-0.4-0.4-0.2-0.7 0 0 0-0.1 0.1-0.1 0.1-0.2 0.2-0.3 0.3-0.4 0.2-0.3 0.4-0.6 0.5-0.8 0-0.1 0-0.2 0-0.3l0.1-0.2c-1.4-0.8-2.4-2.1-3-3.7h-0.2c-0.1 0-0.2-0.1-0.3-0.1-0.3 0-0.6 0.1-0.9 0.3-0.2 0.1-0.3 0.1-0.5 0.2 0 0-0.1 0-0.1 0s0 0 0 0 0 0 0 0c-0.5 0.1-0.8 0-0.8-0.3-0.1-0.3 0.1-0.6 0.4-0.6 0 0 0 0 0 0s0 0 0 0 0.1 0 0.1 0c0.2 0 0.3 0 0.5 0 0.4 0 0.7-0.1 0.9-0.2 0.1 0 0.2-0.1 0.2-0.2l0.2-0.1c-0.2-1.7 0.2-3.3 1-4.6l-0.2-0.1c0-0.1 0-0.2-0.1-0.3-0.2-0.2-0.5-0.3-0.8-0.5-0.1-0.1-0.3-0.1-0.4-0.2 0 0-0.1-0.1-0.1-0.1s0 0 0 0c-0.2-0.2-0.3-0.5-0.1-0.8 0.1-0.1 0.3-0.2 0.4-0.2s0.2 0 0.4 0.1c0 0 0.1 0.1 0.1 0.1 0.1 0.1 0.2 0.2 0.3 0.4 0.3 0.3 0.5 0.5 0.7 0.6 0.1 0.1 0.2 0 0.3 0 0 0 0.1 0.1 0.2 0.1 0.9-0.9 2-1.6 3.4-1.9 0.3-0.1 0.6-0.1 0.9-0.1v-0.2c0.1-0.1 0.1-0.2 0.2-0.3 0-0.3 0-0.6-0.1-0.9 0-0.2-0.1-0.3-0.1-0.5 0 0 0-0.1 0-0.1s0 0 0 0c0-0.3 0.2-0.6 0.5-0.6v0c0.3 0 0.5 0.3 0.5 0.6 0 0 0 0.1 0 0.1 0 0.2 0 0.3-0.1 0.5 0 0.4-0.1 0.7-0.1 0.9 0 0.1 0.1 0.2 0.2 0.3 0 0 0 0.2 0 0.2 1.6 0.1 3.1 0.9 4.3 2.1l0.2-0.1c0.1 0 0.2 0 0.3 0 0.2-0.2 0.4-0.4 0.7-0.6 0.1-0.1 0.2-0.2 0.3-0.4 0 0 0.1-0.1 0.1-0.1 0.2-0.2 0.6-0.2 0.8 0s0.1 0.6-0.1 0.8c0 0-0.1 0.1-0.1 0.1-0.1 0.1-0.3 0.2-0.4 0.2-0.3 0.2-0.6 0.3-0.8 0.5-0.1 0.1-0.1 0.2-0.1 0.3 0 0-0.1 0.1-0.2 0.2 0.4 0.7 0.8 1.4 1 2.2s0.2 1.6 0.1 2.4l0.2 0.1c0 0.1 0.1 0.2 0.2 0.2 0.3 0.1 0.6 0.1 0.9 0.2 0.2 0 0.3 0 0.5 0 0 0 0.1 0 0.1 0 0.6-0.1 0.8 0.2 0.7 0.5z"></path>
<path d="M20.5 13.6l-2 1.8c-0.1 0.1-0.1 0.1-0.1 0.2-0.1 0.2 0.1 0.5 0.3 0.5v0l2.6 0.7c0.1-0.6 0-1.1-0.1-1.7-0.2-0.4-0.4-1-0.7-1.5z"></path>
<path d="M18.3 17.8c0 0-0.1 0-0.1 0v0c-0.1 0-0.1 0-0.2 0-0.2 0.1-0.3 0.4-0.2 0.6v0l1 2.5c1-0.6 1.7-1.6 2.1-2.7l-2.6-0.4z"></path>
<path d="M19.7 12.6l-2.2 1.6c-0.2 0.1-0.5 0.1-0.6-0.1-0.1-0.1-0.1-0.2-0.1-0.3v0l-0.2-2.7c1.2 0.2 2.3 0.7 3.1 1.5zM15.6 15.6h0.8l0.5 0.6-0.2 0.8-0.7 0.4-0.7-0.4-0.2-0.8 0.5-0.6zM14.8 11.2c0.2 0 0.4-0.1 0.5-0.1l-0.2 2.7c0 0.2-0.2 0.4-0.5 0.4-0.1 0-0.2 0-0.3-0.1v0l-2.2-1.6c0.8-0.5 1.7-1 2.7-1.3zM11.5 13.6l2 1.8c0.2 0.2 0.2 0.4 0.1 0.6-0.1 0.1-0.1 0.1-0.2 0.2v0l-2.7 0.8c-0.1-1.2 0.2-2.4 0.8-3.4zM14.2 18.4l-1 2.5c-1-0.6-1.7-1.5-2.1-2.7l2.6-0.4c0 0 0.1 0 0.1 0v0c0.2 0 0.4 0.1 0.4 0.4 0 0 0 0.1 0 0.2v0zM17.2 21.6c-1 0.2-2 0.2-2.9-0.1l1.3-2.4c0.1-0.1 0.2-0.2 0.4-0.2 0.1 0 0.1 0 0.2 0s0.2 0.1 0.2 0.2v0l1.3 2.4c-0.2 0-0.3 0.1-0.5 0.1zM18.9 20.9l-1-2.5c-0.1-0.2 0-0.5 0.2-0.6 0.1 0 0.1 0 0.2 0v0c0 0 0.1 0 0.1 0v0l2.7 0.5c-0.5 1-1.2 2-2.2 2.6zM21.3 17l-2.6-0.7c-0.2-0.1-0.4-0.3-0.3-0.5 0-0.1 0.1-0.2 0.1-0.2v0l2-1.8c0.3 0.5 0.5 1 0.7 1.6 0.1 0.4 0.1 1 0.1 1.6z"></path>
<path d="M20.5 13.6v0 0z"></path>
</svg>
