<!-- Generated by IcoMoon.io -->
<svg version="1.1" xmlns="http://www.w3.org/2000/svg" width="32" height="32" viewBox="0 0 32 32">
<title>marionette</title>
<path d="M10.6 8.4v-1.1l3-1.3 1.5 0.6-4.4 1.9h-0.1z"></path>
<path d="M21.5 8.4v-1.1l-3-1.3-1.5 0.5 4.4 1.9h0.1z"></path>
<path d="M9.4 3.6l6.6 2.6v0.7l-4.6 1.8-0.8-0.3 4.5-1.9-6.5-2.5 0.8-0.4zM22.6 3.6l-6.6 2.6v0.7l4.6 1.8 0.8-0.3-4.4-1.9 6.5-2.5-0.9-0.4z"></path>
<path d="M8.5 4.1l0.1-1.5 0.8-0.5-0.1 1.5-0.8 0.5z"></path>
<path d="M9.5 2.1l6.5 2.8v1.3l-6.6-2.6 0.1-1.5z"></path>
<path d="M23.5 4.1l-0.1-1.5-0.8-0.5 0.1 1.5 0.8 0.5z"></path>
<path d="M22.5 2.1l-6.5 2.8v1.3l6.6-2.6-0.1-1.5z"></path>
<path d="M9.4 4.1l-0.8 8.1z"></path>
<path d="M8.6 12.3c0 0 0 0 0 0-0.1 0-0.2-0.1-0.1-0.2l0.8-8.1c0-0.1 0.1-0.1 0.2-0.1s0.1 0.1 0.1 0.2l-0.8 8.1c-0.1 0.1-0.2 0.1-0.2 0.1z"></path>
<path d="M22.6 4.1l0.8 8.1z"></path>
<path d="M23.4 12.3c-0.1 0-0.1-0.1-0.1-0.1l-0.8-8.1c0-0.1 0.1-0.2 0.1-0.2 0.1 0 0.2 0.1 0.2 0.1l0.8 8.1c0 0.1-0.1 0.2-0.2 0.2 0 0 0 0 0 0z"></path>
<path d="M11.5 8.4v0z"></path>
<path d="M13.8 14c-0.1 0-0.1 0-0.1-0.1l-2.3-5.5c0 0 0 0 0-0.1s0-0.1 0.1-0.1 0.2 0 0.2 0.1l2.3 5.5c0 0 0 0 0 0.1-0.1 0-0.1 0.1-0.2 0.1 0 0 0 0 0 0z"></path>
<path d="M20.4 8.4v0z"></path>
<path d="M18.1 14c0 0 0 0 0 0-0.1 0-0.1-0.1-0.1-0.1s0 0 0-0.1l2.3-5.5c0-0.1 0.1-0.1 0.2-0.1s0.1 0.1 0.1 0.1c0 0 0 0 0 0.1l-2.3 5.5c0 0.1-0.1 0.1-0.2 0.1z"></path>
<path d="M11.9 11.2l4.1 4.9v7.3c0 0-3-1.9-4.8-4.5-0.6-0.9-0.7-7.4 0.7-7.7z"></path>
<path d="M20.1 11.2l-4.2 4.9v7.3c0 0 3-1.9 4.8-4.5 0.7-0.9 0.8-7.4-0.6-7.7z"></path>
<path d="M5.7 12.3c0 0-1.5 9.3 0.1 16.2 0 0.1 6.2 0.7 6.2 0.7s-1.6-10.3-0.1-17.9l-6.2 1z"></path>
<path d="M26.3 12.3c0 0 1.5 9.3-0.1 16.2 0 0.1-6.2 0.7-6.2 0.7s1.6-10.3 0.1-17.9l6.2 1z"></path>
</svg>
