<?xml version="1.0" encoding="utf-8"?>
<!-- Generator: Adobe Illustrator 21.1.0, SVG Export Plug-In . SVG Version: 6.00 Build 0)  -->
<!DOCTYPE svg PUBLIC "-//W3C//DTD SVG 1.1//EN" "http://www.w3.org/Graphics/SVG/1.1/DTD/svg11.dtd">
<svg version="1.1" id="Layer_1" xmlns="http://www.w3.org/2000/svg" xmlns:xlink="http://www.w3.org/1999/xlink" x="0px" y="0px"
	 viewBox="0 0 32 32" style="enable-background:new 0 0 32 32;" xml:space="preserve">
<style type="text/css">
	.st0{display:none;stroke:#800000018000000180000001;stroke-width:4;stroke-linecap:round;}
	.st1{display:none;}
	.st2{display:inline;stroke:#800000018000000180000001;stroke-miterlimit:10;}
	.st3{display:inline;stroke:#800000018000000180000001;stroke-width:4;stroke-linecap:round;}
</style>
<title>atlassian</title>
<g id="Page-1">
	<g id="Vector">
		<g id="Crossbars" transform="translate(46.000000, 0.000000)">
			<path id="Bottom-Right" d="M-35.4,8.4V7.3l3-1.3l1.5,0.6l-4.4,1.9H-35.4z"/>
			<path id="Bottom-Left" d="M-24.5,8.4V7.3l-3-1.3L-29,6.5l4.4,1.9H-24.5z"/>
			<path d="M-36.6,3.6l6.6,2.6v0.7l-4.6,1.8l-0.8-0.3l4.5-1.9l-6.5-2.5L-36.6,3.6z M-23.4,3.6L-30,6.2v0.7l4.6,1.8l0.8-0.3L-29,6.5
				l6.5-2.5L-23.4,3.6z"/>
			<g id="Top-Left">
				<path id="Path-11" d="M-37.5,4.1l0.1-1.5l0.8-0.5l-0.1,1.5L-37.5,4.1z"/>
				<path id="Path-13" d="M-36.5,2.1l6.5,2.8v1.3l-6.6-2.6L-36.5,2.1z"/>
			</g>
			
				<g id="Top-Right" transform="translate(151.500000, 28.000000) scale(-1, 1) translate(-151.500000, -28.000000) translate(101.000000, 0.000000)">
				<path id="Path-11_1_" d="M224.5,4.1l0.1-1.5l0.8-0.5l-0.1,1.5L224.5,4.1z"/>
				<path id="Path-13_1_" d="M225.5,2.1l6.5,2.8v1.3l-6.6-2.6L225.5,2.1z"/>
			</g>
		</g>
		<g id="Strings" transform="translate(47.000000, 27.000000)">
			<g id="Path-18">
				<path d="M-37.6-22.9l-0.8,8.1"/>
				<path d="M-38.4-14.7C-38.4-14.7-38.4-14.7-38.4-14.7c-0.1,0-0.2-0.1-0.1-0.2l0.8-8.1c0-0.1,0.1-0.1,0.2-0.1
					c0.1,0,0.1,0.1,0.1,0.2l-0.8,8.1C-38.3-14.7-38.4-14.7-38.4-14.7z"/>
			</g>
			<g id="Path-18_1_">
				<path d="M-24.4-22.9l0.8,8.1"/>
				<path d="M-23.6-14.7c-0.1,0-0.1-0.1-0.1-0.1l-0.8-8.1c0-0.1,0.1-0.2,0.1-0.2c0.1,0,0.2,0.1,0.2,0.1l0.8,8.1
					C-23.4-14.8-23.5-14.7-23.6-14.7C-23.6-14.7-23.6-14.7-23.6-14.7z"/>
			</g>
			<g id="Path-20">
				<path d="M-35.5-18.6l2.3,5.5L-35.5-18.6z"/>
				<path d="M-33.2-13c-0.1,0-0.1,0-0.1-0.1l-2.3-5.5c0,0,0,0,0-0.1c0-0.1,0-0.1,0.1-0.1c0.1,0,0.2,0,0.2,0.1l2.3,5.5c0,0,0,0,0,0.1
					C-33.1-13.1-33.1-13-33.2-13C-33.2-13-33.2-13-33.2-13z"/>
			</g>
			<g id="Path-21">
				<path d="M-26.6-18.6l-2.3,5.5L-26.6-18.6z"/>
				<path d="M-28.9-13C-28.9-13-28.9-13-28.9-13c-0.1,0-0.1-0.1-0.1-0.1c0,0,0,0,0-0.1l2.3-5.5c0-0.1,0.1-0.1,0.2-0.1
					c0.1,0,0.1,0.1,0.1,0.1c0,0,0,0,0,0.1l-2.3,5.5C-28.7-13-28.8-13-28.9-13z"/>
			</g>
		</g>
		<g id="M" transform="translate(0.000000, 123.000000)">
			<path id="Path-3" d="M11.9-111.8l4.1,4.9v7.3c0,0-3-1.9-4.8-4.5C10.6-105,10.5-111.5,11.9-111.8z"/>
			<path id="Path-3_1_" d="M20.1-111.8l-4.2,4.9v7.3c0,0,3-1.9,4.8-4.5C21.4-105,21.5-111.5,20.1-111.8z"/>
			<path id="Path-7" class="st0" d="M16-103.2l-4.8-4.4"/>
			<path id="Path-7_1_" class="st0" d="M16-103.2l4.8-4.4"/>
			<path id="left-m-front" d="M5.7-110.7c0,0-1.5,9.3,0.1,16.2c0,0.1,6.2,0.7,6.2,0.7s-1.6-10.3-0.1-17.9L5.7-110.7z"/>
			<path id="right-m-front" d="M26.3-110.7c0,0,1.5,9.3-0.1,16.2c0,0.1-6.2,0.7-6.2,0.7s1.6-10.3,0.1-17.9L26.3-110.7z"/>
			<g id="String-Left" transform="translate(39.000000, 33.000000)" class="st1">
				<circle id="Oval-1" class="st2" cx="-30.6" cy="-142" r="0.3"/>
				<circle id="Oval-1_1_" class="st2" cx="-30.6" cy="-129.7" r="0.3"/>
				<path id="Path-5" class="st3" d="M-30.6-142c0,0.1-0.9,6.1,0,12.3"/>
			</g>
			
				<g id="String-Right" transform="translate(249.500000, 120.000000) scale(-1, 1) translate(-249.500000, -120.000000) translate(244.500000, 33.000000)" class="st1">
				<circle id="Oval-1_2_" class="st2" cx="231" cy="-142" r="0.3"/>
				<circle id="Oval-1_3_" class="st2" cx="231" cy="-129.7" r="0.3"/>
				<path id="Path-5_1_" class="st3" d="M231-142c0,0.1-0.9,6.1,0,12.3"/>
			</g>
		</g>
	</g>
</g>
</svg>
