<!-- Generated by IcoMoon.io -->
<svg version="1.1" xmlns="http://www.w3.org/2000/svg" width="32" height="32" viewBox="0 0 32 32">
<title>mercurial</title>
<path d="M16 4.1c-8.9 1.1-9 10.4-1.2 12.7 6.8 1.9 1.4 6.2 1.6 9.1s5.9 3.9 10.4-3.6c4.4-7.4-0.9-19.4-10.8-18.2zM17.5 17.1c-0.3-0.2-1.1-0.7-2.6-1.2-1.3-0.4-1.9-0.8-2.3-1.1 0.4 0.2 0.8 0.3 1.1 0.4 0.6 0.2 1.3 0.4 1.7 0.4 0.7 0.1 1.4 0.5 1.8 0.6 0.6 0.2 0.9 0.6 0.9 1-0.1 0.6-0.3 0.1-0.6-0.1zM24.7 24.3c-0.8 1-1.9 1.8-2.9 2.3-0.8 0.4-1.4 0.5-2.1 0.6-0.5 0.1-0.9 0-0.9-0.3 0-0.5 0.6-0.2 1.4-0.4 2.8-0.7 4-2.1 5.7-4.7 1.3-2.1 1.9-4.3 1.9-4.8 0.1 0.6-0.7 4.2-3.1 7.3z"></path>
<path d="M10.6 19.3c-2.1 0-3.9 1.7-3.9 3.9 0 2.1 1.7 3.9 3.9 3.9s3.9-1.7 3.9-3.9c-0.1-2.1-1.8-3.9-3.9-3.9zM14 23.6c-0.2 1.6-1.7 2.7-3 2.8-0.3 0-0.6-0.1-0.3-0.2 0.4-0.1 2.6-0.7 3.1-2.5 0.3-0.5 0.3-0.4 0.2-0.1z"></path>
<path d="M8.7 15c0-1.4-1.1-2.5-2.5-2.5s-2.5 1.1-2.5 2.5c0 1.4 1.1 2.5 2.5 2.5 1.3 0.1 2.5-1.1 2.5-2.5zM6.7 17c-0.2 0-0.5 0-0.3-0.1 0.1-0.1 0.6-0.1 1.1-0.3s1-0.8 1.1-1.5c0.1-0.4 0.1-0.3 0.1-0.1-0.2 1.2-1.3 1.9-2 2z"></path>
</svg>
