<?xml version="1.0" encoding="utf-8"?>
<!-- Generator: Adobe Illustrator 21.1.0, SVG Export Plug-In . SVG Version: 6.00 Build 0)  -->
<!DOCTYPE svg PUBLIC "-//W3C//DTD SVG 1.1//EN" "http://www.w3.org/Graphics/SVG/1.1/DTD/svg11.dtd">
<svg version="1.1" id="Layer_1" xmlns="http://www.w3.org/2000/svg" xmlns:xlink="http://www.w3.org/1999/xlink" x="0px" y="0px"
	 viewBox="0 0 32 32" style="enable-background:new 0 0 32 32;" xml:space="preserve">
<title>angular</title>
<g>
	<path d="M16,4.1c-8.9,1.1-9,10.4-1.2,12.7c6.8,1.9,1.4,6.2,1.6,9.1c0.2,2.9,5.9,3.9,10.4-3.6C31.2,14.9,25.9,2.9,16,4.1z
		 M17.5,17.1c-0.3-0.2-1.1-0.7-2.6-1.2c-1.3-0.4-1.9-0.8-2.3-1.1c0.4,0.2,0.8,0.3,1.1,0.4c0.6,0.2,1.3,0.4,1.7,0.4
		c0.7,0.1,1.4,0.5,1.8,0.6c0.6,0.2,0.9,0.6,0.9,1C18,17.8,17.8,17.3,17.5,17.1z M24.7,24.3c-0.8,1-1.9,1.8-2.9,2.3
		c-0.8,0.4-1.4,0.5-2.1,0.6c-0.5,0.1-0.9,0-0.9-0.3c0-0.5,0.6-0.2,1.4-0.4c2.8-0.7,4-2.1,5.7-4.7c1.3-2.1,1.9-4.3,1.9-4.8
		C27.9,17.6,27.1,21.2,24.7,24.3z"/>
	<path d="M10.6,19.3c-2.1,0-3.9,1.7-3.9,3.9c0,2.1,1.7,3.9,3.9,3.9s3.9-1.7,3.9-3.9C14.4,21.1,12.7,19.3,10.6,19.3z M14,23.6
		c-0.2,1.6-1.7,2.7-3,2.8c-0.3,0-0.6-0.1-0.3-0.2c0.4-0.1,2.6-0.7,3.1-2.5C14.1,23.2,14.1,23.3,14,23.6z"/>
	<path d="M8.7,15c0-1.4-1.1-2.5-2.5-2.5c-1.4,0-2.5,1.1-2.5,2.5c0,1.4,1.1,2.5,2.5,2.5C7.5,17.6,8.7,16.4,8.7,15z M6.7,17
		c-0.2,0-0.5,0-0.3-0.1c0.1-0.1,0.6-0.1,1.1-0.3c0.5-0.2,1-0.8,1.1-1.5c0.1-0.4,0.1-0.3,0.1-0.1C8.5,16.2,7.4,16.9,6.7,17z"/>
</g>
</svg>
