<!-- Generated by IcoMoon.io -->
<svg version="1.1" xmlns="http://www.w3.org/2000/svg" width="32" height="32" viewBox="0 0 32 32">
<title>mozilla</title>
<path d="M26.3 17.3c0 0.2 0.1 0.4 0.4 0.4 0.4 0 0.7-0.3 0.8-0.8-0.2 0-0.3 0-0.5 0-0.4-0.1-0.7 0-0.7 0.4z"></path>
<path d="M12.4 15.5c-0.5 0-0.8 0.4-0.8 1.1 0 0.6 0.3 1.1 0.8 1.1s0.9-0.4 0.9-1.1c0-0.7-0.4-1.1-0.9-1.1z"></path>
<path d="M1.9 12v8h28.2v-8h-28.2zM10.1 18.4h-1.5v-2c0-0.6-0.2-0.8-0.6-0.8-0.5 0-0.7 0.3-0.7 0.8v1.2h0.5v0.8h-1.5v-2c0-0.6-0.2-0.8-0.6-0.8-0.5 0-0.7 0.3-0.7 0.8v1.2h0.7v0.8h-2.1v-0.8h0.4v-2h-0.4v-0.8h1.4v0.5c0.2-0.4 0.6-0.6 1.1-0.6s1 0.2 1.2 0.8c0.2-0.5 0.6-0.8 1.2-0.8s1.2 0.4 1.2 1.2v1.6h0.5v0.9zM12.4 18.5c-1.1 0-1.8-0.7-1.8-1.8 0-1 0.6-1.9 1.9-1.9s1.9 0.9 1.9 1.8c-0.1 1.2-0.9 1.9-2 1.9zM18.1 18.4h-3.1l-0.1-0.5 1.9-2.2h-1.1l-0.2 0.5-0.7-0.1 0.1-1.2h3.1l0.1 0.5-2 2.2h1.1l0.2-0.5 0.8 0.1-0.1 1.2zM20.1 18.4h-1.1v-1.3h1.1v1.3zM20.1 16.1h-1.1v-1.3h1.1v1.3zM20.7 18.4l1.5-5.4h1l-1.5 5.4h-1zM22.8 18.4l1.5-5.4h1l-1.5 5.4h-1zM28.2 18.5c-0.5 0-0.7-0.3-0.8-0.7-0.2 0.4-0.6 0.7-1.1 0.7s-1.1-0.3-1.1-1c0-0.9 0.8-1.1 1.6-1.1 0.2 0 0.4 0 0.6 0v-0.1c0-0.4 0-0.8-0.6-0.8-0.2 0-0.4 0-0.5 0.1l-0.1 0.4-0.8-0.1 0.1-0.8c0.6-0.3 0.9-0.3 1.5-0.3 0.8 0 1.4 0.4 1.4 1.2v1.5c0 0.2 0.1 0.3 0.2 0.3 0 0 0.1 0 0.1 0v0.5c0 0.1-0.2 0.2-0.5 0.2z"></path>
</svg>
