<?xml version="1.0" encoding="utf-8"?>
<!-- Generator: Adobe Illustrator 21.1.0, SVG Export Plug-In . SVG Version: 6.00 Build 0)  -->
<!DOCTYPE svg PUBLIC "-//W3C//DTD SVG 1.1//EN" "http://www.w3.org/Graphics/SVG/1.1/DTD/svg11.dtd">
<svg version="1.1" id="Layer_1" xmlns="http://www.w3.org/2000/svg" xmlns:xlink="http://www.w3.org/1999/xlink" x="0px" y="0px"
	 viewBox="0 0 32 32" style="enable-background:new 0 0 32 32;" xml:space="preserve">
<title>mozilla</title>
<g>
	<path d="M26.3,17.3c0,0.2,0.1,0.4,0.4,0.4c0.4,0,0.7-0.3,0.8-0.8c-0.2,0-0.3,0-0.5,0C26.6,16.8,26.3,16.9,26.3,17.3z"/>
	<path d="M12.4,15.5c-0.5,0-0.8,0.4-0.8,1.1c0,0.6,0.3,1.1,0.8,1.1c0.5,0,0.9-0.4,0.9-1.1C13.3,15.9,12.9,15.5,12.4,15.5z"/>
	<path d="M1.9,12V20h28.2V12H1.9z M10.1,18.4H8.6v-2c0-0.6-0.2-0.8-0.6-0.8c-0.5,0-0.7,0.3-0.7,0.8v1.2h0.5v0.8H6.3v-2
		c0-0.6-0.2-0.8-0.6-0.8c-0.5,0-0.7,0.3-0.7,0.8v1.2h0.7v0.8H3.6v-0.8H4v-2H3.6v-0.8H5v0.5c0.2-0.4,0.6-0.6,1.1-0.6
		c0.5,0,1,0.2,1.2,0.8c0.2-0.5,0.6-0.8,1.2-0.8c0.6,0,1.2,0.4,1.2,1.2v1.6h0.5V18.4z M12.4,18.5c-1.1,0-1.8-0.7-1.8-1.8
		c0-1,0.6-1.9,1.9-1.9c1.3,0,1.9,0.9,1.9,1.8C14.3,17.8,13.5,18.5,12.4,18.5z M18.1,18.4H15l-0.1-0.5l1.9-2.2h-1.1l-0.2,0.5
		l-0.7-0.1l0.1-1.2h3.1l0.1,0.5l-2,2.2h1.1l0.2-0.5l0.8,0.1L18.1,18.4z M20.1,18.4H19v-1.3h1.1V18.4z M20.1,16.1H19v-1.3h1.1V16.1z
		 M20.7,18.4l1.5-5.4h1l-1.5,5.4H20.7z M22.8,18.4l1.5-5.4h1l-1.5,5.4H22.8z M28.2,18.5c-0.5,0-0.7-0.3-0.8-0.7
		c-0.2,0.4-0.6,0.7-1.1,0.7c-0.5,0-1.1-0.3-1.1-1c0-0.9,0.8-1.1,1.6-1.1c0.2,0,0.4,0,0.6,0v-0.1c0-0.4,0-0.8-0.6-0.8
		c-0.2,0-0.4,0-0.5,0.1L26.2,16l-0.8-0.1l0.1-0.8c0.6-0.3,0.9-0.3,1.5-0.3c0.8,0,1.4,0.4,1.4,1.2v1.5c0,0.2,0.1,0.3,0.2,0.3
		c0,0,0.1,0,0.1,0l0,0.5C28.7,18.4,28.5,18.5,28.2,18.5z"/>
</g>
</svg>
