<!-- Generated by IcoMoon.io -->
<svg version="1.1" xmlns="http://www.w3.org/2000/svg" width="32" height="32" viewBox="0 0 32 32">
<title>mozilla_alt</title>
<path d="M14.1 16.2c0-1-0.6-1.8-1.9-1.8s-1.9 0.9-1.9 1.9c0 1.1 0.8 1.8 1.8 1.8 1.2-0.1 2-0.8 2-1.9zM11.4 16.1c0-0.7 0.3-1.1 0.8-1.1s0.9 0.3 0.9 1c0 0.7-0.3 1.1-0.9 1.1-0.6 0.1-0.8-0.4-0.8-1z"></path>
<path d="M17.9 14.4h-3.2l-0.1 1.2 0.8 0.1 0.1-0.5h1.1l-1.9 2.2 0.1 0.5h3.1l0.2-1.2-0.8-0.1-0.2 0.6h-1.1l1.9-2.3z"></path>
<path d="M3.3 17.2v0.8h2.2v-0.8h-0.7v-1.2c0-0.5 0.2-0.8 0.7-0.8 0.4 0 0.6 0.2 0.6 0.8v2h1.5v-0.8h-0.5v-1.2c0-0.5 0.2-0.8 0.7-0.8 0.4 0 0.6 0.2 0.6 0.8v2h1.5v-0.8h-0.5v-1.6c0-0.8-0.6-1.2-1.2-1.2s-1 0.3-1.2 0.8c-0.2-0.5-0.6-0.8-1.2-0.8-0.5 0-0.9 0.2-1.1 0.6v-0.5h-1.4v0.8h0.5v2h-0.5z"></path>
<path d="M25.1 12.5h-1l-1.5 5.4h1z"></path>
<path d="M28.5 17.3c-0.2 0-0.2-0.1-0.2-0.3v-1.5c0-0.8-0.6-1.2-1.4-1.2-0.6 0-0.9 0.1-1.5 0.3l-0.1 0.8 0.8 0.1 0.1-0.4c0.2-0.1 0.3-0.1 0.5-0.1 0.6 0 0.6 0.4 0.6 0.8v0.1c-0.2 0-0.4 0-0.6 0-0.8 0-1.7 0.2-1.7 1.1 0 0.7 0.6 1 1.1 1 0.6 0 0.9-0.3 1.1-0.7 0 0.4 0.3 0.7 0.8 0.7 0.2 0 0.4-0.1 0.6-0.2v-0.5c0 0 0 0-0.1 0zM26.5 17.3c-0.3 0-0.4-0.2-0.4-0.4 0-0.4 0.3-0.5 0.7-0.5 0.2 0 0.3 0 0.5 0-0.1 0.6-0.5 0.9-0.8 0.9z"></path>
<path d="M18.8 16.7h1.1v1.3h-1.1v-1.3z"></path>
<path d="M20.5 17.9h1l1.6-5.4h-1z"></path>
<path d="M18.8 14.4h1.1v1.3h-1.1v-1.3z"></path>
</svg>
