<?xml version="1.0" encoding="utf-8"?>
<!-- Generator: Adobe Illustrator 21.1.0, SVG Export Plug-In . SVG Version: 6.00 Build 0)  -->
<!DOCTYPE svg PUBLIC "-//W3C//DTD SVG 1.1//EN" "http://www.w3.org/Graphics/SVG/1.1/DTD/svg11.dtd">
<svg version="1.1" id="Layer_1" xmlns="http://www.w3.org/2000/svg" xmlns:xlink="http://www.w3.org/1999/xlink" x="0px" y="0px"
	 viewBox="0 0 32 32" style="enable-background:new 0 0 32 32;" xml:space="preserve">
<title>mozilla</title>
<g>
	<path d="M14.1,16.2c0-1-0.6-1.8-1.9-1.8c-1.3,0-1.9,0.9-1.9,1.9c0,1.1,0.8,1.8,1.8,1.8C13.3,18,14.1,17.3,14.1,16.2z M11.4,16.1
		c0-0.7,0.3-1.1,0.8-1.1c0.5,0,0.9,0.3,0.9,1c0,0.7-0.3,1.1-0.9,1.1C11.6,17.2,11.4,16.7,11.4,16.1z"/>
	<polygon points="17.9,14.4 14.7,14.4 14.6,15.6 15.4,15.7 15.5,15.2 16.6,15.2 14.7,17.4 14.8,17.9 17.9,17.9 18.1,16.7 17.3,16.6 
		17.1,17.2 16,17.2 17.9,14.9 	"/>
	<path d="M3.3,17.2v0.8h2.2v-0.8H4.8v-1.2c0-0.5,0.2-0.8,0.7-0.8c0.4,0,0.6,0.2,0.6,0.8v2h1.5v-0.8H7.1v-1.2c0-0.5,0.2-0.8,0.7-0.8
		c0.4,0,0.6,0.2,0.6,0.8v2h1.5v-0.8H9.4v-1.6c0-0.8-0.6-1.2-1.2-1.2c-0.6,0-1,0.3-1.2,0.8c-0.2-0.5-0.6-0.8-1.2-0.8
		c-0.5,0-0.9,0.2-1.1,0.6v-0.5H3.3v0.8h0.5v2H3.3z"/>
	<polygon points="25.1,12.5 24.1,12.5 22.6,17.9 23.6,17.9 	"/>
	<path d="M28.5,17.3c-0.2,0-0.2-0.1-0.2-0.3v-1.5c0-0.8-0.6-1.2-1.4-1.2c-0.6,0-0.9,0.1-1.5,0.3l-0.1,0.8l0.8,0.1l0.1-0.4
		c0.2-0.1,0.3-0.1,0.5-0.1c0.6,0,0.6,0.4,0.6,0.8v0.1c-0.2,0-0.4,0-0.6,0c-0.8,0-1.7,0.2-1.7,1.1c0,0.7,0.6,1,1.1,1
		c0.6,0,0.9-0.3,1.1-0.7c0,0.4,0.3,0.7,0.8,0.7c0.2,0,0.4-0.1,0.6-0.2l0-0.5C28.6,17.3,28.6,17.3,28.5,17.3z M26.5,17.3
		c-0.3,0-0.4-0.2-0.4-0.4c0-0.4,0.3-0.5,0.7-0.5c0.2,0,0.3,0,0.5,0C27.2,17,26.8,17.3,26.5,17.3z"/>
	<rect x="18.8" y="16.7" width="1.1" height="1.3"/>
	<polygon points="20.5,17.9 21.5,17.9 23.1,12.5 22.1,12.5 	"/>
	<rect x="18.8" y="14.4" width="1.1" height="1.3"/>
</g>
</svg>
