<!-- Generated by IcoMoon.io -->
<svg version="1.1" xmlns="http://www.w3.org/2000/svg" width="32" height="32" viewBox="0 0 32 32">
<title>odata</title>
<path d="M27.9 4.8c0-0.7 0.1-0.6-0.7-0.6-7.5 0-15 0-22.5 0-0.2 0-0.4 0-0.6 0 0 3.7 0 7.3 0 11 0 4.3 0 8.5 0 12.8 7.9 0 15.8 0 23.8 0 0-0.2 0-0.4 0-0.6 0-7.6 0-15.1 0-22.6zM17 6.6c0-0.3 0.1-0.4 0.4-0.4 2.6 0 5.3 0 7.9 0 0.3 0 0.4 0.1 0.4 0.4 0 0.5 0 1 0 1.4 0 0.3-0.1 0.4-0.4 0.4-1.3 0-2.6 0-3.9 0s-2.6 0-3.9 0c-0.3 0-0.5-0.1-0.4-0.4 0-0.4 0-0.9-0.1-1.4zM17 10.9c0-0.2 0.1-0.3 0.3-0.3 2.7 0 5.4 0 8 0 0.3 0 0.3 0.1 0.3 0.3 0 0.5 0 1 0 1.5 0 0.3-0.1 0.4-0.4 0.4-1.3 0-2.6 0-3.9 0s-2.6 0-3.9 0c-0.3 0-0.4-0.1-0.4-0.4 0.1-0.5 0.1-1 0-1.5zM6.6 6.3c1.3 0 2.7 0 4 0s2.6 0 3.9 0c0.3 0 0.5 0.1 0.4 0.4 0 0.5 0 1 0 1.4 0 0.3-0.1 0.4-0.3 0.4-2.7 0-5.3 0-8 0-0.3 0-0.4-0.1-0.4-0.4 0-0.5 0-0.9 0-1.4 0-0.3 0.1-0.4 0.4-0.4zM10.6 26.3c-2.1 0-3.8-1.7-3.8-3.8s1.7-3.8 3.8-3.8c2.1 0 3.8 1.7 3.8 3.8s-1.7 3.8-3.8 3.8zM14.5 17.1c-1.3 0-2.6 0-3.9 0s-2.6 0-3.9 0c-0.3 0-0.5-0.1-0.5-0.4 0-0.5 0-1 0-1.4 0-0.2 0.1-0.3 0.3-0.3 2.7 0 5.4 0 8 0 0.3 0 0.3 0.1 0.3 0.4 0 0.5 0 0.9 0 1.4 0.1 0.2 0 0.3-0.3 0.3zM14.4 12.8c-2.4 0-4.8 0-7.2 0-1 0-1 0-1-1 0-1.2 0-1.2 1.2-1.2 1.1 0 2.2 0 3.2 0 1.3 0 2.6 0 3.9 0 0.3 0 0.5 0.1 0.4 0.4 0 0.4 0 0.9 0 1.3s-0.1 0.5-0.5 0.5zM25.7 21.1c0 0.2 0 0.3-0.3 0.3-2.7 0-5.4 0-8.1 0-0.2 0-0.3-0.1-0.3-0.3 0-0.5 0-1 0-1.5 0-0.3 0.1-0.4 0.4-0.4 1.3 0 2.7 0 4 0s2.6 0 3.9 0c0.3 0 0.4 0.1 0.4 0.4 0 0.5 0 1 0 1.5zM25.7 16.8c0 0.2-0.1 0.3-0.3 0.3-2.7 0-5.4 0-8 0-0.2 0-0.3-0.1-0.3-0.3 0-0.5 0-1 0-1.4s0.1-0.5 0.4-0.5c1.3 0 2.6 0 3.9 0s2.6 0 3.9 0c0.3 0 0.4 0.1 0.4 0.4 0 0.5 0 1 0 1.5z"></path>
</svg>
