<!-- Generated by IcoMoon.io -->
<svg version="1.1" xmlns="http://www.w3.org/2000/svg" width="32" height="32" viewBox="0 0 32 32">
<title>opera</title>
<path d="M15.9 3.9c-6.7 0-12.2 5.4-12.2 12.1v0c0 6.5 5.1 11.8 11.6 12.1v0c0.2 0 0.4 0 0.6 0v0c3.1 0 5.9-1.2 8.1-3.1v0c-1.4 0.9-3.1 1.5-4.9 1.5v0c-2.9 0-5.5-1.4-7.2-3.7v0c-1.3-1.6-2.2-3.9-2.3-6.5v0c0 0 0-0.6 0-0.6v0c0.1-2.6 0.9-5 2.3-6.5v0c1.7-2.3 4.3-3.7 7.2-3.7v0c1.8 0 3.4 0.5 4.9 1.5v0c-2.2-1.9-5-3.1-8.1-3.1v0c0 0 0 0 0 0z"></path>
<path d="M12.2 9.3c1.1-1.3 2.5-2.1 4-2.1v0c3.5 0 6.3 3.9 6.3 8.8v0c0 4.8-2.8 8.8-6.3 8.8v0c-1.5 0-2.9-0.8-4-2.1v0c1.7 2.2 4.2 3.6 7.1 3.6v0c1.7 0 3.4-0.5 4.8-1.5v0c2.4-2.2 4-5.3 4-8.9v0c0-3.5-1.5-6.7-4-8.9v0c-1.4-0.9-3-1.5-4.8-1.5v0c-2.9 0.2-5.4 1.6-7.1 3.8z"></path>
</svg>
