<?xml version="1.0" encoding="utf-8"?>
<!-- Generator: Adobe Illustrator 21.1.0, SVG Export Plug-In . SVG Version: 6.00 Build 0)  -->
<!DOCTYPE svg PUBLIC "-//W3C//DTD SVG 1.1//EN" "http://www.w3.org/Graphics/SVG/1.1/DTD/svg11.dtd">
<svg version="1.1" id="Layer_1" xmlns="http://www.w3.org/2000/svg" xmlns:xlink="http://www.w3.org/1999/xlink" x="0px" y="0px"
	 viewBox="0 0 32 32" style="enable-background:new 0 0 32 32;" xml:space="preserve">
<title>opera</title>
<g>
	<path d="M15.9,3.9C9.2,3.9,3.7,9.3,3.7,16l0,0c0,6.5,5.1,11.8,11.6,12.1l0,0c0.2,0,0.4,0,0.6,0l0,0c3.1,0,5.9-1.2,8.1-3.1l0,0
		c-1.4,0.9-3.1,1.5-4.9,1.5l0,0c-2.9,0-5.5-1.4-7.2-3.7l0,0c-1.3-1.6-2.2-3.9-2.3-6.5l0,0c0,0,0-0.6,0-0.6l0,0
		c0.1-2.6,0.9-5,2.3-6.5l0,0c1.7-2.3,4.3-3.7,7.2-3.7l0,0C20.9,5.5,22.5,6,24,7l0,0C21.8,5.1,19,3.9,15.9,3.9L15.9,3.9
		C15.9,3.9,15.9,3.9,15.9,3.9z"/>
	<path d="M12.2,9.3c1.1-1.3,2.5-2.1,4-2.1l0,0c3.5,0,6.3,3.9,6.3,8.8l0,0c0,4.8-2.8,8.8-6.3,8.8l0,0c-1.5,0-2.9-0.8-4-2.1l0,0
		c1.7,2.2,4.2,3.6,7.1,3.6l0,0c1.7,0,3.4-0.5,4.8-1.5l0,0c2.4-2.2,4-5.3,4-8.9l0,0c0-3.5-1.5-6.7-4-8.9l0,0c-1.4-0.9-3-1.5-4.8-1.5
		l0,0C16.4,5.7,13.9,7.1,12.2,9.3"/>
</g>
</svg>
