<?xml version="1.0" encoding="utf-8"?>
<!-- Generator: Adobe Illustrator 22.1.0, SVG Export Plug-In . SVG Version: 6.00 Build 0)  -->
<svg version="1.1" id="Layer_1" xmlns="http://www.w3.org/2000/svg" xmlns:xlink="http://www.w3.org/1999/xlink" x="0px" y="0px"
	 viewBox="0 0 32 32" style="enable-background:new 0 0 32 32;" xml:space="preserve">
<title>perl</title>
<g id="_UIKit">
	<g id="Branding" transform="translate(-734.000000, -159.000000)">
		<g id="logo" transform="translate(736.000000, 154.000000)">
			<g id="Group">
			</g>
		</g>
	</g>
	<g id="logo_1_">
		<path d="M10.8,13.6c0,0.6-0.1,1.2-0.4,1.6c-0.2,0.4-0.6,0.8-0.9,1s-0.9,0.5-1.4,0.6S7.1,17,6.5,17H5.2v4.1H2.6V10.3h4
			c0.6,0,1.1,0.1,1.7,0.2c0.5,0.1,1,0.3,1.3,0.6c0.4,0.3,0.7,0.6,0.9,1C10.7,12.5,10.8,13,10.8,13.6L10.8,13.6z M8.2,13.6
			c0-0.3-0.1-0.5-0.2-0.6s-0.2-0.3-0.4-0.4c-0.2-0.1-0.4-0.2-0.6-0.2c-0.2,0-0.4,0-0.7,0H5.2v2.6h1.1c0.2,0,0.5,0,0.7-0.1
			c0.2,0,0.4-0.1,0.6-0.2c0.2-0.1,0.3-0.2,0.4-0.4S8.2,13.9,8.2,13.6L8.2,13.6z M16.5,16.4c0-0.4-0.1-0.7-0.4-1
			C15.9,15.1,15.5,15,15,15c-0.2,0-0.5,0-0.7,0.1c-0.2,0.1-0.4,0.2-0.5,0.3c-0.2,0.1-0.3,0.3-0.4,0.5c-0.1,0.2-0.1,0.4-0.2,0.6H16.5
			z M18.8,17.4v0.3c0,0.1,0,0.2,0,0.3h-5.5c0,0.2,0.1,0.4,0.2,0.6s0.2,0.3,0.4,0.5c0.2,0.1,0.4,0.2,0.6,0.3c0.2,0.1,0.4,0.1,0.7,0.1
			c0.4,0,0.7-0.1,1-0.2s0.5-0.3,0.7-0.6l1.7,1.1c-0.4,0.5-0.8,0.9-1.4,1.2s-1.3,0.4-2,0.4c-0.6,0-1.1-0.1-1.6-0.3
			c-0.5-0.2-1-0.4-1.3-0.8c-0.4-0.3-0.7-0.8-0.9-1.3s-0.3-1.1-0.3-1.7c0-0.6,0.1-1.2,0.3-1.7c0.2-0.5,0.5-0.9,0.9-1.3
			c0.4-0.4,0.8-0.6,1.3-0.8c0.5-0.2,1-0.3,1.6-0.3c0.6,0,1.1,0.1,1.5,0.3c0.5,0.2,0.9,0.5,1.2,0.8c0.3,0.4,0.6,0.8,0.8,1.3
			C18.7,16.2,18.8,16.7,18.8,17.4L18.8,17.4z M25.4,15.5c-0.1,0-0.2-0.1-0.3-0.1c-0.1,0-0.2,0-0.3,0c-0.3,0-0.6,0.1-0.8,0.2
			c-0.2,0.1-0.4,0.3-0.6,0.4c-0.1,0.2-0.2,0.4-0.3,0.6c-0.1,0.2-0.1,0.4-0.1,0.5v3.9h-2.5v-7.6h2.4v1.1h0c0.2-0.4,0.5-0.7,0.8-0.9
			c0.4-0.2,0.8-0.4,1.2-0.4c0.1,0,0.2,0,0.3,0c0.1,0,0.2,0,0.2,0L25.4,15.5z M27.2,21.1V10.3h2.5v10.8H27.2z"/>
	</g>
</g>
</svg>
