<!-- Generated by IcoMoon.io -->
<svg version="1.1" xmlns="http://www.w3.org/2000/svg" width="34" height="32" viewBox="0 0 34 32">
<title>photoshop</title>
<path d="M4 3.3h26v25.4h-26v-25.4zM2.8 29.9h28.5v-27.8h-28.5v27.8zM22 13.5c-0.9 0-1.3 0.5-1.3 0.9s0.2 0.7 1.5 1.4c1.9 0.9 2.4 1.8 2.4 3 0 1.9-1.4 2.9-3.4 2.9-1 0-1.9-0.2-2.4-0.5-0.1 0-0.1-0.1-0.1-0.2v-1.7c0-0.1 0.1-0.2 0.1-0.1 0.7 0.5 1.6 0.7 2.4 0.7 0.9 0 1.3-0.4 1.3-0.9 0-0.4-0.3-0.8-1.5-1.4-1.7-0.8-2.4-1.6-2.4-3 0-1.5 1.2-2.8 3.3-2.8 1 0 1.7 0.2 2.1 0.3 0.1 0.1 0.1 0.2 0.1 0.2v1.6c0 0.1-0.1 0.2-0.2 0.1-0.4-0.3-1.2-0.5-1.9-0.5v0zM11.8 14.9c0.3 0 0.5 0 1 0 1.4 0 2.7-0.5 2.7-2.4 0-1.5-0.9-2.3-2.5-2.3-0.5 0-0.9 0-1.1 0v4.7zM9.6 8.6c0-0.1 0.2-0.1 0.3-0.1 0.8 0 1.9-0.1 3.1-0.1 3.3 0 4.6 1.8 4.6 4.1 0 3-2.2 4.3-4.9 4.3-0.5 0-0.6 0-0.9 0v4.6c0 0.1 0 0.1-0.1 0.1h-1.9c-0.1 0-0.1 0-0.1-0.1l-0.1-12.8z"></path>
</svg>
