<!-- Generated by IcoMoon.io -->
<svg version="1.1" xmlns="http://www.w3.org/2000/svg" width="32" height="32" viewBox="0 0 32 32">
<title>purescript</title>
<path d="M21.3 21.4l-1.9-1.9h-8.7l1.9 1.9z"></path>
<path d="M12.6 14.9l-1.9 1.9h8.7l1.9-1.9z"></path>
<path d="M21.3 12.1l-1.9-1.8h-8.7l1.9 1.8z"></path>
<path d="M9.8 14l-1.3-1.3-4.8 4.8c-0.2 0.2-0.3 0.4-0.3 0.7 0 0.2 0.1 0.5 0.3 0.7l4.8 4.8 1.3-1.3-4.2-4.2 4.2-4.2z"></path>
<path d="M28.4 12.9l-4.9-4.9-1.3 1.3 4.2 4.2-4.2 4.2 1.3 1.3 4.8-4.8c0.2-0.2 0.3-0.4 0.3-0.7 0.1-0.2 0-0.5-0.2-0.6z"></path>
</svg>
