<?xml version="1.0" encoding="utf-8"?>
<!-- Generator: Adobe Illustrator 22.1.0, SVG Export Plug-In . SVG Version: 6.00 Build 0)  -->
<svg version="1.1" id="Layer_1" xmlns="http://www.w3.org/2000/svg" xmlns:xlink="http://www.w3.org/1999/xlink" x="0px" y="0px"
	 viewBox="0 0 32 32" style="enable-background:new 0 0 32 32;" xml:space="preserve">
<style type="text/css">
	.st0{fill:#030303;}
</style>
<title>safari</title>
<g>
	<path d="M29.3,14.7c0-0.7,0-1.5-0.3-2.2c-1-3.3-2.8-6.1-5.8-7.9c-1.8-1.1-3.8-2-6-1.9c-0.1,0-0.4,0-0.7-0.1c-0.3,0-0.7,0-1,0
		c-0.3,0-0.5,0-0.8,0c-0.2,0-0.4,0.1-0.6,0.1C6.9,3.7,1.6,10.7,2.8,18c1.6,9.7,12.4,14.6,20.6,9.2c3.5-2.3,5.5-5.7,5.9-9.9
		 M29.4,15.5 M16,27.9C9.4,27.9,4.1,22.6,4.1,16c0-6.6,5.3-12,12-12C22.6,4.1,28,9.4,28,16C28,22.6,22.6,28,16,27.9z"/>
	<path d="M22.4,7.5c-0.3-0.2-0.4-0.3-0.6,0.1c-0.1,0.2-0.3,0.7-0.6,0.5c-0.3-0.2,0.1-0.5,0.3-0.7c0.2-0.3,0.1-0.4-0.1-0.6
		c-2.1-1.2-4.4-1.6-6.8-1.3C14.2,5.5,14,5.6,14.2,6c0.1,0.2,0.3,0.6,0,0.7c-0.4,0.1-0.3-0.4-0.3-0.6c-0.1-0.4-0.2-0.5-0.6-0.4
		c-2.2,0.6-4,1.9-5.5,3.6C7.2,10,7.2,10,7.9,10.4c0.1,0.1,0.1,0.1,0.2,0.2c0.1,0.1,0.2,0.2,0.1,0.3c-0.1,0.1-0.2,0.1-0.3,0
		c-0.2-0.1-0.4-0.2-0.5-0.3c-0.3-0.2-0.4-0.1-0.5,0.1c-1.2,2-1.6,4.2-1.3,6.5c0,0.3,0,0.6,0.2,0.8c0.2,0.2,0.5,0,0.8-0.1
		c0.1,0,0.1,0,0.2,0c0.1,0,0.2,0,0.2,0.1c0,0.1-0.1,0.2-0.2,0.2c-0.2,0.1-0.4,0.1-0.7,0.2c-0.3,0-0.3,0.2-0.3,0.4
		c0.7,2.6,2.2,4.6,4.4,6.1c0.2-0.3,0.3-0.5,0.5-0.8c0.1-0.1,0.2-0.4,0.4-0.2c0.2,0.1,0,0.3-0.1,0.4c-0.1,0.2-0.2,0.3-0.3,0.5
		c-0.2,0.2-0.2,0.4,0.1,0.5c2.2,1.2,4.5,1.6,7,1.2c0.4-0.1,0.5-0.2,0.4-0.5c-0.1-0.2-0.3-0.7,0-0.8c0.3-0.1,0.3,0.4,0.3,0.6
		c0.1,0.4,0.2,0.5,0.6,0.3c2.3-0.7,4.2-2.1,5.7-4.1c0.2-0.3,0.2-0.4-0.1-0.5c-0.2-0.1-0.7-0.3-0.5-0.5c0.2-0.3,0.5,0.1,0.7,0.2
		c0.3,0.2,0.4,0.2,0.5-0.1c1.1-2,1.5-4.2,1.3-6.4c0-0.3,0-0.6-0.2-0.7c-0.2-0.2-0.5,0-0.7,0.1c-0.1,0-0.3,0-0.3-0.1
		c-0.1-0.2,0.1-0.2,0.2-0.3c0.1,0,0.2-0.1,0.3-0.1c0.4,0,0.4-0.2,0.3-0.5C25.7,10.8,24.4,8.9,22.4,7.5z M22,8.7
		c-1.6,2.6-3.1,5.2-4.7,7.8c-0.1,0.2-0.3,0.4-0.4,0.6c-2.2,2.1-4.4,4.2-6.7,6.3c0,0-0.1,0.1-0.2,0.2c0-0.4,0.3-0.6,0.4-0.8
		c1.4-2.4,2.9-4.8,4.3-7.2c0.2-0.3,0.4-0.6,0.7-0.9c2.2-2.1,4.4-4.1,6.6-6.2c0,0,0.1-0.1,0.1-0.1C22.2,8.5,22,8.6,22,8.7z"/>
	<path class="st0" d="M15.9,15.1c-0.5,0-0.9,0.4-0.9,1c0,0.5,0.4,0.9,0.9,0.9c0.5,0,0.9-0.4,0.9-1C16.9,15.5,16.4,15.1,15.9,15.1z"
		/>
</g>
</svg>
