<!-- Generated by IcoMoon.io -->
<svg version="1.1" xmlns="http://www.w3.org/2000/svg" width="32" height="32" viewBox="0 0 32 32">
<title>safari</title>
<path fill="#000" d="M29.3 14.7c0-0.7 0-1.5-0.3-2.2-1-3.3-2.8-6.1-5.8-7.9-1.8-1.1-3.8-2-6-1.9-0.1 0-0.4 0-0.7-0.1-0.3 0-0.7 0-1 0s-0.5 0-0.8 0c-0.2 0-0.4 0.1-0.6 0.1-7.2 1-12.5 8-11.3 15.3 1.6 9.7 12.4 14.6 20.6 9.2 3.5-2.3 5.5-5.7 5.9-9.9zM16 27.9c-6.6 0-11.9-5.3-11.9-11.9s5.3-12 12-12c6.5 0.1 11.9 5.4 11.9 12s-5.4 12-12 11.9z"></path>
<path fill="#000" d="M22.4 7.5c-0.3-0.2-0.4-0.3-0.6 0.1-0.1 0.2-0.3 0.7-0.6 0.5s0.1-0.5 0.3-0.7c0.2-0.3 0.1-0.4-0.1-0.6-2.1-1.2-4.4-1.6-6.8-1.3-0.4 0-0.6 0.1-0.4 0.5 0.1 0.2 0.3 0.6 0 0.7-0.4 0.1-0.3-0.4-0.3-0.6-0.1-0.4-0.2-0.5-0.6-0.4-2.2 0.6-4 1.9-5.5 3.6-0.6 0.7-0.6 0.7 0.1 1.1 0.1 0.1 0.1 0.1 0.2 0.2s0.2 0.2 0.1 0.3c-0.1 0.1-0.2 0.1-0.3 0-0.2-0.1-0.4-0.2-0.5-0.3-0.3-0.2-0.4-0.1-0.5 0.1-1.2 2-1.6 4.2-1.3 6.5 0 0.3 0 0.6 0.2 0.8s0.5 0 0.8-0.1c0.1 0 0.1 0 0.2 0s0.2 0 0.2 0.1c0 0.1-0.1 0.2-0.2 0.2-0.2 0.1-0.4 0.1-0.7 0.2-0.3 0-0.3 0.2-0.3 0.4 0.7 2.6 2.2 4.6 4.4 6.1 0.2-0.3 0.3-0.5 0.5-0.8 0.1-0.1 0.2-0.4 0.4-0.2 0.2 0.1 0 0.3-0.1 0.4-0.1 0.2-0.2 0.3-0.3 0.5-0.2 0.2-0.2 0.4 0.1 0.5 2.2 1.2 4.5 1.6 7 1.2 0.4-0.1 0.5-0.2 0.4-0.5-0.1-0.2-0.3-0.7 0-0.8s0.3 0.4 0.3 0.6c0.1 0.4 0.2 0.5 0.6 0.3 2.3-0.7 4.2-2.1 5.7-4.1 0.2-0.3 0.2-0.4-0.1-0.5-0.2-0.1-0.7-0.3-0.5-0.5 0.2-0.3 0.5 0.1 0.7 0.2 0.3 0.2 0.4 0.2 0.5-0.1 1.1-2 1.5-4.2 1.3-6.4 0-0.3 0-0.6-0.2-0.7-0.2-0.2-0.5 0-0.7 0.1-0.1 0-0.3 0-0.3-0.1-0.1-0.2 0.1-0.2 0.2-0.3 0.1 0 0.2-0.1 0.3-0.1 0.4 0 0.4-0.2 0.3-0.5-0.6-2.3-1.9-4.2-3.9-5.6zM22 8.7c-1.6 2.6-3.1 5.2-4.7 7.8-0.1 0.2-0.3 0.4-0.4 0.6-2.2 2.1-4.4 4.2-6.7 6.3 0 0-0.1 0.1-0.2 0.2 0-0.4 0.3-0.6 0.4-0.8 1.4-2.4 2.9-4.8 4.3-7.2 0.2-0.3 0.4-0.6 0.7-0.9 2.2-2.1 4.4-4.1 6.6-6.2 0 0 0.1-0.1 0.1-0.1 0.1 0.1-0.1 0.2-0.1 0.3z"></path>
<path fill="#030303" d="M15.9 15.1c-0.5 0-0.9 0.4-0.9 1 0 0.5 0.4 0.9 0.9 0.9s0.9-0.4 0.9-1c0.1-0.5-0.4-0.9-0.9-0.9z"></path>
</svg>
