<?xml version="1.0" encoding="utf-8"?>
<!-- Generator: Adobe Illustrator 21.1.0, SVG Export Plug-In . SVG Version: 6.00 Build 0)  -->
<!DOCTYPE svg PUBLIC "-//W3C//DTD SVG 1.1//EN" "http://www.w3.org/Graphics/SVG/1.1/DTD/svg11.dtd">
<svg version="1.1" id="Layer_1" xmlns="http://www.w3.org/2000/svg" xmlns:xlink="http://www.w3.org/1999/xlink" x="0px" y="0px"
	 viewBox="0 0 32 32" style="enable-background:new 0 0 32 32;" xml:space="preserve">
<g>
	<path d="M19.7,29.7l1.2-24.5c0,0,0,0,0,0c-0.1,0-0.3,0-0.4,0c0,0-0.3,0.1-0.8,0.3c-0.5-1.4-1.4-2.7-2.9-2.7c0,0-0.1,0-0.1,0
		c-0.4-0.6-1-0.8-1.4-0.8c-3.6,0-5.3,4.5-5.8,6.7C8,9.1,7,9.5,6.9,9.5c-0.8,0.2-0.8,0.3-0.9,1C5.9,11,3.9,26.8,3.9,26.8L19.7,29.7
		l8.6-1.9L19.7,29.7z M16.5,6.3c0,0.1,0,0.1,0,0.2c-0.9,0.3-1.8,0.6-2.8,0.9c0.5-2.1,1.5-3,2.4-3.4C16.4,4.5,16.5,5.3,16.5,6.3z
		 M15.1,2.9c0.2,0,0.3,0.1,0.5,0.2c-1.1,0.5-2.4,1.9-2.9,4.6c-0.8,0.2-1.5,0.5-2.2,0.7C11.1,6.3,12.5,2.9,15.1,2.9z M15.7,15
		c0,0-0.9-0.5-2.1-0.5c-1.7,0-1.7,1-1.7,1.3c0,1.4,3.7,2,3.7,5.4c0,2.6-1.7,4.4-3.9,4.4c-2.7,0-4.1-1.7-4.1-1.7l0.7-2.4
		c0,0,1.4,1.2,2.6,1.2c0.8,0,1.1-0.6,1.1-1.1c0-1.9-3.1-2-3.1-5c0-2.6,1.9-5.1,5.6-5.1c1.4,0,2.2,0.4,2.2,0.4L15.7,15z M17.5,6.2
		c0-0.1,0-0.2,0-0.3c0-0.9-0.1-1.6-0.3-2.2c0.8,0.1,1.3,1,1.7,2C18.4,5.9,18,6.1,17.5,6.2z"/>
	<path d="M19.7,29.7l8.6-1.9c0,0-3-20.4-3-20.5c0-0.1-0.1-0.2-0.2-0.2c-0.1,0-2.2-0.2-2.2-0.2s-1.5-1.5-1.6-1.6c0,0,0,0-0.1,0
		c0,0,0,0,0,0c0,0,0,0,0,0c0,0,0,0,0,0c0,0,0,0-0.1,0c0,0,0,0,0,0L19.7,29.7z"/>
</g>
</svg>
