<!-- Generated by IcoMoon.io -->
<svg version="1.1" xmlns="http://www.w3.org/2000/svg" width="32" height="32" viewBox="0 0 32 32">
<title>shopware</title>
<path d="M23.3 25.5c-1.1-0.8-2.6-1.4-4.3-2-2-0.8-4.2-1.6-5.9-3-1.9-1.5-2.8-3.4-2.8-5.8 0-2.2 0.9-4 2.6-5.4 1.9-1.5 4.8-2.3 8.3-2.3 1 0 1.9 0.1 2.8 0.2 0.1 0 0.2 0 0.2-0.1s0-0.2 0-0.2c-2.2-2-5.1-3.1-8.2-3.1-3.3 0-6.3 1.3-8.6 3.6s-3.6 5.3-3.6 8.6c0 3.3 1.3 6.3 3.6 8.6s5.4 3.6 8.6 3.6c2.6 0 5.1-0.8 7.3-2.4 0 0 0.1-0.1 0.1-0.1-0.1-0.1-0.1-0.1-0.1-0.2z"></path>
<path d="M28.2 14.9c0 0 0-0.1-0.1-0.1-2.5-2.1-4.6-3-7.1-3-1.3 0-2.4 0.3-3 0.8-0.7 0.4-1 1.1-1 1.8 0 2.1 2.6 3.1 5.5 4.2 1.5 0.6 3.1 1.2 4.6 2 0 0 0.1 0 0.1 0s0 0 0.1 0c0 0 0.1-0.1 0.1-0.1 0.6-1.4 0.8-2.9 0.8-4.4 0-0.5 0-0.8 0-1.2z"></path>
</svg>
