<!-- Generated by IcoMoon.io -->
<svg version="1.1" xmlns="http://www.w3.org/2000/svg" width="32" height="32" viewBox="0 0 32 32">
<title>shopify</title>
<path d="M19.7 29.7l1.2-24.5c0 0 0 0 0 0-0.1 0-0.3 0-0.4 0 0 0-0.3 0.1-0.8 0.3-0.5-1.4-1.4-2.7-2.9-2.7 0 0-0.1 0-0.1 0-0.4-0.6-1-0.8-1.4-0.8-3.6 0-5.3 4.5-5.8 6.7-1.5 0.4-2.5 0.8-2.6 0.8-0.8 0.2-0.8 0.3-0.9 1-0.1 0.5-2.1 16.3-2.1 16.3l15.8 2.9zM16.5 6.3c0 0.1 0 0.1 0 0.2-0.9 0.3-1.8 0.6-2.8 0.9 0.5-2.1 1.5-3 2.4-3.4 0.3 0.5 0.4 1.3 0.4 2.3zM15.1 2.9c0.2 0 0.3 0.1 0.5 0.2-1.1 0.5-2.4 1.9-2.9 4.6-0.8 0.2-1.5 0.5-2.2 0.7 0.6-2.1 2-5.5 4.6-5.5zM15.7 15c0 0-0.9-0.5-2.1-0.5-1.7 0-1.7 1-1.7 1.3 0 1.4 3.7 2 3.7 5.4 0 2.6-1.7 4.4-3.9 4.4-2.7 0-4.1-1.7-4.1-1.7l0.7-2.4c0 0 1.4 1.2 2.6 1.2 0.8 0 1.1-0.6 1.1-1.1 0-1.9-3.1-2-3.1-5 0-2.6 1.9-5.1 5.6-5.1 1.4 0 2.2 0.4 2.2 0.4l-1 3.1zM17.5 6.2c0-0.1 0-0.2 0-0.3 0-0.9-0.1-1.6-0.3-2.2 0.8 0.1 1.3 1 1.7 2-0.5 0.2-0.9 0.4-1.4 0.5z"></path>
<path d="M19.7 29.7l8.6-1.9c0 0-3-20.4-3-20.5s-0.1-0.2-0.2-0.2c-0.1 0-2.2-0.2-2.2-0.2s-1.5-1.5-1.6-1.6c0 0 0 0-0.1 0 0 0 0 0 0 0s0 0 0 0 0 0 0 0 0 0-0.1 0c0 0 0 0 0 0l-1.4 24.4z"></path>
</svg>
