<!-- Generated by IcoMoon.io -->
<svg version="1.1" xmlns="http://www.w3.org/2000/svg" width="32" height="32" viewBox="0 0 32 32">
<title>sketch</title>
<path d="M16 27c-0.1 0-0.3-0.1-0.4-0.2l-11.5-14c-0.1-0.1-0.1-0.3-0.1-0.5s0.3-0.3 0.5-0.3h23c0.2 0 0.4 0.1 0.5 0.3s0.1 0.4-0.1 0.5l-11.5 14c-0.1 0.1-0.3 0.2-0.4 0.2zM5.6 13l10.4 12.7 10.4-12.7h-20.8z"></path>
<path d="M16 27c-0.2 0-0.4-0.1-0.4-0.3l-7.5-14c-0.1 0-0.1-0.1-0.1-0.2l0.4-4.7-3.4 5c-0.2 0.2-0.5 0.3-0.7 0.1s-0.3-0.5-0.1-0.7l4.5-6.5c0-0.2 0.3-0.2 0.5-0.2 0.2 0.1 0.3 0.3 0.3 0.5l-0.5 6.4 7 13 7-13-0.5-6.4c0-0.2 0.1-0.4 0.3-0.5s0.4 0 0.6 0.2l4.5 6.5c0.2 0.2 0.1 0.5-0.1 0.7s-0.5 0.1-0.7-0.1l-3.4-5 0.4 4.7c0 0.1 0 0.2-0.1 0.3l-7.5 14c-0.1 0.1-0.3 0.2-0.5 0.2z"></path>
<path d="M23 6.5c0 0 0 0 0 0l-7-0.5-7 0.5c-0.3 0-0.5-0.2-0.5-0.5s0.2-0.5 0.5-0.5l7-0.5 7 0.5c0.3 0 0.5 0.3 0.5 0.5 0 0.3-0.2 0.5-0.5 0.5z"></path>
<path d="M23.5 13c-0.1 0-0.2 0-0.3-0.1l-7.2-6.7-7.2 6.7c-0.2 0.2-0.5 0.2-0.7 0s-0.2-0.5 0-0.7l7.5-7c0.2-0.2 0.5-0.2 0.7 0l7.5 7c0.2 0.2 0.2 0.5 0 0.7 0 0-0.2 0.1-0.3 0.1z"></path>
</svg>
