<!-- Generated by IcoMoon.io -->
<svg version="1.1" xmlns="http://www.w3.org/2000/svg" width="32" height="32" viewBox="0 0 32 32">
<title>spring_shell</title>
<path d="M25.8 14.9c-0.4-0.2-0.8-0.3-0.7-1 0.2-1.7-0.5-3.2-1.8-4.3-2.8-2.4-6.5-2.4-9.5 0-0.6 0.5-1 0.6-1.7 0.4-2.4-0.4-5 1.4-5.2 3.6 0 0.7-0.2 1-0.9 1.4-2.3 1.3-3.2 3.4-2.6 5.9 0.5 2.1 2.4 3.4 5 3.4 2.4 0 4.9 0 7.3 0 0 0 0 0 0 0 2.5 0 4.9 0 7.4 0 1.9 0 3.7-0.6 4.8-2.3 1.7-2.5 0.8-5.6-2.1-7.1zM15.7 17.3c-1.2 0.7-2.4 1.4-3.6 2.1-0.4 0.3-0.5 0.1-0.7-0.2s-0.1-0.5 0.2-0.7c1-0.5 1.9-1.1 2.9-1.7-1-0.6-1.9-1.1-2.8-1.7-0.3-0.2-0.6-0.3-0.3-0.8 0.3-0.4 0.5-0.3 0.9-0.1 1.1 0.7 2.3 1.4 3.5 2.2 0.5 0.2 0.4 0.6-0.1 0.9zM20.8 21.9c-0.3 0-0.5 0-0.8 0s-0.5 0-0.8 0c-0.3 0-0.5 0-0.8 0s-0.5 0-0.8 0c-0.4 0-0.6-0.1-0.6-0.6 0-0.4 0.1-0.6 0.6-0.6 1 0 2.1 0 3.1 0 0.4 0 0.5 0.2 0.6 0.6 0.1 0.5 0 0.7-0.5 0.6z"></path>
<path d="M18.5 21.9c0.3 0 0.5 0 0.8 0s0.5 0 0.8 0c-0.3 0-0.5 0-0.8 0s-0.5 0-0.8 0z"></path>
</svg>
