<?xml version="1.0" encoding="utf-8"?>
<!-- Generator: Adobe Illustrator 22.1.0, SVG Export Plug-In . SVG Version: 6.00 Build 0)  -->
<svg version="1.1" id="Layer_1" xmlns="http://www.w3.org/2000/svg" xmlns:xlink="http://www.w3.org/1999/xlink" x="0px" y="0px"
	 viewBox="0 0 32 32" style="enable-background:new 0 0 32 32;" xml:space="preserve">
<title>spring_boot</title>
<g>
	<path d="M25.8,8.9c-4.7-1.5-9.4-2.9-14-4.4C10.1,4.1,9.5,4.4,9,6.1C7.5,10.8,6.1,15.4,4.6,20c-0.6,1.9-0.3,2.4,1.6,3
		c4.7,1.5,9.4,2.9,14,4.3c0.3,0.1,0.7,0.2,0.9,0.2c1.2-0.1,1.6-0.8,1.9-1.7c1.5-4.7,2.9-9.4,4.4-14.1C27.9,10.1,27.6,9.5,25.8,8.9z
		 M10.5,10.5c0.6,0.1,0.9,0.5,1,1.1c-0.1,0.6-0.5,1.1-1.2,1c-0.6-0.1-1-0.5-0.9-1.1C9.4,10.8,9.9,10.5,10.5,10.5z M11.5,20.9
		c0,0.7-0.4,1.2-1.2,1.2c-0.7,0-1-0.5-1-1.2c0-1,0-2,0-3.1s0-2,0-3.1c0-0.7,0.3-1.2,1-1.2c0.8,0,1.2,0.4,1.2,1.1
		C11.6,16.8,11.6,18.9,11.5,20.9z M23.3,18.5c-0.9,3.1-5,4.7-7.8,2.9c-0.3-0.2-0.6-0.4-0.3-0.9c0.2-0.4-0.1-0.7-0.5-0.5
		c-0.8,0.5-1-0.2-1.2-0.6c-1.4-2.2-1-5,0.9-6.8c1.9-1.8,4.7-2.1,6.9-0.6c0.4,0.2,0.6,0.6,1.1,0.7l0,0c0.5-0.5,0.6,0,0.7,0.3
		C23.7,14.8,24,16.6,23.3,18.5z"/>
	<path d="M22.4,12.7c0.4,0.5,0,0.8-0.3,1.1c-1.1,1.1-2.5,1.5-3.9,1.6c-0.7,0-1.3,0.1-1.9,0.4c-0.6,0.3-1,0.7-1.1,1.4
		c-0.3,1.2,0.3,1.8,1.4,1.5c1.2-0.3,2.4-0.7,3.4-1.4c0.4-0.3,0.8-0.5,1.2-0.1c0.4,0.4,0.2,0.8-0.2,1.2c-0.7,0.8-1.6,1.5-2.7,1.6
		c1.5-0.2,3.1-0.3,4.3-1.5c0.2-0.2,0.5-0.2,0.7,0c0.7-1.9,0.4-3.7-0.2-5.5C23,12.7,22.9,12.2,22.4,12.7z"/>
	<path d="M22.6,18.5c-1.2,1.2-2.8,1.3-4.3,1.5c1.1-0.1,2-0.8,2.7-1.6c0.3-0.4,0.5-0.8,0.2-1.2c-0.4-0.4-0.8-0.2-1.2,0.1
		c-1,0.8-2.2,1.2-3.4,1.4c-1.2,0.3-1.7-0.4-1.4-1.5c0.2-0.6,0.6-1.1,1.1-1.4c0.6-0.3,1.2-0.4,1.9-0.4c1.5-0.1,2.9-0.5,3.9-1.6
		c0.3-0.3,0.7-0.6,0.3-1.1c0,0,0,0,0,0c-0.6,1.2-1.7,1.7-3,2c-0.7,0.2-1.4,0.2-2.1,0.2c-2,0.2-3.3,1.7-2.9,3.5
		c0.2,0.7,0.5,1.3,1.4,1.1c1.6-0.3,3.1-0.7,4.4-1.8c0.2-0.1,0.3-0.4,0.7-0.2c-0.5,0.7-1.1,1.3-1.9,1.6c-0.7,0.4-1.5,0.7-2.6,1.1
		c2.6,0.1,5,0.4,6.7-1.8C23.1,18.3,22.8,18.3,22.6,18.5z"/>
</g>
</svg>
