<?xml version="1.0" encoding="utf-8"?>
<!-- Generator: Adobe Illustrator 22.1.0, SVG Export Plug-In . SVG Version: 6.00 Build 0)  -->
<svg version="1.1" id="Layer_1" xmlns="http://www.w3.org/2000/svg" xmlns:xlink="http://www.w3.org/1999/xlink" x="0px" y="0px"
	 viewBox="0 0 32 32" style="enable-background:new 0 0 32 32;" xml:space="preserve">
<title>spring_boot</title>
<path d="M5.9,8.3c0-1.2,0-2.3,0-3.5c0-0.2,0-0.3,0.3-0.4c1.6-0.4,3.3-0.7,5-0.9c2.1-0.2,4.2-0.2,6.2-0.2c2.8,0.1,5.7,0.3,8.4,1.1
	c0.2,0.1,0.3,0.1,0.3,0.3c0,1,0,2,0,3c0,0.2-0.1,0.3-0.3,0.2c-1.2-0.3-2.4-0.5-3.6-0.7c-0.1,0-0.2-0.1-0.3-0.2
	c-0.2-0.8-0.8-1.2-1.6-1.3c-0.8,0-1.3,0.3-1.7,1C18.6,7,18.4,7,18.3,7c-1.6-0.1-3.2,0-4.8,0c-1.3,0-2.5,0.4-3.5,1.4
	c-0.8,0.8-1.2,1.8-1.3,2.9c0,0.2-0.1,0.2-0.3,0.3C7.7,11.7,7,11.9,6.2,12c-0.3,0.1-0.4,0-0.3-0.3C5.9,10.6,5.9,9.4,5.9,8.3z"/>
<path d="M26.1,23.5c0,1.2,0,2.5,0,3.7c0,0.3-0.1,0.3-0.3,0.4c-2.5,0.6-5,0.9-7.5,1c-2.2,0.1-4.4,0-6.6-0.1c-1.9-0.1-3.7-0.5-5.5-0.9
	c-0.2,0-0.2-0.1-0.2-0.3c0-1,0-2,0-3c0-0.2,0-0.2,0.2-0.2c1.3,0.3,2.6,0.6,3.9,0.8c0.1,0,0.2,0.1,0.2,0.2c0.3,0.8,0.8,1.2,1.6,1.3
	c0.8,0,1.3-0.3,1.7-1c0.1-0.2,0.2-0.2,0.4-0.2c1.5,0,2.9,0,4.4,0c0.8,0,1.6-0.1,2.3-0.3c1.7-0.7,2.8-2.3,2.8-4.2
	c0-0.7,0-0.7,0.7-0.8c0.6-0.1,1.1-0.2,1.7-0.4c0.3-0.1,0.3,0,0.3,0.2C26.1,21,26.1,22.2,26.1,23.5z"/>
<path d="M26.1,15.8c0,1,0,2,0,3c0,0.2-0.1,0.3-0.3,0.4c-0.7,0.1-1.4,0.3-2.1,0.5c-0.3,0.1-0.3,0-0.3-0.2c-0.5-2-2-3.4-4-3.7
	c-0.2,0-0.4,0-0.6,0c-1.8,0-3.5,0-5.3,0c-2,0-3.6-1.5-3.8-3.6c0-0.2,0.1-0.3,0.3-0.3c2.4-0.3,4.9-0.3,7.3-0.3c1.2,0,2.4,0.1,3.5,0.2
	c1.7,0.2,3.4,0.5,5.1,0.9c0.2,0,0.2,0.1,0.2,0.3C26.1,13.8,26.1,14.8,26.1,15.8z"/>
<path d="M5.9,15.8c0-1,0-2,0-2.9c0-0.2,0.1-0.3,0.3-0.4c0.7-0.2,1.5-0.3,2.2-0.5c0.2,0,0.2,0,0.3,0.2c0.2,1.6,0.9,2.8,2.3,3.7
	c0.7,0.5,1.6,0.7,2.5,0.7c1.8,0,3.5,0,5.3,0c1.8,0,3.3,1.2,3.8,2.9c0.1,0.3,0,0.3-0.2,0.3C21.5,19.9,20.7,20,20,20
	c-2.1,0.1-4.2,0.1-6.3,0.1c-2.6,0-5.1-0.4-7.6-1c-0.2-0.1-0.3-0.2-0.2-0.4C5.9,17.8,5.9,16.8,5.9,15.8z"/>
<path d="M16.3,24.3c-0.8,0-1.6,0-2.4,0c-0.2,0-0.3-0.1-0.4-0.3c-0.2-0.6-0.7-1-1.4-1.1c-0.8-0.1-1.4,0.2-1.8,0.9
	c-0.1,0.2-0.2,0.3-0.5,0.2c-1.2-0.2-2.4-0.4-3.6-0.7c-0.3-0.1-0.4-0.2-0.4-0.5c0-1,0-2,0-2.9c0-0.3,0.1-0.3,0.3-0.3
	c1.4,0.3,2.9,0.6,4.4,0.8c0.6,0.1,1.3,0.1,1.9,0.2c1.8,0.1,3.6,0.1,5.4,0.1c1.4-0.1,2.9-0.1,4.3-0.3c0.3-0.1,0.4,0.1,0.4,0.4
	c0,1.8-1.1,3.2-2.9,3.6c-0.9,0.2-1.7,0.1-2.6,0.1C16.8,24.3,16.5,24.3,16.3,24.3C16.3,24.3,16.3,24.3,16.3,24.3z"/>
<path d="M26.1,10.6c0,0.4,0,0.8,0,1.2c0,0.2,0,0.3-0.3,0.3c-1.3-0.3-2.6-0.6-4-0.7C19.5,11,17.2,11,14.9,11c-1.7,0-3.4,0.1-5.1,0.3
	c-0.2,0-0.2,0-0.2-0.2c0.1-1.6,1.5-3,3.1-3.1c1.8-0.1,3.7-0.1,5.5-0.1c0.2,0,0.2,0,0.3,0.2c0.2,0.7,0.7,1.1,1.5,1.2
	c0.8,0.1,1.4-0.2,1.8-0.9c0.1-0.2,0.2-0.2,0.4-0.2c1.2,0.2,2.5,0.4,3.7,0.7c0.2,0,0.2,0.1,0.2,0.3C26.1,9.7,26.1,10.1,26.1,10.6z"/>
</svg>
