<?xml version="1.0" encoding="utf-8"?>
<!-- Generator: Adobe Illustrator 22.1.0, SVG Export Plug-In . SVG Version: 6.00 Build 0)  -->
<svg version="1.1" id="Layer_1" xmlns="http://www.w3.org/2000/svg" xmlns:xlink="http://www.w3.org/1999/xlink" x="0px" y="0px"
	 viewBox="0 0 32 32" style="enable-background:new 0 0 32 32;" xml:space="preserve">
<title>spring_boot</title>
<g>
	<path d="M13.5,18.2c1.7,0,3.4,0,5.1,0c0.3,0,0.3-0.1,0.3-0.3c0-0.2,0-0.4-0.3-0.4c-0.8,0-1.7,0-2.5,0c-0.8,0-1.7,0-2.5,0
		c-0.3,0-0.3,0.1-0.3,0.4C13.1,18.1,13.2,18.2,13.5,18.2z"/>
	<path d="M18.5,18.8c-1.7,0-3.3,0-5,0c-0.3,0-0.4,0.1-0.4,0.3c0,0.3,0.1,0.4,0.3,0.4c0.8,0,1.7,0,2.5,0c0.8,0,1.7,0,2.5,0
		c0.3,0,0.4-0.1,0.4-0.4C18.8,18.8,18.7,18.8,18.5,18.8z"/>
	<path d="M18.5,20.1c-1.7,0-3.4,0-5,0c-0.3,0-0.3,0.1-0.3,0.4c0,0.3,0.1,0.3,0.4,0.3c0.8,0,1.6,0,2.5,0c0.8,0,1.7,0,2.5,0
		c0.3,0,0.4-0.1,0.4-0.3C18.8,20.2,18.8,20.1,18.5,20.1z"/>
	<path d="M14.5,15.7c0.3-0.1,0.1-0.3,0-0.4c-0.4-1-0.5-1.9,0-2.9c0-0.1,0.1-0.2,0.1-0.3c0-0.1,0.2-0.3,0-0.3c-0.2,0-0.5-0.2-0.6,0.1
		c-0.2,0.6-0.3,1.2-0.5,1.8c0.2,0.6,0.3,1.2,0.5,1.8C13.9,15.8,14.2,15.8,14.5,15.7z"/>
	<path d="M15.5,15.7c0.3,0.1,0.4-0.1,0.4-0.3c0.3-1.1,0.6-2.2,0.9-3.3c0.1-0.2-0.1-0.3-0.2-0.3c-0.2,0-0.4-0.1-0.5,0.2
		c-0.3,1.1-0.6,2.3-0.9,3.4C15.1,15.7,15.3,15.8,15.5,15.7z"/>
	<path d="M17.5,15.2c-0.1,0.2-0.2,0.4,0.2,0.5c0.3,0,0.5,0.1,0.5-0.3c0.1-0.3,0.2-0.7,0.3-1c0.1-0.4,0.2-0.9,0-1.3
		c-0.1-0.4-0.2-0.7-0.3-1.1c0-0.2-0.1-0.3-0.3-0.2c-0.4,0-0.5,0.1-0.4,0.5c0.1,0.4,0.2,0.8,0.3,1.3c0,0.1,0,0.3,0,0.4
		C17.8,14.4,17.7,14.8,17.5,15.2z"/>
	<g>
		<path d="M28.2,16.4c-0.5,1-1.1,1.1-1.8,1c-0.6-0.1-1.1-0.8-1.1-1.4c0-0.6,0.4-1.3,1-1.4c0.7-0.2,1.3-0.1,1.9,1
			C28.1,9.5,22.8,3,14.6,3.8C8.1,4.5,3.8,10.1,3.8,15.5c0.6-1,1.2-1.1,1.8-0.9c0.6,0.1,1.1,0.8,1.1,1.4c0,0.6-0.4,1.2-1,1.4
			c-0.4,0.1-0.8,0.1-1.1-0.1c-0.4-0.2-0.6-0.5-0.8-0.9c0.3,4.6,2.4,8.3,6.6,10.4c4.8,2.4,9.4,1.7,13.6-1.6
			C26.2,23.5,28.6,18.5,28.2,16.4z M8.9,16.3c-0.2,0-0.4,0-0.5,0c-0.3,0-0.5,0-0.7-0.1c-0.1-0.1-0.2-0.1-0.2-0.3
			c0-0.2,0.1-0.3,0.2-0.3c0.4-0.1,0.9-0.1,1.3,0c0.2,0,0.2,0.2,0.2,0.4C9.2,16.2,9.1,16.3,8.9,16.3z M11.2,16.3c-0.2,0-0.4,0-0.5,0
			c-0.3,0-0.5,0-0.7-0.1c-0.1-0.1-0.2-0.1-0.2-0.3c0-0.2,0.1-0.3,0.2-0.3c0.4-0.1,0.9-0.1,1.3,0c0.2,0,0.2,0.2,0.2,0.4
			C11.5,16.2,11.4,16.3,11.2,16.3z M19.9,21.5c0,0.3-0.1,0.4-0.4,0.4c-2.4,0-4.7,0-7.1,0c-0.3,0-0.4-0.1-0.4-0.4c0-3.7,0-7.4,0-11.1
			c0-0.3,0.1-0.4,0.4-0.4c2.3,0,4.7,0,7,0c0.3,0,0.4,0.1,0.4,0.4c0,1.8,0,3.7,0,5.5S19.9,19.7,19.9,21.5z M22,16.3
			c-0.2,0-0.4,0-0.5,0c0,0,0,0,0,0c-0.2,0-0.4,0-0.5,0c-0.2,0-0.3-0.1-0.3-0.4c0-0.2,0.1-0.3,0.3-0.4c0.4,0,0.7,0,1.1,0
			c0.2,0,0.3,0.2,0.3,0.4C22.3,16.2,22.2,16.3,22,16.3z M24.4,16.3c-0.2,0-0.4,0-0.6,0c0,0,0,0,0,0c-0.2,0-0.3,0-0.5,0
			c-0.2,0-0.3-0.1-0.3-0.4c0-0.2,0.1-0.4,0.3-0.4c0.4,0,0.7,0,1.1,0c0.2,0,0.3,0.1,0.3,0.3C24.8,16.2,24.6,16.3,24.4,16.3z"/>
	</g>
</g>
</svg>
