<?xml version="1.0" encoding="utf-8"?>
<!-- Generator: Adobe Illustrator 22.1.0, SVG Export Plug-In . SVG Version: 6.00 Build 0)  -->
<svg version="1.1" id="Layer_1" xmlns="http://www.w3.org/2000/svg" xmlns:xlink="http://www.w3.org/1999/xlink" x="0px" y="0px"
	 viewBox="0 0 32 32" style="enable-background:new 0 0 32 32;" xml:space="preserve">
<title>spring_boot</title>
<g>
	<path d="M13.8,19.3c-0.9,0.3-1.7,0.7-2.3,1.5c-0.1,0.1-0.2,0.3-0.3,0.4c-0.1,0.2-0.2,0.3,0,0.5c0.2,0.2,0.3,0.1,0.4-0.1
		c0.5-0.8,1.3-1.4,2.2-1.7c0.2-0.1,0.4-0.1,0.6,0c1.4,0.7,2.9,0.6,4.3,0c0.2-0.1,0.3-0.1,0.5,0c0.7,0.2,1.4,0.6,1.9,1.2
		c0.2,0.2,0.3,0.2,0.4,0c0.1-0.2,0.3-0.3,0.6-0.3c1.8-0.2,3.6-0.3,5.4-0.8c0.3-0.1,0.4,0,0.4,0.3c0,2,0,4,0,6.1
		c0,0.3-0.1,0.4-0.4,0.5c-1.5,0.3-3,0.5-4.6,0.7c-3,0.3-6.1,0.4-9.2,0.3c-3.1-0.1-6.1-0.3-9.1-0.9c-0.3-0.1-0.5-0.2-0.5-0.5
		c0-2,0-4,0-6C4.2,20,4.2,20,4.6,20c1.5,0.4,3.1,0.5,4.7,0.7c0.4,0,0.9-0.1,1.2,0.2c0.1,0.1,0.2-0.1,0.2-0.2
		c0.5-0.8,1.2-1.3,2.1-1.7C13.2,19,13.5,19,13.8,19.3z"/>
	<path d="M4.2,8.8c0-1.1,0-2.2,0-3.2c0-0.3,0.1-0.4,0.4-0.4c1.5-0.3,3-0.5,4.6-0.7c2.9-0.3,5.8-0.4,8.7-0.3c3.2,0.1,6.4,0.3,9.6,0.9
		c0.4,0.1,0.5,0.2,0.5,0.6c0,2.1,0,4.2,0,6.4c0,0.3,0,0.4-0.4,0.3c-1.7-0.4-3.5-0.6-5.2-0.7c-0.3,0-0.5-0.1-0.7-0.4
		c-1.6-1.8-3.7-2.7-6.1-2.5c-1.8,0.1-3.4,0.9-4.7,2.3c-0.3,0.4-0.7,0.5-1.2,0.5c-1.7,0.1-3.3,0.3-4.9,0.7c-0.3,0.1-0.5,0.1-0.4-0.3
		C4.2,11,4.2,9.9,4.2,8.8z"/>
	<path d="M16.5,19.3c-2.2,0-4-1.8-4-4c0-2.2,1.8-4,4-3.9c2.2,0,4,1.8,4,4C20.5,17.5,18.7,19.3,16.5,19.3z"/>
	<path d="M9.8,20.2c-0.7,0-1.4-0.1-2.1-0.2c-1.1-0.1-2.2-0.3-3.3-0.5c-0.2-0.1-0.3-0.1-0.3-0.4c0-1.9,0-3.9,0-5.8
		c0-0.2,0.1-0.3,0.3-0.4c1.5-0.3,3.1-0.5,4.6-0.6c0.2,0,0.4-0.1,0.6,0C8.3,14.9,8.3,17.5,9.8,20.2z"/>
	<path d="M22.3,12.2c1.8,0.2,3.6,0.4,5.3,0.7c0.2,0,0.3,0.2,0.3,0.4c0,1.9,0,3.8,0,5.7c0,0.3-0.1,0.4-0.3,0.4
		c-1.6,0.3-3.3,0.5-5,0.7c-0.1,0-0.2,0.1-0.3,0c-0.1-0.1,0-0.2,0.1-0.2c1.3-2.4,1.4-4.9,0-7.4c0,0-0.1-0.1-0.1-0.1
		C22.3,12.3,22.3,12.3,22.3,12.2z"/>
	<path d="M11.1,14.8C10.6,13.8,11,12,12,11c0.9-1,2.7-1.5,4-1c-1.4,0-2.6,0.4-3.5,1.3C11.5,12.2,11.1,13.4,11.1,14.8z"/>
	<path d="M11.8,15.5c-0.4-2.1,0.6-4,2.5-4.7c0.8-0.3,1.5-0.3,2.3-0.1c0,0.2-0.1,0.1-0.2,0.1c-0.1,0-0.3,0-0.4,0c-2,0.2-3.9,2-4,4
		c-0.1,0.2,0,0.4,0,0.5C11.9,15.4,12,15.5,11.8,15.5z"/>
	<path d="M13,18.5c-1.1,0.4-1.9,1.1-2.6,2c-0.1,0.1-0.1,0.3-0.3,0.1c-0.1-0.1-0.4-0.3-0.2-0.5c0.6-0.8,1.4-1.5,2.4-1.8
		C12.5,18.2,12.5,18.2,13,18.5z"/>
	<path d="M11.8,15.5c0.2-0.2,0-0.5,0.1-0.7c0,0.3,0,0.6,0,1C11.9,15.7,11.8,15.6,11.8,15.5z"/>
	<path d="M16,10.8c0.2-0.2,0.4,0,0.6-0.1c0.1,0,0.2,0,0.3,0.1C16.6,10.8,16.3,10.8,16,10.8z"/>
</g>
</svg>
