<!-- Generated by IcoMoon.io -->
<svg version="1.1" xmlns="http://www.w3.org/2000/svg" width="32" height="32" viewBox="0 0 32 32">
<title>spring_web_services</title>
<path d="M13.5 18.2c1.7 0 3.4 0 5.1 0 0.3 0 0.3-0.1 0.3-0.3s0-0.4-0.3-0.4c-0.8 0-1.7 0-2.5 0s-1.7 0-2.5 0c-0.3 0-0.3 0.1-0.3 0.4-0.2 0.2-0.1 0.3 0.2 0.3z"></path>
<path d="M18.5 18.8c-1.7 0-3.3 0-5 0-0.3 0-0.4 0.1-0.4 0.3 0 0.3 0.1 0.4 0.3 0.4 0.8 0 1.7 0 2.5 0s1.7 0 2.5 0c0.3 0 0.4-0.1 0.4-0.4s-0.1-0.3-0.3-0.3z"></path>
<path d="M18.5 20.1c-1.7 0-3.4 0-5 0-0.3 0-0.3 0.1-0.3 0.4s0.1 0.3 0.4 0.3c0.8 0 1.6 0 2.5 0 0.8 0 1.7 0 2.5 0 0.3 0 0.4-0.1 0.4-0.3-0.2-0.3-0.2-0.4-0.5-0.4z"></path>
<path d="M14.5 15.7c0.3-0.1 0.1-0.3 0-0.4-0.4-1-0.5-1.9 0-2.9 0-0.1 0.1-0.2 0.1-0.3s0.2-0.3 0-0.3c-0.2 0-0.5-0.2-0.6 0.1-0.2 0.6-0.3 1.2-0.5 1.8 0.2 0.6 0.3 1.2 0.5 1.8-0.1 0.3 0.2 0.3 0.5 0.2z"></path>
<path d="M15.5 15.7c0.3 0.1 0.4-0.1 0.4-0.3 0.3-1.1 0.6-2.2 0.9-3.3 0.1-0.2-0.1-0.3-0.2-0.3-0.2 0-0.4-0.1-0.5 0.2-0.3 1.1-0.6 2.3-0.9 3.4-0.1 0.3 0.1 0.4 0.3 0.3z"></path>
<path d="M17.5 15.2c-0.1 0.2-0.2 0.4 0.2 0.5 0.3 0 0.5 0.1 0.5-0.3 0.1-0.3 0.2-0.7 0.3-1 0.1-0.4 0.2-0.9 0-1.3-0.1-0.4-0.2-0.7-0.3-1.1 0-0.2-0.1-0.3-0.3-0.2-0.4 0-0.5 0.1-0.4 0.5s0.2 0.8 0.3 1.3c0 0.1 0 0.3 0 0.4 0 0.4-0.1 0.8-0.3 1.2z"></path>
<path d="M28.2 16.4c-0.5 1-1.1 1.1-1.8 1-0.6-0.1-1.1-0.8-1.1-1.4s0.4-1.3 1-1.4c0.7-0.2 1.3-0.1 1.9 1-0.1-6.1-5.4-12.6-13.6-11.8-6.5 0.7-10.8 6.3-10.8 11.7 0.6-1 1.2-1.1 1.8-0.9 0.6 0.1 1.1 0.8 1.1 1.4s-0.4 1.2-1 1.4c-0.4 0.1-0.8 0.1-1.1-0.1-0.4-0.2-0.6-0.5-0.8-0.9 0.3 4.6 2.4 8.3 6.6 10.4 4.8 2.4 9.4 1.7 13.6-1.6 2.2-1.7 4.6-6.7 4.2-8.8zM8.9 16.3c-0.2 0-0.4 0-0.5 0-0.3 0-0.5 0-0.7-0.1-0.1-0.1-0.2-0.1-0.2-0.3s0.1-0.3 0.2-0.3c0.4-0.1 0.9-0.1 1.3 0 0.2 0 0.2 0.2 0.2 0.4s-0.1 0.3-0.3 0.3zM11.2 16.3c-0.2 0-0.4 0-0.5 0-0.3 0-0.5 0-0.7-0.1-0.1-0.1-0.2-0.1-0.2-0.3s0.1-0.3 0.2-0.3c0.4-0.1 0.9-0.1 1.3 0 0.2 0 0.2 0.2 0.2 0.4s-0.1 0.3-0.3 0.3zM19.9 21.5c0 0.3-0.1 0.4-0.4 0.4-2.4 0-4.7 0-7.1 0-0.3 0-0.4-0.1-0.4-0.4 0-3.7 0-7.4 0-11.1 0-0.3 0.1-0.4 0.4-0.4 2.3 0 4.7 0 7 0 0.3 0 0.4 0.1 0.4 0.4 0 1.8 0 3.7 0 5.5s0.1 3.8 0.1 5.6zM22 16.3c-0.2 0-0.4 0-0.5 0 0 0 0 0 0 0-0.2 0-0.4 0-0.5 0-0.2 0-0.3-0.1-0.3-0.4 0-0.2 0.1-0.3 0.3-0.4 0.4 0 0.7 0 1.1 0 0.2 0 0.3 0.2 0.3 0.4-0.1 0.3-0.2 0.4-0.4 0.4zM24.4 16.3c-0.2 0-0.4 0-0.6 0 0 0 0 0 0 0-0.2 0-0.3 0-0.5 0s-0.3-0.1-0.3-0.4c0-0.2 0.1-0.4 0.3-0.4 0.4 0 0.7 0 1.1 0 0.2 0 0.3 0.1 0.3 0.3 0.1 0.4-0.1 0.5-0.3 0.5z"></path>
</svg>
