<!-- Generated by IcoMoon.io -->
<svg version="1.1" xmlns="http://www.w3.org/2000/svg" width="32" height="32" viewBox="0 0 32 32">
<title>spring_cloud_data_flow</title>
<path d="M16.6 7.6c3.4 0 6.5 2.4 7.3 5.5l0.1 0.4 0.4 0.1c2 0.6 3.3 2.3 3.3 4.4 0 1.2-0.5 2.3-1.3 3.2-0.9 0.8-2 1.3-3.2 1.3h-13.3c-3 0-5.3-2.3-5.3-5.2 0-2.7 2.1-4.9 4.8-5.2h0.4l0.2-0.3c1-2.5 3.7-4.2 6.6-4.2zM16.6 6.9c-3.1 0-6.1 1.9-7.3 4.5-3 0.3-5.4 2.7-5.4 5.8 0 3.3 2.7 5.8 5.9 5.8h13.3c2.9 0 5.2-2.3 5.2-5.1 0-2.3-1.5-4.4-3.8-5-0.8-3.5-4.3-6-7.9-6z"></path>
<path d="M11.6 19.4c0.2 0 0.4 0 0.4 0.1 0.1 0.1 0.2 0.3 0.2 1s-0.1 0.8-0.2 1c-0.1 0.1-0.2 0.1-0.4 0.1h-0.5c-0.2 0-0.3 0-0.4-0.1s-0.2-0.3-0.2-1 0.1-0.9 0.2-1c0.1-0.1 0.2-0.1 0.4-0.1h0.5zM11.2 19.8c-0.1 0-0.2 0-0.2 0s0 0.2 0 0.7c0 0.5 0 0.6 0.1 0.6 0 0 0.1 0 0.2 0h0.3c0.1 0 0.2 0 0.2 0s0.1-0.1 0.1-0.6c0-0.5 0-0.6-0.1-0.6s-0.1 0-0.2 0h-0.4z"></path>
<path d="M13.5 21.1v-1.5l-0.3 0.1-0.1-0.3 0.5-0.2h0.4v1.9h-0.5z"></path>
<path d="M15.9 18.7c0.2 0 0.3 0 0.3 0.1 0.1 0.1 0.2 0.3 0.2 0.7 0 0.5-0.1 0.6-0.2 0.7s-0.2 0.1-0.3 0.1h-0.4c-0.2 0-0.3 0-0.3-0.1-0.1 0-0.2-0.2-0.2-0.7s0.1-0.6 0.2-0.7c0.1-0.1 0.2-0.1 0.3-0.1h0.4zM15.6 19c-0.1 0-0.1 0-0.1 0s-0.1 0.1-0.1 0.5c0 0.4 0 0.5 0.1 0.5 0 0 0 0 0.1 0h0.2c0.1 0 0.1 0 0.1 0s0.1-0.1 0.1-0.5 0-0.5-0.1-0.5 0 0-0.1 0h-0.2z"></path>
<path d="M17.4 19.6v-1.2l-0.2 0.1-0.1-0.2 0.4-0.1h0.3v1.5h-0.4z"></path>
<path d="M18.8 18.7v-1.1l-0.2 0.1-0.1-0.2 0.4-0.1h0.2v1.3h-0.3z"></path>
<path d="M20.2 16.5c0.1 0 0.2 0 0.2 0.1 0.1 0.1 0.1 0.2 0.1 0.5s-0.1 0.4-0.1 0.5c-0.1 0-0.1 0.1-0.2 0.1h-0.2c-0.1 0-0.2 0-0.2-0.1-0.1-0.1-0.1-0.2-0.1-0.5s0-0.4 0.1-0.5c0.1 0 0.1-0.1 0.2-0.1h0.2zM20 16.7c-0.1 0-0.1 0 0 0-0.1 0-0.1 0.1-0.1 0.3 0 0.3 0 0.3 0 0.3s0 0 0.1 0h0.1c0.1 0 0.1 0 0.1 0s0-0.1 0-0.3 0-0.3 0-0.3 0 0-0.1 0h-0.1z"></path>
<path d="M21.1 15.5c0.1 0 0.1 0 0.2 0s0.1 0.1 0.1 0.4c0 0.3 0 0.3-0.1 0.4-0.1 0-0.1 0.1-0.2 0h-0.2c-0.1 0-0.1 0-0.2 0s-0.1-0.1-0.1-0.4c0-0.3 0-0.3 0.1-0.4 0.1 0 0.1-0.1 0.2 0h0.2zM21 15.7c-0.1 0-0.1 0 0 0-0.1 0-0.1 0.1-0.1 0.3s0 0.2 0 0.3c0 0 0 0 0.1 0h0.1c0 0 0.1 0 0.1 0s0 0 0-0.3c0-0.2 0-0.2 0-0.3 0 0 0 0-0.1 0h-0.1z"></path>
<path d="M21.8 14.6c0 0 0.1 0 0.1 0s0.1 0.1 0.1 0.3c0 0.2 0 0.2-0.1 0.3 0 0-0.1 0-0.1 0h-0.1c0 0-0.1 0-0.1 0s-0.1-0.1-0.1-0.3c0-0.2 0-0.3 0.1-0.3 0 0 0.1 0 0.1 0h0.1zM21.7 14.7c0 0 0 0 0 0-0.1 0-0.1 0-0.1 0.2s0 0.2 0 0.2 0 0 0.1 0h0.1c0 0 0 0 0.1 0 0 0 0 0 0-0.2s0-0.2 0-0.2-0.1 0-0.2 0v0z"></path>
<path d="M23.4 7.9c-0.7 2-3.2 3.6-5.1 4.1-1.9 0.4-3.5 0.1-5.2 0.7-3.4 1.3-3.7 4.5-2.5 6.3 0.1 0.1 4.4-0.2 6.6-1.1 2.8-1.2 4.5-3.5 5-4.4 0.1-0.1 0.2-0.1 0.3-0.1s0.2 0.1 0.2 0.3c-0.6 2.5-2.1 4.6-4.3 5.9-1.5 0.9-2.7 1.3-3.5 1.6-0.1 0-0.1 0.1 0 0.1 2.1 0 6.8 0.3 8.7-2.2 2.2-3 1-7.8-0.2-11.2z"></path>
</svg>
