<?xml version="1.0" encoding="utf-8"?>
<!-- Generator: Adobe Illustrator 22.1.0, SVG Export Plug-In . SVG Version: 6.00 Build 0)  -->
<svg version="1.1" id="Layer_1" xmlns="http://www.w3.org/2000/svg" xmlns:xlink="http://www.w3.org/1999/xlink" x="0px" y="0px"
	 viewBox="0 0 32 32" style="enable-background:new 0 0 32 32;" xml:space="preserve">
<title>spring_boot</title>
<g>
	<path d="M9.8,13.7c0.4,0.4,0.7,0.8,1.1,1.1c0.2,0.2,0.3,0.2,0.4,0c2.5-2.5,5-5,7.6-7.6c0.3-0.3,0.6-0.5,1.1-0.5
		c0.5,0,0.8,0.2,1.1,0.5c2,2,4.1,4.1,6.1,6.1c0.6,0.6,1.1,1.1,1.7,1.7c0.6,0.6,0.6,1.5,0,2.1c-2.6,2.6-5.2,5.2-7.8,7.8
		c-0.5,0.5-1.6,0.6-2.2,0c-0.7-0.7-1.4-1.4-2.1-2.1c-0.1-0.1-0.1-0.2,0-0.3c0.6-0.5,1.1-1.1,1.7-1.7c0.1-0.2,0.2-0.1,0.4,0
		c0.3,0.3,0.6,0.6,0.9,1c0.1,0.1,0.2,0.2,0.4,0c1.7-1.7,3.3-3.3,5-5c0.2-0.2,0.4-0.4,0.6-0.6c0.2-0.2,0.1-0.3,0-0.4
		c-0.9-0.9-1.7-1.7-2.6-2.6c-1-1-2-1.9-2.9-2.9c-0.2-0.2-0.3-0.2-0.4,0c-2.2,2.2-4.3,4.3-6.5,6.5c-0.2,0.2-0.2,0.2,0,0.4
		c0.4,0.3,0.7,0.7,1.1,1.1c-0.1,0.1-0.2,0.1-0.2,0.1c-1.4,0-2.8,0-4.1,0c-0.2,0-0.3,0-0.3-0.2c0-1.4,0-2.9,0-4.3
		C9.7,13.8,9.7,13.8,9.8,13.7z"/>
	<path d="M17.7,13.8c-0.1,0-0.1-0.1,0-0.1c0,0,0.1,0,0.2,0c1.4,0,2.8,0,4.1,0c0.2,0,0.3,0,0.3,0.2c0,1.4,0,2.9,0,4.3
		c0,0,0,0.1,0,0.2c-0.4-0.4-0.7-0.8-1.1-1.1c-0.2-0.2-0.3-0.2-0.5,0c-2.5,2.5-5,5-7.5,7.5c-0.3,0.3-0.7,0.5-1.2,0.5
		c-0.4,0-0.8-0.2-1.1-0.5c-2.6-2.6-5.2-5.2-7.8-7.8c-0.6-0.6-0.6-1.6,0-2.2c2.6-2.6,5.2-5.2,7.8-7.8c0.7-0.7,1.5-0.7,2.2,0
		c0.7,0.7,1.4,1.4,2.1,2.1c0.1,0.1,0.2,0.2,0,0.3c-0.6,0.5-1.1,1.1-1.7,1.7c-0.2,0.2-0.2,0.1-0.4,0c-0.3-0.3-0.6-0.6-0.9-1
		c-0.1-0.1-0.2-0.2-0.3,0C10,12.1,8.1,14,6.3,15.9c-0.1,0.1-0.1,0.2,0,0.3c1.9,1.9,3.7,3.7,5.6,5.6c0.1,0.1,0.2,0.1,0.3,0
		c2.2-2.2,4.4-4.4,6.5-6.5c0.1-0.1,0.1-0.2,0-0.4C18.4,14.5,18.1,14.2,17.7,13.8c0.1-0.1,0.1,0,0.2,0c1.3,0,2.7,0,4,0
		c0,0,0.1,0,0.1,0c-1.3,0-2.6,0-4,0C17.9,13.8,17.8,13.8,17.7,13.8z"/>
	<path d="M9.9,18.2c1.4,0,2.9,0,4.3,0c0,0,0,0,0,0C12.7,18.3,11.3,18.3,9.9,18.2C9.9,18.3,9.9,18.3,9.9,18.2z"/>
	<path d="M17.7,13.8c0.1-0.1,0.2-0.1,0.2-0.1c1.4,0,2.7,0,4.1,0c0,0,0.1,0,0.1,0.1C20.7,13.8,19.2,13.8,17.7,13.8
		C17.7,13.8,17.7,13.8,17.7,13.8z"/>
</g>
</svg>
