<?xml version="1.0" encoding="utf-8"?>
<!-- Generator: Adobe Illustrator 22.1.0, SVG Export Plug-In . SVG Version: 6.00 Build 0)  -->
<svg version="1.1" id="Layer_1" xmlns="http://www.w3.org/2000/svg" xmlns:xlink="http://www.w3.org/1999/xlink" x="0px" y="0px"
	 viewBox="0 0 32 32" style="enable-background:new 0 0 32 32;" xml:space="preserve">
<title>spring_boot</title>
<g>
	<path d="M28.7,11c-0.1-1.2-0.7-2.2-1.4-3.1c-0.9-1.1-2-1.9-3.3-2.5c-1.6-0.8-3.3-1.1-5.1-1.2c-1.2-0.1-2.4,0-3.6,0.3
		c-0.5,0.1-0.9,0.2-1.4,0.4c0.4,0,0.8-0.1,1.2-0.1c1.4,0,2.8,0,4.2,0.3c1.7,0.4,3.4,0.9,4.9,1.9c1.5,1,2.8,2.2,3.6,3.9
		c0.4,0.8,0.7,1.7,0.7,2.8c0.2-0.5,0.2-0.9,0.3-1.2c0-0.4,0-0.8,0-1.2C28.7,11.1,28.7,11,28.7,11z"/>
	<path d="M25.3,12.7c-0.9-1.7-2.2-3-3.9-3.9c-2-1.2-4.2-1.7-6.5-1.8c-1.2,0-2.4,0.1-3.6,0.4C8.9,8,6.8,9,5.1,10.9
		c-1.1,1.3-1.8,2.8-1.9,4.5c-0.1,1.5,0.3,2.9,1.1,4.2c0.3,0.4,0.6,0.8,0.8,1.3c0.6,1.1,0.5,2.4,0.3,3.6c-0.2,0.7-0.4,1.4-0.7,2.1
		c0.2,0,0.3-0.1,0.3-0.1c1.5-0.7,3.1-1.3,4.6-2c0.4-0.2,0.8-0.4,1.3-0.2c0.9,0.3,1.8,0.4,2.7,0.5c1.3,0.1,2.7,0.1,4-0.2
		c1.8-0.4,3.5-1,5-2.1c1.1-0.8,2-1.7,2.6-2.9c0.7-1.3,1.1-2.7,0.9-4.3C26,14.4,25.8,13.5,25.3,12.7z M9.8,17.4
		c-0.8,0-1.4-0.7-1.4-1.4c0-0.6,0.8-1.4,1.4-1.4c0.8,0.1,1.4,0.6,1.4,1.4C11.2,16.7,10.5,17.3,9.8,17.4z M14.5,17.4
		c-0.8,0-1.4-0.6-1.4-1.4c0-0.9,0.5-1.4,1.4-1.4c0.8,0,1.4,0.6,1.4,1.4C15.9,16.7,15.3,17.4,14.5,17.4z M19.2,17.4
		c-0.8,0-1.4-0.6-1.4-1.4c0-0.7,0.6-1.4,1.4-1.4c0.9,0,1.4,0.6,1.4,1.5C20.6,16.8,19.9,17.4,19.2,17.4z"/>
	<path d="M25.3,8.9C24.3,8,23.2,7.3,22,6.8c-1.5-0.7-3.1-1.1-4.8-1.2c-1.6-0.1-3.2,0-4.7,0.3c-0.7,0.2-1.5,0.4-2.2,0.8
		c0.9-0.2,1.8-0.4,2.8-0.4c1.3-0.1,2.7-0.1,4,0.2c2.9,0.6,5.5,1.8,7.5,4c0.8,0.9,1.4,1.8,1.7,2.9c0.4,1.2,0.5,2.5,0.4,3.8
		c0.1-0.1,0.1-0.1,0.1-0.2c0-0.1,0.1-0.1,0.1-0.2c0.5-1.2,0.8-2.4,0.6-3.6C27.3,11.5,26.5,10.1,25.3,8.9z"/>
</g>
</svg>
