<?xml version="1.0" encoding="utf-8"?>
<!-- Generator: Adobe Illustrator 22.1.0, SVG Export Plug-In . SVG Version: 6.00 Build 0)  -->
<svg version="1.1" id="Layer_1" xmlns="http://www.w3.org/2000/svg" xmlns:xlink="http://www.w3.org/1999/xlink" x="0px" y="0px"
	 viewBox="0 0 32 32" style="enable-background:new 0 0 32 32;" xml:space="preserve">
<title>spring_boot</title>
<g>
	<path d="M28.6,11c-0.5-1.2-1.3-2.1-2.2-2.9c-1.3-1-2.7-1.5-4.3-1.7c-0.2,0-0.5,0-0.7,0c-0.6,0-1.2,0-1.8,0c-0.1,0-0.1,0.1-0.2,0.1
		c-1,0-1.9,0.3-2.8,0.7c-0.5,0.2-1,0.4-1.5,0.7C15.6,8,16,8,16.4,8.1c2.3,0.4,4.3,1.3,5.9,3c1.4,1.5,2.2,3.2,2,5.3
		c-0.1,0.9-0.3,1.7-0.8,2.5c-0.1,0.2-0.1,0.2,0.1,0.3c0.9,0.4,1.8,0.8,2.8,1.2c0.4,0.2,0.8,0.4,1.3,0.6c-0.3-0.8-0.5-1.5-0.6-2.3
		c-0.1-0.9,0-1.7,0.5-2.4c0.4-0.5,0.7-1.1,0.9-1.7c0.1-0.4,0.2-0.7,0.3-1.1c0-0.4,0-0.8,0-1.3C28.7,11.9,28.7,11.5,28.6,11z"/>
	<path d="M19.5,10.1c-1.6-1-3.4-1.6-5.3-1.7c-1.8-0.1-3.7,0.1-5.4,0.8c-2.2,0.9-4.1,2.2-5.1,4.5c-0.5,1.2-0.7,2.4-0.4,3.7
		c0.2,1,0.6,1.9,1.2,2.7c0.9,1.2,0.8,2.5,0.5,3.8C5,24.4,4.7,25,4.5,25.6c0.2-0.1,0.3-0.1,0.4-0.1c1.4-0.6,2.8-1.2,4.2-1.8
		c0.3-0.1,0.6-0.2,0.9-0.1c1.5,0.4,3,0.6,4.5,0.4c1.2-0.1,2.4-0.4,3.5-0.8c1.4-0.6,2.7-1.4,3.7-2.6c0.9-1.1,1.5-2.3,1.6-3.7
		c0.1-1.2-0.1-2.3-0.6-3.4C22,12,20.9,10.9,19.5,10.1z M18.4,16.9c-0.2,0.3-0.6,0.5-1,0.4c-0.4-0.1-0.7-0.4-0.8-0.8
		c-0.1-0.4-0.6-0.7-1-0.5c-0.2,0.1-0.4,0.2-0.6,0.1c-0.5-0.2-0.7,0.2-1.1,0.4c-0.1,0,0,0.1,0,0.2c0.1,0.3,0,0.7-0.2,0.9
		c0,0-0.1,0.1-0.1,0.1c0,0.2,0.7,0.9,0.9,0.9c0.6-0.1,1.1,0.4,1.1,1c0,0.5-0.5,1-1.1,1c-0.6,0-1-0.6-0.9-1.2c0-0.3-0.4-1-0.7-1.1
		c-0.1,0-0.1,0-0.2,0c-0.5,0.2-0.9,0-1.4-0.3c-0.4-0.3-0.9-0.2-1.1,0.3c-0.3,0.8-1.1,1-1.8,0.5c-0.3-0.2-0.4-0.5-0.4-0.8
		c0-0.6,0.2-0.9,0.6-1.1c0.5-0.3,0.9-0.2,1.3,0.2c0.3,0.3,0.5,0,0.7,0c0.2,0,0.1-0.2,0.2-0.3c0.1-0.3,0.2-0.7,0.4-0.9
		c0.4-0.4,0.3-0.8-0.3-0.9c-0.7-0.2-1.2-0.9-0.9-1.6c0.2-0.5,0.5-0.8,1-0.8c0.5-0.1,1,0.1,1.3,0.6c0.3,0.4,0.3,0.9,0,1.4
		c-0.2,0.2-0.4,0.4-0.2,0.8c0.1,0.1,0.1,0.2,0.2,0.2c0.3,0,0.6,0.1,0.8,0.3c0.2,0.1,0.3,0,0.4,0c0.1-0.1,0.4-0.1,0.4-0.4
		c-0.1-0.4,0-0.8,0.3-1.1c0.2-0.2,0-0.6-0.2-0.7c-0.5-0.3-0.7-0.8-0.4-1.3c0.2-0.4,0.8-0.5,1.2-0.3c0.4,0.3,0.5,0.8,0.2,1.2
		c-0.2,0.4-0.2,0.7,0.2,0.8c0.4,0.2,0.7,0.5,0.7,0.9c0.1,0.4,0.5,0.6,0.9,0.4c0.5-0.3,0.9-0.2,1.3,0.2C18.7,16,18.7,16.4,18.4,16.9z
		"/>
</g>
</svg>
