<!-- Generated by IcoMoon.io -->
<svg version="1.1" xmlns="http://www.w3.org/2000/svg" width="32" height="32" viewBox="0 0 32 32">
<title>spring_amqp</title>
<path d="M28.7 11c-0.1-1.2-0.7-2.2-1.4-3.1-0.9-1.1-2-1.9-3.3-2.5-1.6-0.8-3.3-1.1-5.1-1.2-1.2-0.1-2.4 0-3.6 0.3-0.5 0.1-0.9 0.2-1.4 0.4 0.4 0 0.8-0.1 1.2-0.1 1.4 0 2.8 0 4.2 0.3 1.7 0.4 3.4 0.9 4.9 1.9s2.8 2.2 3.6 3.9c0.4 0.8 0.7 1.7 0.7 2.8 0.2-0.5 0.2-0.9 0.3-1.2 0-0.4 0-0.8 0-1.2-0.1-0.2-0.1-0.3-0.1-0.3z"></path>
<path d="M25.3 12.7c-0.9-1.7-2.2-3-3.9-3.9-2-1.2-4.2-1.7-6.5-1.8-1.2 0-2.4 0.1-3.6 0.4-2.4 0.6-4.5 1.6-6.2 3.5-1.1 1.3-1.8 2.8-1.9 4.5-0.1 1.5 0.3 2.9 1.1 4.2 0.3 0.4 0.6 0.8 0.8 1.3 0.6 1.1 0.5 2.4 0.3 3.6-0.2 0.7-0.4 1.4-0.7 2.1 0.2 0 0.3-0.1 0.3-0.1 1.5-0.7 3.1-1.3 4.6-2 0.4-0.2 0.8-0.4 1.3-0.2 0.9 0.3 1.8 0.4 2.7 0.5 1.3 0.1 2.7 0.1 4-0.2 1.8-0.4 3.5-1 5-2.1 1.1-0.8 2-1.7 2.6-2.9 0.7-1.3 1.1-2.7 0.9-4.3-0.1-0.9-0.3-1.8-0.8-2.6zM9.8 17.4c-0.8 0-1.4-0.7-1.4-1.4 0-0.6 0.8-1.4 1.4-1.4 0.8 0.1 1.4 0.6 1.4 1.4 0 0.7-0.7 1.3-1.4 1.4zM14.5 17.4c-0.8 0-1.4-0.6-1.4-1.4 0-0.9 0.5-1.4 1.4-1.4 0.8 0 1.4 0.6 1.4 1.4 0 0.7-0.6 1.4-1.4 1.4zM19.2 17.4c-0.8 0-1.4-0.6-1.4-1.4 0-0.7 0.6-1.4 1.4-1.4 0.9 0 1.4 0.6 1.4 1.5 0 0.7-0.7 1.3-1.4 1.3z"></path>
<path d="M25.3 8.9c-1-0.9-2.1-1.6-3.3-2.1-1.5-0.7-3.1-1.1-4.8-1.2-1.6-0.1-3.2 0-4.7 0.3-0.7 0.2-1.5 0.4-2.2 0.8 0.9-0.2 1.8-0.4 2.8-0.4 1.3-0.1 2.7-0.1 4 0.2 2.9 0.6 5.5 1.8 7.5 4 0.8 0.9 1.4 1.8 1.7 2.9 0.4 1.2 0.5 2.5 0.4 3.8 0.1-0.1 0.1-0.1 0.1-0.2s0.1-0.1 0.1-0.2c0.5-1.2 0.8-2.4 0.6-3.6-0.2-1.7-1-3.1-2.2-4.3z"></path>
</svg>
