<!-- Generated by IcoMoon.io -->
<svg version="1.1" xmlns="http://www.w3.org/2000/svg" width="32" height="32" viewBox="0 0 32 32">
<title>spring_boot</title>
<path d="M28.2 14.7l-4.9-8.5c-0.4-0.7-1.5-1.3-2.3-1.3h-9.8c-0.9 0-1.9 0.6-2.3 1.3l-4.9 8.5c-0.4 0.7-0.4 1.9 0 2.7l4.9 8.5c0.4 0.7 1.5 1.3 2.3 1.3h9.8c0.9 0 1.9-0.6 2.3-1.3l4.9-8.5c0.4-0.8 0.4-2 0-2.7zM14.9 9.5c0-0.6 0.4-1 1-1s1 0.4 1 1c0 0 0 0 0 0.1v6.1c0 0.6-0.4 1-1 1s-1-0.4-1-1c0 0 0 0 0-0.1v-6.1zM16 22.4c-3.8 0-6.9-3.1-6.9-6.9 0-2.2 1-4.2 2.8-5.5 0.4-0.3 1-0.2 1.3 0.2s0.2 1-0.2 1.3c-2.2 1.7-2.7 4.8-1 7.1s4.8 2.7 7.1 1c1.3-1 2-2.5 2-4.1s-0.8-3.1-2.1-4.1c-0.4-0.3-0.5-0.9-0.2-1.3s0.9-0.5 1.3-0.2v0c3.1 2.3 3.7 6.6 1.4 9.6-1.3 1.9-3.4 2.9-5.5 2.9z"></path>
</svg>
