<!-- Generated by IcoMoon.io -->
<svg version="1.1" xmlns="http://www.w3.org/2000/svg" width="32" height="32" viewBox="0 0 32 32">
<title>spring_mobile</title>
<path d="M7.3 25.5c0.2 0.3 0.6 0.4 1 0.4 2.4 0 4.7 0 7.1 0 0.8 0 1.7 0 2.5 0 0.5 0 0.5 0 0.5-0.5 0-0.4 0-0.8 0-1.2 0-0.2-0.1-0.3-0.3-0.3-0.1 0-0.2 0-0.3 0-2.9 0-5.8 0-8.6 0-0.7 0-0.7 0-0.7-0.7 0-5.4 0-10.9 0-16.3 0-0.1 0-0.2 0-0.3 0-0.2 0.1-0.3 0.3-0.4 0.1 0 0.2 0 0.4 0 3.9 0 7.7 0 11.6 0 0.7 0 0.7 0 0.7 0.8 0 3 0 6 0 9 0 0.1 0 0.2 0 0.3 0 0.2 0.1 0.3 0.3 0.3 1.1 0 0.9 0.1 0.9-0.8 0-3.4 0-6.8 0-10.2 0-0.5-0.1-1-0.5-1.3-0.2 0-0.2-0.1-0.2-0.2-4.7 0-9.5 0-14.2 0-0.4 0.2-0.6 0.4-0.8 0.8 0 6.8 0 13.6 0 20.4 0.1 0 0.2 0.1 0.3 0.2zM14.9 24.2c0.4 0 0.6 0.3 0.6 0.7s-0.3 0.6-0.6 0.6c-0.4 0-0.6-0.3-0.6-0.7-0.1-0.3 0.2-0.6 0.6-0.6zM14.4 5c0.3 0 0.5 0 0.8 0 0.2 0 0.3 0.1 0.3 0.3s-0.2 0.2-0.3 0.2c-0.1 0-0.3 0-0.4 0s-0.3 0-0.4 0c-0.2 0-0.3 0-0.3-0.2 0.1-0.3 0.1-0.3 0.3-0.3z"></path>
<path d="M8.4 26.1c2.3 0 4.6 0 6.9 0 0.9 0 1.8 0 2.8 0 0.3 0 0.4-0.1 0.3-0.4 0-0.5 0-1 0-1.5 0-0.3-0.1-0.4-0.4-0.4-3.1 0-6.1 0-9.2 0-0.2 0-0.3 0-0.3-0.3 0-5.6 0-11.2 0-16.9 0-0.2 0.1-0.3 0.3-0.3 4.1 0 8.1 0 12.2 0 0.3 0 0.3 0.1 0.3 0.3 0 0.9 0 1.8 0 2.7 0 2.3 0 4.7 0 7 0 0.3 0.1 0.4 0.3 0.4s0.5 0 0.7 0c0.3 0 0.4-0.1 0.4-0.4 0-3.6 0-7.2 0-10.8 0-0.6-0.2-1.1-0.7-1.4 0 0.1 0 0.1 0.1 0.2 0.5 0.3 0.5 0.8 0.5 1.3 0 3.4 0 6.8 0 10.2 0 0.9 0.2 0.8-0.9 0.8-0.2 0-0.3-0.1-0.3-0.3 0-0.1 0-0.2 0-0.3 0-3 0-6 0-9 0-0.7 0-0.8-0.7-0.8-3.9 0-7.7 0-11.6 0-0.1 0-0.2 0-0.4 0s-0.3 0.1-0.3 0.4c0 0.1 0 0.2 0 0.3 0 5.4 0 10.9 0 16.3 0 0.7 0 0.7 0.7 0.7 2.9 0 5.8 0 8.6 0 0.1 0 0.2 0 0.3 0 0.2 0 0.3 0.1 0.3 0.3 0 0.4 0 0.8 0 1.2 0 0.5 0 0.5-0.5 0.5-0.8 0-1.7 0-2.5 0-2.4 0-4.7 0-7.1 0-0.4 0-0.7-0.1-1-0.4-0.1-0.1-0.1-0.2-0.3-0.2 0.4 0.6 0.9 0.8 1.5 0.8z"></path>
<path d="M24.2 17.4c-1.4 0-2.8 0-4.3 0-0.4 0-0.8 0.4-0.8 0.8 0 1.5 0 3 0 4.4 0 1.5 0 2.9 0 4.4 0 0.6 0.3 0.8 0.8 0.8 1.4 0 2.8 0 4.2 0 0.6 0 0.8-0.3 0.8-0.9 0-2.9 0-5.8 0-8.7 0.1-0.4-0.2-0.8-0.7-0.8zM21.7 18.1c0.2 0 0.4 0 0.6 0s0.2 0.1 0.2 0.2-0.1 0.1-0.2 0.1c-0.1 0-0.2 0-0.3 0s-0.2 0-0.3 0c-0.1 0-0.2 0-0.2-0.2 0-0.1 0.1-0.1 0.2-0.1zM22 27.5c-0.2 0-0.4-0.2-0.4-0.5 0-0.2 0.2-0.5 0.4-0.5 0.3 0 0.5 0.2 0.5 0.5 0 0.2-0.2 0.5-0.5 0.5zM24.1 26.2c-1.4 0-2.8 0-4.1 0-0.2 0-0.3-0.1-0.3-0.3 0-2.1 0-4.3 0-6.4 0-0.2 0.1-0.3 0.3-0.3 1.4 0 2.8 0 4.2 0 0.2 0 0.3 0.1 0.3 0.3 0 1.1 0 2.1 0 3.2s0 2.1 0 3.2c-0.1 0.2-0.1 0.3-0.4 0.3z"></path>
</svg>
