<!-- Generated by IcoMoon.io -->
<svg version="1.1" xmlns="http://www.w3.org/2000/svg" width="32" height="32" viewBox="0 0 32 32">
<title>spring_rest_docs</title>
<path d="M12.2 20c0.2 0.1 0.3 0.1 0.4 0 3.7-2.2 7.4-4.4 11.2-6.5 0.7-0.4 1.4-0.9 2.2-1.3-0.1-0.1-0.2-0.1-0.2-0.2-3.2-1.8-6.4-3.7-9.6-5.5-0.2-0.1-0.3-0.1-0.5 0-3.3 1.9-6.6 3.9-9.9 5.8-1.1 0.6-2.2 1.3-3.3 2 0.1 0.1 0.1 0.1 0.2 0.1 3.1 1.8 6.3 3.7 9.5 5.6zM15.4 8.3c0.1 0 0.3 0 0.4 0.1 1.9 1.1 3.7 2.1 5.6 3.2 0.5 0.3 1 0.6 1.5 0.9-0.2 0.1-0.4 0.3-0.6 0.4-0.1 0-0.2 0-0.3-0.1-1.6-0.9-3.2-1.9-4.8-2.8-0.7-0.4-1.3-0.8-2-1.2-0.2-0.1-0.2-0.1-0.4-0.2 0.3-0.1 0.4-0.3 0.6-0.3zM13.3 9.5c0.1 0 0.2 0 0.2 0 1.7 1 3.4 1.9 5 2.9 0 0 0 0 0.1 0.1-0.2 0.1-0.4 0.2-0.6 0.3-0.1 0-0.2 0-0.2 0-1.7-1-3.4-1.9-5-2.9 0 0-0.1 0-0.1-0.1 0.2-0.1 0.4-0.2 0.6-0.3zM11 10.7c0.1 0 0.2 0 0.3 0.1 1.7 1 3.4 1.9 5.1 2.9 0.3 0.2 0.6 0.4 1 0.6-0.2 0.1-0.4 0.3-0.6 0.4-0.1 0-0.2 0-0.2 0-2-1.1-4-2.3-6-3.4 0 0-0.1-0.1-0.2-0.1 0.2-0.3 0.4-0.4 0.6-0.5z"></path>
<path d="M18.1 20.8c-1.8 1.1-3.6 2.1-5.5 3.2-0.2 0.1-0.3 0.1-0.5 0-0.3-0.2-0.7-0.4-1-0.6-2.3-1.4-4.7-2.8-7.1-4.2-0.1-0.1-0.2-0.1-0.3-0.1-0.4 0.2-0.8 0.5-1.2 0.7 0.1 0.1 0.2 0.2 0.2 0.2 3.2 1.8 6.3 3.7 9.5 5.5 0.2 0.1 0.3 0.1 0.4 0 1.8-1.1 3.6-2.1 5.4-3.2 0.3-0.2 0.6-0.3 0.8-0.5-0.2-0.4-0.4-0.8-0.6-1.2 0.1 0.1 0 0.1-0.1 0.2z"></path>
<path d="M25.2 20c-0.3-0.1-0.4-0.3-0.4-0.6 0-0.1 0-0.1 0-0.2 0-0.2 0.1-0.3 0.2-0.4s0.3-0.2 0.3-0.2c-0.1-0.3-0.1-0.5-0.3-0.8 0-0.1-0.3 0-0.4 0s-0.3 0-0.3 0c-0.2-0.3-0.7-0.5-0.4-1 0 0 0 0 0-0.1 0 0-0.1-0.1-0.2-0.2s-0.3-0.1-0.4-0.2c-0.2-0.1-0.4-0.1-0.5 0.2s-0.3 0.4-0.5 0.3c-0.1 0-0.2 0-0.2 0-0.2 0.1-0.3 0-0.4-0.3-0.2-0.3-0.2-0.3-0.6-0.2-0.1 0-0.2 0.1-0.2 0.1-0.3 0.1-0.3 0.3-0.2 0.5s0.1 0.4-0.1 0.5c-0.1 0-0.1 0.1-0.2 0.2-0.1 0.2-0.3 0.2-0.5 0.1-0.3-0.1-0.4 0-0.5 0.2 0 0.1-0.1 0.2-0.1 0.3-0.1 0.2 0 0.4 0.2 0.4 0.3 0.1 0.4 0.3 0.3 0.5 0 0.1 0 0.2 0 0.3 0 0.2 0 0.3-0.2 0.4-0.4 0.2-0.4 0.2-0.2 0.6 0 0.1 0.1 0.2 0.1 0.3 0.1 0.1 0.3 0.2 0.3 0.2 0.3-0.2 0.6-0.1 0.7 0.2 0 0 0.1 0.1 0.1 0.1 0.2 0.1 0.2 0.2 0.1 0.4-0.1 0.4-0.1 0.5 0.3 0.6 0.1 0 0.2 0.1 0.3 0.1s0.3-0.1 0.3-0.1c0.1-0.4 0.4-0.5 0.7-0.4 0 0 0.1 0 0.1 0 0.2-0.1 0.3 0 0.4 0.2 0.2 0.4 0.2 0.4 0.6 0.2 0.1 0 0.2-0.1 0.3-0.1 0.2-0.1 0.3-0.2 0.2-0.4-0.1-0.3-0.1-0.5 0.2-0.7 0.1 0 0.1-0.1 0.2-0.2 0.1-0.2 0.2-0.2 0.4-0.1 0.4 0.2 0.5 0.1 0.7-0.3 0-0.1 0.1-0.2 0.1-0.2-0.1 0.1-0.1-0.1-0.3-0.2zM22.3 20.5c-0.6 0-1-0.5-1-1 0-0.6 0.5-1 1-1 0.6 0 1 0.5 1 1s-0.4 1-1 1z"></path>
<path d="M12.1 21.1c-2.7-1.6-5.4-3.1-8.1-4.7-0.1-0.1-0.2-0.1-0.3-0.1-0.4 0.2-0.8 0.5-1.2 0.7 0.1 0 0.1 0.1 0.1 0.1 3.2 1.9 6.5 3.8 9.7 5.7 0.1 0 0.2 0 0.3 0 1.8-1.1 3.6-2.1 5.5-3.2 0.1 0 0.2-0.1 0.2-0.2 0.1-0.5 0.1-1 0.2-1.6-0.1 0-0.2 0.1-0.3 0.2-1.8 1-3.5 2.1-5.3 3.1-0.3 0.2-0.5 0.2-0.8 0z"></path>
<path d="M29.3 16.3c-0.1-0.2-0.2-0.3-0.4-0.2-0.3 0.1-0.5 0.1-0.8-0.1 0 0-0.1-0.1-0.2-0.1-0.2 0-0.2-0.2-0.3-0.3 0-0.1-0.1-0.3-0.2-0.4-0.3-0.2-0.9 0-0.9 0.5 0 0.2 0 0.3-0.2 0.4-0.1 0-0.2 0.1-0.2 0.2-0.1 0.2-0.3 0.2-0.6 0.2-0.4 0-0.4 0-0.5 0.4s-0.1 0.4 0.3 0.5c0.2 0.1 0.4 0.2 0.4 0.4 0 0.1 0 0.2 0.1 0.2 0.1 0.2 0.1 0.3 0 0.5-0.2 0.4-0.2 0.4 0.1 0.6 0.4 0.3 0.4 0.3 0.7-0.1 0.1-0.2 0.3-0.2 0.5-0.2 0.1 0 0.2 0 0.3 0 0.2-0.1 0.4 0 0.5 0.2 0.3 0.3 0.3 0.3 0.6 0 0.1-0.1 0.2-0.1 0.2-0.2s0.1-0.3 0.1-0.3c-0.2-0.3-0.2-0.6-0.1-0.9s0.2-0.4 0.4-0.5c0.1 0 0.2-0.2 0.3-0.2 0.1-0.3 0-0.4-0.1-0.6zM27.4 18c-0.4 0-0.7-0.3-0.7-0.7s0.3-0.7 0.7-0.7c0.4 0 0.7 0.3 0.7 0.7s-0.3 0.7-0.7 0.7z"></path>
<path d="M23.3 15.2c-0.2 0.1-0.1 0.3 0 0.4 0 0.1 0.2 0.2 0.3 0.2 0.4 0 0.7 0.2 0.7 0.6 0 0.2 0.2 0.2 0.3 0.2s0.3-0.1 0.3-0.2c0.1-0.4 0.4-0.6 0.9-0.5 0-0.1 0.1-0.1 0.2-0.3 0.1-0.1 0.1-0.2-0.1-0.3-0.3-0.2-0.4-0.5-0.3-0.9 0.1-0.2 0-0.3-0.2-0.4-0.1-0.1-0.2-0.2-0.4 0-0.3 0.3-0.6 0.2-0.9 0-0.1-0.1-0.3 0-0.3 0-0.1 0.1-0.2 0.2-0.1 0.3 0 0.4-0.1 0.7-0.4 0.9zM24.5 14.7c0.3 0 0.5 0.2 0.5 0.5s-0.2 0.5-0.5 0.5c-0.2 0-0.4-0.2-0.4-0.5s0.1-0.5 0.4-0.5z"></path>
</svg>
