<?xml version="1.0" encoding="utf-8"?>
<!-- Generator: Adobe Illustrator 22.1.0, SVG Export Plug-In . SVG Version: 6.00 Build 0)  -->
<svg version="1.1" id="Layer_1" xmlns="http://www.w3.org/2000/svg" xmlns:xlink="http://www.w3.org/1999/xlink" x="0px" y="0px"
	 viewBox="0 0 32 32" style="enable-background:new 0 0 32 32;" xml:space="preserve">
<title>spring_boot</title>
<g>
	<path d="M25,16.3c0,0.8,0,1.6,0,2.4c0,0.3-0.1,0.5-0.4,0.6c-1.9,0.5-3.8,0.7-5.8,0.8c-3,0.1-6.1,0.1-9.1-0.4
		c-0.7-0.1-1.5-0.3-2.2-0.5c-0.2,0-0.3-0.1-0.3-0.4c0-1.7,0-3.4,0-5.1c0-0.4,0.2-0.4,0.4-0.4c2.5-0.6,5-0.9,7.5-0.9
		c2.3,0,4.5,0,6.7,0.3c1,0.1,1.9,0.4,2.8,0.6c0.3,0.1,0.3,0.2,0.3,0.4C25,14.6,25,15.4,25,16.3z"/>
	<path d="M25,9.5c0,1.1,0,2.1,0,3.2c0,0.3-0.1,0.4-0.4,0.3c-4.1-1.1-8.3-1-12.4-0.8c-1.6,0.1-3.1,0.3-4.6,0.7
		c-0.4,0.1-0.4,0-0.4-0.4c0-2.1,0-4.1,0-6.2c0-0.4,0.1-0.5,0.5-0.6c2.3-0.6,4.6-0.8,7-0.8c1.8,0,3.7,0,5.5,0.1
		c1.5,0.1,3.1,0.4,4.5,0.8C24.9,5.9,25,6,25,6.2C25,7.3,25,8.4,25,9.5z"/>
	<path d="M7.2,22.8c0-1,0-2,0-3c0-0.3,0-0.4,0.4-0.3c2.9,0.7,5.9,0.9,9,0.9c2.7,0,5.5-0.2,8.1-0.9c0.3-0.1,0.4,0,0.4,0.3
		c0,2,0,4,0,6c0,0.3-0.1,0.4-0.3,0.4c-2.1,0.5-4.2,0.8-6.4,0.9c-2,0.1-4.1,0-6.1-0.1c-1.6-0.1-3.2-0.4-4.7-0.8
		c-0.3-0.1-0.3-0.2-0.3-0.4C7.2,24.8,7.2,23.8,7.2,22.8z"/>
</g>
</svg>
