<?xml version="1.0" encoding="utf-8"?>
<!-- Generator: Adobe Illustrator 22.1.0, SVG Export Plug-In . SVG Version: 6.00 Build 0)  -->
<svg version="1.1" id="Layer_1" xmlns="http://www.w3.org/2000/svg" xmlns:xlink="http://www.w3.org/1999/xlink" x="0px" y="0px"
	 viewBox="0 0 32 32" style="enable-background:new 0 0 32 32;" xml:space="preserve">
<title>spring_boot</title>
<g>
	<path d="M25.9,8.9c-0.2-1.2-1.5-1.7-2.5-0.9c-0.2,0.2-0.4,0.2-0.6,0c-0.3-0.2-0.7-0.4-1.1-0.6c-1.5-0.9-3.1-1.9-4.6-2.8
		c-0.2-0.1-0.3-0.2-0.5,0c-0.9,0.5-1.7,1.1-2.6,1.6C13,6.8,12,7.4,10.9,8c-0.2,0.1-0.4,0.2-0.6,0c-0.3-0.3-0.7-0.4-1.1-0.4
		c-0.7,0-1.4,0.7-1.4,1.4c0,0.8,0.6,1.5,1.4,1.6c0.8,0.1,1.8-0.5,1.6-1.8c0-0.3,0-0.4,0.3-0.6c1.7-1,3.5-2.1,5.2-3.1
		C16.5,5,16.6,5,16.6,5.3c0,0.7,0,1.4,0,2c0,0.2-0.1,0.3-0.3,0.4c-0.5,0.3-0.9,0.7-0.9,1.3c0,0.7,0.3,1.1,0.9,1.4
		c0.3,0.1,0.3,0.3,0.3,0.5c0,1.3,0,2.5,0,3.8c0,0.3-0.1,0.4-0.3,0.5c-0.8,0.4-1.1,1.2-0.7,2c0.1,0.2,0,0.3-0.1,0.4
		c-0.7,0.7-1.5,1.5-2.2,2.2c-0.2,0.2-0.3,0.2-0.5,0.1c-0.3-0.2-0.6-0.2-0.9-0.1c-0.9,0.2-1.3,1.1-1.1,2c0.1,0.2,0.2,0.4,0,0.5
		c-0.7,0.7-1.4,1.4-2.1,2c-0.2,0.2-0.4,0.2-0.7,0.1c-1.1-0.3-2,0.5-2,1.3c0,0.6,0.3,1.1,0.9,1.4c0.7,0.3,1.2,0.2,1.7-0.3
		c0.5-0.4,0.5-1,0.4-1.5c-0.1-0.4,0-0.6,0.2-0.8c0.6-0.6,1.3-1.2,1.9-1.8c0.2-0.2,0.3-0.2,0.6-0.1c0.6,0.2,1.2,0.1,1.6-0.3
		c0.4-0.5,0.6-1,0.3-1.6c-0.1-0.2-0.1-0.3,0.1-0.4c0.7-0.7,1.5-1.5,2.2-2.2C16,18,16.1,18,16.3,18c0.4,0.3,0.9,0.2,1.3,0
		c0.2-0.1,0.4-0.1,0.5,0.1c0.7,0.7,1.4,1.4,2,2c0.2,0.2,0.2,0.3,0.1,0.5c-0.3,0.5-0.2,1.2,0.2,1.7c0.5,0.5,1.2,0.6,1.7,0.4
		c0.7-0.3,1.2-1.1,0.7-2.1c-0.3-0.7-1.3-1-2.1-0.6c-0.2,0.1-0.3,0.1-0.4,0c-0.7-0.7-1.4-1.4-2.2-2.2c-0.1-0.1-0.2-0.2-0.1-0.4
		c0.4-0.8,0.1-1.7-0.7-2.1c-0.2-0.1-0.3-0.2-0.3-0.5c0-1.3,0-2.6,0-3.8c0-0.3,0.1-0.4,0.3-0.5c0.5-0.2,0.8-0.6,0.9-1.2
		c0-0.5-0.1-1.1-0.6-1.3c-0.6-0.3-0.7-0.6-0.6-1.2c0-0.1,0-0.3,0-0.4c0-0.3,0-0.6,0-0.9c0-0.5,0-0.5,0.4-0.2c1.5,0.9,3,1.8,4.6,2.8
		c0.5,0.3,0.9,0.6,0.8,1.3c-0.1,0.6,0.3,1,0.8,1.2c0.5,0.2,1.1,0.2,1.5-0.2C25.8,10,26,9.5,25.9,8.9z M9.3,10.2
		c-0.4,0-1.1-0.5-1-1.1c-0.1-0.5,0.5-1,1-1c0.6,0,1.1,0.5,1.1,1.1C10.4,9.7,9.9,10.2,9.3,10.2z M21.6,20.3c0.5,0,1.1,0.5,1,1.1
		c0,0.6-0.4,1-1,1c-0.6,0-1-0.4-1-1C20.5,20.8,21.1,20.3,21.6,20.3z M24.4,10.2c-0.5,0-1-0.5-1-1.1c0-0.6,0.5-1,1.1-1
		c0.6,0,1.1,0.5,1.1,1.1C25.5,9.7,25,10.2,24.4,10.2z"/>
</g>
</svg>
