<?xml version="1.0" encoding="utf-8"?>
<!-- Generator: Adobe Illustrator 22.1.0, SVG Export Plug-In . SVG Version: 6.00 Build 0)  -->
<svg version="1.1" id="Layer_1" xmlns="http://www.w3.org/2000/svg" xmlns:xlink="http://www.w3.org/1999/xlink" x="0px" y="0px"
	 viewBox="0 0 32 32" style="enable-background:new 0 0 32 32;" xml:space="preserve">
<title>spring_boot</title>
<g>
	<g>
		<path d="M7.1,11.7c-0.4,0-0.8,0.1-1.1,0.4c-0.3,0.3-0.4,0.7-0.4,1.1v6.4c0,0.4,0.1,0.8,0.4,1.1c0.3,0.3,0.7,0.4,1.1,0.4
			c0.4,0,0.8-0.1,1.1-0.4c0.3-0.3,0.4-0.7,0.4-1.1v-6.4c0-0.4-0.1-0.8-0.4-1.1C7.9,11.8,7.5,11.7,7.1,11.7z"/>
		<path d="M19.4,5.9L20.4,4c0.1-0.1,0-0.2-0.1-0.3c-0.1-0.1-0.2,0-0.3,0.1l-1.1,2C18,5.3,17,5.1,16,5.1c-1,0-2,0.2-3,0.6l-1.1-2
			c-0.1-0.1-0.2-0.1-0.3-0.1c-0.1,0.1-0.1,0.2-0.1,0.3l1.1,1.9c-1.1,0.5-1.9,1.3-2.5,2.3c-0.6,1-0.9,2-0.9,3.2h13.7
			c0-1.2-0.3-2.2-0.9-3.2C21.3,7.2,20.4,6.5,19.4,5.9z M13.3,8.8c-0.1,0.1-0.2,0.2-0.4,0.2c-0.2,0-0.3-0.1-0.4-0.2
			c-0.1-0.1-0.2-0.2-0.2-0.4c0-0.2,0.1-0.3,0.2-0.4c0.1-0.1,0.2-0.2,0.4-0.2c0.2,0,0.3,0.1,0.4,0.2c0.1,0.1,0.2,0.2,0.2,0.4
			C13.5,8.5,13.4,8.7,13.3,8.8z M19.5,8.8c-0.1,0.1-0.2,0.2-0.4,0.2c-0.2,0-0.3-0.1-0.4-0.2c-0.1-0.1-0.2-0.2-0.2-0.4
			c0-0.2,0.1-0.3,0.2-0.4c0.1-0.1,0.2-0.2,0.4-0.2c0.2,0,0.3,0.1,0.4,0.2c0.1,0.1,0.2,0.2,0.2,0.4C19.7,8.5,19.6,8.7,19.5,8.8z"/>
		<path d="M9.2,21.8c0,0.5,0.2,0.8,0.5,1.2c0.3,0.3,0.7,0.5,1.2,0.5h1.1l0,3.4c0,0.4,0.1,0.8,0.4,1.1c0.3,0.3,0.7,0.4,1.1,0.4
			c0.4,0,0.8-0.1,1.1-0.4c0.3-0.3,0.4-0.7,0.4-1.1v-3.4h2v3.4c0,0.4,0.1,0.8,0.4,1.1c0.3,0.3,0.7,0.4,1.1,0.4c0.4,0,0.8-0.1,1.1-0.4
			c0.3-0.3,0.4-0.7,0.4-1.1v-3.4h1.1c0.4,0,0.8-0.2,1.1-0.5c0.3-0.3,0.5-0.7,0.5-1.2v-9.9H9.2V21.8z"/>
		<path d="M24.9,11.7c-0.4,0-0.8,0.1-1.1,0.4c-0.3,0.3-0.4,0.6-0.4,1.1v6.4c0,0.4,0.1,0.8,0.4,1.1c0.3,0.3,0.7,0.4,1.1,0.4
			c0.4,0,0.8-0.1,1.1-0.4s0.4-0.7,0.4-1.1v-6.4c0-0.4-0.1-0.8-0.4-1.1C25.7,11.8,25.3,11.7,24.9,11.7z"/>
	</g>
</g>
</svg>
