<!-- Generated by IcoMoon.io -->
<svg version="1.1" xmlns="http://www.w3.org/2000/svg" width="32" height="32" viewBox="0 0 32 32">
<title>spring_security</title>
<path d="M7.9 17c0-0.6 0-1.3 0-2 0-0.3 0.1-0.7 0-1 0 1-0.1 2 0 3z"></path>
<path d="M23.9 16.4c0-0.7 0-1.4 0-2.1 0-0.3-0.1-0.4-0.4-0.4-1.1 0-2.2 0-3.3 0-0.6 0-0.6 0-0.6-0.6 0-0.2 0-0.3 0.3-0.3 1.2 0 2.5 0 3.7 0 0.2 0 0.3-0.1 0.3-0.3 0-1.9 0-3.8 0-5.7 0-0.2-0.1-0.3-0.2-0.3-2.5-0.6-5.1-1.2-7.6-1.8-0.2 0-0.3 0-0.4 0-1.5 0.4-3 0.7-4.5 1.1-1.1 0.3-2.2 0.5-3.3 0.8-0.1 0.1-0.1 0.2-0.1 0.2 0 1.9 0 3.8 0 5.7 0 0.3 0.1 0.3 0.3 0.3 1.1 0 2.3 0 3.4 0 0.5 0 0.5 0 0.5 0.5 0 0.3-0.1 0.4-0.4 0.4-1.3 0-2.5 0-3.8 0 0.1 0.3 0 0.7 0 1 0 0.7 0 1.4 0 2 0-0.9 0-2 0-3-0.1 0.1-0.1 0.2-0.1 0.3 0 0.8 0 1.6 0 2.3 0 1.9 0.5 3.7 1.6 5.3 1.6 2.4 3.8 4.1 6.3 5.5 0.1 0.1 0.3 0.1 0.4 0 2.2-1.2 4.1-2.7 5.7-4.6 1.5-1.9 2.3-3.9 2.2-6.3zM16.2 16.5c-0.3 0-0.5 0-0.8 0 0 0 0 0 0 0 0.3-0.1 0.6-0.1 0.8 0 0 0 0 0 0 0zM15.8 16.4c-1.6 0-2.9-1.3-2.9-2.9s1.3-2.9 2.9-2.9c1.6 0 2.9 1.3 2.9 2.9s-1.3 2.9-2.9 2.9z"></path>
<path d="M15.5 16.5c0.3 0 0.5 0 0.8 0 0 0 0 0 0 0-0.3-0.1-0.6-0.1-0.8 0 0 0 0 0 0 0z"></path>
<path d="M16.1 13.9c0 0 0 0 0 0s0 0 0 0 0 0 0 0z"></path>
<path d="M15.3 12.3c-0.3 0.3-0.3 0.8 0 1.1 0.2 0.2 0.3 0.4 0.4 0.7 0.1 0.1 0.2 0.2 0.1 0.3s-0.1 0.2 0 0.3c0 0.1 0.1 0.2 0 0.2-0.1 0.1-0.1 0.2 0 0.3 0.2 0.1 0.2-0.1 0.3-0.2 0 0 0 0 0 0-0.1-0.4-0.1-0.8 0-1.1 0 0 0-0.1 0-0.1s0 0.1 0 0.1c0-0.1 0-0.2 0-0.3 0 0.5 0 1 0 1.5 0 0 0 0 0 0 0.1-0.4 0-0.8 0.1-1.2 0-0.2 0-0.3 0.2-0.5 0.3-0.3 0.3-0.8 0-1.1s-0.8-0.3-1.1 0zM15.8 12.9c-0.2 0-0.3-0.1-0.3-0.3s0.1-0.3 0.3-0.3c0.2 0 0.3 0.1 0.3 0.3s-0.1 0.3-0.3 0.3z"></path>
<path d="M16.1 14.2c0 0.3 0 0.6 0 0.9 0-0.4 0-0.7 0-0.9z"></path>
<path d="M16.1 14.2c0 0.3 0 0.6 0 0.9 0 0 0 0 0 0 0-0.5 0-1 0-1.5 0 0.1 0 0.2 0 0.3s0 0.2 0 0.3z"></path>
<path d="M16.1 15.1c0 0 0 0 0 0s0 0 0 0 0 0 0 0 0 0 0 0z"></path>
<path d="M16.1 15.1v0 0z"></path>
<path d="M16.1 14.2c0-0.1 0-0.1 0-0.2 0 0.4-0.1 0.8 0 1.1 0 0 0 0 0 0 0-0.4 0-0.7 0-0.9z"></path>
<path d="M16.1 14.2c0-0.1 0-0.1 0-0.2 0 0 0 0 0 0s0 0.1 0 0.2z"></path>
<path d="M16.1 15.1v0 0 0z"></path>
</svg>
