<?xml version="1.0" encoding="utf-8"?>
<!-- Generator: Adobe Illustrator 22.1.0, SVG Export Plug-In . SVG Version: 6.00 Build 0)  -->
<svg version="1.1" id="Layer_1" xmlns="http://www.w3.org/2000/svg" xmlns:xlink="http://www.w3.org/1999/xlink" x="0px" y="0px"
	 viewBox="0 0 32 32" style="enable-background:new 0 0 32 32;" xml:space="preserve">
<title>spring_boot</title>
<g>
	<path d="M7.3,25.5c0.2,0.3,0.6,0.4,1,0.4c2.4,0,4.7,0,7.1,0c0.8,0,1.7,0,2.5,0c0.5,0,0.5,0,0.5-0.5c0-0.4,0-0.8,0-1.2
		c0-0.2-0.1-0.3-0.3-0.3c-0.1,0-0.2,0-0.3,0c-2.9,0-5.8,0-8.6,0c-0.7,0-0.7,0-0.7-0.7c0-5.4,0-10.9,0-16.3c0-0.1,0-0.2,0-0.3
		c0-0.2,0.1-0.3,0.3-0.4c0.1,0,0.2,0,0.4,0c3.9,0,7.7,0,11.6,0c0.7,0,0.7,0,0.7,0.8c0,3,0,6,0,9c0,0.1,0,0.2,0,0.3
		c0,0.2,0.1,0.3,0.3,0.3c1.1,0,0.9,0.1,0.9-0.8c0-3.4,0-6.8,0-10.2c0-0.5-0.1-1-0.5-1.3C22,4.3,22,4.2,22,4.1c-4.7,0-9.5,0-14.2,0
		C7.4,4.3,7.2,4.5,7,4.9c0,6.8,0,13.6,0,20.4C7.1,25.3,7.2,25.4,7.3,25.5z M14.9,24.2c0.4,0,0.6,0.3,0.6,0.7c0,0.4-0.3,0.6-0.6,0.6
		c-0.4,0-0.6-0.3-0.6-0.7C14.2,24.5,14.5,24.2,14.9,24.2z M14.4,5c0.3,0,0.5,0,0.8,0c0.2,0,0.3,0.1,0.3,0.3c0,0.2-0.2,0.2-0.3,0.2
		c-0.1,0-0.3,0-0.4,0c-0.1,0-0.3,0-0.4,0c-0.2,0-0.3,0-0.3-0.2C14.2,5,14.2,5,14.4,5z"/>
	<path d="M8.4,26.1c2.3,0,4.6,0,6.9,0c0.9,0,1.8,0,2.8,0c0.3,0,0.4-0.1,0.3-0.4c0-0.5,0-1,0-1.5c0-0.3-0.1-0.4-0.4-0.4
		c-3.1,0-6.1,0-9.2,0c-0.2,0-0.3,0-0.3-0.3c0-5.6,0-11.2,0-16.9c0-0.2,0.1-0.3,0.3-0.3c4.1,0,8.1,0,12.2,0c0.3,0,0.3,0.1,0.3,0.3
		c0,0.9,0,1.8,0,2.7c0,2.3,0,4.7,0,7c0,0.3,0.1,0.4,0.3,0.4c0.2,0,0.5,0,0.7,0c0.3,0,0.4-0.1,0.4-0.4c0-3.6,0-7.2,0-10.8
		c0-0.6-0.2-1.1-0.7-1.4c0,0.1,0,0.1,0.1,0.2c0.5,0.3,0.5,0.8,0.5,1.3c0,3.4,0,6.8,0,10.2c0,0.9,0.2,0.8-0.9,0.8
		c-0.2,0-0.3-0.1-0.3-0.3c0-0.1,0-0.2,0-0.3c0-3,0-6,0-9c0-0.7,0-0.8-0.7-0.8c-3.9,0-7.7,0-11.6,0c-0.1,0-0.2,0-0.4,0
		c-0.2,0-0.3,0.1-0.3,0.4c0,0.1,0,0.2,0,0.3c0,5.4,0,10.9,0,16.3c0,0.7,0,0.7,0.7,0.7c2.9,0,5.8,0,8.6,0c0.1,0,0.2,0,0.3,0
		c0.2,0,0.3,0.1,0.3,0.3c0,0.4,0,0.8,0,1.2c0,0.5,0,0.5-0.5,0.5c-0.8,0-1.7,0-2.5,0c-2.4,0-4.7,0-7.1,0c-0.4,0-0.7-0.1-1-0.4
		c-0.1-0.1-0.1-0.2-0.3-0.2C7.3,25.9,7.8,26.1,8.4,26.1z"/>
	<path d="M24.2,17.4c-1.4,0-2.8,0-4.3,0c-0.4,0-0.8,0.4-0.8,0.8c0,1.5,0,3,0,4.4c0,1.5,0,2.9,0,4.4c0,0.6,0.3,0.8,0.8,0.8
		c1.4,0,2.8,0,4.2,0c0.6,0,0.8-0.3,0.8-0.9c0-2.9,0-5.8,0-8.7C25,17.8,24.7,17.4,24.2,17.4z M21.7,18.1c0.2,0,0.4,0,0.6,0
		c0.2,0,0.2,0.1,0.2,0.2c0,0.2-0.1,0.1-0.2,0.1c-0.1,0-0.2,0-0.3,0c-0.1,0-0.2,0-0.3,0c-0.1,0-0.2,0-0.2-0.2
		C21.5,18.1,21.6,18.1,21.7,18.1z M22,27.5c-0.2,0-0.4-0.2-0.4-0.5c0-0.2,0.2-0.5,0.4-0.5c0.3,0,0.5,0.2,0.5,0.5
		C22.5,27.2,22.3,27.5,22,27.5z M24.1,26.2c-1.4,0-2.8,0-4.1,0c-0.2,0-0.3-0.1-0.3-0.3c0-2.1,0-4.3,0-6.4c0-0.2,0.1-0.3,0.3-0.3
		c1.4,0,2.8,0,4.2,0c0.2,0,0.3,0.1,0.3,0.3c0,1.1,0,2.1,0,3.2c0,1.1,0,2.1,0,3.2C24.4,26.1,24.4,26.2,24.1,26.2z"/>
</g>
</svg>
