<?xml version="1.0" encoding="utf-8"?>
<!-- Generator: Adobe Illustrator 22.1.0, SVG Export Plug-In . SVG Version: 6.00 Build 0)  -->
<svg version="1.1" id="Layer_1" xmlns="http://www.w3.org/2000/svg" xmlns:xlink="http://www.w3.org/1999/xlink" x="0px" y="0px"
	 viewBox="0 0 32 32" style="enable-background:new 0 0 32 32;" xml:space="preserve">
<title>spring_boot</title>
<path d="M12.2,20c0.2,0.1,0.3,0.1,0.4,0c3.7-2.2,7.4-4.4,11.2-6.5c0.7-0.4,1.4-0.9,2.2-1.3c-0.1-0.1-0.2-0.1-0.2-0.2
	c-3.2-1.8-6.4-3.7-9.6-5.5c-0.2-0.1-0.3-0.1-0.5,0c-3.3,1.9-6.6,3.9-9.9,5.8c-1.1,0.6-2.2,1.3-3.3,2c0.1,0.1,0.1,0.1,0.2,0.1
	C5.8,16.2,9,18.1,12.2,20z M15.4,8.3c0.1,0,0.3,0,0.4,0.1c1.9,1.1,3.7,2.1,5.6,3.2c0.5,0.3,1,0.6,1.5,0.9c-0.2,0.1-0.4,0.3-0.6,0.4
	c-0.1,0-0.2,0-0.3-0.1c-1.6-0.9-3.2-1.9-4.8-2.8c-0.7-0.4-1.3-0.8-2-1.2C15,8.7,15,8.7,14.8,8.6C15.1,8.5,15.2,8.3,15.4,8.3z
	 M13.3,9.5c0.1,0,0.2,0,0.2,0c1.7,1,3.4,1.9,5,2.9c0,0,0,0,0.1,0.1c-0.2,0.1-0.4,0.2-0.6,0.3c-0.1,0-0.2,0-0.2,0
	c-1.7-1-3.4-1.9-5-2.9c0,0-0.1,0-0.1-0.1C12.9,9.7,13.1,9.6,13.3,9.5z M11,10.7c0.1,0,0.2,0,0.3,0.1c1.7,1,3.4,1.9,5.1,2.9
	c0.3,0.2,0.6,0.4,1,0.6c-0.2,0.1-0.4,0.3-0.6,0.4c-0.1,0-0.2,0-0.2,0c-2-1.1-4-2.3-6-3.4c0,0-0.1-0.1-0.2-0.1
	C10.6,10.9,10.8,10.8,11,10.7z"/>
<path d="M18.1,20.8c-1.8,1.1-3.6,2.1-5.5,3.2c-0.2,0.1-0.3,0.1-0.5,0c-0.3-0.2-0.7-0.4-1-0.6C8.8,22,6.4,20.6,4,19.2
	c-0.1-0.1-0.2-0.1-0.3-0.1c-0.4,0.2-0.8,0.5-1.2,0.7C2.6,19.9,2.7,20,2.7,20c3.2,1.8,6.3,3.7,9.5,5.5c0.2,0.1,0.3,0.1,0.4,0
	c1.8-1.1,3.6-2.1,5.4-3.2c0.3-0.2,0.6-0.3,0.8-0.5c-0.2-0.4-0.4-0.8-0.6-1.2C18.3,20.7,18.2,20.7,18.1,20.8z"/>
<path d="M25.2,20c-0.3-0.1-0.4-0.3-0.4-0.6c0-0.1,0-0.1,0-0.2c0-0.2,0.1-0.3,0.2-0.4c0.1-0.1,0.3-0.2,0.3-0.2
	c-0.1-0.3-0.1-0.5-0.3-0.8c0-0.1-0.3,0-0.4,0c-0.1,0-0.3,0-0.3,0c-0.2-0.3-0.7-0.5-0.4-1c0,0,0,0,0-0.1c0,0-0.1-0.1-0.2-0.2
	c-0.1-0.1-0.3-0.1-0.4-0.2c-0.2-0.1-0.4-0.1-0.5,0.2c-0.1,0.3-0.3,0.4-0.5,0.3c-0.1,0-0.2,0-0.2,0c-0.2,0.1-0.3,0-0.4-0.3
	c-0.2-0.3-0.2-0.3-0.6-0.2c-0.1,0-0.2,0.1-0.2,0.1c-0.3,0.1-0.3,0.3-0.2,0.5c0.1,0.2,0.1,0.4-0.1,0.5c-0.1,0-0.1,0.1-0.2,0.2
	c-0.1,0.2-0.3,0.2-0.5,0.1c-0.3-0.1-0.4,0-0.5,0.2c0,0.1-0.1,0.2-0.1,0.3c-0.1,0.2,0,0.4,0.2,0.4c0.3,0.1,0.4,0.3,0.3,0.5
	c0,0.1,0,0.2,0,0.3c0,0.2,0,0.3-0.2,0.4c-0.4,0.2-0.4,0.2-0.2,0.6c0,0.1,0.1,0.2,0.1,0.3c0.1,0.1,0.3,0.2,0.3,0.2
	c0.3-0.2,0.6-0.1,0.7,0.2c0,0,0.1,0.1,0.1,0.1c0.2,0.1,0.2,0.2,0.1,0.4c-0.1,0.4-0.1,0.5,0.3,0.6c0.1,0,0.2,0.1,0.3,0.1
	c0.1,0,0.3-0.1,0.3-0.1c0.1-0.4,0.4-0.5,0.7-0.4c0,0,0.1,0,0.1,0c0.2-0.1,0.3,0,0.4,0.2c0.2,0.4,0.2,0.4,0.6,0.2
	c0.1,0,0.2-0.1,0.3-0.1c0.2-0.1,0.3-0.2,0.2-0.4c-0.1-0.3-0.1-0.5,0.2-0.7c0.1,0,0.1-0.1,0.2-0.2c0.1-0.2,0.2-0.2,0.4-0.1
	c0.4,0.2,0.5,0.1,0.7-0.3c0-0.1,0.1-0.2,0.1-0.2C25.4,20.3,25.4,20.1,25.2,20z M22.3,20.5c-0.6,0-1-0.5-1-1c0-0.6,0.5-1,1-1
	c0.6,0,1,0.5,1,1C23.3,20,22.9,20.5,22.3,20.5z"/>
<path d="M12.1,21.1C9.4,19.5,6.7,18,4,16.4c-0.1-0.1-0.2-0.1-0.3-0.1c-0.4,0.2-0.8,0.5-1.2,0.7c0.1,0,0.1,0.1,0.1,0.1
	c3.2,1.9,6.5,3.8,9.7,5.7c0.1,0,0.2,0,0.3,0c1.8-1.1,3.6-2.1,5.5-3.2c0.1,0,0.2-0.1,0.2-0.2c0.1-0.5,0.1-1,0.2-1.6
	c-0.1,0-0.2,0.1-0.3,0.2c-1.8,1-3.5,2.1-5.3,3.1C12.6,21.3,12.4,21.3,12.1,21.1z"/>
<path d="M29.3,16.3c-0.1-0.2-0.2-0.3-0.4-0.2c-0.3,0.1-0.5,0.1-0.8-0.1c0,0-0.1-0.1-0.2-0.1c-0.2,0-0.2-0.2-0.3-0.3
	c0-0.1-0.1-0.3-0.2-0.4c-0.3-0.2-0.9,0-0.9,0.5c0,0.2,0,0.3-0.2,0.4c-0.1,0-0.2,0.1-0.2,0.2c-0.1,0.2-0.3,0.2-0.6,0.2
	c-0.4,0-0.4,0-0.5,0.4c-0.1,0.4-0.1,0.4,0.3,0.5c0.2,0.1,0.4,0.2,0.4,0.4c0,0.1,0,0.2,0.1,0.2c0.1,0.2,0.1,0.3,0,0.5
	c-0.2,0.4-0.2,0.4,0.1,0.6c0.4,0.3,0.4,0.3,0.7-0.1c0.1-0.2,0.3-0.2,0.5-0.2c0.1,0,0.2,0,0.3,0c0.2-0.1,0.4,0,0.5,0.2
	c0.3,0.3,0.3,0.3,0.6,0c0.1-0.1,0.2-0.1,0.2-0.2c0-0.1,0.1-0.3,0.1-0.3c-0.2-0.3-0.2-0.6-0.1-0.9c0.1-0.3,0.2-0.4,0.4-0.5
	c0.1,0,0.2-0.2,0.3-0.2C29.5,16.6,29.4,16.5,29.3,16.3z M27.4,18c-0.4,0-0.7-0.3-0.7-0.7c0-0.4,0.3-0.7,0.7-0.7
	c0.4,0,0.7,0.3,0.7,0.7C28.1,17.7,27.8,18,27.4,18z"/>
<path d="M23.3,15.2c-0.2,0.1-0.1,0.3,0,0.4c0,0.1,0.2,0.2,0.3,0.2c0.4,0,0.7,0.2,0.7,0.6c0,0.2,0.2,0.2,0.3,0.2
	c0.1,0,0.3-0.1,0.3-0.2c0.1-0.4,0.4-0.6,0.9-0.5c0-0.1,0.1-0.1,0.2-0.3c0.1-0.1,0.1-0.2-0.1-0.3c-0.3-0.2-0.4-0.5-0.3-0.9
	c0.1-0.2,0-0.3-0.2-0.4c-0.1-0.1-0.2-0.2-0.4,0c-0.3,0.3-0.6,0.2-0.9,0c-0.1-0.1-0.3,0-0.3,0c-0.1,0.1-0.2,0.2-0.1,0.3
	C23.7,14.7,23.6,15,23.3,15.2z M24.5,14.7c0.3,0,0.5,0.2,0.5,0.5c0,0.3-0.2,0.5-0.5,0.5c-0.2,0-0.4-0.2-0.4-0.5
	C24.1,14.9,24.2,14.7,24.5,14.7z"/>
</svg>
