<!-- Generated by IcoMoon.io -->
<svg version="1.1" xmlns="http://www.w3.org/2000/svg" width="32" height="32" viewBox="0 0 32 32">
<title>spring_io_platform</title>
<path d="M25.8 8.9c-4.7-1.5-9.4-2.9-14-4.4-1.7-0.4-2.3-0.1-2.8 1.6-1.5 4.7-2.9 9.3-4.4 13.9-0.6 1.9-0.3 2.4 1.6 3 4.7 1.5 9.4 2.9 14 4.3 0.3 0.1 0.7 0.2 0.9 0.2 1.2-0.1 1.6-0.8 1.9-1.7 1.5-4.7 2.9-9.4 4.4-14.1 0.5-1.6 0.2-2.2-1.6-2.8zM10.5 10.5c0.6 0.1 0.9 0.5 1 1.1-0.1 0.6-0.5 1.1-1.2 1-0.6-0.1-1-0.5-0.9-1.1 0-0.7 0.5-1 1.1-1zM11.5 20.9c0 0.7-0.4 1.2-1.2 1.2-0.7 0-1-0.5-1-1.2 0-1 0-2 0-3.1s0-2 0-3.1c0-0.7 0.3-1.2 1-1.2 0.8 0 1.2 0.4 1.2 1.1 0.1 2.2 0.1 4.3 0 6.3zM23.3 18.5c-0.9 3.1-5 4.7-7.8 2.9-0.3-0.2-0.6-0.4-0.3-0.9 0.2-0.4-0.1-0.7-0.5-0.5-0.8 0.5-1-0.2-1.2-0.6-1.4-2.2-1-5 0.9-6.8s4.7-2.1 6.9-0.6c0.4 0.2 0.6 0.6 1.1 0.7v0c0.5-0.5 0.6 0 0.7 0.3 0.6 1.8 0.9 3.6 0.2 5.5z"></path>
<path d="M22.4 12.7c0.4 0.5 0 0.8-0.3 1.1-1.1 1.1-2.5 1.5-3.9 1.6-0.7 0-1.3 0.1-1.9 0.4s-1 0.7-1.1 1.4c-0.3 1.2 0.3 1.8 1.4 1.5 1.2-0.3 2.4-0.7 3.4-1.4 0.4-0.3 0.8-0.5 1.2-0.1s0.2 0.8-0.2 1.2c-0.7 0.8-1.6 1.5-2.7 1.6 1.5-0.2 3.1-0.3 4.3-1.5 0.2-0.2 0.5-0.2 0.7 0 0.7-1.9 0.4-3.7-0.2-5.5-0.1-0.3-0.2-0.8-0.7-0.3z"></path>
<path d="M22.6 18.5c-1.2 1.2-2.8 1.3-4.3 1.5 1.1-0.1 2-0.8 2.7-1.6 0.3-0.4 0.5-0.8 0.2-1.2-0.4-0.4-0.8-0.2-1.2 0.1-1 0.8-2.2 1.2-3.4 1.4-1.2 0.3-1.7-0.4-1.4-1.5 0.2-0.6 0.6-1.1 1.1-1.4 0.6-0.3 1.2-0.4 1.9-0.4 1.5-0.1 2.9-0.5 3.9-1.6 0.3-0.3 0.7-0.6 0.3-1.1 0 0 0 0 0 0-0.6 1.2-1.7 1.7-3 2-0.7 0.2-1.4 0.2-2.1 0.2-2 0.2-3.3 1.7-2.9 3.5 0.2 0.7 0.5 1.3 1.4 1.1 1.6-0.3 3.1-0.7 4.4-1.8 0.2-0.1 0.3-0.4 0.7-0.2-0.5 0.7-1.1 1.3-1.9 1.6-0.7 0.4-1.5 0.7-2.6 1.1 2.6 0.1 5 0.4 6.7-1.8 0-0.1-0.3-0.1-0.5 0.1z"></path>
</svg>
