<!-- Generated by IcoMoon.io -->
<svg version="1.1" xmlns="http://www.w3.org/2000/svg" width="32" height="32" viewBox="0 0 32 32">
<title>spring_data</title>
<path d="M25 16.3c0 0.8 0 1.6 0 2.4 0 0.3-0.1 0.5-0.4 0.6-1.9 0.5-3.8 0.7-5.8 0.8-3 0.1-6.1 0.1-9.1-0.4-0.7-0.1-1.5-0.3-2.2-0.5-0.2 0-0.3-0.1-0.3-0.4 0-1.7 0-3.4 0-5.1 0-0.4 0.2-0.4 0.4-0.4 2.5-0.6 5-0.9 7.5-0.9 2.3 0 4.5 0 6.7 0.3 1 0.1 1.9 0.4 2.8 0.6 0.3 0.1 0.3 0.2 0.3 0.4 0.1 0.9 0.1 1.7 0.1 2.6z"></path>
<path d="M25 9.5c0 1.1 0 2.1 0 3.2 0 0.3-0.1 0.4-0.4 0.3-4.1-1.1-8.3-1-12.4-0.8-1.6 0.1-3.1 0.3-4.6 0.7-0.4 0.1-0.4 0-0.4-0.4 0-2.1 0-4.1 0-6.2 0-0.4 0.1-0.5 0.5-0.6 2.3-0.6 4.6-0.8 7-0.8 1.8 0 3.7 0 5.5 0.1 1.5 0.1 3.1 0.4 4.5 0.8 0.2 0.1 0.3 0.2 0.3 0.4 0 1.1 0 2.2 0 3.3z"></path>
<path d="M7.2 22.8c0-1 0-2 0-3 0-0.3 0-0.4 0.4-0.3 2.9 0.7 5.9 0.9 9 0.9 2.7 0 5.5-0.2 8.1-0.9 0.3-0.1 0.4 0 0.4 0.3 0 2 0 4 0 6 0 0.3-0.1 0.4-0.3 0.4-2.1 0.5-4.2 0.8-6.4 0.9-2 0.1-4.1 0-6.1-0.1-1.6-0.1-3.2-0.4-4.7-0.8-0.3-0.1-0.3-0.2-0.3-0.4-0.1-1-0.1-2-0.1-3z"></path>
</svg>
