<!-- Generated by IcoMoon.io -->
<svg version="1.1" xmlns="http://www.w3.org/2000/svg" width="32" height="32" viewBox="0 0 32 32">
<title>spring_session</title>
<path d="M13.8 19.3c-0.9 0.3-1.7 0.7-2.3 1.5-0.1 0.1-0.2 0.3-0.3 0.4-0.1 0.2-0.2 0.3 0 0.5s0.3 0.1 0.4-0.1c0.5-0.8 1.3-1.4 2.2-1.7 0.2-0.1 0.4-0.1 0.6 0 1.4 0.7 2.9 0.6 4.3 0 0.2-0.1 0.3-0.1 0.5 0 0.7 0.2 1.4 0.6 1.9 1.2 0.2 0.2 0.3 0.2 0.4 0s0.3-0.3 0.6-0.3c1.8-0.2 3.6-0.3 5.4-0.8 0.3-0.1 0.4 0 0.4 0.3 0 2 0 4 0 6.1 0 0.3-0.1 0.4-0.4 0.5-1.5 0.3-3 0.5-4.6 0.7-3 0.3-6.1 0.4-9.2 0.3s-6.1-0.3-9.1-0.9c-0.3-0.1-0.5-0.2-0.5-0.5 0-2 0-4 0-6 0.1-0.5 0.1-0.5 0.5-0.5 1.5 0.4 3.1 0.5 4.7 0.7 0.4 0 0.9-0.1 1.2 0.2 0.1 0.1 0.2-0.1 0.2-0.2 0.5-0.8 1.2-1.3 2.1-1.7 0.4 0 0.7 0 1 0.3z"></path>
<path d="M4.2 8.8c0-1.1 0-2.2 0-3.2 0-0.3 0.1-0.4 0.4-0.4 1.5-0.3 3-0.5 4.6-0.7 2.9-0.3 5.8-0.4 8.7-0.3 3.2 0.1 6.4 0.3 9.6 0.9 0.4 0.1 0.5 0.2 0.5 0.6 0 2.1 0 4.2 0 6.4 0 0.3 0 0.4-0.4 0.3-1.7-0.4-3.5-0.6-5.2-0.7-0.3 0-0.5-0.1-0.7-0.4-1.6-1.8-3.7-2.7-6.1-2.5-1.8 0.1-3.4 0.9-4.7 2.3-0.3 0.4-0.7 0.5-1.2 0.5-1.7 0.1-3.3 0.3-4.9 0.7-0.3 0.1-0.5 0.1-0.4-0.3-0.2-1-0.2-2.1-0.2-3.2z"></path>
<path d="M16.5 19.3c-2.2 0-4-1.8-4-4s1.8-4 4-3.9c2.2 0 4 1.8 4 4 0 2.1-1.8 3.9-4 3.9z"></path>
<path d="M9.8 20.2c-0.7 0-1.4-0.1-2.1-0.2-1.1-0.1-2.2-0.3-3.3-0.5-0.2-0.1-0.3-0.1-0.3-0.4 0-1.9 0-3.9 0-5.8 0-0.2 0.1-0.3 0.3-0.4 1.5-0.3 3.1-0.5 4.6-0.6 0.2 0 0.4-0.1 0.6 0-1.3 2.6-1.3 5.2 0.2 7.9z"></path>
<path d="M22.3 12.2c1.8 0.2 3.6 0.4 5.3 0.7 0.2 0 0.3 0.2 0.3 0.4 0 1.9 0 3.8 0 5.7 0 0.3-0.1 0.4-0.3 0.4-1.6 0.3-3.3 0.5-5 0.7-0.1 0-0.2 0.1-0.3 0s0-0.2 0.1-0.2c1.3-2.4 1.4-4.9 0-7.4 0 0-0.1-0.1-0.1-0.1 0-0.1 0-0.1 0-0.2z"></path>
<path d="M11.1 14.8c-0.5-1-0.1-2.8 0.9-3.8 0.9-1 2.7-1.5 4-1-1.4 0-2.6 0.4-3.5 1.3-1 0.9-1.4 2.1-1.4 3.5z"></path>
<path d="M11.8 15.5c-0.4-2.1 0.6-4 2.5-4.7 0.8-0.3 1.5-0.3 2.3-0.1 0 0.2-0.1 0.1-0.2 0.1s-0.3 0-0.4 0c-2 0.2-3.9 2-4 4-0.1 0.2 0 0.4 0 0.5-0.1 0.1 0 0.2-0.2 0.2z"></path>
<path d="M13 18.5c-1.1 0.4-1.9 1.1-2.6 2-0.1 0.1-0.1 0.3-0.3 0.1-0.1-0.1-0.4-0.3-0.2-0.5 0.6-0.8 1.4-1.5 2.4-1.8 0.2-0.1 0.2-0.1 0.7 0.2z"></path>
<path d="M11.8 15.5c0.2-0.2 0-0.5 0.1-0.7 0 0.3 0 0.6 0 1 0-0.1-0.1-0.2-0.1-0.3z"></path>
<path d="M16 10.8c0.2-0.2 0.4 0 0.6-0.1 0.1 0 0.2 0 0.3 0.1-0.3 0-0.6 0-0.9 0z"></path>
</svg>
