<!-- Generated by IcoMoon.io -->
<svg version="1.1" xmlns="http://www.w3.org/2000/svg" width="32" height="32" viewBox="0 0 32 32">
<title>spring_flo</title>
<path d="M13.6 14.1c1.4 0 2.7 0 3.9 0s1.9 0.6 1.9 1.6c0 1-0.7 1.5-1.9 1.6-1.6 0.1-3.1-0.2-4.7 0.2-2.3 0.6-3.4 2.4-4.5 4.2-0.1 0.2 0 0.5 0 0.8 0 1.3-0.9 2.5-2.1 2.7-1.3 0.2-2.6-0.6-2.9-1.9s0.3-2.7 1.6-3.1c0.6-0.2 1-0.6 1.3-1.1 1.9-2.8 3.8-5.7 5.8-8.4 1.8-2.5 4.2-3.8 7.3-3.8 2.6 0 5.1 0 7.7 0 1.2 0 1.9 0.6 1.9 1.6s-0.7 1.6-1.9 1.6c-2.5 0-4.9 0-7.4 0-2.9 0-4.7 1.5-6 4zM23.1 9c1.6 0 2.9 0 4.3 0 0.9 0 1-0.3 0.5-1.1-0.3-0.6-0.8-0.7-1.4-0.7-1.6 0-3.3 0.2-4.9 0-2.5-0.3-4.5 0.6-6.5 1.6-0.7 0.4-1.5 0.8-2 1.5-2.2 3.2-4.5 6.4-6.7 9.7-0.3 0.4-0.7 0.7-1.2 1-0.9 0.3-1.3 1.1-1.1 1.9 0.2 0.7 1.1 1.6 1.7 1.6s1.6-1 1.6-1.7c-0.1-1.4 0.8-2.4 1.5-3.3 1.4-1.8 3.1-3 5.5-3.1 1 0 2.1 0.2 3.1 0 0.5-0.1 1.1-0.1 1.1-0.7 0.1-0.6-0.4-0.7-1-0.9-1.2-0.3-2.4-0.1-3.6-0.2-0.7 0-1.2-0.6-0.8-1.3 1.2-2.1 2.8-3.7 5.3-4.3 1.6-0.2 3.2 0.1 4.6 0z"></path>
<path d="M23.8 15.7c0 1-0.8 1.9-1.8 1.8-1 0-1.9-0.9-1.8-1.9 0-1 0.7-1.7 1.6-1.7 1.2 0 2 0.7 2 1.8zM22.1 16.7c0.6 0 0.9-0.5 0.9-1.1s-0.5-0.8-1.1-0.8c-0.7 0-1.2 0.4-1.1 1 0 0.6 0.5 0.9 1.3 0.9z"></path>
<path d="M23.1 9c-1.4 0.1-3.1-0.2-4.7 0.2-2.5 0.6-4 2.2-5.3 4.3-0.4 0.6 0.1 1.2 0.8 1.3 1.2 0.1 2.4-0.1 3.6 0.2 0.5 0.1 1 0.2 1 0.9-0.1 0.6-0.6 0.7-1.1 0.7-1 0.2-2.1 0-3.1 0-2.4 0-4.2 1.3-5.5 3.1-0.7 1-1.5 1.9-1.5 3.3 0 0.7-1 1.6-1.6 1.7-0.5 0-1.5-0.9-1.7-1.6-0.2-0.8 0.3-1.6 1.1-1.9 0.5-0.2 0.9-0.5 1.2-1 2.2-3.2 4.5-6.4 6.7-9.7 0.5-0.7 1.3-1.1 2-1.5 2-1 4-1.9 6.5-1.6 1.6 0.2 3.3 0 4.9 0 0.6 0 1.1 0.1 1.4 0.7 0.6 0.5 0.5 0.9-0.4 0.9-1.4 0-2.7 0-4.3 0z"></path>
<path d="M22.1 16.7c-0.8 0-1.3-0.3-1.3-0.9 0-0.7 0.4-1 1.1-1 0.6 0 1.1 0.2 1.1 0.8 0.1 0.6-0.3 1.1-0.9 1.1z"></path>
</svg>
