<!-- Generated by IcoMoon.io -->
<svg version="1.1" xmlns="http://www.w3.org/2000/svg" width="32" height="32" viewBox="0 0 32 32">
<title>spring_framework</title>
<path d="M26.9 11.5c0.9 1.3 1.5 2.9 1.5 4.5s-0.5 3.2-1.5 4.5c-0.3 1.6-1 3.1-2.1 4.2s-2.6 1.9-4.3 2.1c-1.3 0.9-2.9 1.5-4.5 1.5s-3.2-0.5-4.5-1.5c-1.7-0.3-3.1-1-4.3-2.1-1.2-1.2-1.9-2.6-2.1-4.2-1-1.3-1.5-2.9-1.5-4.5s0.5-3.2 1.5-4.5c0.3-1.6 1-3.1 2.1-4.2s2.6-1.9 4.3-2.1c1.3-1 2.9-1.5 4.5-1.5s3.2 0.5 4.5 1.5c1.7 0.3 3.1 1 4.3 2.1 1.1 1.1 1.8 2.5 2.1 4.2zM28.1 16c0-1.3-0.4-2.6-1.1-3.8 0.1 0.8 0 1.5-0.1 2.3-0.1 0.5-0.2 1-0.3 1.5 0.3 1.2 0.5 2.5 0.4 3.8 0.7-1.2 1-2.5 1.1-3.8v0zM26.6 14.5c0.1-1 0.1-1.9 0-2.9-0.8-1-1.7-1.9-2.8-2.6 0.5 1 0.9 2.1 1.2 3.2 0.6 1 1.1 2 1.4 3.1 0.1-0.2 0.1-0.5 0.2-0.8zM26.6 20.4c0.2-1.2 0.1-2.5-0.1-3.7-0.4 1.1-0.8 2.1-1.4 3.1-0.3 1.1-0.7 2.2-1.2 3.2 1-0.8 1.9-1.6 2.7-2.6v0zM26.3 16c-0.3-0.9-0.6-1.8-1.1-2.7 0.3 1.8 0.3 3.6 0 5.4 0.5-0.9 0.8-1.8 1.1-2.7v0zM26.4 10.9c-0.6-2.7-2.7-4.7-5.4-5.4 1 0.8 1.8 1.8 2.4 2.9 1.2 0.7 2.2 1.6 3 2.5v0zM24.5 24.5c0.9-1 1.6-2.1 1.9-3.4-0.8 1-1.8 1.8-2.9 2.4-0.6 1.1-1.5 2.1-2.4 2.9 1.3-0.3 2.5-0.9 3.4-1.9zM24.4 11.4c-0.3-0.9-0.7-1.8-1.2-2.7-0.8-0.5-1.7-0.9-2.6-1.1 0.7 0.5 1.4 1.1 2.1 1.7 0.6 0.7 1.2 1.4 1.7 2.1v0zM23.3 23.3c0.5-0.8 0.9-1.7 1.1-2.6-1 1.5-2.3 2.8-3.8 3.8 0.9-0.4 1.8-0.8 2.7-1.2v0zM22.9 8.2c-0.7-1.1-1.5-2-2.6-2.8-0.5-0.1-1-0.1-1.4-0.1-0.8 0-1.5 0.1-2.3 0.3 1.1 0.4 2.1 0.8 3.1 1.4 1.1 0.3 2.2 0.7 3.2 1.2v0zM20.4 26.6c1-0.8 1.9-1.7 2.5-2.8-1 0.5-2.1 0.9-3.2 1.2-1 0.6-2 1.1-3.1 1.4 0.8 0.2 1.5 0.2 2.3 0.2 0.5 0.1 1 0 1.5 0zM20.8 18.7c1.7-2 1.1-5.5 0.5-7.8-0.8 1.3-2.4 2.3-3.9 2.5-1.3 0.2-2.8-0.1-4.1 0.3-2.8 0.9-3 4.2-1.5 5.1l0.1 0.1c0 0 2.6-0.3 3.9-0.7 1.9-0.6 4-2.1 4.7-4-0.5 2-2.3 3.8-4.1 4.6-0.9 0.4-1.7 0.5-3.2 0.9-0.4 0.1-0.7 0.3-1 0.5 1.7-1.1 6.4 1 8.6-1.5v0zM18.9 5c0.3 0 0.6 0 0.8 0-2.3-1.4-5.2-1.4-7.5 0 0.3 0 0.5 0 0.8 0 1 0 2 0.1 2.9 0.4 1.1-0.3 2-0.4 3-0.4zM19.8 27c-0.3 0-0.5 0-0.8 0-1 0-2-0.1-2.9-0.4-1 0.3-1.9 0.4-2.9 0.4-0.3 0-0.6 0-0.8 0 2.1 1.4 5.1 1.4 7.4 0v0zM18.7 6.8c-0.9-0.5-1.8-0.8-2.7-1.1-0.9 0.3-1.8 0.6-2.7 1.1 1.8-0.3 3.6-0.3 5.4 0v0zM16 26.3c0.9-0.3 1.8-0.6 2.7-1.1-1.8 0.3-3.6 0.3-5.4 0 0.9 0.5 1.8 0.8 2.7 1.1zM15.4 5.6c-0.8-0.2-1.5-0.2-2.3-0.3-0.5 0-1 0-1.4 0.1-1 0.8-1.9 1.7-2.6 2.8 1-0.5 2.1-0.9 3.2-1.2 0.9-0.6 2-1.1 3.1-1.4zM13.1 26.7c0.8 0 1.5-0.1 2.3-0.2-1.1-0.4-2.1-0.8-3.1-1.4-1.1-0.3-2.2-0.7-3.2-1.2 0.7 1.1 1.5 2 2.6 2.8 0.4-0.1 0.9 0 1.4 0zM10.9 20.4c0.4 0 0.7-0.3 0.7-0.8 0-0.4-0.3-0.7-0.8-0.7-0.4 0-0.7 0.3-0.7 0.8 0 0.4 0.3 0.7 0.8 0.7 0 0 0 0 0 0zM11.4 7.6c-0.9 0.3-1.8 0.7-2.6 1.1-0.5 0.8-0.9 1.7-1.2 2.7 1-1.5 2.3-2.8 3.8-3.8v0zM8.7 23.3c0.8 0.5 1.7 0.9 2.6 1.1-0.7-0.5-1.4-1.1-2.1-1.7-0.6-0.6-1.2-1.3-1.7-2.1 0.4 0.9 0.8 1.8 1.2 2.7v0zM8.5 8.5c0.6-1.1 1.5-2.1 2.4-2.9-2.7 0.6-4.7 2.7-5.3 5.3 0.8-0.9 1.8-1.8 2.9-2.4zM10.9 26.4c-1-0.8-1.8-1.8-2.4-2.9-1.1-0.6-2.1-1.5-2.9-2.4 0.6 2.6 2.7 4.7 5.3 5.3v0zM7 12.3c0.3-1.1 0.7-2.2 1.2-3.2-1.1 0.7-2 1.5-2.8 2.5-0.2 1.2-0.1 2.5 0.1 3.7 0.4-1 0.9-2.1 1.5-3v0zM8.2 22.9c-0.5-1-0.9-2.1-1.2-3.2-0.6-1-1.1-2-1.4-3.1-0.3 1.2-0.3 2.5-0.1 3.7 0.7 1.1 1.6 2 2.7 2.6v0zM6.6 16c0-0.9 0.1-1.8 0.2-2.7-0.5 0.9-0.8 1.8-1.1 2.7 0.3 0.9 0.6 1.8 1.1 2.7-0.2-0.9-0.2-1.8-0.2-2.7zM5.4 16c-0.3-1.2-0.5-2.5-0.4-3.8-1.5 2.3-1.5 5.2 0 7.6-0.1-1.3 0.1-2.6 0.4-3.8z"></path>
</svg>
