<?xml version="1.0" encoding="utf-8"?>
<!-- Generator: Adobe Illustrator 22.1.0, SVG Export Plug-In . SVG Version: 6.00 Build 0)  -->
<svg version="1.1" id="Layer_1" xmlns="http://www.w3.org/2000/svg" xmlns:xlink="http://www.w3.org/1999/xlink" x="0px" y="0px"
	 viewBox="0 0 32 32" style="enable-background:new 0 0 32 32;" xml:space="preserve">
<title>spring_boot</title>
<g>
	<path d="M25.8,14.9c-0.4-0.2-0.8-0.3-0.7-1c0.2-1.7-0.5-3.2-1.8-4.3c-2.8-2.4-6.5-2.4-9.5,0c-0.6,0.5-1,0.6-1.7,0.4
		c-2.4-0.4-5,1.4-5.2,3.6C6.9,14.3,6.7,14.6,6,15c-2.3,1.3-3.2,3.4-2.6,5.9c0.5,2.1,2.4,3.4,5,3.4c2.4,0,4.9,0,7.3,0c0,0,0,0,0,0
		c2.5,0,4.9,0,7.4,0c1.9,0,3.7-0.6,4.8-2.3C29.6,19.5,28.7,16.4,25.8,14.9z M15.7,17.3c-1.2,0.7-2.4,1.4-3.6,2.1
		c-0.4,0.3-0.5,0.1-0.7-0.2c-0.2-0.3-0.1-0.5,0.2-0.7c1-0.5,1.9-1.1,2.9-1.7c-1-0.6-1.9-1.1-2.8-1.7c-0.3-0.2-0.6-0.3-0.3-0.8
		c0.3-0.4,0.5-0.3,0.9-0.1c1.1,0.7,2.3,1.4,3.5,2.2C16.3,16.6,16.2,17,15.7,17.3z M20.8,21.9c-0.3,0-0.5,0-0.8,0c-0.3,0-0.5,0-0.8,0
		c-0.3,0-0.5,0-0.8,0c-0.3,0-0.5,0-0.8,0c-0.4,0-0.6-0.1-0.6-0.6c0-0.4,0.1-0.6,0.6-0.6c1,0,2.1,0,3.1,0c0.4,0,0.5,0.2,0.6,0.6
		C21.4,21.8,21.3,22,20.8,21.9z"/>
	<path d="M18.5,21.9c0.3,0,0.5,0,0.8,0c0.3,0,0.5,0,0.8,0c-0.3,0-0.5,0-0.8,0C19,21.9,18.8,21.9,18.5,21.9z"/>
</g>
</svg>
