<!-- Generated by IcoMoon.io -->
<svg version="1.1" xmlns="http://www.w3.org/2000/svg" width="32" height="32" viewBox="0 0 32 32">
<title>spring_hateoas</title>
<path d="M25.9 10.7c-2.6 0-5.2 0-7.8 0-1.5 0-1.9 0.4-1.9 1.9 0 1.6 0 1.6 1.6 1.6 0.5 0 0.9 0 0.8-0.7-0.1-0.5 0.3-0.5 0.6-0.5 1.8 0 3.6 0 5.4 0 0.5 0 0.6 0.1 0.6 0.6 0 1.5 0 2.9 0 4.4 0 0.5-0.1 0.7-0.7 0.7-1.8 0-3.6 0-5.3 0-0.4 0-0.7 0-0.7-0.6 0-0.3-0.2-0.3-0.4-0.4-1.9-0.3-2-0.2-2 1.6 0 0.1 0 0.2 0 0.3 0 1 0.4 1.4 1.4 1.4 1.4 0 2.8 0 4.2 0s2.8 0 4.2 0c1.1 0 1.6-0.5 1.6-1.6 0-2.4 0-4.9 0-7.3 0.1-0.9-0.4-1.4-1.6-1.4z"></path>
<path d="M15.6 20.3c0.1-0.7 0.3-1.7-0.1-2.2-0.3-0.4-1.3-0.1-1.9-0.1-0.4 0-0.3 0.4-0.3 0.6-0.1 0.4-0.4 0.3-0.6 0.3-1.8 0-3.5 0-5.3 0-0.5 0-0.7-0.1-0.6-0.6 0-1.5 0-3 0-4.5 0-0.4 0.1-0.6 0.5-0.6 1.8 0 3.6 0 5.4 0 0.3 0 0.5 0.1 0.5 0.5-0.1 0.7 0.3 0.6 0.8 0.6 1.6 0 1.6 0 1.6-1.6 0-0.1 0-0.2 0-0.4 0-1.1-0.4-1.5-1.5-1.5-1.4 0-2.7 0-4.1 0s-2.8 0-4.2 0c-0.9 0-1.5 0.5-1.5 1.4 0 2.6 0 5.2 0 7.7 0 0.8 0.5 1.4 1.3 1.4 2.9 0 5.8 0 8.7 0 0.7-0.1 1.2-0.5 1.3-1z"></path>
<path d="M11.8 10.2c0.5 0 1.2 0.3 1.1-0.7 0-0.3 0.3-0.2 0.5-0.2 1.7 0 3.5 0 5.2 0 0.2 0 0.5 0 0.5 0.3-0.1 0.6 0.3 0.6 0.7 0.6 1.7 0 1.7 0 1.7-1.7 0-0.1 0-0.2 0-0.4 0-0.9-0.4-1.3-1.3-1.3-1.4 0-2.8 0-4.2 0s-2.8 0-4.2 0c-0.9 0-1.3 0.4-1.3 1.3 0 0.2 0 0.5 0 0.7 0 1.4 0 1.4 1.3 1.4z"></path>
<path d="M20.1 21.8c-0.5 0-1-0.2-0.9 0.7 0 0.3-0.3 0.2-0.5 0.2-1.7 0-3.5 0-5.2 0-0.2 0-0.5 0-0.5-0.3 0.1-0.6-0.3-0.6-0.7-0.6-1.7 0-1.7 0-1.7 1.7 0 0.1 0 0.1 0 0.2 0 0.9 0.5 1.4 1.5 1.5 1.4 0 2.8 0 4.1 0 1.2 0 2.5 0 3.7 0 1.5 0 1.8-0.3 1.8-1.8-0.2-1.6-0.2-1.6-1.6-1.6z"></path>
<path d="M10.5 16.1c0 0.8 0.5 1.1 1.3 1.1 1.4 0 2.8 0 4.2 0s2.9 0 4.3 0c0.7 0 1.2-0.3 1.2-1.1s-0.5-1.1-1.2-1.1c-2.9 0-5.7 0-8.6 0-0.7 0-1.2 0.3-1.2 1.1z"></path>
</svg>
