<!-- Generated by IcoMoon.io -->
<svg version="1.1" xmlns="http://www.w3.org/2000/svg" width="32" height="32" viewBox="0 0 32 32">
<title>spring_for_android</title>
<path d="M7.1 11.7c-0.4 0-0.8 0.1-1.1 0.4s-0.4 0.7-0.4 1.1v6.4c0 0.4 0.1 0.8 0.4 1.1s0.7 0.4 1.1 0.4c0.4 0 0.8-0.1 1.1-0.4s0.4-0.7 0.4-1.1v-6.4c0-0.4-0.1-0.8-0.4-1.1s-0.7-0.4-1.1-0.4z"></path>
<path d="M19.4 5.9l1-1.9c0.1-0.1 0-0.2-0.1-0.3s-0.2 0-0.3 0.1l-1.1 2c-0.9-0.5-1.9-0.7-2.9-0.7s-2 0.2-3 0.6l-1.1-2c-0.1-0.1-0.2-0.1-0.3-0.1-0.1 0.1-0.1 0.2-0.1 0.3l1.1 1.9c-1.1 0.5-1.9 1.3-2.5 2.3s-0.9 2-0.9 3.2h13.7c0-1.2-0.3-2.2-0.9-3.2-0.7-0.9-1.6-1.6-2.6-2.2zM13.3 8.8c-0.1 0.1-0.2 0.2-0.4 0.2s-0.3-0.1-0.4-0.2c-0.1-0.1-0.2-0.2-0.2-0.4s0.1-0.3 0.2-0.4c0.1-0.1 0.2-0.2 0.4-0.2s0.3 0.1 0.4 0.2c0.1 0.1 0.2 0.2 0.2 0.4 0 0.1-0.1 0.3-0.2 0.4zM19.5 8.8c-0.1 0.1-0.2 0.2-0.4 0.2s-0.3-0.1-0.4-0.2c-0.1-0.1-0.2-0.2-0.2-0.4s0.1-0.3 0.2-0.4c0.1-0.1 0.2-0.2 0.4-0.2s0.3 0.1 0.4 0.2c0.1 0.1 0.2 0.2 0.2 0.4 0 0.1-0.1 0.3-0.2 0.4z"></path>
<path d="M9.2 21.8c0 0.5 0.2 0.8 0.5 1.2 0.3 0.3 0.7 0.5 1.2 0.5h1.1v3.4c0 0.4 0.1 0.8 0.4 1.1s0.7 0.4 1.1 0.4c0.4 0 0.8-0.1 1.1-0.4s0.4-0.7 0.4-1.1v-3.4h2v3.4c0 0.4 0.1 0.8 0.4 1.1s0.7 0.4 1.1 0.4c0.4 0 0.8-0.1 1.1-0.4s0.4-0.7 0.4-1.1v-3.4h1.1c0.4 0 0.8-0.2 1.1-0.5s0.5-0.7 0.5-1.2v-9.9h-13.5v9.9z"></path>
<path d="M24.9 11.7c-0.4 0-0.8 0.1-1.1 0.4s-0.4 0.6-0.4 1.1v6.4c0 0.4 0.1 0.8 0.4 1.1s0.7 0.4 1.1 0.4c0.4 0 0.8-0.1 1.1-0.4s0.4-0.7 0.4-1.1v-6.4c0-0.4-0.1-0.8-0.4-1.1s-0.7-0.4-1.1-0.4z"></path>
</svg>
