<!-- Generated by IcoMoon.io -->
<svg version="1.1" xmlns="http://www.w3.org/2000/svg" width="32" height="32" viewBox="0 0 32 32">
<title>spring_batch</title>
<path d="M26.7 12.8c0 0.5 0 0.9 0 1.4 0 0.2 0 0.3-0.2 0.4-3.5 2-6.9 4-10.4 6-0.2 0.1-0.3 0.1-0.4 0-3.5-2-7-4-10.4-6-0.3-0.1-0.3-0.2-0.3-0.4 0-1 0-1.9 0-2.9 0-0.2 0-0.2 0.2-0.3 3.5-2 6.9-4 10.4-6 0.2-0.1 0.3-0.1 0.4 0 3.5 2 6.9 4 10.4 6 0.2 0.1 0.2 0.2 0.2 0.4 0 0.4 0.1 0.9 0.1 1.4z"></path>
<path d="M5 16.1c0.3 0.2 0.6 0.3 0.8 0.5 3.2 1.9 6.5 3.7 9.7 5.6 0.2 0.1 0.4 0.1 0.6 0 3.4-2 6.8-3.9 10.2-5.9 0.1-0.1 0.2-0.1 0.3-0.2 0 0.6 0 1.1 0 1.6 0 0.2-0.2 0.2-0.3 0.2-2.6 1.5-5.2 3-7.8 4.5-0.8 0.5-1.7 0.9-2.5 1.4-0.2 0.1-0.3 0.1-0.5 0-3.4-2-6.9-4-10.4-6-0.1 0-0.2-0.1-0.1-0.3 0-0.4 0-0.9 0-1.4z"></path>
<path d="M5 19.4c0.9 0.5 1.7 1 2.6 1.5 2.7 1.5 5.3 3.1 8 4.6 0.2 0.1 0.3 0.1 0.5 0 3.4-2 6.8-3.9 10.2-5.9 0.1-0.1 0.2-0.1 0.4-0.2 0 0.6 0 1.1 0 1.6 0 0.2-0.2 0.2-0.3 0.3-2.9 1.7-5.9 3.4-8.8 5.1-0.5 0.3-1 0.6-1.5 0.9-0.1 0.1-0.3 0.1-0.4 0-3.5-2-7-4-10.4-6-0.3-0.1-0.3-0.2-0.3-0.4 0-0.4 0-0.9 0-1.5z"></path>
</svg>
