<?xml version="1.0" encoding="utf-8"?>
<!-- Generator: Adobe Illustrator 22.1.0, SVG Export Plug-In . SVG Version: 6.00 Build 0)  -->
<svg version="1.1" id="Layer_1" xmlns="http://www.w3.org/2000/svg" xmlns:xlink="http://www.w3.org/1999/xlink" x="0px" y="0px"
	 viewBox="0 0 32 32" style="enable-background:new 0 0 32 32;" xml:space="preserve">
<title>spring_boot</title>
<g>
	<path d="M26.7,12.8c0,0.5,0,0.9,0,1.4c0,0.2,0,0.3-0.2,0.4c-3.5,2-6.9,4-10.4,6c-0.2,0.1-0.3,0.1-0.4,0c-3.5-2-7-4-10.4-6
		C5,14.5,5,14.4,5,14.2c0-1,0-1.9,0-2.9C5,11.1,5,11.1,5.2,11c3.5-2,6.9-4,10.4-6c0.2-0.1,0.3-0.1,0.4,0c3.5,2,6.9,4,10.4,6
		c0.2,0.1,0.2,0.2,0.2,0.4C26.6,11.8,26.7,12.3,26.7,12.8z"/>
	<path d="M5,16.1c0.3,0.2,0.6,0.3,0.8,0.5c3.2,1.9,6.5,3.7,9.7,5.6c0.2,0.1,0.4,0.1,0.6,0c3.4-2,6.8-3.9,10.2-5.9
		c0.1-0.1,0.2-0.1,0.3-0.2c0,0.6,0,1.1,0,1.6c0,0.2-0.2,0.2-0.3,0.2c-2.6,1.5-5.2,3-7.8,4.5c-0.8,0.5-1.7,0.9-2.5,1.4
		c-0.2,0.1-0.3,0.1-0.5,0c-3.4-2-6.9-4-10.4-6C5,17.8,4.9,17.7,5,17.5C5,17.1,5,16.6,5,16.1z"/>
	<path d="M5,19.4c0.9,0.5,1.7,1,2.6,1.5c2.7,1.5,5.3,3.1,8,4.6c0.2,0.1,0.3,0.1,0.5,0c3.4-2,6.8-3.9,10.2-5.9
		c0.1-0.1,0.2-0.1,0.4-0.2c0,0.6,0,1.1,0,1.6c0,0.2-0.2,0.2-0.3,0.3c-2.9,1.7-5.9,3.4-8.8,5.1c-0.5,0.3-1,0.6-1.5,0.9
		c-0.1,0.1-0.3,0.1-0.4,0c-3.5-2-7-4-10.4-6C5,21.2,5,21.1,5,20.9C5,20.5,5,20,5,19.4z"/>
</g>
</svg>
