<!-- Generated by IcoMoon.io -->
<svg version="1.1" xmlns="http://www.w3.org/2000/svg" width="32" height="32" viewBox="0 0 32 32">
<title>spring_integration</title>
<path d="M9.8 13.7c0.4 0.4 0.7 0.8 1.1 1.1 0.2 0.2 0.3 0.2 0.4 0 2.5-2.5 5-5 7.6-7.6 0.3-0.3 0.6-0.5 1.1-0.5s0.8 0.2 1.1 0.5c2 2 4.1 4.1 6.1 6.1 0.6 0.6 1.1 1.1 1.7 1.7s0.6 1.5 0 2.1c-2.6 2.6-5.2 5.2-7.8 7.8-0.5 0.5-1.6 0.6-2.2 0-0.7-0.7-1.4-1.4-2.1-2.1-0.1-0.1-0.1-0.2 0-0.3 0.6-0.5 1.1-1.1 1.7-1.7 0.1-0.2 0.2-0.1 0.4 0 0.3 0.3 0.6 0.6 0.9 1 0.1 0.1 0.2 0.2 0.4 0 1.7-1.7 3.3-3.3 5-5 0.2-0.2 0.4-0.4 0.6-0.6s0.1-0.3 0-0.4c-0.9-0.9-1.7-1.7-2.6-2.6-1-1-2-1.9-2.9-2.9-0.2-0.2-0.3-0.2-0.4 0-2.2 2.2-4.3 4.3-6.5 6.5-0.2 0.2-0.2 0.2 0 0.4 0.4 0.3 0.7 0.7 1.1 1.1-0.1 0.1-0.2 0.1-0.2 0.1-1.4 0-2.8 0-4.1 0-0.2 0-0.3 0-0.3-0.2 0-1.4 0-2.9 0-4.3-0.2-0.1-0.2-0.1-0.1-0.2z"></path>
<path d="M17.7 13.8c-0.1 0-0.1-0.1 0-0.1 0 0 0.1 0 0.2 0 1.4 0 2.8 0 4.1 0 0.2 0 0.3 0 0.3 0.2 0 1.4 0 2.9 0 4.3 0 0 0 0.1 0 0.2-0.4-0.4-0.7-0.8-1.1-1.1-0.2-0.2-0.3-0.2-0.5 0-2.5 2.5-5 5-7.5 7.5-0.3 0.3-0.7 0.5-1.2 0.5-0.4 0-0.8-0.2-1.1-0.5-2.6-2.6-5.2-5.2-7.8-7.8-0.6-0.6-0.6-1.6 0-2.2 2.6-2.6 5.2-5.2 7.8-7.8 0.7-0.7 1.5-0.7 2.2 0s1.4 1.4 2.1 2.1c0.1 0.1 0.2 0.2 0 0.3-0.6 0.5-1.1 1.1-1.7 1.7-0.2 0.2-0.2 0.1-0.4 0-0.3-0.3-0.6-0.6-0.9-1-0.1-0.1-0.2-0.2-0.3 0-1.9 2-3.8 3.9-5.6 5.8-0.1 0.1-0.1 0.2 0 0.3 1.9 1.9 3.7 3.7 5.6 5.6 0.1 0.1 0.2 0.1 0.3 0 2.2-2.2 4.4-4.4 6.5-6.5 0.1-0.1 0.1-0.2 0-0.4-0.3-0.4-0.6-0.7-1-1.1 0.1-0.1 0.1 0 0.2 0 1.3 0 2.7 0 4 0 0 0 0.1 0 0.1 0-1.3 0-2.6 0-4 0-0.1 0-0.2 0-0.3 0z"></path>
<path d="M9.9 18.2c1.4 0 2.9 0 4.3 0 0 0 0 0 0 0-1.5 0.1-2.9 0.1-4.3 0 0 0.1 0 0.1 0 0z"></path>
<path d="M17.7 13.8c0.1-0.1 0.2-0.1 0.2-0.1 1.4 0 2.7 0 4.1 0 0 0 0.1 0 0.1 0.1-1.4 0-2.9 0-4.4 0 0 0 0 0 0 0z"></path>
</svg>
