<!-- Generated by IcoMoon.io -->
<svg version="1.1" xmlns="http://www.w3.org/2000/svg" width="32" height="32" viewBox="0 0 32 32">
<title>spring_web_flow</title>
<path d="M26.5 20.3c-0.5 1.3-1.3 2.5-2.3 3.5-1.3 1.4-2.8 2.3-4.6 2.9-1.4 0.5-2.9 0.7-4.4 0.6-2.1-0.2-4-0.8-5.7-2s-3-2.7-3.9-4.6c-0.1-0.2-0.1-0.3-0.1-0.5 0.1-1.8 0.7-3.5 1.9-4.9 1.3-1.5 2.9-2.3 4.8-2.8 0.8-0.2 1.5-0.2 2.3-0.2 0.2 0 0.3 0.1 0.3 0.3 0 0.4 0 0.7 0 1.1 0.3-0.1 0.4-0.4 0.5-0.5 0.8-0.9 1.6-1.9 2.4-2.8 0.2-0.2 0.2-0.3 0-0.6-0.9-1.1-1.9-2.2-2.8-3.3 0 0 0 0-0.1 0 0 0.4 0 0.7 0 1s-0.1 0.4-0.4 0.4c-1.5 0-2.8 0.3-4.1 0.9-1.2 0.6-2.3 1.5-3.2 2.6-1 1.3-1.7 2.6-2.2 4.2-0.2 0.6-0.2 1.3-0.2 1.9-0.1-1-0.1-2.1 0-3.1 0.3-1.7 0.9-3.3 1.8-4.7 1.4-2 3.2-3.4 5.5-4.3 1.5-0.5 3-0.8 4.6-0.7 1.9 0.1 3.7 0.7 5.3 1.7 2 1.2 3.4 2.9 4.4 4.9 0.2 0.5 0.1 0.9 0 1.3-0.1 1.1-0.5 2.2-1.1 3.2-0.5 0.8-1.2 1.5-1.9 2.1-1.3 1-2.7 1.5-4.3 1.7-0.5 0.1-1.1 0.1-1.6 0.1-0.2 0-0.3-0.1-0.3-0.3 0-0.4 0-0.7 0-1.2-0.3 0.4-0.6 0.7-0.8 0.9-0.7 0.9-1.4 1.7-2.2 2.6-0.1 0.2-0.1 0.2 0 0.4 0.8 1 1.7 2 2.5 3 0.1 0.1 0.2 0.3 0.4 0.4 0 0 0.1 0 0.1 0 0-0.3 0-0.6 0-0.9s0.1-0.4 0.4-0.4c1.5 0 3-0.3 4.4-1.1 1.2-0.6 2.2-1.5 3-2.5 0.7-0.9 1.4-1.9 1.8-3 0.3-0.8 0.6-1.6 0.6-2.4 0 0 0 0 0 0s0 0 0 0c0-0.3 0-0.5 0-0.8 0 0 0 0 0.1 0 0 0.4 0.1 0.7 0.1 1.1-0.1 1.6-0.3 3.2-1 4.8z"></path>
<path d="M27.2 15.2c0 0 0 0 0 0 0 0.8-0.3 1.6-0.6 2.4-0.4 1.1-1.1 2.1-1.8 3-0.8 1-1.8 1.9-3 2.5-1.3 0.7-2.8 1.1-4.4 1.1-0.3 0-0.4 0.1-0.4 0.4s0 0.6 0 0.9c0 0-0.1 0-0.1 0-0.1-0.1-0.2-0.3-0.4-0.4-0.8-1-1.7-2-2.5-3-0.1-0.1-0.1-0.2 0-0.4 0.7-0.9 1.4-1.7 2.2-2.6 0.2-0.3 0.5-0.6 0.8-0.9 0 0.5 0 0.8 0 1.2 0 0.2 0.1 0.3 0.3 0.3 0.6 0 1.1 0 1.6-0.1 1.5-0.2 3-0.8 4.3-1.7 0.8-0.6 1.4-1.3 1.9-2.1 0.6-1 1-2 1.1-3.2 0.1-0.4 0.2-0.9 0-1.3-1-2.1-2.4-3.7-4.4-4.9-1.6-1-3.4-1.5-5.3-1.7-1.6-0.1-3.1 0.1-4.6 0.7-2.1 0.8-3.9 2.2-5.3 4.2-1 1.4-1.6 3-1.8 4.7-0.2 1.1-0.1 2.1 0 3.1 0-0.7 0.1-1.3 0.2-1.9 0.4-1.5 1.2-2.9 2.2-4.2 0.9-1.1 2-2 3.2-2.7 1.3-0.7 2.7-1 4.1-0.9 0.3 0 0.4-0.1 0.4-0.4s0-0.7 0-1c0.1 0 0.1 0 0.1 0 0.9 1.1 1.8 2.2 2.8 3.3 0.2 0.2 0.2 0.4 0 0.6-0.8 0.9-1.6 1.9-2.4 2.8-0.2 0.2-0.2 0.4-0.5 0.5 0-0.4 0-0.7 0-1.1 0-0.2-0.1-0.3-0.3-0.3-0.8 0-1.5 0.1-2.3 0.2-1.9 0.4-3.5 1.3-4.8 2.8-1.2 1.4-1.8 3.1-1.9 4.9 0 0.2 0 0.3 0.1 0.5 0.9 1.9 2.2 3.4 3.9 4.6s3.7 1.8 5.7 2c1.5 0.1 2.9-0.1 4.4-0.6 1.8-0.6 3.3-1.6 4.6-2.9 1-1 1.7-2.2 2.3-3.5 0.6-1.5 0.9-3.1 0.8-4.8-0.2 0.1-0.1-0.1-0.2-0.1z"></path>
<path d="M27.4 15.5c0-0.4-0.1-0.7-0.1-1.1 0 0 0 0-0.1 0 0 0.3 0 0.5 0 0.8 0 0 0 0 0 0 0.2 0 0.1 0.2 0.2 0.3z"></path>
<path d="M27.4 15.5c-0.1-0.1 0.1-0.3-0.1-0.3 0 0-0.1 0.2 0.1 0.3z"></path>
</svg>
