<?xml version="1.0" encoding="utf-8"?>
<!-- Generator: Adobe Illustrator 22.1.0, SVG Export Plug-In . SVG Version: 6.00 Build 0)  -->
<svg version="1.1" id="Layer_1" xmlns="http://www.w3.org/2000/svg" xmlns:xlink="http://www.w3.org/1999/xlink" x="0px" y="0px"
	 viewBox="0 0 32 32" style="enable-background:new 0 0 32 32;" xml:space="preserve">
<title>spring_boot</title>
<path d="M13.6,14.1c1.4,0,2.7,0,3.9,0c1.2,0,1.9,0.6,1.9,1.6c0,1-0.7,1.5-1.9,1.6c-1.6,0.1-3.1-0.2-4.7,0.2
	c-2.3,0.6-3.4,2.4-4.5,4.2c-0.1,0.2,0,0.5,0,0.8c0,1.3-0.9,2.5-2.1,2.7c-1.3,0.2-2.6-0.6-2.9-1.9c-0.3-1.3,0.3-2.7,1.6-3.1
	c0.6-0.2,1-0.6,1.3-1.1c1.9-2.8,3.8-5.7,5.8-8.4c1.8-2.5,4.2-3.8,7.3-3.8c2.6,0,5.1,0,7.7,0c1.2,0,1.9,0.6,1.9,1.6
	c0,1-0.7,1.6-1.9,1.6c-2.5,0-4.9,0-7.4,0C16.7,10.1,14.9,11.6,13.6,14.1z M23.1,9c1.6,0,2.9,0,4.3,0c0.9,0,1-0.3,0.5-1.1
	c-0.3-0.6-0.8-0.7-1.4-0.7c-1.6,0-3.3,0.2-4.9,0c-2.5-0.3-4.5,0.6-6.5,1.6c-0.7,0.4-1.5,0.8-2,1.5c-2.2,3.2-4.5,6.4-6.7,9.7
	c-0.3,0.4-0.7,0.7-1.2,1c-0.9,0.3-1.3,1.1-1.1,1.9c0.2,0.7,1.1,1.6,1.7,1.6c0.6,0,1.6-1,1.6-1.7c-0.1-1.4,0.8-2.4,1.5-3.3
	c1.4-1.8,3.1-3,5.5-3.1c1,0,2.1,0.2,3.1,0c0.5-0.1,1.1-0.1,1.1-0.7c0.1-0.6-0.4-0.7-1-0.9c-1.2-0.3-2.4-0.1-3.6-0.2
	c-0.7,0-1.2-0.6-0.8-1.3c1.2-2.1,2.8-3.7,5.3-4.3C20.1,8.8,21.7,9.1,23.1,9z"/>
<path d="M23.8,15.7c0,1-0.8,1.9-1.8,1.8c-1,0-1.9-0.9-1.8-1.9c0-1,0.7-1.7,1.6-1.7C23,13.9,23.8,14.6,23.8,15.7z M22.1,16.7
	c0.6,0,0.9-0.5,0.9-1.1c0-0.6-0.5-0.8-1.1-0.8c-0.7,0-1.2,0.4-1.1,1C20.8,16.4,21.3,16.7,22.1,16.7z"/>
<path d="M23.1,9c-1.4,0.1-3.1-0.2-4.7,0.2c-2.5,0.6-4,2.2-5.3,4.3c-0.4,0.6,0.1,1.2,0.8,1.3c1.2,0.1,2.4-0.1,3.6,0.2
	c0.5,0.1,1,0.2,1,0.9c-0.1,0.6-0.6,0.7-1.1,0.7c-1,0.2-2.1,0-3.1,0c-2.4,0-4.2,1.3-5.5,3.1c-0.7,1-1.5,1.9-1.5,3.3
	c0,0.7-1,1.6-1.6,1.7c-0.5,0-1.5-0.9-1.7-1.6c-0.2-0.8,0.3-1.6,1.1-1.9c0.5-0.2,0.9-0.5,1.2-1c2.2-3.2,4.5-6.4,6.7-9.7
	c0.5-0.7,1.3-1.1,2-1.5c2-1,4-1.9,6.5-1.6c1.6,0.2,3.3,0,4.9,0c0.6,0,1.1,0.1,1.4,0.7C28.4,8.6,28.3,9,27.4,9C26,9,24.7,9,23.1,9z"
	/>
<path d="M22.1,16.7c-0.8,0-1.3-0.3-1.3-0.9c0-0.7,0.4-1,1.1-1c0.6,0,1.1,0.2,1.1,0.8C23.1,16.2,22.7,16.7,22.1,16.7z"/>
</svg>
