<!-- Generated by IcoMoon.io -->
<svg version="1.1" xmlns="http://www.w3.org/2000/svg" width="32" height="32" viewBox="0 0 32 32">
<title>spring_kafka</title>
<path d="M8.5 13.6c0.4 0.3 0.7 0.5 1.1 0.8 1.3 0.8 2.6 1.5 4 2 0.3 0.1 0.4 0.2 0.4 0.5 0.5 2.1 1.8 3.4 3.9 3.9 0.3 0.1 0.4 0.2 0.4 0.5 0 0 0 0.1 0 0.1 0.1 0.7 0 1.1-0.8 1.4s-1.2 1-1.4 1.9c-0.1 0.3-0.2 0.3-0.5 0.3-1.6-0.4-3.1-1-4.4-2-2.7-1.9-4.5-4.6-5.9-7.6-1-2.4-1.6-5-1.9-7.6 0-0.6 0-1.2 0-1.8 0-0.1-0.1-0.2 0.1-0.3 0.1 0 0.2 0.1 0.3 0.1 1 0.9 2.2 1.5 3.5 1.9 1.1 0.5 2.4 0.5 3.7 0.4 1.6-0.1 3.1-0.6 4.6-1 0.3-0.1 0.4 0 0.5 0.3 0.3 1 0.8 1.7 1.8 2 0.3 0.1 0.4 0.3 0.4 0.6s0.1 0.7-0.1 1c-0.2 0.3-0.6 0.2-0.9 0.3-1.5 0.6-2.6 1.6-3.1 3.2-0.2 0.5-0.2 0.5-0.7 0.4-1.7-0.3-3.3-0.7-4.9-1.4 0 0 0 0-0.1 0.1 0 0 0 0 0 0z"></path>
<path d="M22.6 16c0 2.1-1.6 3.7-3.8 3.8-2.1 0-3.7-1.7-3.7-3.8 0-2 1.7-3.8 3.8-3.7 2.1 0 3.8 1.6 3.7 3.7z"></path>
<path d="M22 7.3c0.3 0.1 0.7 0.3 1.1 0.5 0.6 0.3 1.2 0.7 1.8 1.2 0.2 0.2 0.2 0.3 0 0.4-0.8 0.7-1 1.6-0.8 2.6 0 0.2 0 0.4-0.2 0.5-0.3 0.1-0.5 0.3-0.7 0.4s-0.3 0.1-0.5-0.1c-0.3-0.4-0.7-0.7-1.1-1-0.5-0.3-1.1-0.5-1.7-0.7-0.3-0.1-0.4-0.2-0.4-0.4 0 0 0-0.1 0-0.1-0.1-0.7 0-1.1 0.8-1.4 0.7-0.2 1.1-0.9 1.3-1.6 0.1-0.1 0.1-0.3 0.4-0.3z"></path>
<path d="M24.1 19.9c-0.2 0.7-0.1 1.3 0.2 1.9 0.1 0.3 0.4 0.6 0.6 0.9 0.1 0.2 0.1 0.2 0 0.4-0.8 0.7-1.7 1.2-2.7 1.6-0.3 0.1-0.4 0-0.5-0.2-0.3-1-1-1.6-1.9-2-0.2-0.1-0.3-0.2-0.3-0.3 0 0 0-0.1 0-0.1 0-0.3-0.1-0.7 0-1 0.1-0.4 0.6-0.3 0.9-0.4 0.8-0.3 1.5-0.7 2.1-1.4 0.2-0.3 0.4-0.4 0.7-0.1 0.2 0.2 0.5 0.3 0.7 0.4 0.2 0 0.2 0.1 0.2 0.3z"></path>
<path d="M28.1 16c0 0.5-0.1 1.1-0.1 1.6 0 0.3-0.2 0.4-0.4 0.3-1-0.2-1.8 0-2.6 0.7-0.1 0.1-0.3 0.2-0.4 0.1-0.3-0.2-0.6-0.3-0.9-0.5-0.2-0.1-0.2-0.3-0.2-0.5 0.4-1.1 0.4-2.2 0-3.3-0.1-0.2 0-0.4 0.2-0.5 0 0 0.1 0 0.1 0 0.6-0.5 1.1-0.5 1.7 0 0.5 0.4 1.2 0.5 1.9 0.3 0.5-0.1 0.5-0.1 0.6 0.4s0.2 0.9 0.1 1.4z"></path>
<path d="M25.2 11.4c0-1 0.8-1.7 1.7-1.7s1.7 0.8 1.7 1.7c0 0.9-0.8 1.7-1.7 1.7-1.1 0-1.8-0.9-1.7-1.7z"></path>
<path d="M26.9 18.9c1 0 1.7 0.7 1.7 1.7s-0.8 1.8-1.8 1.8c-0.9 0-1.7-0.8-1.7-1.7 0.1-1.1 0.8-1.8 1.8-1.8z"></path>
<path d="M18.9 8.4c-1 0-1.7-0.7-1.7-1.7 0-0.9 0.8-1.7 1.7-1.7 1 0 1.7 0.8 1.7 1.8 0 0.9-0.7 1.6-1.7 1.6z"></path>
<path d="M18.9 23.6c1 0 1.7 0.7 1.7 1.7s-0.8 1.7-1.7 1.7c-0.9 0-1.7-0.8-1.7-1.7 0-1 0.7-1.7 1.7-1.7z"></path>
</svg>
