<?xml version="1.0" encoding="utf-8"?>
<!-- Generator: Adobe Illustrator 22.1.0, SVG Export Plug-In . SVG Version: 6.00 Build 0)  -->
<svg version="1.1" id="Layer_1" xmlns="http://www.w3.org/2000/svg" xmlns:xlink="http://www.w3.org/1999/xlink" x="0px" y="0px"
	 viewBox="0 0 32 32" style="enable-background:new 0 0 32 32;" xml:space="preserve">
<title>spring_boot</title>
<path d="M8.5,13.6c0.4,0.3,0.7,0.5,1.1,0.8c1.3,0.8,2.6,1.5,4,2c0.3,0.1,0.4,0.2,0.4,0.5c0.5,2.1,1.8,3.4,3.9,3.9
	c0.3,0.1,0.4,0.2,0.4,0.5c0,0,0,0.1,0,0.1c0.1,0.7,0,1.1-0.8,1.4c-0.8,0.3-1.2,1-1.4,1.9C16,25,15.9,25,15.6,25
	c-1.6-0.4-3.1-1-4.4-2c-2.7-1.9-4.5-4.6-5.9-7.6c-1-2.4-1.6-5-1.9-7.6C3.4,7.2,3.4,6.6,3.4,6c0-0.1-0.1-0.2,0.1-0.3
	c0.1,0,0.2,0.1,0.3,0.1c1,0.9,2.2,1.5,3.5,1.9C8.4,8.2,9.7,8.2,11,8.1c1.6-0.1,3.1-0.6,4.6-1c0.3-0.1,0.4,0,0.5,0.3
	c0.3,1,0.8,1.7,1.8,2c0.3,0.1,0.4,0.3,0.4,0.6c0,0.3,0.1,0.7-0.1,1c-0.2,0.3-0.6,0.2-0.9,0.3c-1.5,0.6-2.6,1.6-3.1,3.2
	C14,15,14,15,13.5,14.9c-1.7-0.3-3.3-0.7-4.9-1.4C8.6,13.5,8.6,13.5,8.5,13.6C8.5,13.6,8.5,13.6,8.5,13.6z"/>
<path d="M22.6,16c0,2.1-1.6,3.7-3.8,3.8c-2.1,0-3.7-1.7-3.7-3.8c0-2,1.7-3.8,3.8-3.7C21,12.3,22.7,13.9,22.6,16z"/>
<path d="M22,7.3c0.3,0.1,0.7,0.3,1.1,0.5c0.6,0.3,1.2,0.7,1.8,1.2c0.2,0.2,0.2,0.3,0,0.4c-0.8,0.7-1,1.6-0.8,2.6
	c0,0.2,0,0.4-0.2,0.5c-0.3,0.1-0.5,0.3-0.7,0.4c-0.2,0.1-0.3,0.1-0.5-0.1c-0.3-0.4-0.7-0.7-1.1-1c-0.5-0.3-1.1-0.5-1.7-0.7
	c-0.3-0.1-0.4-0.2-0.4-0.4c0,0,0-0.1,0-0.1c-0.1-0.7,0-1.1,0.8-1.4C21,9,21.4,8.3,21.6,7.6C21.7,7.5,21.7,7.3,22,7.3z"/>
<path d="M24.1,19.9c-0.2,0.7-0.1,1.3,0.2,1.9c0.1,0.3,0.4,0.6,0.6,0.9c0.1,0.2,0.1,0.2,0,0.4c-0.8,0.7-1.7,1.2-2.7,1.6
	c-0.3,0.1-0.4,0-0.5-0.2c-0.3-1-1-1.6-1.9-2c-0.2-0.1-0.3-0.2-0.3-0.3c0,0,0-0.1,0-0.1c0-0.3-0.1-0.7,0-1c0.1-0.4,0.6-0.3,0.9-0.4
	c0.8-0.3,1.5-0.7,2.1-1.4c0.2-0.3,0.4-0.4,0.7-0.1c0.2,0.2,0.5,0.3,0.7,0.4C24.1,19.6,24.1,19.7,24.1,19.9z"/>
<path d="M28.1,16c0,0.5-0.1,1.1-0.1,1.6c0,0.3-0.2,0.4-0.4,0.3c-1-0.2-1.8,0-2.6,0.7c-0.1,0.1-0.3,0.2-0.4,0.1
	c-0.3-0.2-0.6-0.3-0.9-0.5c-0.2-0.1-0.2-0.3-0.2-0.5c0.4-1.1,0.4-2.2,0-3.3c-0.1-0.2,0-0.4,0.2-0.5c0,0,0.1,0,0.1,0
	c0.6-0.5,1.1-0.5,1.7,0c0.5,0.4,1.2,0.5,1.9,0.3c0.5-0.1,0.5-0.1,0.6,0.4C28.1,15.1,28.2,15.5,28.1,16z"/>
<path d="M25.2,11.4c0-1,0.8-1.7,1.7-1.7c0.9,0,1.7,0.8,1.7,1.7c0,0.9-0.8,1.7-1.7,1.7C25.8,13.1,25.1,12.2,25.2,11.4z"/>
<path d="M26.9,18.9c1,0,1.7,0.7,1.7,1.7c0,1-0.8,1.8-1.8,1.8c-0.9,0-1.7-0.8-1.7-1.7C25.2,19.6,25.9,18.9,26.9,18.9z"/>
<path d="M18.9,8.4c-1,0-1.7-0.7-1.7-1.7c0-0.9,0.8-1.7,1.7-1.7c1,0,1.7,0.8,1.7,1.8C20.6,7.7,19.9,8.4,18.9,8.4z"/>
<path d="M18.9,23.6c1,0,1.7,0.7,1.7,1.7c0,1-0.8,1.7-1.7,1.7c-0.9,0-1.7-0.8-1.7-1.7C17.2,24.3,17.9,23.6,18.9,23.6z"/>
</svg>
