<!-- Generated by IcoMoon.io -->
<svg version="1.1" xmlns="http://www.w3.org/2000/svg" width="32" height="32" viewBox="0 0 32 32">
<title>spring_cloud</title>
<path d="M24.6 14c-0.2-1.5-0.7-3.2-1.3-5.2-0.2 0.6-0.5 1.1-0.9 1.6-3.2-3.3-8.4-3.3-11.6-0.2-0.5 0.5-1 1.1-1.3 1.7 1.2 0.1 2.4 0.6 3.4 1.4-0.9-0.6-2-0.9-3.2-0.9-3.2 0-5.8 2.6-5.8 5.8s2.6 5.8 5.8 5.8h13.3c2.8 0 5.1-2.3 5.1-5.1 0.1-2.2-1.4-4.2-3.5-4.9zM12.1 22.3c-0.2 0.3-0.7 0.3-1 0.1s-0.3-0.7-0.1-1c0.2-0.3 0.7-0.3 1-0.1s0.3 0.7 0.1 1c0 0 0 0 0 0zM23.2 19.8c-2 2.7-6.4 1.8-9.1 1.9 0 0-0.5 0-1 0.1 0 0 0.2-0.1 0.4-0.2 2-0.7 2.9-0.8 4.1-1.4 2.2-1.1 4.4-3.6 4.9-6.2-0.8 2.5-3.4 4.6-5.8 5.5-1.6 0.6-4.5 1.2-4.5 1.2l-0.1-0.1c-2-1-2-5.2 1.6-6.6 1.6-0.6 3.1-0.3 4.8-0.7 1.8-0.4 3.9-1.8 4.8-3.6 0.9 2.9 2 7.3-0.1 10.1z"></path>
</svg>
