<?xml version="1.0" encoding="utf-8"?>
<!-- Generator: Adobe Illustrator 22.1.0, SVG Export Plug-In . SVG Version: 6.00 Build 0)  -->
<svg version="1.1" id="Layer_1" xmlns="http://www.w3.org/2000/svg" xmlns:xlink="http://www.w3.org/1999/xlink" x="0px" y="0px"
	 viewBox="0 0 32 32" style="enable-background:new 0 0 32 32;" xml:space="preserve">
<title>spring_boot</title>
<g>
	<path d="M7.9,17c0-0.6,0-1.3,0-2c0-0.3,0.1-0.7,0-1C7.9,15,7.8,16,7.9,17z"/>
	<path d="M23.9,16.4c0-0.7,0-1.4,0-2.1c0-0.3-0.1-0.4-0.4-0.4c-1.1,0-2.2,0-3.3,0c-0.6,0-0.6,0-0.6-0.6c0-0.2,0-0.3,0.3-0.3
		c1.2,0,2.5,0,3.7,0c0.2,0,0.3-0.1,0.3-0.3c0-1.9,0-3.8,0-5.7c0-0.2-0.1-0.3-0.2-0.3c-2.5-0.6-5.1-1.2-7.6-1.8c-0.2,0-0.3,0-0.4,0
		c-1.5,0.4-3,0.7-4.5,1.1C10.1,6.3,9,6.5,7.9,6.8C7.8,6.9,7.8,7,7.8,7c0,1.9,0,3.8,0,5.7C7.8,13,7.9,13,8.1,13c1.1,0,2.3,0,3.4,0
		c0.5,0,0.5,0,0.5,0.5c0,0.3-0.1,0.4-0.4,0.4c-1.3,0-2.5,0-3.8,0c0.1,0.3,0,0.7,0,1c0,0.7,0,1.4,0,2c0-0.9,0-2,0-3
		c-0.1,0.1-0.1,0.2-0.1,0.3c0,0.8,0,1.6,0,2.3c0,1.9,0.5,3.7,1.6,5.3c1.6,2.4,3.8,4.1,6.3,5.5c0.1,0.1,0.3,0.1,0.4,0
		c2.2-1.2,4.1-2.7,5.7-4.6C23.2,20.8,24,18.8,23.9,16.4z M16.2,16.5c-0.3,0-0.5,0-0.8,0c0,0,0,0,0,0C15.7,16.4,16,16.4,16.2,16.5
		C16.2,16.5,16.2,16.5,16.2,16.5z M15.8,16.4c-1.6,0-2.9-1.3-2.9-2.9c0-1.6,1.3-2.9,2.9-2.9c1.6,0,2.9,1.3,2.9,2.9
		C18.7,15.1,17.4,16.4,15.8,16.4z"/>
	<path d="M15.5,16.5c0.3,0,0.5,0,0.8,0c0,0,0,0,0,0C16,16.4,15.7,16.4,15.5,16.5C15.5,16.5,15.5,16.5,15.5,16.5z"/>
	<path d="M16.1,13.9C16.1,13.9,16.1,13.9,16.1,13.9C16.1,13.9,16.1,13.9,16.1,13.9C16.1,13.9,16.1,13.9,16.1,13.9z"/>
	<polygon points="16.1,15.1 16.1,15.1 16.1,15.1 	"/>
	<polygon points="16.1,15.1 16.1,15.1 16.1,15.1 	"/>
	<polygon points="16.1,15.1 16.1,15.1 16.1,15.1 16.1,15.1 	"/>
	<path d="M15.3,12.3c-0.3,0.3-0.3,0.8,0,1.1c0.2,0.2,0.3,0.4,0.4,0.7c0.1,0.1,0.2,0.2,0.1,0.3c-0.1,0.1-0.1,0.2,0,0.3
		c0,0.1,0.1,0.2,0,0.2c-0.1,0.1-0.1,0.2,0,0.3c0.2,0.1,0.2-0.1,0.3-0.2c0,0,0,0,0,0c-0.1-0.4-0.1-0.8,0-1.1c0,0,0-0.1,0-0.1
		c0,0,0,0.1,0,0.1c0-0.1,0-0.2,0-0.3c0,0.5,0,1,0,1.5c0,0,0,0,0,0c0.1-0.4,0-0.8,0.1-1.2c0-0.2,0-0.3,0.2-0.5c0.3-0.3,0.3-0.8,0-1.1
		C16.1,12,15.6,12,15.3,12.3z M15.8,12.9c-0.2,0-0.3-0.1-0.3-0.3c0-0.2,0.1-0.3,0.3-0.3c0.2,0,0.3,0.1,0.3,0.3
		C16.1,12.8,16,12.9,15.8,12.9z"/>
	<polygon points="16.1,15.1 16.1,15.1 16.1,15.1 16.1,15.1 	"/>
	<path d="M16.1,14.2c0,0.3,0,0.6,0,0.9C16.1,14.7,16.1,14.4,16.1,14.2z"/>
	<polygon points="16.1,15.1 16.1,15.1 16.1,15.1 	"/>
	<path d="M16.1,14.2c0,0.3,0,0.6,0,0.9c0,0,0,0,0,0c0-0.5,0-1,0-1.5c0,0.1,0,0.2,0,0.3C16.1,14,16.1,14.1,16.1,14.2z"/>
	<path d="M16.1,15.1C16.1,15.1,16.1,15.1,16.1,15.1C16.1,15.1,16.1,15.1,16.1,15.1C16.1,15.1,16.1,15.1,16.1,15.1
		C16.1,15.1,16.1,15.1,16.1,15.1z"/>
	<polygon points="16.1,15.1 16.1,15.1 16.1,15.1 	"/>
	<polygon points="16.1,15.1 16.1,15.1 16.1,15.1 	"/>
	<path d="M16.1,14.2c0-0.1,0-0.1,0-0.2c0,0.4-0.1,0.8,0,1.1c0,0,0,0,0,0C16.1,14.7,16.1,14.4,16.1,14.2z"/>
	<path d="M16.1,14.2c0-0.1,0-0.1,0-0.2c0,0,0,0,0,0C16.1,14,16.1,14.1,16.1,14.2z"/>
	<polygon points="16.1,15.1 16.1,15.1 16.1,15.1 16.1,15.1 	"/>
</g>
</svg>
