<!-- Generated by IcoMoon.io -->
<svg version="1.1" xmlns="http://www.w3.org/2000/svg" width="32" height="32" viewBox="0 0 32 32">
<title>susy</title>
<path d="M2.4 15.7v-0.3c1.3-1.1 3-2.7 4.2-4l0.6 0.4c-0.7 1.3-1.7 2.6-2.7 3.6 1.6 2 1.6 2.1 2.7 3.7l-0.6 0.4c-0.6-0.6-0.8-0.9-1.6-1.6-0.9-0.9-0.8-0.8-2.2-1.9l-0.4-0.3zM7.8 21.8l1.1-0.6c2.1 3.2 5.4 5.4 8 5.4 2.5 0 4.3-1.8 4.3-4.4 0-2.5-1.5-3.8-5.7-5-5-1.4-6.9-3.2-6.9-6.8s2.8-6.5 6.2-6.5c0.9 0 0.9 0 3.1 0.7 0.3 0.1 0.7 0.2 0.9 0.2s0.6-0.1 0.9-0.2l1.2-0.6 2.2 6-1.1 0.7c-2-3.3-4.6-5.2-7.1-5.2-2.2 0-3.8 1.6-3.8 3.9 0 2.2 1.5 3.6 4.6 4.4 1.5 0.4 2.6 0.7 3.1 0.8 3.1 0.9 5 3.4 5 6.5 0 3.9-3 7-6.9 7-1.2 0-1.8-0.1-3.2-0.8-0.6-0.3-1-0.4-1.3-0.4s-0.6 0.1-1 0.3l-1.3 0.8-2.3-6.2zM24.8 19.1c1-1.7 1.1-1.8 2.6-3.7-1-1-2-2.4-2.7-3.6l0.7-0.4c1.2 1.3 2.8 2.9 4.2 4v0.3l-1.3 1.1c-0.5 0.4-1.9 1.8-2.9 2.8l-0.6-0.5z"></path>
</svg>
