<?xml version="1.0" encoding="utf-8"?>
<!-- Generator: Adobe Illustrator 21.1.0, SVG Export Plug-In . SVG Version: 6.00 Build 0)  -->
<!DOCTYPE svg PUBLIC "-//W3C//DTD SVG 1.1//EN" "http://www.w3.org/Graphics/SVG/1.1/DTD/svg11.dtd">
<svg version="1.1" id="Layer_1" xmlns="http://www.w3.org/2000/svg" xmlns:xlink="http://www.w3.org/1999/xlink" x="0px" y="0px"
	 viewBox="0 0 32 32" style="enable-background:new 0 0 32 32;" xml:space="preserve">
<title>android</title>
<path d="M2.4,15.7v-0.3c1.3-1.1,3-2.7,4.2-4l0.6,0.4c-0.7,1.3-1.7,2.6-2.7,3.6c1.6,2,1.6,2.1,2.7,3.7l-0.6,0.4
	c-0.6-0.6-0.8-0.9-1.6-1.6C4.1,17,4.2,17.1,2.8,16L2.4,15.7L2.4,15.7z M7.8,21.8l1.1-0.6c2.1,3.2,5.4,5.4,8,5.4
	c2.5,0,4.3-1.8,4.3-4.4c0-2.5-1.5-3.8-5.7-5c-5-1.4-6.9-3.2-6.9-6.8c0-3.6,2.8-6.5,6.2-6.5c0.9,0,0.9,0,3.1,0.7
	c0.3,0.1,0.7,0.2,0.9,0.2c0.2,0,0.6-0.1,0.9-0.2L20.9,4l2.2,6L22,10.7c-2-3.3-4.6-5.2-7.1-5.2c-2.2,0-3.8,1.6-3.8,3.9
	c0,2.2,1.5,3.6,4.6,4.4c1.5,0.4,2.6,0.7,3.1,0.8c3.1,0.9,5,3.4,5,6.5c0,3.9-3,7-6.9,7c-1.2,0-1.8-0.1-3.2-0.8
	c-0.6-0.3-1-0.4-1.3-0.4c-0.3,0-0.6,0.1-1,0.3L10.1,28L7.8,21.8L7.8,21.8z M24.8,19.1c1-1.7,1.1-1.8,2.6-3.7c-1-1-2-2.4-2.7-3.6
	l0.7-0.4c1.2,1.3,2.8,2.9,4.2,4v0.3l-1.3,1.1c-0.5,0.4-1.9,1.8-2.9,2.8L24.8,19.1L24.8,19.1z"/>
</svg>
