<!-- Generated by IcoMoon.io -->
<svg version="1.1" xmlns="http://www.w3.org/2000/svg" width="32" height="32" viewBox="0 0 32 32">
<title>thenounproject</title>
<path d="M22.3 19.3c0-2.2 0-4.5 0-6.7 2.2 0 4.4 0 6.6 0 0 2.2 0 4.5 0 6.7-2.2 0-4.4 0-6.6 0z"></path>
<path d="M3.1 16c0-1.9 1.5-3.4 3.4-3.4s3.4 1.5 3.4 3.4c0 1.9-1.5 3.4-3.4 3.4s-3.4-1.5-3.4-3.4z"></path>
<path d="M18.1 12.6c0.5 0.5 0.9 0.9 1.3 1.3-0.7 0.7-1.4 1.4-2.1 2.1 0.7 0.7 1.5 1.4 2.1 2.1-0.4 0.4-0.8 0.8-1.3 1.3-0.7-0.7-1.4-1.4-2.1-2.1-0.8 0.8-1.5 1.5-2.1 2.2-0.5-0.5-0.9-0.9-1.3-1.3 0.7-0.7 1.4-1.4 2.1-2.1-0.7-0.7-1.4-1.4-2.1-2.1 0.4-0.4 0.8-0.8 1.2-1.2 0.7 0.7 1.3 1.4 2 2.1 0.9-0.9 1.6-1.6 2.3-2.3z"></path>
</svg>
