<?xml version="1.0" encoding="utf-8"?>
<!-- Generator: Adobe Illustrator 21.1.0, SVG Export Plug-In . SVG Version: 6.00 Build 0)  -->
<!DOCTYPE svg PUBLIC "-//W3C//DTD SVG 1.1//EN" "http://www.w3.org/Graphics/SVG/1.1/DTD/svg11.dtd">
<svg version="1.1" id="Layer_1" xmlns="http://www.w3.org/2000/svg" xmlns:xlink="http://www.w3.org/1999/xlink" x="0px" y="0px"
	 viewBox="0 0 32 32" style="enable-background:new 0 0 32 32;" xml:space="preserve">
<title>angular</title>
<title>logo</title>
<desc>Created with Sketch.</desc>
<g id="Tv6X0i_1_">
	<g>
		<path d="M22.3,19.3c0-2.2,0-4.5,0-6.7c2.2,0,4.4,0,6.6,0c0,2.2,0,4.5,0,6.7C26.7,19.3,24.5,19.3,22.3,19.3z"/>
		<path d="M3.1,16c0-1.9,1.5-3.4,3.4-3.4c1.9,0,3.4,1.5,3.4,3.4c0,1.9-1.5,3.4-3.4,3.4C4.6,19.4,3.1,17.9,3.1,16z"/>
		<path d="M18.1,12.6c0.5,0.5,0.9,0.9,1.3,1.3c-0.7,0.7-1.4,1.4-2.1,2.1c0.7,0.7,1.5,1.4,2.1,2.1c-0.4,0.4-0.8,0.8-1.3,1.3
			c-0.7-0.7-1.4-1.4-2.1-2.1c-0.8,0.8-1.5,1.5-2.1,2.2c-0.5-0.5-0.9-0.9-1.3-1.3c0.7-0.7,1.4-1.4,2.1-2.1c-0.7-0.7-1.4-1.4-2.1-2.1
			c0.4-0.4,0.8-0.8,1.2-1.2c0.7,0.7,1.3,1.4,2,2.1C16.7,14,17.4,13.3,18.1,12.6z"/>
	</g>
</g>
</svg>
