<?xml version="1.0" encoding="utf-8"?>
<!-- Generator: Adobe Illustrator 22.0.1, SVG Export Plug-In . SVG Version: 6.00 Build 0)  -->
<!DOCTYPE svg PUBLIC "-//W3C//DTD SVG 1.1//EN" "http://www.w3.org/Graphics/SVG/1.1/DTD/svg11.dtd">
<svg version="1.1" id="Layer_1" xmlns="http://www.w3.org/2000/svg" xmlns:xlink="http://www.w3.org/1999/xlink" x="0px" y="0px"
	 viewBox="0 0 32 32" style="enable-background:new 0 0 32 32;" xml:space="preserve">
<title>angular</title>
<g>
	<path d="M19.8,18.4c0,0.8,0.5,0.8,1,0.8c0.7,0,1.1-0.2,1.4-0.1c0,0-0.1-0.3-0.6-0.3c0.1-0.1,0.1-0.3,0.1-0.5
		c-0.1-0.8-0.5-1.4-1-1.4C20.1,17,19.8,17.6,19.8,18.4L19.8,18.4z M20.6,17.5c0.1,0,0.3,0.1,0.3,0.3c0,0,0,0,0,0
		c0,0.1-0.1,0.3-0.3,0.3c-0.1,0-0.3-0.1-0.3-0.3C20.3,17.6,20.4,17.5,20.6,17.5C20.6,17.5,20.6,17.5,20.6,17.5z M12.8,19.4
		c0.1,0,0.1,0,0.2,0c0,0,0.1,0,0.2,0c0.5,0,0.9,0,0.9-0.8c0-0.8-0.4-1.5-0.9-1.4c-0.5,0-1,0.7-1,1.5c0,0.2,0,0.4,0.1,0.5
		c-0.4,0.1-0.6,0.4-0.6,0.4C12,19.3,12.3,19.4,12.8,19.4L12.8,19.4z M13.2,17.6c0.1,0,0.3,0.1,0.3,0.3c0,0.1-0.1,0.3-0.3,0.3
		c-0.1,0-0.3-0.1-0.3-0.3c0,0,0,0,0,0C13,17.8,13.1,17.7,13.2,17.6C13.2,17.6,13.2,17.6,13.2,17.6L13.2,17.6z M14.4,9.1h1.4V8.5h0.3
		v2.7h-0.5v1.5h2.5v-1.5h-0.5V8.5H18v0.6h1.4v-2h-5.1L14.4,9.1L14.4,9.1z"/>
	<path d="M27.9,13c0-0.2,0-0.3,0-0.5c0-0.1,0-0.2,0-0.3c0-0.1,0-0.2-0.1-0.3l0-0.1l0,0c-0.3-0.2-0.6-0.4-0.9-0.5
		c-0.2-0.1-0.5-0.2-0.8-0.3c-0.7-2-1.9-3.7-3.5-4.9c-1.7-1.3-3.6-1.9-5.6-1.9c-2,0-4,0.7-5.6,1.9c-1.3,1-2.3,2.2-3,3.7h0
		c-0.2,0.4-0.4,0.8-0.5,1.2c-0.3,0.1-0.5,0.2-0.8,0.3c-0.3,0.1-0.6,0.3-0.9,0.5l0,0l0,0.1c0,0.1,0,0.2-0.1,0.3c0,0.1,0,0.2,0,0.3
		c0,0.1,0,0.2,0,0.4h0c0,0,0,0.1,0,0.1c0,0.3,0,0.7,0,1c0,0.3,0.1,0.7,0.2,1c0,0.2,0.1,0.3,0.2,0.5c0,0.1,0.1,0.2,0.1,0.2
		c0,0,0,0.1,0.1,0.1l0,0.1c0,0,0,0,0,0.1l0,0.1l0.1,0c0.1,0,0.1,0.1,0.2,0.1L7,16.3c0,0,0.1,0,0.1,0c-0.7,0.6-1.5,1.5-2.1,2.5
		l-0.8,1.3l1.2-1c0,0,1-0.9,2.6-1.8l0,0.2L8,18l0.3,2.4c0,0,0,0.1,0.1,0.1L9,21c0,0,0,0.1,0,0.1c0,0,0,0.1,0,0.1l0.1,0.4
		c0.3,1,0.7,1.8,1.3,2.6c0,0-0.1,0-0.1,0c-0.3-0.1-1.4-0.7-1.8-0.8L7.8,23l0.5,0.7c0,0.1,0.8,1.3,1.5,2.1c0.6,0.8,1.4,1.6,3,1.6
		c0.2,0,0.4,0,0.6,0c0.5-0.1,0.8-0.1,1.1-0.1c1.7,0.6,3.5,0.6,5.2,0c0.5-0.2,0.9-0.4,1.3-0.6c0,0,0,0,0,0c0.6-0.2,1.4-0.3,1.7-0.4
		c0.1,0,0.1,0,0.2-0.1c0.5-0.1,1.3-0.3,1.8-1.2c0.5-0.9,1.2-2.3,1.2-2.3l0.3-0.6l-0.7,0.3c0,0-0.9,0.4-1.3,0.6c0,0,0,0-0.1,0
		c0.4-0.7,0.5-1.3,0.6-1.5l0.2-1l0.7-1.6c0,0,0.2-1.7,0.2-1.7l0.1-0.7c0.1,0,0.4-0.1,0.5-0.1c0.1,0,0.2-0.1,0.3-0.1l0.2-0.1
		c0.1,0,0.1,0,0.2-0.1l0.1,0l0-0.1c0,0,0,0,0-0.1l0-0.1c0,0,0-0.1,0.1-0.1c0-0.1,0.1-0.2,0.1-0.2c0.1-0.2,0.1-0.3,0.2-0.5
		c0.1-0.3,0.2-0.7,0.2-1C27.9,13.7,27.9,13.4,27.9,13L27.9,13z M12,17.2c0,0,0.6-0.4,1.7-0.9c1.1-0.1,2.2-0.1,3.4-0.1
		c0.3,0,0.6,0,0.9,0c-0.2,0.2-0.4,0.3-0.6,0.4l-0.7,0.4c-0.5,0.1-0.9,0.2-0.9,0.2c0,0,0,0,0,0c0,0-0.1,0.1-0.1,0.1l-0.7,2.4
		l-3.9,0.9l-1.2-0.9l-0.4-2.9c0.7-0.1,1.7-0.3,2.8-0.4c-0.1,0.1-0.2,0.3-0.4,0.5l-0.7,1L12,17.2z M17.3,27.4c-0.7,0-1.3,0-2-0.2
		c0.1,0,0.1,0,0.1,0c0.1,0,1.2-0.2,1.7-0.9l0,0l0.1,0c0.1,0,0.2,0,0.2,0c0.2,0,0.4,0,0.6-0.1c0,0,0,0,0.1,0.1
		c0.4,0.4,0.9,0.6,1.4,0.7C18.8,27.2,17.9,27.4,17.3,27.4L17.3,27.4z M17.3,26c0.1-0.2,0.2-0.4,0.2-0.5c0.1,0.2,0.3,0.3,0.4,0.5
		c-0.1,0-0.3,0-0.4,0C17.5,26,17.5,26,17.3,26L17.3,26L17.3,26z M15.4,21l0.4-0.1c0.1,0,0.1-0.1,0.1-0.1l0.7-2.4c0.1,0,0.2,0,0.3,0
		c0.1,0,0.2,0,0.3,0l0.8,2.5c0,0.1,0.1,0.1,0.1,0.1l0.3,0l0.1,0l4.8,0.6c0,0,0.1,0,0.1,0l0.5-0.3l0.5-0.3l0.2-0.1
		c0,0.1-0.1,0.2-0.1,0.3c0,0.1-0.1,0.3-0.1,0.4c-0.2,0.6-0.4,1.1-0.7,1.5c-0.1,0-0.1,0-0.2,0c-0.2,0-0.5,0-0.7,0
		c-0.5,0-1.2-0.1-1.4-0.2c-0.2-0.2-0.9-0.7-1.4-1.1c0,0,0,0-0.1-0.1c-0.1-0.1-0.2-0.2-0.4-0.2c-0.2,0-0.5,0.1-1.2,0.3
		c0.4-0.3,0.4-0.7,0.4-0.7s-0.5,0.5-1.4,0.6c-0.9,0.1-1.6-0.4-1.6-0.4c0,0.1,0.1,0.3,0.3,0.5c-0.2,0-0.5,0-0.8,0c-0.1,0-0.2,0-0.3,0
		c-0.5,0-1.3,0.8-1.8,1.7c-0.3,0.1-1.1,0.3-2,0.6c-0.6-0.8-0.9-1.6-1.2-2.1c-0.1-0.3-0.2-0.5-0.2-0.5v0c0,0,0-0.1-0.1-0.2l0.2,0.2v0
		l0.6,0.4l0.2,0.1c0,0,0.1,0,0.1,0c0,0,0,0,0,0L15.4,21L15.4,21z M18.4,17.3c0-0.1-0.1-0.1-0.1-0.1c0,0-0.5-0.1-1-0.2l0.1,0
		c0.1,0,1.4-0.2,3.1-0.7c1.8,0.1,3.3,0.4,4.3,0.5l-0.4,2.5l-1.3,0.9l-3.9-0.4L18.4,17.3z M27.1,14c0,0.3-0.2,0.9-0.2,0.9l-0.1,0
		c-0.1,0-0.6-0.2-1.6-0.3c0,0,0.1,0,0.1,0c0.2,0,0.4-0.1,0.6-0.2c0.1,0,0.2-0.1,0.3-0.1c0.1-0.1,0.2-0.1,0.2-0.2
		c-1,0.3-2.9,0.2-4.7,0c-1.6-0.2-3.2-0.3-4.8-0.3c-1.6,0-3.2,0.1-4.8,0.3c-1.8,0.2-3.7,0.3-4.7,0c0.1,0.1,0.2,0.1,0.2,0.2
		c0.1,0.1,0.2,0.1,0.3,0.1c0.2,0.1,0.4,0.1,0.6,0.2c0.1,0,0.1,0,0.2,0c-0.9,0.2-1.4,0.3-1.4,0.3c0,0-0.2,0-0.2-0.1
		c-0.1-0.3-0.1-0.5-0.2-0.8c0-0.3-0.1-0.6-0.1-1c0-0.1,0-0.2,0-0.2c0-0.1,0-0.2,0-0.3c0-0.1,0.3-0.3,0.6-0.5
		c0.3-0.2,0.6-0.3,0.9-0.4c0.3-0.1,1.2-0.3,1.8-0.4c0.6-0.1,2.6-0.4,2.7-0.4c0.2-0.1,1-0.7,1.2-0.8c-0.3,0.1-4.8,0.7-5,0.8
		c1.4-3.8,4.3-5.6,8-5.6c3.8,0,6.6,1.7,8,5.5c-1.9-0.5-4.5-0.7-4.9-0.8c0.2,0.1,1,0.7,1.2,0.7c1.3,0.2,3.4,0.6,3.5,0.7
		c0.3,0.1,0.6,0.2,0.9,0.4c0.3,0.1,0.6,0.3,0.9,0.4c0.3,0.1,0.5,0.4,0.6,0.5c0,0.2,0,0.3,0,0.5C27.1,13.3,27.1,13.7,27.1,14L27.1,14
		z"/>
</g>
</svg>
